<svg width="1957" height="2068" viewBox="0 0 1957 2068" fill="none" xmlns="http://www.w3.org/2000/svg">
<mask id="mask0" mask-type="alpha" maskUnits="userSpaceOnUse" x="6" y="8" width="1944" height="2050">
<path fill-rule="evenodd" clip-rule="evenodd" d="M1932.83 1846.1C1876.38 1809.88 1759.02 1770.08 1696.79 1753.08L1695.74 1752.71C1720.48 1691.19 1723.43 1623.83 1704.14 1560.62L1527.57 1021.32C1547.33 1015.55 1565.71 1006.22 1581.66 993.845C1560.39 1003.21 1530.33 983.865 1509.59 966.861L1506.7 957.99C1578.51 990.888 1643.89 901.806 1643.89 901.806C1584.29 908.582 1510.11 863.364 1464.82 830.22L1459.96 815.311C1507.62 823.689 1556.85 785.001 1556.85 785.001C1528.49 785.863 1497.77 763.069 1470.6 734.607C1432.98 694.923 1404.99 648.051 1388.55 597.226L1316.61 377.786C1304.47 337.451 1283.35 299.991 1254.64 267.881L1339.19 139.495C1342.88 133.916 1343.14 126.917 1339.87 121.11C1336.6 115.303 1330.29 111.561 1323.3 111.279C1270.79 108.815 1185.59 169.189 1153.56 192.969C1129.5 181.671 1104 173.307 1077.68 168.08C1086.25 151.787 1095.85 135.988 1106.43 120.767C1109.44 116.402 1109.28 110.746 1106.02 106.539C1102.76 102.333 1097.08 100.445 1091.73 101.792C1056.67 110.54 1018.6 136.414 1006.79 144.793C1006.25 145.207 1005.48 145.238 1004.9 144.867C1004.33 144.497 1004.08 143.815 1004.29 143.191C1009.68 122.615 1031.99 33.6559 1014.14 25.5239C996.285 17.3919 966.616 90.3333 955.589 117.563C955.407 118.38 954.555 118.904 953.685 118.734C952.815 118.563 952.257 117.764 952.438 116.947C954.67 86.8834 958.739 4.3315 935.372 8.5207C909.51 13.0795 861.593 116.577 852.534 136.784C852.284 137.323 851.717 137.672 851.09 137.672C850.464 137.672 849.897 137.323 849.646 136.784C843.607 122.368 819.583 68.032 811.313 87.1298C803.042 106.228 812.1 140.604 815.776 154.034C815.993 154.685 815.706 155.391 815.083 155.742C814.459 156.093 813.661 155.998 813.151 155.512C788.207 134.566 745.542 134.073 716.135 136.784C710.941 137.209 706.483 140.425 704.708 145.026C702.933 149.626 704.165 154.776 707.864 158.223C712.451 162.579 716.706 167.231 720.599 172.146C690.089 180.011 661.013 192.139 634.348 208.124L627.521 203.811C573.04 161.796 488.496 108.322 455.808 151.323C451.394 157.13 450.934 164.802 454.626 171.037L534.05 304.229C511.182 339.497 496.426 378.864 490.728 419.801L450.688 617.31C440.662 667.677 418.477 715.221 385.836 756.293C362.468 785.494 334.9 809.89 306.937 812.6C306.937 812.6 361.418 844.882 407.497 830.343L404.346 845.991C364.175 884.433 297.222 938.4 237.359 939.262C237.359 939.262 311.663 1016.02 377.172 980.168L374.808 992.12C356.954 1010.23 332.799 1028.71 312.319 1022.68C328.404 1032.07 346.14 1038.7 364.7 1042.27L250.749 1604.36C243.779 1653.2 249.453 1702.91 267.291 1749.26L266.503 1749.5C216.485 1760.71 95.3145 1802.98 24.2924 1845.98C-10.4967 1867.05 11.0331 1914.85 54.7492 1914.11L405.134 1907.71C411.085 1911.16 417.168 1914.4 423.382 1917.44V1921.51C423.907 1950.21 414.586 1973.75 384.129 1975.23C363.65 1976.21 347.109 1987.42 343.958 2001.22C337.788 2027.71 351.572 2049.15 379.666 2051L490.334 2057.16C524.992 2059.13 558.468 2043.24 576.06 2015.15C581.76 2006.06 585.673 1996.09 587.612 1985.7L594.176 1952.92H1294.68L1299.28 1978.43C1304.61 2008.39 1325.99 2033.66 1355.86 2045.33C1365.13 2048.92 1375.11 2050.6 1385.14 2050.26L1505.65 2046.57C1534.53 2043.85 1545.16 2027.22 1542.28 2001.1C1541.36 1992.6 1534.14 1970.91 1510.11 1969.68C1489.37 1968.57 1477.03 1959.09 1473.22 1942.7C1503.42 1935.14 1532.3 1923.52 1558.95 1908.2L1902.38 1914.36C1946.09 1914.98 1967.1 1868.03 1932.83 1846.1V1846.1Z" fill="white"/>
</mask>
<g mask="url(#mask0)">
<path d="M-5.37695 -161.265H1990.73V2148.71H-5.37695V-161.265Z" fill="#F4A792"/>
<path d="M595.095 1968.08C587.744 1950.09 599.296 1898.1 622.27 1794.11C636.054 1731.88 646.951 1691.35 653.777 1664.73C704.714 1465.25 674.913 1443.44 719.417 1324.67C749.742 1243.47 781.249 1163.01 865.137 1125.07C875.114 1120.51 951.65 1087.24 1029.24 1116.44C1106.82 1145.64 1135.83 1215.75 1167.47 1291.28C1205.68 1382.58 1193.73 1414.12 1237.05 1642.8C1246.11 1690.36 1255.04 1737.92 1264.09 1785.48C1269.48 1813.45 1274.6 1841.3 1279.85 1869.26C1292.19 1934.81 1292.45 1935.92 1292.19 1938.51C1279.45 2035.23 653.383 2111.74 595.095 1968.08Z" fill="#F7EBDA"/>
</g>
<mask id="mask1" mask-type="alpha" maskUnits="userSpaceOnUse" x="6" y="8" width="1944" height="2050">
<path fill-rule="evenodd" clip-rule="evenodd" d="M1932.83 1846.1C1876.38 1809.88 1759.02 1770.08 1696.79 1753.08L1695.74 1752.71C1720.48 1691.19 1723.43 1623.83 1704.14 1560.62L1527.57 1021.32C1547.33 1015.55 1565.71 1006.22 1581.66 993.845C1560.39 1003.21 1530.33 983.865 1509.59 966.861L1506.7 957.99C1578.51 990.888 1643.89 901.806 1643.89 901.806C1584.29 908.582 1510.11 863.364 1464.82 830.22L1459.96 815.311C1507.62 823.689 1556.85 785.001 1556.85 785.001C1500.27 786.726 1433.84 693.701 1405.88 650.331L1316.61 377.786C1304.47 337.451 1283.35 299.991 1254.64 267.881L1350.87 121.752C1308.34 82.4477 1192.29 164.384 1153.56 192.969C1129.5 181.671 1104 173.307 1077.68 168.08C1086.26 151.829 1095.86 136.071 1106.43 120.89C1113.12 111.279 1103.54 98.8349 1091.73 101.792C1056.67 110.54 1018.6 136.414 1006.79 144.793C1006.25 145.207 1005.48 145.238 1004.9 144.867C1004.33 144.497 1004.08 143.815 1004.29 143.191C1009.68 122.615 1031.86 33.6559 1014.14 25.5239C996.417 17.3919 966.616 90.3333 955.589 117.563C955.407 118.38 954.555 118.904 953.685 118.734C952.815 118.563 952.257 117.764 952.438 116.947C954.67 86.8834 958.739 4.3315 935.372 8.5207C909.51 13.0795 861.724 116.577 852.534 136.784C852.335 137.411 851.721 137.84 851.025 137.84C850.328 137.84 849.714 137.411 849.515 136.784C843.345 122.368 819.452 68.1552 811.181 87.1298C802.911 106.104 811.969 140.48 815.645 154.034C815.861 154.685 815.575 155.391 814.952 155.742C814.328 156.093 813.53 155.998 813.019 155.512C788.076 134.566 745.41 134.073 716.004 136.784C710.81 137.209 706.352 140.425 704.577 145.026C702.802 149.626 704.033 154.776 707.733 158.223C712.319 162.579 716.575 167.231 720.467 172.146C689.957 180.011 660.882 192.139 634.217 208.124L627.39 203.811C568.971 158.716 475.894 100.437 449.375 162.412L534.05 304.352C511.182 339.62 496.426 378.987 490.728 419.925L439.792 671.276C417.08 715.017 362.993 807.179 306.937 812.6C306.937 812.6 361.418 844.882 407.497 830.343L404.346 845.991C364.175 884.433 297.222 938.4 237.359 939.262C237.359 939.262 311.663 1016.02 377.172 980.168L374.808 992.12C356.954 1010.23 332.799 1028.71 312.319 1022.68C328.404 1032.07 346.14 1038.7 364.7 1042.27L250.749 1604.36C243.779 1653.2 249.453 1702.91 267.291 1749.26L266.503 1749.5C216.485 1760.71 95.3145 1802.98 24.2924 1845.98C-10.4967 1867.05 11.0331 1914.85 54.7492 1914.11L405.134 1907.71C411.085 1911.16 417.168 1914.4 423.382 1917.44V1921.51C423.907 1950.21 414.586 1973.75 384.129 1975.23C363.65 1976.21 347.109 1987.42 343.958 2001.22C337.788 2027.71 351.572 2049.15 379.666 2051L490.334 2057.16C524.992 2059.13 558.468 2043.24 576.06 2015.15C581.76 2006.06 585.673 1996.09 587.612 1985.7L594.176 1952.92H1294.68L1299.28 1978.43C1304.61 2008.39 1325.99 2033.66 1355.86 2045.33C1365.13 2048.92 1375.11 2050.6 1385.14 2050.26L1505.65 2046.57C1534.53 2043.85 1545.16 2027.22 1542.28 2001.1C1541.36 1992.6 1534.14 1970.91 1510.11 1969.68C1489.37 1968.57 1477.03 1959.09 1473.22 1942.7C1503.42 1935.14 1532.3 1923.52 1558.95 1908.2L1902.38 1914.36C1946.09 1914.98 1967.1 1868.03 1932.83 1846.1V1846.1Z" fill="white"/>
</mask>
<g mask="url(#mask1)">
<g style="mix-blend-mode:multiply">
<path opacity="0.2" fill-rule="evenodd" clip-rule="evenodd" d="M741.735 205.044C634.742 234.122 566.608 347.723 529.456 500.259C520.791 535.867 512.915 578.129 505.301 624.58C494.954 687.891 485.297 759.128 475.337 832.589L475.337 832.592C466.341 898.948 457.099 967.119 446.881 1032.9C441.96 1040.15 437.582 1046.35 433.661 1051.91C415.516 1077.61 407.186 1089.42 400.277 1126.3C382.814 1220.38 376.515 1326.45 371.625 1408.79C369.016 1452.73 366.808 1489.91 363.519 1514.91C358.21 1555.14 355.23 1595.61 354.592 1636.15V1640.34C385.442 1672.37 417.081 1749.75 423.645 1858.18L425.351 1918.55C425.351 1918.55 384.261 1917.56 319.015 1917.56C237.622 1917.56 173.557 1779.94 215.042 1574.79C252.325 1390.59 125.771 446.785 125.771 446.785L496.111 392.202C496.111 392.202 526.962 225.004 720.599 172.269L741.735 205.044ZM654.171 1654.75C622.27 1836.74 725.456 1874.44 744.098 1878.51C857.654 1897.6 1037.9 1889.35 1096.58 1869.88C1151.46 1851.65 1267.11 1797.8 1238.36 1636.39L1294.81 1952.8H594.308L654.171 1654.75ZM1565.38 1645.02C1517.6 1686.29 1478.34 1798.91 1478.34 1798.91L1473.36 1952.92L1524.16 1975.23C1719.77 2026.98 1791.97 1711.55 1791.97 1711.55L1706.25 1568.26C1700.73 1670.89 1672.77 1729.42 1602.27 1753.08C1583.89 1759.24 1513.66 1737.43 1565.38 1645.02Z" fill="#7F7F7F"/>
<g style="mix-blend-mode:multiply" opacity="0.4">
<path d="M1382.38 125.818C1382.38 125.818 1332.49 93.7834 1248.47 176.951L1204.23 226.852L1277.88 284.146L1382.38 125.818Z" fill="url(#paint0_linear)"/>
</g>
<g style="mix-blend-mode:multiply" opacity="0.4">
<path d="M410.91 175.103C410.91 175.103 447.012 151.816 504.906 174.118C529.148 183.588 550.555 198.477 567.264 217.488L586.825 239.543L537.332 307.186L410.91 175.103Z" fill="url(#paint1_linear)"/>
</g>
</g>
</g>
<mask id="mask2" mask-type="alpha" maskUnits="userSpaceOnUse" x="6" y="8" width="1944" height="2050">
<path fill-rule="evenodd" clip-rule="evenodd" d="M1932.83 1846.1C1876.38 1809.88 1759.02 1770.08 1696.79 1753.08L1695.74 1752.71C1720.48 1691.19 1723.43 1623.83 1704.14 1560.62L1527.57 1021.32C1547.33 1015.55 1565.71 1006.22 1581.66 993.845C1560.39 1003.21 1530.33 983.865 1509.59 966.861L1506.7 957.99C1578.51 990.888 1643.89 901.806 1643.89 901.806C1584.29 908.582 1510.11 863.364 1464.82 830.22L1459.96 815.311C1507.62 823.689 1556.85 785.001 1556.85 785.001C1500.27 786.726 1433.84 693.701 1405.88 650.331L1316.61 377.786C1304.47 337.451 1283.35 299.991 1254.64 267.881L1350.87 121.752C1308.34 82.4477 1192.29 164.384 1153.56 192.969C1129.5 181.671 1104 173.307 1077.68 168.08C1086.26 151.829 1095.86 136.071 1106.43 120.89C1113.12 111.279 1103.54 98.8349 1091.73 101.792C1056.67 110.54 1018.6 136.414 1006.79 144.793C1006.25 145.207 1005.48 145.238 1004.9 144.867C1004.33 144.497 1004.08 143.815 1004.29 143.191C1009.68 122.615 1031.86 33.6559 1014.14 25.5239C996.417 17.3919 966.616 90.3333 955.589 117.563C955.407 118.38 954.555 118.904 953.685 118.734C952.815 118.563 952.257 117.764 952.438 116.947C954.67 86.8834 958.739 4.3315 935.372 8.5207C909.51 13.0795 861.724 116.577 852.534 136.784C852.335 137.411 851.721 137.84 851.025 137.84C850.328 137.84 849.714 137.411 849.515 136.784C843.345 122.368 819.452 68.1552 811.181 87.1298C802.911 106.104 811.969 140.48 815.645 154.034C815.861 154.685 815.575 155.391 814.952 155.742C814.328 156.093 813.53 155.998 813.019 155.512C788.076 134.566 745.41 134.073 716.004 136.784C710.81 137.209 706.352 140.425 704.577 145.026C702.802 149.626 704.033 154.776 707.733 158.223C712.319 162.579 716.575 167.231 720.467 172.146C689.957 180.011 660.882 192.139 634.217 208.124L627.39 203.811C568.971 158.716 475.894 100.437 449.375 162.412L534.05 304.352C511.182 339.62 496.426 378.987 490.728 419.925L439.792 671.276C417.08 715.017 362.993 807.179 306.937 812.6C306.937 812.6 361.418 844.882 407.497 830.343L404.346 845.991C364.175 884.433 297.222 938.4 237.359 939.262C237.359 939.262 311.663 1016.02 377.172 980.168L374.808 992.12C356.954 1010.23 332.799 1028.71 312.319 1022.68C328.404 1032.07 346.14 1038.7 364.7 1042.27L250.749 1604.36C243.779 1653.2 249.453 1702.91 267.291 1749.26L266.503 1749.5C216.485 1760.71 95.3145 1802.98 24.2924 1845.98C-10.4967 1867.05 11.0331 1914.85 54.7492 1914.11L405.134 1907.71C411.085 1911.16 417.168 1914.4 423.382 1917.44V1921.51C423.907 1950.21 414.586 1973.75 384.129 1975.23C363.65 1976.21 347.109 1987.42 343.958 2001.22C337.788 2027.71 351.572 2049.15 379.666 2051L490.334 2057.16C524.992 2059.13 558.468 2043.24 576.06 2015.15C581.76 2006.06 585.673 1996.09 587.612 1985.7L594.176 1952.92H1294.68L1299.28 1978.43C1304.61 2008.39 1325.99 2033.66 1355.86 2045.33C1365.13 2048.92 1375.11 2050.6 1385.14 2050.26L1505.65 2046.57C1534.53 2043.85 1545.16 2027.22 1542.28 2001.1C1541.36 1992.6 1534.14 1970.91 1510.11 1969.68C1489.37 1968.57 1477.03 1959.09 1473.22 1942.7C1503.42 1935.14 1532.3 1923.52 1558.95 1908.2L1902.38 1914.36C1946.09 1914.98 1967.1 1868.03 1932.83 1846.1V1846.1Z" fill="white"/>
</mask>
<g mask="url(#mask2)">
<g style="mix-blend-mode:overlay" opacity="0.2">
<path d="M1075.97 171.53C1075.97 171.53 1153.43 212.806 1182.31 251.371C1211.19 289.936 1240.2 357.703 1268.43 474.384C1345.75 793.133 1569.58 1316.17 1630.1 1568.5C1690.62 1820.84 1523.5 1920.89 1523.5 1920.89L1603.72 1877.15C1603.72 1877.15 1686.42 1784.99 1698.89 1744.57C1726.2 1655.98 1881.37 1703.91 1852.75 1562.59C1811.14 1357.44 1451.43 366.821 1451.43 366.821C1451.43 366.821 1289.43 329.98 1252.94 269.114C1225.76 223.772 1156.84 189.396 1090.02 170.667L1075.97 171.53Z" fill="white"/>
</g>
</g>
<path d="M1294.81 1960.24C1298.27 1960.24 1301.06 1957.44 1301.06 1953.99C1301.06 1950.54 1298.27 1947.74 1294.81 1947.74V1960.24ZM594.308 1947.74C590.856 1947.74 588.058 1950.54 588.058 1953.99C588.058 1957.44 590.856 1960.24 594.308 1960.24V1947.74ZM1534.56 1023.83C1533.49 1020.55 1529.96 1018.76 1526.68 1019.84C1523.4 1020.91 1521.61 1024.44 1522.68 1027.72L1534.56 1023.83ZM1704.14 1561.73L1710.13 1559.93L1710.11 1559.86L1710.08 1559.78L1704.14 1561.73ZM1471.83 1937.58C1468.49 1938.42 1466.45 1941.81 1467.29 1945.16C1468.13 1948.51 1471.53 1950.54 1474.88 1949.7L1471.83 1937.58ZM420.606 1924.22C423.699 1925.75 427.449 1924.49 428.982 1921.4C430.515 1918.3 429.25 1914.55 426.158 1913.02L420.606 1924.22ZM250.749 1605.48L244.624 1604.24L244.586 1604.42L244.56 1604.61L250.749 1605.48ZM370.169 1047.6C370.855 1044.21 368.668 1040.92 365.285 1040.23C361.902 1039.55 358.604 1041.73 357.918 1045.12L370.169 1047.6ZM1294.81 1947.74H594.308V1960.24H1294.81V1947.74ZM1522.68 1027.72L1698.2 1563.67L1710.08 1559.78L1534.56 1023.83L1522.68 1027.72ZM1698.16 1563.53C1748.2 1729.62 1640.28 1895.32 1471.83 1937.58L1474.88 1949.7C1649.33 1905.94 1762.49 1733.72 1710.13 1559.93L1698.16 1563.53ZM426.158 1913.02C311.185 1856.03 238.713 1736.35 256.939 1606.35L244.56 1604.61C225.502 1740.55 301.376 1865.12 420.606 1924.22L426.158 1913.02ZM256.875 1606.72L370.169 1047.6L357.918 1045.12L244.624 1604.24L256.875 1606.72Z" fill="#31323D"/>
<path d="M656.927 1656.25C654.695 1675.11 651.938 1693.72 649.05 1712.45L644.455 1740.42L639.467 1768.27C636.053 1786.88 632.378 1805.37 628.833 1823.98L617.937 1879.56L596.144 1990.84C595.053 1995.92 593.516 2000.91 591.55 2005.75C589.597 2010.61 587.226 2015.3 584.461 2019.8C578.932 2028.81 571.832 2036.9 563.456 2043.71C546.555 2057.32 525.42 2065.45 503.199 2066.87L494.928 2067.12H486.92L471.823 2066.26L441.76 2064.66L381.634 2061.21H375.464L373.101 2060.84C370.115 2060.35 367.174 2059.65 364.305 2058.74C358.331 2056.8 352.838 2053.74 348.157 2049.74C343.495 2045.7 339.784 2040.79 337.261 2035.33C334.895 2030.04 333.518 2024.41 333.192 2018.69C332.87 2013.24 333.311 2007.77 334.504 2002.42L334.767 2001.44V1999.34L335.161 1997.99C335.702 1996.46 336.36 1994.98 337.13 1993.55C338.582 1990.8 340.39 1988.24 342.512 1985.91C346.562 1981.48 351.46 1977.8 356.953 1975.06C362.19 1972.46 367.808 1970.59 373.626 1969.52C376.484 1968.96 379.379 1968.59 382.29 1968.41L385.835 1968.16L388.592 1967.79C390.522 1967.48 392.413 1966.99 394.237 1966.31C395.99 1965.72 397.664 1964.93 399.225 1963.97C405.264 1960.28 409.334 1953.62 411.565 1945.73C413.704 1937.35 414.5 1928.71 413.929 1920.1L412.747 1891.88L410.253 1835.31C409.465 1816.46 408.546 1797.6 407.89 1778.75V1779.36C407.102 1773.2 406.183 1767.16 405.264 1761C404.739 1757.92 404.214 1754.96 403.689 1751.88C403.164 1748.8 402.507 1745.84 401.851 1742.89C401.194 1739.93 400.538 1736.85 399.75 1733.89L397.387 1725.02C395.724 1719.1 393.799 1713.27 391.611 1707.52C390.561 1704.68 389.379 1701.85 388.198 1699.01C387.016 1696.18 385.835 1693.35 384.391 1690.63L382.421 1686.44L380.321 1682.38L378.089 1678.31L375.726 1674.24L373.363 1670.3L370.869 1666.36L365.618 1658.59C363.78 1656.01 361.942 1653.54 359.973 1650.95L357.084 1647.26L354.065 1643.56C353.014 1642.4 353.161 1640.66 354.393 1639.68C355.626 1638.69 357.477 1638.83 358.529 1639.98L365.618 1646.89C367.893 1649.27 370.125 1651.69 372.313 1654.16C374.545 1656.62 376.645 1659.09 378.614 1661.67L381.634 1665.62L384.522 1669.56C386.491 1672.27 388.329 1674.86 390.036 1677.69L392.661 1681.88L395.156 1686.07C396.818 1688.87 398.35 1691.74 399.75 1694.7C401.194 1697.66 402.638 1700.49 403.951 1703.57C406.577 1709.49 408.94 1715.53 411.04 1721.69C413.141 1727.85 414.979 1734.01 416.554 1740.18C417.342 1743.3 418.086 1746.42 418.786 1749.54C419.442 1752.62 420.23 1755.83 420.755 1758.91C421.937 1765.19 422.987 1771.48 423.906 1777.76V1778.38C425.087 1797.23 426.006 1816.09 427.056 1834.82L430.076 1891.26L431.52 1919.48C431.827 1924.53 431.783 1929.6 431.389 1934.64C431.041 1939.84 430.207 1944.99 428.894 1950.05C428.187 1952.68 427.311 1955.27 426.269 1957.81C425.135 1960.46 423.774 1963.01 422.199 1965.45C418.949 1970.55 414.56 1974.92 409.334 1978.27C404.093 1981.53 398.195 1983.76 392.005 1984.8L387.41 1985.42L383.472 1985.66C381.4 1985.78 379.338 1986.02 377.302 1986.4C373.265 1987.18 369.372 1988.5 365.749 1990.34C362.308 1992.06 359.236 1994.36 356.691 1997.12C355.553 1998.36 354.583 1999.73 353.803 2001.19C353.037 2002.63 352.506 2004.16 352.227 2005.75C351.367 2009.64 351.058 2013.62 351.308 2017.58C351.524 2021.27 352.412 2024.89 353.934 2028.3C355.421 2031.53 357.613 2034.42 360.366 2036.8C363.153 2039.15 366.411 2040.95 369.95 2042.1C371.836 2042.69 373.767 2043.14 375.726 2043.46L377.039 2043.71H382.159L442.285 2047.03L472.348 2048.76L487.445 2049.62H501.229C519.401 2048.52 536.71 2041.95 550.59 2030.89C557.435 2025.39 563.248 2018.85 567.788 2011.54C572.344 2004.19 575.623 1996.2 577.503 1987.88L600.345 1876.84L611.767 1821.26C615.574 1802.78 619.381 1784.29 623.319 1765.81L629.489 1738.08L636.053 1710.48C640.517 1692.11 645.243 1673.75 650.494 1655.51C650.712 1653.84 652.328 1652.66 654.104 1652.86C655.881 1653.07 657.144 1654.58 656.927 1656.25V1656.25Z" fill="#31323D"/>
<path fill-rule="evenodd" clip-rule="evenodd" d="M1244.14 1648.61L1241.25 1637.03C1240.61 1636.25 1239.56 1635.86 1238.53 1636.02C1237.49 1636.17 1236.62 1636.84 1236.26 1637.77L1237.58 1649.6C1237.65 1650.25 1237.73 1650.92 1237.81 1651.62C1238.72 1659.28 1239.97 1669.9 1241.78 1682.99C1242.7 1690.26 1243.75 1698.15 1245.06 1706.78L1249.26 1734.75L1254.25 1766.42L1260.16 1801.55L1289.04 1968.65L1291.01 1980.12V1981.84L1291.27 1983.32L1291.93 1986.15C1291.98 1986.35 1292.03 1986.57 1292.09 1986.8C1292.16 1987.13 1292.24 1987.46 1292.32 1987.76L1292.71 1989.36L1293.63 1992.56C1296.27 2000.9 1300.11 2008.86 1305.05 2016.22C1315.12 2031.28 1329.37 2043.46 1346.28 2051.47L1352.71 2054.3L1354.28 2054.92L1356.12 2055.54L1359.67 2056.65C1364.37 2058.01 1369.21 2058.96 1374.11 2059.48L1381.46 2059.97H1388.55L1401.68 2059.6L1454.32 2058L1480.71 2057.14L1493.83 2056.65L1500.4 2056.4H1507.88L1511.16 2056.03L1512.87 2055.78L1514.84 2055.41L1518.78 2054.55L1522.45 2053.44C1527.65 2051.78 1532.49 2049.28 1536.76 2046.05C1541.1 2042.61 1544.63 2038.38 1547.13 2033.6C1547.24 2033.39 1547.35 2033.19 1547.46 2032.99C1548 2031.99 1548.51 2031.05 1548.84 2030.03L1550.15 2026.45C1550.85 2024.11 1551.37 2021.72 1551.73 2019.3C1552.08 2016.98 1552.3 2014.63 1552.38 2012.28C1552.47 2011.47 1552.44 2010.76 1552.41 2010.02C1552.4 2009.64 1552.38 2009.25 1552.38 2008.83C1552.38 2007.6 1552.38 2006.49 1552.25 2005.38L1551.99 2002.05V1998.48L1551.6 1996.51L1551.07 1994.78C1550.81 1993.55 1550.42 1992.44 1550.02 1991.33L1550.02 1991.33C1548.35 1986.71 1545.96 1982.35 1542.93 1978.39C1539.76 1974.21 1535.75 1970.65 1531.12 1967.92C1526.42 1965.24 1521.19 1963.48 1515.76 1962.74L1511.82 1962.37L1508.93 1962.12H1507.36L1506.17 1961.88L1503.81 1961.51C1497.12 1960.15 1491.6 1957.44 1488.06 1953C1486.2 1950.7 1484.78 1948.12 1483.86 1945.36C1482.87 1942.36 1482.26 1939.26 1482.02 1936.12C1481.89 1935.38 1481.89 1933.66 1481.89 1933.66V1914.18L1482.54 1870.56V1855.15L1482.94 1849.98L1483.33 1844.8C1483.37 1844.24 1483.4 1843.67 1483.43 1843.11C1483.49 1841.96 1483.55 1840.83 1483.72 1839.75L1484.91 1830.14L1485.17 1827.8L1485.56 1825.45L1486.35 1820.65L1487.14 1815.97L1487.53 1813.62L1488.06 1811.28L1490.03 1802.16L1490.55 1799.94L1491.08 1797.73L1492.26 1793.29C1497.94 1771.88 1505.72 1751 1515.49 1730.93L1518.78 1724.28L1520.35 1721.07L1522.06 1717.99L1525.34 1711.95L1525.34 1711.95C1526.39 1709.98 1527.44 1708.01 1528.62 1706.16L1534.92 1695.32L1541.09 1685.7C1549.1 1673.5 1555.93 1664.26 1560.65 1657.98L1568.01 1648.36C1569.02 1647.21 1568.85 1645.5 1567.61 1644.54C1566.38 1643.59 1564.56 1643.76 1563.54 1644.91L1554.88 1653.66L1550.28 1658.59L1544.9 1664.63C1543.12 1666.53 1541.34 1668.73 1539.46 1671.05C1539.26 1671.29 1539.06 1671.53 1538.86 1671.78L1535.58 1675.72L1532.17 1680.04L1525.08 1689.53L1517.73 1700.25C1516.41 1702.1 1515.23 1704.07 1514.05 1706.04L1510.24 1712.08L1508.27 1715.16L1506.44 1718.36L1502.63 1725.02C1501.57 1726.8 1500.6 1728.75 1499.64 1730.66C1499.41 1731.12 1499.18 1731.59 1498.95 1732.04L1495.28 1739.31C1494.35 1741.06 1493.55 1742.86 1492.75 1744.68C1492.41 1745.44 1492.08 1746.2 1491.73 1746.95L1488.19 1754.84C1483.56 1766.14 1479.57 1777.65 1476.24 1789.35C1472.56 1802.1 1469.75 1815.07 1467.84 1828.17L1466.53 1838.52C1466.26 1840.37 1466.13 1841.97 1466 1843.69L1465.61 1848.87L1465.21 1854.05V1859.71L1464.95 1870.31L1463.9 1913.94L1463.64 1925.15V1934.03C1463.64 1935.13 1463.64 1936.12 1463.77 1937.23C1464.06 1941.7 1464.9 1946.13 1466.26 1950.42C1467.78 1955.03 1470.13 1959.37 1473.22 1963.23C1476.45 1967.25 1480.52 1970.6 1485.17 1973.09C1489.64 1975.47 1494.46 1977.22 1499.48 1978.27L1503.29 1978.88L1505.25 1979.13H1506.83L1510.24 1979.38L1512.61 1979.62C1515.58 1980.04 1518.43 1981 1521.01 1982.46C1525.87 1985.42 1529.8 1990.71 1532.04 1996.88C1532.11 1997.08 1532.19 1997.3 1532.28 1997.52C1532.5 1998.09 1532.73 1998.69 1532.82 1999.22L1533.09 2000.33L1533.35 2001.31V2003.28C1533.31 2003.09 1533.13 2002.96 1532.93 2002.98C1532.72 2002.99 1532.57 2003.15 1532.57 2003.35C1532.57 2003.54 1532.72 2003.7 1532.93 2003.71C1533.13 2003.73 1533.31 2003.6 1533.35 2003.41V2003.78L1533.61 2006.49C1533.74 2007.47 1533.74 2009.2 1533.74 2009.2V2011.79C1533.67 2013.48 1533.49 2015.17 1533.22 2016.84C1532.98 2018.46 1532.63 2020.07 1532.17 2021.65L1531.38 2023.86C1531.3 2024.3 1531.09 2024.69 1530.88 2025.08C1530.72 2025.36 1530.57 2025.65 1530.46 2025.96C1529.08 2028.52 1527.16 2030.78 1524.82 2032.61C1522.25 2034.5 1519.37 2035.96 1516.28 2036.93L1513.79 2037.67L1511.29 2038.16L1510.11 2038.41L1508.54 2038.65L1505.25 2039.02L1453.53 2040.5L1400.89 2042.23L1387.76 2042.6H1381.72L1376.08 2042.23C1372.34 2041.86 1368.65 2041.16 1365.05 2040.13L1362.42 2039.27L1361.11 2038.78L1359.67 2038.28L1354.28 2035.94C1340.36 2029.41 1328.61 2019.44 1320.28 2007.1C1316.2 2001.09 1313.02 1994.58 1310.83 1987.76C1309.22 1983.04 1308.15 1977.09 1307.09 1971.18C1306.76 1969.38 1306.44 1967.58 1306.1 1965.82L1275.52 1799.08L1268.95 1764.08L1262.65 1732.53L1256.87 1704.81C1255.04 1696.3 1253.33 1688.42 1251.75 1681.39C1248.6 1667.22 1245.98 1656.13 1244.14 1648.61ZM426.006 1994.04H425.219L423.118 1994.53L419.836 1995.64L418.917 1996.01L417.867 1996.51L415.766 1997.62L413.535 1998.97L411.303 2000.57L410.121 2001.44L409.071 2002.42L406.971 2004.52L405.002 2006.98L404.083 2008.21L403.295 2009.57L401.588 2012.28L400.144 2015.24C399.947 2015.73 399.718 2016.22 399.488 2016.72C399.258 2017.21 399.028 2017.7 398.831 2018.2L397.781 2021.28L396.731 2024.23L395.943 2027.32C395.389 2029.22 394.951 2031.16 394.63 2033.11L393.843 2038.41C393.627 2039.92 393.495 2041.44 393.449 2042.97L393.186 2046.42L392.924 2049.5V2049.99C393.066 2052.96 391.385 2055.75 388.597 2057.17C385.809 2058.58 382.404 2058.38 379.831 2056.64C377.258 2054.9 375.969 2051.94 376.514 2049.01C376.537 2048.67 376.581 2048.35 376.645 2048.02L377.302 2044.69L378.089 2040.87C378.237 2040.32 378.348 2039.74 378.463 2039.15C378.655 2038.16 378.86 2037.1 379.271 2035.94L380.977 2030.15C381.642 2027.98 382.431 2025.84 383.34 2023.74L384.653 2020.41L386.36 2017.09L388.066 2013.76C388.395 2013.2 388.756 2012.65 389.117 2012.1C389.478 2011.54 389.839 2010.99 390.167 2010.43L392.399 2007.23L394.893 2004.27L396.075 2002.79L397.519 2001.44L400.275 1998.85L403.164 1996.63L404.608 1995.52L406.183 1994.66L409.071 1992.93L411.959 1991.58L414.716 1990.59L416.029 1990.1L417.342 1989.73C418.722 1989.36 420.125 1989.07 421.543 1988.87L424.431 1988.62H425.481C426.513 1988.53 427.516 1988.97 428.114 1989.76C428.711 1990.56 428.811 1991.59 428.376 1992.47C427.942 1993.36 427.038 1993.95 426.006 1994.04ZM481.8 1999.83H481.144L478.912 2000.08C476.246 2000.5 473.673 2001.33 471.298 2002.55C467.926 2004.25 464.938 2006.55 462.502 2009.32C461.092 2010.87 459.818 2012.51 458.695 2014.25C457.512 2016.07 456.459 2017.97 455.544 2019.92L454.888 2021.4L454.231 2022.88L453.575 2024.36L453.05 2025.96C452.524 2027.64 452.082 2029.32 451.656 2030.94C451.551 2031.34 451.447 2031.73 451.343 2032.12L450.687 2035.08C450.424 2036.07 450.293 2037.05 450.162 2038.04C450.031 2039.02 449.637 2041.73 449.374 2043.46C449.206 2044.57 449.145 2045.57 449.089 2046.51C449.058 2047.03 449.027 2047.53 448.98 2048.02C448.92 2048.65 448.887 2049.25 448.856 2049.81C448.821 2050.46 448.788 2051.06 448.718 2051.59V2054.92C448.936 2057.9 447.31 2060.74 444.537 2062.21C441.763 2063.68 438.336 2063.53 435.726 2061.81C433.115 2060.1 431.786 2057.13 432.308 2054.18C432.331 2053.85 432.375 2053.52 432.439 2053.19L433.096 2049.87C433.204 2049.41 433.29 2048.93 433.381 2048.42C433.511 2047.7 433.652 2046.92 433.883 2046.05C434.055 2045.4 434.202 2044.71 434.357 2043.98C434.557 2043.04 434.769 2042.04 435.065 2040.99C435.202 2040.51 435.34 2040.02 435.48 2039.52C435.874 2038.1 436.287 2036.63 436.771 2035.08L437.822 2031.88L439.003 2028.55C439.053 2028.43 439.103 2028.31 439.152 2028.19C439.231 2028 439.309 2027.81 439.388 2027.61L439.388 2027.61C440.183 2025.68 441.006 2023.68 442.023 2021.77L442.81 2020.04L443.729 2018.32L444.648 2016.59L445.698 2014.87C447.118 2012.64 448.697 2010.49 450.424 2008.46C452.097 2006.47 453.941 2004.62 455.938 2002.91C459.522 1999.81 463.712 1997.38 468.278 1995.77C471.516 1994.63 474.932 1994.01 478.387 1993.92H482.457C483.582 1994.03 484.56 1994.69 485.021 1995.66C485.482 1996.63 485.357 1997.76 484.693 1998.62C484.028 1999.48 482.926 1999.94 481.8 1999.83Z" fill="#31323D"/>
<path fill-rule="evenodd" clip-rule="evenodd" d="M1455.63 1980.86H1451.43C1450.31 1980.9 1449.29 1981.5 1448.77 1982.44C1448.25 1983.38 1448.3 1984.51 1448.9 1985.4C1449.5 1986.29 1450.57 1986.81 1451.69 1986.77H1452.61L1455.11 1987.14C1458.1 1987.72 1461.01 1988.63 1463.77 1989.85C1467.65 1991.55 1471.2 1993.84 1474.27 1996.63C1475.96 1998.18 1477.5 1999.87 1478.87 2001.68C1478.95 2001.79 1479.03 2001.9 1479.12 2002.01C1479.72 2002.79 1480.38 2003.65 1480.84 2004.52L1481.76 2006L1482.55 2007.6C1483.63 2009.67 1484.55 2011.81 1485.3 2014.01C1486 2016.15 1486.57 2018.33 1487.01 2020.54C1487.23 2021.36 1487.36 2022.36 1487.47 2023.24C1487.49 2023.42 1487.51 2023.58 1487.53 2023.74C1487.6 2024.23 1487.67 2024.76 1487.73 2025.28C1487.8 2025.81 1487.86 2026.33 1487.93 2026.82L1488.19 2029.78V2032.61C1488.28 2033.78 1488.25 2034.95 1488.22 2036.05C1488.2 2036.57 1488.19 2037.07 1488.19 2037.54C1488.19 2039.02 1488.19 2040.26 1488.06 2041.36L1487.8 2044.69V2045.06C1487.42 2048.05 1488.91 2050.97 1491.63 2052.56C1494.35 2054.15 1497.81 2054.13 1500.5 2052.5C1503.19 2050.86 1504.63 2047.92 1504.21 2044.94L1503.94 2041.12C1503.94 2039.89 1503.81 2038.53 1503.55 2036.8C1503.45 2036.14 1503.37 2035.46 1503.28 2034.75C1503.15 2033.62 1503 2032.42 1502.76 2031.14L1502.24 2027.93L1501.45 2024.48C1501.4 2024.28 1501.36 2024.08 1501.31 2023.87C1501.09 2022.93 1500.85 2021.92 1500.53 2020.91C1500.4 2020.5 1500.28 2020.09 1500.17 2019.67C1499.93 2018.85 1499.7 2018.03 1499.35 2017.21C1498.46 2014.61 1497.41 2012.06 1496.2 2009.57C1494.95 2006.97 1493.51 2004.45 1491.87 2002.05L1490.55 2000.2L1489.24 1998.48C1488.69 1997.75 1488.1 1997.1 1487.52 1996.47C1487.12 1996.03 1486.73 1995.6 1486.35 1995.15C1484.34 1993.12 1482.15 1991.27 1479.79 1989.61C1477.61 1988.05 1475.28 1986.69 1472.83 1985.54C1470.68 1984.5 1468.44 1983.64 1466.14 1982.95C1462.73 1981.87 1459.21 1981.16 1455.63 1980.86ZM1389.21 1984.8H1385C1383.88 1984.84 1382.86 1985.45 1382.34 1986.38C1381.82 1987.32 1381.87 1988.45 1382.47 1989.34C1383.08 1990.24 1384.14 1990.76 1385.27 1990.71H1386.19L1388.68 1991.08C1391.67 1991.66 1394.58 1992.57 1397.35 1993.8C1401.22 1995.49 1404.77 1997.78 1407.85 2000.57C1409.53 2002.13 1411.07 2003.82 1412.44 2005.63C1412.52 2005.73 1412.61 2005.84 1412.69 2005.95C1413.29 2006.73 1413.95 2007.6 1414.41 2008.46L1415.33 2009.94L1416.12 2011.54C1417.2 2013.61 1418.13 2015.75 1418.88 2017.95C1419.58 2020.09 1420.15 2022.27 1420.58 2024.48C1420.8 2025.31 1420.93 2026.31 1421.04 2027.19C1421.06 2027.36 1421.09 2027.53 1421.11 2027.69C1421.17 2028.18 1421.24 2028.7 1421.3 2029.23C1421.37 2029.75 1421.44 2030.27 1421.5 2030.77L1421.76 2033.72V2036.56C1421.85 2037.73 1421.82 2038.9 1421.79 2039.99C1421.78 2040.51 1421.76 2041.01 1421.76 2041.49C1421.76 2042.97 1421.76 2044.2 1421.63 2045.31L1421.37 2048.64V2049.01C1421.35 2049.29 1421.35 2049.58 1421.37 2049.87C1422.09 2053.77 1425.83 2056.54 1430.05 2056.28C1434.26 2056.03 1437.59 2052.84 1437.78 2048.88L1437.52 2045.06C1437.52 2043.83 1437.39 2042.47 1437.12 2040.75C1437.02 2040.08 1436.94 2039.4 1436.86 2038.69C1436.72 2037.56 1436.58 2036.37 1436.34 2035.08L1435.81 2031.88L1435.02 2028.42C1434.98 2028.23 1434.93 2028.02 1434.88 2027.82C1434.66 2026.87 1434.43 2025.86 1434.1 2024.85C1433.97 2024.44 1433.86 2024.03 1433.74 2023.62C1433.51 2022.8 1433.27 2021.98 1432.92 2021.15C1432.03 2018.55 1430.98 2016 1429.77 2013.51C1428.53 2010.91 1427.08 2008.4 1425.44 2006L1424.13 2004.15L1422.81 2002.42C1422.27 2001.69 1421.68 2001.04 1421.09 2000.41C1420.69 1999.97 1420.3 1999.54 1419.93 1999.09C1417.92 1997.07 1415.72 1995.21 1413.36 1993.55C1411.18 1992 1408.85 1990.64 1406.4 1989.48C1404.25 1988.45 1402.01 1987.58 1399.71 1986.89C1396.31 1985.81 1392.78 1985.11 1389.21 1984.8Z" fill="#31323D"/>
<path d="M623.855 209.405C626.479 211.428 630.247 210.942 632.27 208.318C634.294 205.694 633.808 201.927 631.184 199.903L623.855 209.405ZM455.807 152.155L460.583 155.786L460.583 155.786L455.807 152.155ZM454.625 171.873L449.462 174.93L449.467 174.938L449.471 174.945L454.625 171.873ZM528.895 308.164C530.592 311.01 534.275 311.942 537.121 310.245C539.968 308.548 540.899 304.865 539.202 302.019L528.895 308.164ZM1150.13 188.853C1147.46 190.816 1146.89 194.572 1148.85 197.241C1150.82 199.91 1154.57 200.482 1157.24 198.519L1150.13 188.853ZM1323.43 111.98L1323.16 117.974L1323.18 117.975L1323.19 117.975L1323.43 111.98ZM1339.32 140.201L1334.31 136.891L1334.31 136.902L1339.32 140.201ZM1249.76 265.314C1247.94 268.082 1248.71 271.802 1251.47 273.625C1254.24 275.447 1257.96 274.68 1259.78 271.913L1249.76 265.314ZM631.184 199.903C603.838 178.81 568.572 154.533 535.784 140.972C519.409 134.2 503.174 129.895 488.597 130.306C473.781 130.724 460.508 136.053 451.03 148.524L460.583 155.786C467.449 146.752 477.002 142.638 488.935 142.301C501.106 141.958 515.541 145.586 531.198 152.061C562.473 164.997 596.72 188.474 623.855 209.405L631.184 199.903ZM451.03 148.524C445.151 156.258 444.515 166.575 449.462 174.93L459.788 168.816C457.35 164.698 457.633 159.667 460.583 155.786L451.03 148.524ZM449.471 174.945L528.895 308.164L539.202 302.019L459.779 168.8L449.471 174.945ZM1157.24 198.519C1173.27 186.727 1202.37 165.896 1233.9 148.323C1249.66 139.537 1265.92 131.631 1281.37 126.078C1296.88 120.499 1311.18 117.439 1323.16 117.974L1323.7 105.986C1309.49 105.351 1293.5 108.961 1277.3 114.785C1261.04 120.635 1244.16 128.866 1228.06 137.841C1195.85 155.791 1166.27 176.983 1150.13 188.853L1157.24 198.519ZM1323.19 117.975C1328.23 118.178 1332.58 120.868 1334.77 124.756L1345.23 118.87C1340.88 111.141 1332.62 106.345 1323.67 105.985L1323.19 117.975ZM1334.77 124.756C1336.93 128.592 1336.77 133.178 1334.31 136.891L1344.32 143.512C1349.25 136.064 1349.61 126.649 1345.23 118.87L1334.77 124.756ZM1334.31 136.902L1249.76 265.314L1259.78 271.913L1344.33 143.501L1334.31 136.902Z" fill="#31323D"/>
<path fill-rule="evenodd" clip-rule="evenodd" d="M1092.91 164.232L1086.47 162.753C1083.64 162.049 1080.61 162.819 1078.54 164.774C1076.48 166.728 1075.68 169.57 1076.44 172.23C1077.21 174.889 1079.43 176.961 1082.27 177.665L1088.71 179.144L1091.99 179.883L1095.14 180.746L1101.31 182.471L1107.48 184.32C1115.75 186.784 1123.89 189.742 1131.9 192.823C1147.9 199.166 1163.31 206.751 1177.98 215.498C1192.63 224.283 1206.46 234.219 1219.33 245.198L1224.19 249.388L1228.78 253.702C1231.13 255.818 1233.34 258.003 1235.56 260.206C1236.32 260.953 1237.07 261.702 1237.84 262.451C1243.75 268.49 1249.39 274.652 1254.77 281.06C1260.16 287.468 1265.41 294.123 1270 300.901C1274.6 307.679 1279.06 314.704 1283.26 321.851C1287.46 328.999 1291.27 336.27 1294.68 343.787C1298.1 351.305 1301.25 358.822 1304 366.586C1304.79 368.558 1305.45 370.406 1306.1 372.378L1307.94 378.17L1311.75 390.247L1319.36 414.278L1334.59 462.34L1365.05 558.465L1371.87 582.372L1373.84 588.411L1374.89 591.369L1375.94 594.449L1378.18 600.611L1380.54 606.65C1383.56 614.66 1386.84 622.671 1390.52 630.434C1394.19 638.198 1398 645.962 1402.07 653.603C1418.36 684.132 1438.55 712.687 1462.19 738.636C1474.14 751.575 1487.01 763.899 1502.1 774.497C1509.74 779.939 1518.02 784.529 1526.78 788.177C1528.9 789.067 1531.05 789.857 1533.24 790.546C1529.34 792.738 1525.35 794.785 1521.27 796.68L1513.39 800.13L1509.46 801.609L1505.39 803.088L1497.25 805.553L1493.18 806.539L1489.11 807.401L1485.04 808.018L1482.94 808.264H1480.84L1476.77 808.511H1466.53L1464.56 808.264L1462.59 808.018L1460.62 807.648L1458.65 807.278L1457.73 807.032L1456.81 806.785L1453.01 805.799L1449.33 804.444C1448.07 803.982 1446.84 803.447 1445.65 802.842C1444.43 802.339 1443.25 801.763 1442.11 801.116L1438.7 799.145L1438.08 798.728C1435.23 796.319 1432.36 793.878 1429.64 791.504L1429.24 791.257H1429.11C1425.45 788.229 1419.87 788.56 1416.64 791.997C1413.44 795.41 1413.76 800.602 1417.35 803.64L1417.03 803.951C1420.97 807.525 1424.91 810.852 1428.98 814.179L1441.19 823.915L1453.66 833.404L1459.96 838.087L1466.4 842.647L1479.26 851.643L1485.83 855.956L1492.52 860.27C1496.98 863.104 1501.45 865.815 1506.04 868.526C1510.64 871.238 1519.83 876.414 1519.83 876.414L1534 883.808C1538.73 886.272 1543.59 888.491 1548.45 890.709L1555.8 893.913L1563.28 896.871L1567.09 898.35L1570.89 899.705L1574.7 901.061L1576.67 901.677L1578.64 902.293L1586.52 904.635L1594.52 906.606L1598.59 907.469L1602.66 908.332L1606.73 909.071L1610.93 909.687L1615.14 910.304L1619.34 910.673L1623.54 911.043H1625.17C1624.28 912 1623.38 912.947 1622.49 913.877C1617.48 919.112 1612.18 924.09 1606.6 928.789C1601.05 933.428 1595.18 937.71 1589.01 941.606C1583 945.432 1576.63 948.732 1569.98 951.464C1563.47 954.148 1556.64 956.052 1549.63 957.133C1542.76 958.157 1535.76 958.157 1528.88 957.133C1525.45 956.607 1522.07 955.824 1518.78 954.792C1515.44 953.741 1512.2 952.464 1509.06 950.971C1505.88 949.479 1502.81 947.791 1499.87 945.919C1496.87 944.008 1493.98 941.951 1491.21 939.757H1491.08C1487.75 937.003 1482.7 937.205 1479.63 940.216C1476.56 943.227 1476.57 947.973 1479.66 950.971L1480.73 952.058L1480.71 952.081C1480.78 952.139 1480.85 952.197 1480.92 952.255L1484.77 956.147L1489.89 961.077C1493.31 964.363 1496.85 967.526 1500.53 970.566C1507.87 976.782 1515.63 982.546 1523.76 987.819L1530.07 991.639L1533.35 993.488L1536.63 995.213L1540.04 996.939L1543.59 998.541C1545.99 999.564 1548.44 1000.47 1550.94 1001.25L1554.75 1002.36L1556.79 1002.81L1556.32 1003.1L1549.1 1007.04L1541.75 1010.62L1537.94 1012.22L1534.14 1013.82L1530.33 1015.3L1526.39 1016.66L1522.45 1017.89L1518.51 1019L1514.44 1019.98L1510.37 1020.85C1507.75 1021.22 1504.99 1021.59 1502.24 1021.96C1499.48 1022.33 1496.72 1022.57 1493.96 1022.57C1491.21 1022.57 1488.45 1022.57 1485.69 1022.45C1483.86 1022.37 1482.02 1022.17 1480.18 1021.98C1479.26 1021.89 1478.34 1021.79 1477.42 1021.71L1473.35 1020.97L1471.25 1020.6L1469.28 1020.11L1465.21 1019.12L1461.28 1017.89L1459.31 1017.27L1457.34 1016.53L1453.4 1015.05H1453.14C1451.47 1014.37 1449.53 1015.09 1448.8 1016.66C1448.08 1018.22 1448.84 1020.04 1450.51 1020.72L1454.58 1022.69L1456.55 1023.68L1458.65 1024.54L1462.85 1026.15L1467.18 1027.5L1469.28 1028.24L1471.52 1028.73L1475.98 1029.84C1478.87 1030.34 1481.89 1030.83 1484.91 1031.32C1487.93 1031.81 1490.81 1032.06 1493.96 1032.06C1497.12 1032.06 1500.13 1032.06 1503.15 1031.94C1506.17 1031.81 1509.19 1031.57 1512.21 1031.2L1516.68 1030.58L1521.14 1029.72L1525.6 1028.73L1530.07 1027.62L1534.4 1026.39L1538.73 1025.04L1547.13 1021.96L1555.4 1018.38L1563.41 1014.44L1571.16 1010.12C1573.65 1008.65 1576.15 1007.17 1578.64 1005.44L1582.32 1002.85L1585.99 1000.02C1588.54 997.847 1589.14 994.31 1587.44 991.503C1585.74 988.696 1582.19 987.371 1578.9 988.312L1577.98 988.558L1575.62 989.421L1573.13 989.914L1570.5 990.161H1567.74L1564.86 989.914L1561.97 989.421L1559.08 988.682L1556.06 987.696C1554.09 987.08 1552.12 986.217 1550.15 985.354L1547.26 983.999L1544.38 982.52L1541.49 980.918L1538.6 979.316L1532.95 975.742C1531.85 974.999 1530.75 974.247 1529.65 973.485C1537.16 974.342 1544.77 974.232 1552.25 973.154C1560.7 971.916 1568.95 969.68 1576.8 966.499C1584.46 963.402 1591.8 959.648 1598.73 955.285C1605.62 950.625 1612.15 945.519 1618.29 940.003C1624.36 934.959 1630.15 929.611 1635.61 923.983C1638.37 921.148 1641 918.314 1643.62 915.356L1647.43 910.92L1649.27 908.578L1651.11 906.114C1653.05 903.539 1653.24 900.139 1651.58 897.392C1649.92 894.646 1646.71 893.049 1643.36 893.297H1642.84L1635.61 893.79H1624.72L1621.04 893.543L1617.37 893.174L1613.69 892.681L1610.02 892.188L1606.34 891.448L1602.66 890.709L1598.99 889.846L1591.77 887.998L1584.55 885.78L1582.71 885.287L1580.87 884.67L1577.33 883.438L1573.78 882.206L1570.24 880.85L1563.15 878.016L1556.19 875.058C1551.6 872.963 1547 870.745 1542.41 868.526C1537.81 866.308 1533.35 864.09 1528.88 861.502C1527.17 860.509 1525.46 859.533 1523.75 858.562C1521.01 857.004 1518.29 855.456 1515.63 853.861C1511.3 851.275 1506.97 848.566 1502.64 845.856L1502.63 845.851L1496.2 841.784L1489.89 837.594L1477.29 828.968L1472.26 825.347L1473.22 825.394H1478.34L1483.33 825.024L1485.83 824.778L1488.32 824.408L1493.18 823.669L1498.03 822.683L1502.76 821.574L1502.76 821.573C1505.91 820.711 1509.06 819.848 1512.08 818.739L1516.68 817.137L1521.14 815.412L1529.94 811.591C1535.65 808.9 1541.21 805.939 1546.61 802.718L1554.62 797.666L1558.55 794.955L1560.52 793.599L1562.49 792.12C1565.51 789.926 1566.64 786.14 1565.28 782.794C1563.92 779.449 1560.39 777.331 1556.58 777.578C1548.89 777.633 1541.28 776.119 1534.27 773.142C1526.72 770.024 1519.58 766.095 1513 761.434C1499.48 751.945 1487.27 740.361 1475.85 728.037C1453.05 703.155 1433.57 675.759 1417.82 646.455C1413.88 639.184 1410.08 631.79 1406.66 624.149C1406.39 623.538 1406.12 622.928 1405.85 622.319C1402.71 615.305 1399.61 608.371 1396.95 601.227L1394.72 595.435L1392.62 589.643L1391.57 586.809L1390.52 583.851L1388.55 577.813L1380.93 553.905L1350.34 457.781L1334.99 409.719L1327.37 385.688L1323.56 373.734L1321.59 367.572C1321.27 366.524 1320.91 365.508 1320.54 364.491C1320.18 363.474 1319.82 362.458 1319.49 361.41C1316.61 353.276 1313.46 345.266 1309.65 337.379C1305.84 329.492 1301.9 321.728 1297.57 314.211C1293.24 306.693 1288.64 299.176 1283.52 292.151C1278.4 285.127 1273.02 278.102 1267.51 271.324C1261.99 264.546 1255.95 258.015 1249.78 251.73C1249.01 250.97 1248.23 250.202 1247.45 249.432C1245.07 247.083 1242.67 244.715 1240.2 242.487L1235.34 238.051L1230.36 233.737C1216.83 222.213 1202.3 211.783 1186.9 202.559C1171.49 193.34 1155.29 185.343 1138.46 178.651C1129.93 175.324 1121.39 172.243 1112.73 169.655L1106.17 167.683L1099.47 165.834L1096.19 164.972L1092.91 164.232ZM441.76 1035.14L445.305 1032.8C446.936 1032.02 447.582 1030.14 446.749 1028.61C445.915 1027.08 443.916 1026.47 442.285 1027.25L438.478 1029.23L436.64 1030.21L434.802 1031.08L431.126 1032.8L427.319 1034.28L425.35 1035.02L423.381 1035.63L419.443 1036.87C416.817 1037.48 414.06 1038.1 411.434 1038.59C408.809 1039.09 403.295 1039.7 403.295 1039.7L395.025 1040.07C392.268 1040.19 389.511 1040.07 386.754 1039.95L382.684 1039.58L378.615 1039.09L374.545 1038.47L370.475 1037.73L366.406 1036.87L362.336 1035.88L354.459 1033.54L346.714 1030.83L340.796 1028.43L344.351 1026.89C346.252 1026.04 348.001 1025.05 349.713 1024.08C350.247 1023.78 350.778 1023.48 351.309 1023.19L354.59 1021.22L357.741 1019.12L360.761 1016.9L363.78 1014.68L369.425 1010C376.708 1003.69 383.549 996.935 389.905 989.791C393.055 986.34 396.119 982.767 399.094 979.069L403.426 973.524L407.759 967.732C410.324 964.213 409.558 959.431 406.004 956.776C402.451 954.12 397.315 954.491 394.237 957.626H394.106C391.701 960.131 389.159 962.516 386.491 964.774C383.881 966.995 381.118 969.054 378.221 970.936C375.332 972.782 372.305 974.43 369.163 975.865C366.074 977.293 362.869 978.488 359.579 979.439C352.947 981.349 346.036 982.264 339.1 982.15C332.037 981.988 325.025 980.995 318.226 979.193C311.215 977.321 304.404 974.846 297.878 971.798C291.201 968.719 284.754 965.219 278.58 961.323C272.346 957.399 266.342 953.162 260.594 948.63C259.473 947.721 258.37 946.811 257.28 945.901L259.282 945.549L263.351 944.687L267.421 943.824L271.491 942.715L275.56 941.606L279.499 940.373L283.437 939.018L287.244 937.662L294.858 934.581L302.21 931.254L304.048 930.391L305.886 929.529L309.43 927.68L312.975 925.831L316.519 923.86L323.477 919.916L330.304 915.849C334.899 913.015 339.231 910.18 343.694 907.223C348.158 904.265 352.49 901.184 356.691 898.103C359.587 895.979 362.421 893.797 365.278 891.596C366.565 890.605 367.858 889.609 369.163 888.614C372.349 886.184 375.384 883.683 378.44 881.165C379.413 880.363 380.388 879.559 381.371 878.755L387.279 873.703L393.187 868.527L404.739 858.052L410.384 852.752L416.029 847.33L426.925 836.362L437.559 825.148C438.769 823.794 439.978 822.455 441.194 821.111C443.408 818.661 445.642 816.189 447.93 813.563L447.773 813.446C449.829 811.271 450.473 808.208 449.431 805.451C448.349 802.591 445.638 800.55 442.429 800.18C439.22 799.81 436.064 801.175 434.277 803.704L434.015 803.951C432.142 806.149 430.176 808.346 428.173 810.544L426.4 812.208L423.25 814.549C422.208 815.354 421.112 816.095 419.968 816.767C418.874 817.489 417.734 818.148 416.554 818.739L413.01 820.588L409.334 822.067L408.415 822.436L407.496 822.806L405.527 823.422L403.558 824.038L401.589 824.531L399.619 825.024L397.65 825.394L393.58 826.133L389.511 826.503L385.31 826.75H376.908L372.707 826.503L368.506 826.01L360.104 824.655L355.903 823.792L351.702 822.806L343.432 820.341C338.823 818.882 334.282 817.239 329.822 815.418C332.052 814.418 334.229 813.306 336.343 812.084C344.417 807.478 351.905 802.02 358.66 795.817C372.051 783.74 383.078 770.184 393.055 756.259C395.593 752.726 398.044 749.193 400.407 745.66L402.114 742.949L403.952 740.238L407.234 734.939C408.641 732.762 409.996 730.439 411.365 728.092C412.167 726.718 412.973 725.336 413.798 723.971L420.099 712.879C428.226 697.93 435.5 682.586 441.891 666.912C448.253 651.214 453.73 635.212 458.301 618.974C458.416 618.579 458.53 618.186 458.645 617.794C459.709 614.14 460.753 610.557 461.583 606.773C462.089 604.466 462.635 602.196 463.177 599.942C463.619 598.104 464.058 596.277 464.471 594.45C465.211 590.87 465.927 587.336 466.639 583.819C467.569 579.224 468.493 574.656 469.46 570.049L489.152 472.815L498.998 424.26L499.26 422.782V420.933L499.786 417.852L500.704 411.69C500.949 410.465 501.181 409.252 501.412 408.044C501.925 405.361 502.434 402.701 503.068 399.983C503.986 396.039 504.905 392.219 505.956 388.276L507.662 382.483L508.45 379.526L509.369 376.691C514.257 361.283 520.492 346.279 528.011 331.833C535.536 317.391 544.364 303.579 554.398 290.549C564.374 277.509 575.483 265.267 587.611 253.948C599.782 242.657 612.91 232.312 626.864 223.016C640.844 213.715 655.645 205.552 671.105 198.615C686.546 191.64 702.573 185.869 719.022 181.362C721.836 180.592 723.999 178.47 724.695 175.797C725.391 173.124 724.515 170.306 722.398 168.403C720.28 166.501 717.241 165.803 714.427 166.574C697.123 171.305 680.262 177.364 664.016 184.689C647.729 192.015 632.138 200.631 617.412 210.446C602.712 220.221 588.882 231.102 576.059 242.98C563.089 254.808 551.19 267.628 540.482 281.307C529.907 295.04 520.596 309.593 512.651 324.809C504.715 340.007 498.128 355.793 492.959 372.008L492.04 375.089L491.121 378.17L489.414 384.332C489.167 385.289 488.913 386.246 488.658 387.205C487.83 390.32 486.997 393.452 486.395 396.656C486.001 398.75 485.575 400.845 485.148 402.94C484.721 405.035 484.295 407.131 483.901 409.226L482.982 415.387L482.457 418.468V420.194L482.194 421.672L472.348 470.228L452.656 567.461C451.081 575.594 449.374 583.728 447.668 591.615C446.88 595.559 445.961 599.502 444.911 603.446C444.561 604.76 444.225 606.075 443.89 607.389C443.219 610.018 442.548 612.647 441.76 615.276C437.334 630.973 432.031 646.44 425.875 661.613C419.714 676.74 412.703 691.549 404.871 705.978L398.832 716.7C397.905 718.184 397.046 719.646 396.19 721.105C394.983 723.16 393.781 725.208 392.399 727.298L388.986 732.597L387.41 735.062L385.704 737.65C383.428 741.1 381.109 744.51 378.746 747.878C369.163 761.188 358.66 774.005 346.714 784.849C340.911 790.198 334.481 794.911 327.547 798.898C321.087 802.687 313.833 805.125 306.28 806.046H306.148C302.581 806.403 299.648 808.846 298.848 812.129C298.048 815.412 299.557 818.81 302.604 820.588L304.836 821.82L306.936 822.929L311.137 825.024L319.801 828.968C325.628 831.469 331.588 833.691 337.655 835.623L346.845 838.334L351.571 839.443L356.297 840.429C359.448 841.045 362.599 841.538 365.881 842.031L370.738 842.524L375.726 842.894H385.704L390.692 842.647L395.681 842.154L397.918 841.767L397.65 842.031L392.136 847.207L380.978 857.435L375.333 862.488L369.556 867.417C367.587 869.02 365.617 870.592 363.647 872.163C361.679 873.734 359.71 875.305 357.741 876.907C353.803 880.111 349.733 883.192 345.663 886.149C342.411 888.513 339.158 890.799 335.838 893.131C335.005 893.717 334.167 894.305 333.323 894.899C330.437 896.931 327.488 898.789 324.563 900.632C323.231 901.471 321.904 902.308 320.589 903.156L314.156 906.976L307.592 910.673L304.31 912.522L300.897 914.247L297.484 915.973L295.777 916.835L294.071 917.575L287.244 920.656L280.286 923.367L276.742 924.599L273.197 925.831L269.653 926.941L266.108 927.926L262.564 928.912L259.019 929.652L255.475 930.391L253.637 930.761L251.799 931.007L244.578 931.87L237.358 932.24H236.833C233.537 932.418 230.647 934.365 229.412 937.238C228.176 940.112 228.817 943.396 231.057 945.672L233.288 947.891L235.52 949.986L239.984 953.929C242.872 956.517 245.891 958.982 249.042 961.447C255.249 966.373 261.735 970.98 268.471 975.249C275.274 979.556 282.38 983.426 289.738 986.833C297.236 990.297 305.058 993.102 313.106 995.213C321.315 997.393 329.783 998.594 338.312 998.787C345.217 998.915 352.105 998.236 358.818 996.77C358.287 997.24 357.753 997.707 357.216 998.171L352.096 1002.36L349.471 1004.33L346.845 1006.18L344.219 1008.03L341.463 1009.63C339.625 1010.74 337.787 1011.73 335.949 1012.59L333.192 1013.82L330.435 1014.81L327.678 1015.67L324.921 1016.29L322.296 1016.66H319.801L317.307 1016.41L314.944 1015.92L313.894 1015.67C309.821 1014.91 305.743 1016.96 304.173 1020.57C302.603 1024.18 303.982 1028.33 307.461 1030.46L309.693 1031.69L311.793 1032.8L315.863 1034.77L324.134 1038.35L332.536 1041.55L341.069 1044.38L349.864 1046.73L358.791 1048.57L363.255 1049.31L367.718 1049.93L372.182 1050.42L376.777 1050.79L381.371 1051.04H385.966C388.986 1050.92 392.005 1050.79 395.025 1050.55L395.028 1050.55C398.046 1050.3 401.064 1050.05 404.083 1049.44C407.102 1048.82 410.122 1048.2 413.01 1047.47C414.935 1046.97 416.861 1046.37 418.787 1045.77C419.749 1045.47 420.712 1045.17 421.674 1044.88L425.875 1043.28L427.976 1042.41L429.945 1041.43L434.015 1039.58L437.953 1037.36L439.922 1036.25L441.76 1035.14Z" fill="#31323D"/>
<path d="M738.846 207.242L731.757 197.629C729.526 194.548 726.637 190.851 723.093 186.538C719.548 182.225 715.61 177.418 710.753 172.366C708.39 169.901 705.764 167.313 702.876 164.725L702.351 164.232L701.432 163.246L700.907 162.753L700.644 162.507H700.513L700.25 162.26L698.544 159.919C698.019 159.18 697.756 158.44 697.362 157.701C695.974 154.545 695.477 151.107 695.918 147.719C696.381 144.241 697.782 140.933 699.988 138.106C702.339 135.136 705.52 132.833 709.177 131.451L712.065 130.589L714.954 130.096L718.892 129.726L726.9 129.11C738.582 128.416 750.305 128.622 761.952 129.726C768.359 130.377 774.717 131.406 780.987 132.807C787.703 134.374 794.251 136.519 800.548 139.215L805.405 141.557C807.037 142.37 808.616 143.275 810.131 144.268C811.73 145.203 813.265 146.232 814.726 147.349L816.958 149.074L818.139 149.937L818.664 150.307L818.402 150.06C817.959 149.72 817.474 149.43 816.958 149.197C815.218 148.503 813.254 148.49 811.504 149.161C809.754 149.832 808.362 151.132 807.637 152.771C807.266 153.632 807.087 154.554 807.112 155.482C807.115 155.896 807.159 156.309 807.243 156.715L806.981 155.606L805.799 150.799C805.011 147.595 804.224 144.268 803.567 140.941C802.123 134.286 801.073 127.385 800.285 120.36C799.935 116.827 799.673 113.212 799.498 109.515V103.846C799.498 103.846 799.629 100.026 799.891 98.0544C800.119 96.0244 800.469 94.0082 800.942 92.0158C801.204 91.0299 801.336 89.9208 801.729 88.9349L802.911 85.7307V85.361L803.173 84.7448L803.436 84.1287L803.699 83.5125L804.092 82.8963L804.88 81.6639L805.274 81.0478L805.799 80.4316L806.324 79.8154L806.981 79.1992L807.768 78.583L808.687 77.9669L810.788 76.8577C812.359 76.2067 814.058 75.8709 815.776 75.8718H818.139L820.108 76.3648C821.958 76.9506 823.689 77.8255 825.228 78.9527C827.274 80.4714 829.124 82.2084 830.742 84.1287C832.186 85.854 833.499 87.456 834.681 89.1814C835.862 90.9067 839.144 95.8361 841.113 99.2867C845.052 106.065 848.465 112.966 851.747 119.867C853.41 123.4 855.029 126.933 856.604 130.465L857.786 133.177L858.311 134.532L857.917 133.793C857.53 133.154 857.043 132.572 856.473 132.068C854.688 130.461 852.184 129.769 849.757 130.21C847.329 130.651 845.281 132.171 844.264 134.286V133.916L845.445 131.205C851.922 117.074 858.792 102.861 866.056 88.5652C873.408 74.2698 881.153 59.9744 889.949 45.8022C894.281 38.7777 899.007 31.63 904.259 24.7288C906.919 21.1874 909.767 17.7736 912.792 14.5002C916.1 10.8188 919.894 7.54738 924.082 4.76454C926.896 2.93575 930.061 1.63821 933.403 0.944214H938.391L940.229 1.19069C942.524 1.61196 944.709 2.44916 946.662 3.65541C949.654 5.60537 952.125 8.17815 953.882 11.1728C955.265 13.4457 956.408 15.8396 957.296 18.3205C958.824 22.6607 959.966 27.1125 960.709 31.63C961.497 35.9433 962.022 40.2566 962.415 44.4466C963.741 61.0126 964.004 77.6384 963.203 94.234C962.853 102.45 962.372 110.624 961.759 118.758V118.388C961.759 118.388 961.89 118.881 961.628 117.402C961.494 116.628 961.228 115.879 960.84 115.184C960.523 114.604 960.126 114.065 959.659 113.582C957.925 111.812 955.36 110.978 952.832 111.364C951.492 111.552 950.226 112.061 949.156 112.843C948.128 113.587 947.315 114.561 946.793 115.677L947.187 114.568L949.55 108.899L954.407 97.5614C960.971 82.5266 967.929 67.8615 975.937 53.5661C979.946 46.2442 984.508 39.2017 989.59 32.4927C990.903 30.7674 992.347 29.0421 994.054 27.3168C995.77 25.4771 997.66 23.7861 999.699 22.2641C1000.97 21.3224 1002.33 20.4971 1003.77 19.7994C1005.62 18.9059 1007.61 18.322 1009.68 18.074C1012.31 17.7587 1014.98 18.0987 1017.42 19.0599L1018.87 19.6761H1019.26L1020.31 20.2923L1022.02 21.6479L1023.2 22.757C1024.41 24.059 1025.42 25.5102 1026.22 27.0703C1026.9 28.3406 1027.47 29.6592 1027.92 31.0139C1028.65 33.3105 1029.18 35.66 1029.5 38.0383C1030.03 42.1677 1030.25 46.3269 1030.16 50.4852C1029.94 58.2356 1029.29 65.9697 1028.19 73.6536C1026.22 88.5652 1023.33 102.861 1020.18 116.786C1018.6 123.687 1016.98 130.465 1015.32 137.12L1014.01 142.05L1013.35 144.514L1013.09 145.747V145.993C1012.96 146.363 1013.09 145.993 1013.22 145.007C1013.21 144.465 1013.12 143.926 1012.96 143.405C1012.84 142.937 1012.66 142.482 1012.43 142.05C1011.07 139.547 1008.18 138.116 1005.21 138.476C1004.24 138.585 1003.3 138.879 1002.46 139.338L1002.06 139.585L1002.32 139.338L1003.37 138.599L1007.71 135.641C1018.93 128.019 1030.58 120.984 1042.63 114.568C1048.53 111.487 1054.31 108.653 1060.09 106.065L1068.88 102.368L1073.35 100.766L1077.81 99.1635L1082.27 97.6846L1086.74 96.4523L1088.97 95.8361L1090.02 95.5896H1096.71L1098.42 95.8361C1102.92 96.4013 1107.1 98.3012 1110.37 101.259C1113.46 104.07 1115.6 107.669 1116.54 111.61C1117.45 115.482 1117.09 119.524 1115.49 123.195C1115.14 124.093 1114.7 124.959 1114.17 125.783L1113.52 126.892L1112.99 127.631L1110.89 130.589L1103.28 141.68C1098.42 148.828 1094.09 155.482 1090.28 161.398C1082.67 173.475 1077.29 183.211 1073.74 189.989L1071.51 194.425L1069.93 197.752L1068.62 200.464C1067.9 201.871 1066.18 202.552 1064.6 202.049C1063.03 201.546 1062.1 200.018 1062.45 198.492L1063.11 195.534C1063.5 193.562 1064.29 190.605 1065.47 186.908C1066.13 185.059 1066.65 182.964 1067.57 180.746L1068.88 177.172L1070.46 173.352C1072.69 168.053 1075.32 162.137 1078.6 155.606C1081.88 149.074 1085.82 141.926 1090.41 134.409C1092.64 130.589 1095.14 126.768 1097.76 122.702L1099.73 119.744L1100.26 119.005V118.635C1100.39 118.402 1100.47 118.153 1100.52 117.895C1100.85 117.024 1100.9 116.08 1100.65 115.184C1100.37 114.183 1099.77 113.284 1098.95 112.596C1098.19 111.925 1097.22 111.494 1096.19 111.364H1094.09L1093.17 111.61L1091.2 112.103L1087.26 113.212L1083.32 114.568L1079.39 116.047L1075.45 117.526L1067.44 120.976C1062.06 123.318 1056.54 126.152 1051.03 129.11C1039.61 135.313 1028.57 142.101 1017.95 149.444L1013.88 152.278L1012.83 153.018L1012.56 153.264L1011.65 153.88C1009.19 155.305 1006.2 155.689 1003.43 154.938C1000.65 154.187 998.346 152.371 997.073 149.937C996.736 149.308 996.471 148.647 996.286 147.965C996.105 147.238 996.017 146.493 996.023 145.747C996.019 145.21 996.063 144.674 996.154 144.145L996.417 143.159V142.543L996.679 141.31L997.336 138.846L998.517 133.916C1000.09 127.344 1001.62 120.689 1003.11 113.952C1006 100.396 1008.76 86.3469 1010.46 72.1748C1011.4 65.0997 1011.92 57.9829 1012.04 50.8549C1012.11 47.5201 1011.93 44.1848 1011.51 40.8728C1011.33 39.4552 1011.02 38.054 1010.6 36.6827C1010.39 36.0265 1010.08 35.4033 1009.68 34.8342H1009.81L1010.33 35.2039H1009.81L1010.6 35.5736C1011.13 35.7866 1011.72 35.8712 1012.3 35.8201C1013.09 35.6968 1012.17 35.8201 1011.25 36.5595C1008.82 38.5595 1006.66 40.8363 1004.82 43.3375C1000.32 49.388 996.285 55.73 992.741 62.3159C985.258 75.8718 978.563 90.2905 972.13 104.956L967.404 116.047L965.172 121.592L964.91 122.332V122.702L964.647 123.318C963.163 126.499 960.08 128.769 956.435 129.364C952.791 129.959 949.071 128.799 946.531 126.275C945.859 125.611 945.285 124.865 944.824 124.057C944.313 123.128 943.959 122.13 943.774 121.1C943.668 120.53 943.624 119.952 943.643 119.374C943.61 118.964 943.61 118.552 943.643 118.142C944.255 110.173 944.693 102.203 944.955 94.234C945.66 78.3746 945.353 62.4898 944.036 46.6649C943.643 42.8445 943.117 38.901 942.461 35.2039C941.875 31.6943 940.997 28.2331 939.835 24.852C939.356 23.4863 938.741 22.166 937.997 20.9085C937.657 20.3103 937.213 19.769 936.685 19.3064H937.866C938.916 19.1832 936.553 19.4296 937.604 19.3064C936.715 19.5506 935.873 19.9249 935.109 20.4155C932.293 22.3358 929.736 24.5705 927.495 27.0703C924.888 29.9107 922.434 32.8721 920.143 35.9433C915.417 42.1051 910.954 48.7599 906.753 55.5379C898.351 69.0938 890.737 83.0195 883.385 97.0685C876.034 111.117 869.338 125.043 862.906 138.969L861.724 141.557L861.33 142.419C859.842 145.383 856.931 147.497 853.502 148.107C850.074 148.716 846.541 147.747 844.001 145.5C843.224 144.817 842.56 144.027 842.032 143.159L841.376 141.803L840.851 140.571L839.8 137.983L835.206 127.754C832.055 120.976 828.904 114.445 825.36 108.283C823.653 105.202 821.815 102.244 819.846 99.5332C817.877 96.822 817.877 96.9452 816.958 95.8361C816.222 94.9338 815.386 94.1076 814.463 93.3714C814.201 93.1249 814.07 93.1249 814.726 93.3714H816.17C816.942 93.3487 817.7 93.1811 818.402 92.8784L819.19 92.3855L819.452 92.139H819.715L819.977 91.8926H820.108L819.846 92.5087C819.715 92.632 819.977 92.2623 819.846 92.5087V92.7552L819.19 94.6037C818.977 95.2517 818.802 95.9099 818.664 96.5755C818.312 97.9975 818.049 99.4377 817.877 100.889C817.614 102.368 817.614 103.97 817.483 105.449C817.352 106.927 817.352 108.653 817.483 110.132C817.614 111.61 817.745 116.54 818.008 119.744C818.664 126.152 819.715 132.561 820.896 138.846C821.553 141.926 822.209 145.131 822.865 148.212L824.047 152.771L824.309 153.88V153.018C824.748 154.914 824.565 156.89 823.784 158.687C822.743 161.102 820.701 163.017 818.127 163.993C815.553 164.969 812.668 164.922 810.131 163.863C809.398 163.551 808.695 163.18 808.031 162.753L807.243 162.137L806.849 161.767L806.062 161.151L804.355 159.919C803.234 159.061 802.049 158.279 800.81 157.577C799.637 156.802 798.409 156.102 797.135 155.482L793.327 153.511C788.044 151.239 782.552 149.424 776.918 148.088C771.385 146.816 765.772 145.869 760.114 145.254C749.432 144.187 738.675 143.94 727.95 144.514L720.467 145.007L716.923 145.254H716.135L715.479 145.5C713.719 146.178 712.472 147.677 712.197 149.444C712.033 150.264 712.078 151.108 712.328 151.909L712.591 152.402C712.663 152.402 712.722 152.457 712.722 152.525C712.722 152.593 712.663 152.648 712.591 152.648H712.722L712.984 152.894L713.509 153.511L713.772 153.757H713.903L713.641 153.511L714.166 154.127C717.056 157.024 719.773 160.068 722.305 163.246C729.556 172.428 735.595 182.401 740.291 192.946C741.866 196.52 743.047 199.355 743.704 201.326L744.754 204.161C745.66 205.692 745.073 207.623 743.441 208.474C741.81 209.325 739.753 208.773 738.846 207.242V207.242Z" fill="#31323D"/>
<path d="M266.634 1750.65C216.617 1761.86 95.4455 1804.13 24.4232 1847.14C-10.3659 1868.22 11.164 1916.03 54.8801 1915.29L422.988 1908.52" stroke="#31323D" stroke-width="12.5" stroke-linecap="round"/>
<path fill-rule="evenodd" clip-rule="evenodd" d="M146.513 1852.81L147.432 1852.57H147.563H147.694C149.289 1852.29 150.347 1850.86 150.057 1849.36C149.767 1847.86 148.239 1846.87 146.644 1847.14H145.594L142.574 1847.51L137.979 1848.38L132.203 1849.86L125.377 1852.07C122.821 1853.01 120.322 1854.08 117.894 1855.28C115.235 1856.57 112.69 1858.05 110.28 1859.71C107.696 1861.49 105.32 1863.51 103.19 1865.75L101.615 1867.48L100.171 1869.33C99.2099 1870.59 98.3331 1871.91 97.5454 1873.27L96.4952 1875.37C96.1466 1876.05 95.8398 1876.75 95.5762 1877.46C95.0384 1878.87 94.5998 1880.31 94.2634 1881.77L93.7383 1883.99C93.67 1884.31 93.6372 1884.67 93.603 1885.04C93.5714 1885.38 93.5387 1885.73 93.4758 1886.09L93.2132 1888.18V1890.28C93.1668 1891.59 93.2107 1892.91 93.3445 1894.22C93.4758 1895.45 93.607 1896.68 93.7383 1897.79C94.0639 1899.83 94.502 1901.84 95.0511 1903.83C95.1131 1904.05 95.1733 1904.26 95.2321 1904.47C95.6711 1906.03 96.0321 1907.31 96.4952 1908.39L97.9393 1912.21L98.3331 1913.08C100.507 1916.6 105.21 1917.95 109.11 1916.17C113.009 1914.38 114.781 1910.08 113.168 1906.3L112.905 1905.93L111.33 1902.97C110.742 1901.85 110.216 1900.69 109.754 1899.52C109.148 1898.07 108.622 1896.59 108.179 1895.08C108.048 1894.65 107.949 1894.22 107.851 1893.79C107.752 1893.36 107.654 1892.93 107.523 1892.49C107.323 1891.6 107.191 1890.7 107.129 1889.78C107.129 1889.54 107.096 1889.29 107.063 1889.04C107.03 1888.8 106.998 1888.55 106.998 1888.3V1883.87C107.102 1882.87 107.277 1881.88 107.523 1880.91C107.617 1880.41 107.749 1879.92 107.916 1879.43C108.048 1878.94 108.179 1878.45 108.442 1877.95C108.858 1876.94 109.34 1875.95 109.886 1875L110.805 1873.52L111.855 1872.16C113.273 1870.28 114.902 1868.54 116.712 1866.99C118.515 1865.41 120.446 1863.97 122.488 1862.67C124.476 1861.42 126.536 1860.26 128.659 1859.22L134.566 1856.63L139.817 1854.78L143.887 1853.55L146.513 1852.81ZM84.2863 1855.03H85.074V1854.66H85.5991C86.6309 1854.48 87.4843 1853.8 87.8377 1852.88C88.1912 1851.95 87.991 1850.92 87.3126 1850.17C86.6342 1849.42 85.5807 1849.06 84.5489 1849.24H83.4986L80.873 1849.61C77.697 1850.18 74.5788 1851 71.5522 1852.07C69.4844 1852.77 67.4672 1853.59 65.5133 1854.54C63.3121 1855.61 61.2051 1856.85 59.2118 1858.23C57.0583 1859.81 55.0791 1861.59 53.3043 1863.53C51.4306 1865.64 49.8431 1867.96 48.5782 1870.43C47.9329 1871.68 47.3631 1872.95 46.8715 1874.26C46.7288 1874.75 46.5689 1875.22 46.4105 1875.69C46.1316 1876.52 45.8574 1877.33 45.69 1878.2C45.0842 1880.75 44.7326 1883.35 44.6398 1885.96C44.5565 1888.39 44.6442 1890.82 44.9023 1893.23C45.1649 1895.45 45.69 1898.53 45.9526 1899.52C46.0688 1899.95 46.1593 1900.37 46.2468 1900.77C46.3571 1901.27 46.4626 1901.75 46.609 1902.23L47.2654 1904.57L47.9218 1906.67L48.5782 1908.39L49.7597 1911.72L50.1535 1912.7C52.4442 1916.02 57.0255 1917.2 60.793 1915.43C64.5604 1913.66 66.3103 1909.51 64.8569 1905.8V1905.56L63.4128 1902.97L62.6251 1901.61L61.8374 1900.01L60.9185 1898.16L60.1308 1896.07C59.6334 1894.95 59.2868 1893.76 58.9196 1892.49C58.8022 1892.09 58.6827 1891.68 58.5554 1891.26C58.0863 1889.52 57.7355 1887.75 57.5052 1885.96C57.2737 1884.08 57.2297 1882.18 57.3739 1880.29C57.3739 1879.65 57.4846 1879.07 57.5981 1878.46C57.6595 1878.14 57.7217 1877.81 57.7678 1877.46C57.9783 1876.54 58.2413 1875.64 58.5554 1874.75C59.1977 1872.93 60.0798 1871.19 61.181 1869.57C62.2845 1867.94 63.56 1866.41 64.9882 1865.01C66.4185 1863.71 67.9548 1862.52 69.583 1861.44C71.0943 1860.44 72.673 1859.53 74.309 1858.73C76.7941 1857.5 79.3851 1856.47 82.0545 1855.65L84.2863 1855.03Z" fill="#31323D"/>
<path d="M1696.79 1754.1C1759.15 1771.11 1876.38 1810.91 1932.83 1847.14C1967.1 1869.08 1946.09 1916.03 1902.38 1915.29L1558.95 1909.01" stroke="#31323D" stroke-width="12.5" stroke-linecap="round"/>
<path fill-rule="evenodd" clip-rule="evenodd" d="M1811.92 1844.68H1810.87C1809.4 1844.58 1808.09 1845.53 1807.82 1846.89C1807.55 1848.25 1808.41 1849.58 1809.82 1849.98H1809.95L1810.87 1850.23L1813.5 1850.96C1816.68 1851.99 1819.79 1853.18 1822.82 1854.54L1828.73 1857.37C1830.85 1858.5 1832.91 1859.73 1834.9 1861.07C1836.95 1862.49 1838.88 1864.06 1840.67 1865.75C1842.48 1867.4 1844.11 1869.22 1845.53 1871.18L1846.58 1872.65L1847.5 1874.13C1848.05 1875.13 1848.53 1876.16 1848.94 1877.21C1849.15 1877.74 1849.33 1878.27 1849.47 1878.82C1849.73 1879.43 1849.86 1879.93 1850 1880.42L1850.26 1882.02V1883.5C1850.38 1884.52 1850.43 1885.55 1850.39 1886.58C1850.43 1887.57 1850.38 1888.56 1850.26 1889.54C1850.04 1891.37 1849.69 1893.18 1849.21 1894.96C1849.12 1895.24 1849.04 1895.51 1848.96 1895.78C1848.55 1897.16 1848.18 1898.38 1847.63 1899.52C1847.33 1900.14 1847.09 1900.71 1846.86 1901.24C1846.59 1901.87 1846.34 1902.44 1846.06 1902.97L1844.48 1905.93L1844.22 1906.3L1843.82 1907.16C1842.99 1910.98 1845.29 1914.78 1849.21 1916.06C1853.13 1917.34 1857.45 1915.69 1859.32 1912.21L1860.76 1908.27C1861.19 1907.37 1861.52 1906.15 1861.92 1904.73C1862.01 1904.4 1862.1 1904.06 1862.2 1903.71C1862.75 1901.68 1863.19 1899.62 1863.52 1897.55C1863.89 1895.02 1864.07 1892.46 1864.04 1889.91C1864.06 1888.51 1863.97 1887.11 1863.78 1885.72C1863.62 1884.26 1863.36 1882.82 1862.99 1881.4L1862.73 1880.29L1862.34 1879.19L1861.55 1876.97C1861.5 1876.85 1861.46 1876.72 1861.42 1876.59C1861.2 1875.95 1860.96 1875.26 1860.63 1874.75C1860.4 1874.39 1860.21 1873.98 1860.02 1873.56C1859.88 1873.26 1859.74 1872.96 1859.58 1872.65C1858.84 1871.25 1858 1869.89 1857.08 1868.59L1855.64 1866.62L1854.06 1864.77C1851.98 1862.46 1849.64 1860.35 1847.11 1858.48C1844.74 1856.75 1842.24 1855.18 1839.62 1853.8C1837.24 1852.53 1834.79 1851.37 1832.27 1850.35L1825.45 1847.88L1819.54 1846.16L1814.94 1845.17L1811.92 1844.68ZM1874.28 1847.14H1873.23C1871.93 1847.15 1870.79 1847.97 1870.45 1849.15C1870.12 1850.33 1870.66 1851.58 1871.79 1852.2H1871.92L1872.71 1852.44L1874.94 1853.18C1877.62 1854.17 1880.21 1855.36 1882.68 1856.76C1884.32 1857.65 1885.9 1858.64 1887.41 1859.71C1889.04 1860.92 1890.58 1862.24 1892 1863.66C1893.43 1865.14 1894.71 1866.75 1895.81 1868.46C1896.91 1870.17 1897.79 1871.99 1898.44 1873.89C1898.76 1874.82 1899.02 1875.76 1899.22 1876.72C1899.27 1877.05 1899.33 1877.38 1899.39 1877.71C1899.5 1878.36 1899.62 1879.02 1899.62 1879.68C1899.62 1880.17 1899.65 1880.66 1899.68 1881.16C1899.72 1881.65 1899.75 1882.14 1899.75 1882.64C1899.75 1883.62 1899.75 1884.48 1899.62 1885.47C1899.58 1885.79 1899.55 1886.11 1899.52 1886.43C1899.46 1887.08 1899.4 1887.72 1899.22 1888.31L1898.7 1891.02C1898.55 1891.5 1898.41 1891.99 1898.28 1892.48C1897.93 1893.7 1897.6 1894.89 1897.12 1895.95L1896.34 1898.04L1895.42 1900.01L1894.63 1901.74L1893.84 1903.22L1892.4 1905.93V1906.3L1892 1907.16C1891.17 1910.98 1893.47 1914.78 1897.39 1916.06C1901.31 1917.34 1905.63 1915.69 1907.5 1912.21L1908.68 1908.89L1909.33 1907.16L1909.99 1904.94L1910.78 1902.48L1911.43 1899.64C1911.66 1898.53 1911.84 1897.35 1912.02 1896.13C1912.16 1895.18 1912.31 1894.21 1912.48 1893.23L1912.75 1889.66C1912.81 1889.04 1912.78 1888.4 1912.75 1887.75C1912.71 1887.1 1912.68 1886.46 1912.75 1885.84C1912.88 1884.61 1912.75 1883.25 1912.48 1881.9C1912.4 1881.44 1912.32 1880.98 1912.25 1880.51C1912.11 1879.58 1911.96 1878.65 1911.7 1877.83C1911.54 1877.36 1911.41 1876.86 1911.28 1876.36C1911.06 1875.55 1910.84 1874.72 1910.52 1873.89C1909.08 1869.97 1906.95 1866.3 1904.21 1863.04C1902.48 1861.03 1900.55 1859.17 1898.44 1857.5C1896.49 1856 1894.43 1854.64 1892.27 1853.43C1890.36 1852.37 1888.39 1851.42 1886.36 1850.59C1883.35 1849.37 1880.23 1848.38 1877.04 1847.64L1874.28 1847.14Z" fill="#31323D"/>
<defs>
<linearGradient id="paint0_linear" x1="1204.15" y1="119.719" x2="1204.15" y2="284.072" gradientUnits="userSpaceOnUse">
<stop stop-color="#808080"/>
<stop offset="0.14" stop-color="#797979"/>
<stop offset="0.35" stop-color="#646464"/>
<stop offset="0.6" stop-color="#434343"/>
<stop offset="0.89" stop-color="#141414"/>
<stop offset="1"/>
</linearGradient>
<linearGradient id="paint1_linear" x1="410.845" y1="307.126" x2="586.759" y2="307.126" gradientUnits="userSpaceOnUse">
<stop stop-color="#808080"/>
<stop offset="0.14" stop-color="#797979"/>
<stop offset="0.35" stop-color="#646464"/>
<stop offset="0.6" stop-color="#434343"/>
<stop offset="0.89" stop-color="#141414"/>
<stop offset="1"/>
</linearGradient>
</defs>
</svg>
