<svg width="1074" height="420" viewBox="0 0 1074 420" fill="none" xmlns="http://www.w3.org/2000/svg">
<ellipse rx="159.812" ry="169.938" transform="matrix(0.138894 -0.990307 0.992451 0.122646 882.839 207.205)" fill="white"/>
<mask id="mask0" mask-type="alpha" maskUnits="userSpaceOnUse" x="712" y="47" width="341" height="320">
<ellipse rx="159.809" ry="169.938" transform="matrix(0.138895 -0.990307 0.992451 0.122645 882.839 207.206)" fill="white"/>
</mask>
<g mask="url(#mask0)">
<ellipse rx="114.778" ry="107.938" transform="matrix(0.99245 -0.122645 0.138895 0.990307 827.506 247.609)" fill="#0BA09C"/>
<ellipse rx="84.7727" ry="79.7212" transform="matrix(0.992451 -0.122646 0.138895 0.990307 832.278 249.233)" fill="#31323D"/>
<ellipse rx="46.1203" ry="43.3723" transform="matrix(0.992451 -0.122646 0.138894 0.990307 861.107 181.052)" fill="white"/>
</g>
<ellipse rx="159.812" ry="169.938" transform="matrix(0.138894 -0.990307 0.992451 0.122646 882.839 207.205)" stroke="#31323D" stroke-width="10" stroke-linecap="round"/>
<path d="M1057.21 97.3517C971.567 103.998 905.463 53.6601 858.246 15.0146" stroke="#31323D" stroke-width="30" stroke-linecap="round"/>
<ellipse rx="169.937" ry="159.812" transform="matrix(0.992451 -0.122645 0.138895 0.990307 191.839 240.717)" fill="white"/>
<mask id="mask1" mask-type="alpha" maskUnits="userSpaceOnUse" x="21" y="81" width="341" height="320">
<ellipse rx="169.94" ry="159.812" transform="matrix(0.99245 -0.122645 0.138895 0.990307 191.84 240.717)" fill="white"/>
</mask>
<g mask="url(#mask1)">
<ellipse rx="114.778" ry="107.938" transform="matrix(0.992451 -0.122645 0.138895 0.990307 247.593 279.099)" fill="#0BA09C"/>
<ellipse rx="84.7726" ry="79.7211" transform="matrix(0.992451 -0.122646 0.138895 0.990307 252.348 280.6)" fill="#31323D"/>
<ellipse rx="46.1202" ry="43.3722" transform="matrix(0.992451 -0.122646 0.138894 0.990307 281.439 212.404)" fill="white"/>
</g>
<ellipse rx="169.937" ry="159.812" transform="matrix(0.992451 -0.122645 0.138895 0.990307 191.839 240.717)" stroke="#31323D" stroke-width="10" stroke-linecap="round"/>
<path d="M19.3633 128.982C105.009 135.628 171.112 85.2901 218.329 46.6445" stroke="#31323D" stroke-width="30" stroke-linecap="round"/>
</svg>
