<svg width="1126" height="512" viewBox="0 0 1126 512" fill="none" xmlns="http://www.w3.org/2000/svg">
<path d="M380.869 328.204C394.008 427.651 314.755 491.137 215.308 504.277C115.862 517.416 34.2571 475.231 21.1174 375.784C9.73529 277.375 79.3794 188.023 177.589 175.035C275.799 162.046 366.277 230.22 380.869 328.204Z" fill="white" stroke="#31323D" stroke-width="10" stroke-linecap="round"/>
<circle cx="199.818" cy="359.049" r="100.138" fill="#729100"/>
<circle cx="201.201" cy="359.048" r="73.859" fill="#31323D"/>
<circle cx="227.757" cy="297.223" r="40.1107" fill="white"/>
<path d="M717.245 293.903C702.584 404.83 780.731 483.115 891.658 497.776C1002.58 512.437 1104.38 457.942 1119.04 347.015C1133.68 236.107 1055.67 134.321 944.77 119.629C833.843 104.83 732.045 182.976 717.245 293.903Z" fill="white" stroke="#31323D" stroke-width="10" stroke-linecap="round"/>
<circle cx="913.512" cy="329.034" r="106.501" fill="#729100"/>
<circle cx="915.033" cy="327.789" r="78.5616" fill="#31323D"/>
<circle cx="941.865" cy="260.431" r="42.7386" fill="white"/>
<path d="M240.081 128.092C245.748 122.049 245.443 112.556 239.401 106.889C233.358 101.222 223.865 101.527 218.198 107.57L240.081 128.092ZM17.6741 175.677C9.44158 174.752 2.01829 180.677 1.09371 188.909C0.169137 197.142 6.09339 204.565 14.3259 205.49L17.6741 175.677ZM817.736 12.5325C809.616 14.1712 804.361 22.0827 806 30.2033C807.638 38.3238 815.55 43.5785 823.67 41.9398L817.736 12.5325ZM945.185 15.203L945.521 0.206728L945.512 0.206511L945.502 0.206306L945.185 15.203ZM1073 72.0135C1079.86 76.6651 1089.18 74.8789 1093.83 68.0238C1098.49 61.1688 1096.7 51.8408 1089.85 47.1892L1073 72.0135ZM218.198 107.57C189.332 138.352 160.573 157.462 128.913 167.92C97.1224 178.422 61.277 180.574 17.6741 175.677L14.3259 205.49C60.6262 210.689 101.129 208.692 138.323 196.407C175.645 184.078 208.505 161.764 240.081 128.092L218.198 107.57ZM823.67 41.9398C854.438 35.7311 874.74 28.7161 944.868 30.1996L945.502 0.206306C871.784 -1.35311 848.656 6.2931 817.736 12.5325L823.67 41.9398ZM944.848 30.1992C996.867 31.3667 1040.03 49.6398 1073 72.0135L1089.85 47.1892C1053.11 22.2599 1004.43 1.52886 945.521 0.206728L944.848 30.1992Z" fill="#31323D"/>
</svg>
