<svg width="811" height="308" viewBox="0 0 811 308" fill="none" xmlns="http://www.w3.org/2000/svg">
<path d="M21.8227 146C21.8227 146 3.32274 61.5 16.2227 25.5C16.2227 25.5 32.3227 47.5 48.8227 49.3L46.8227 24.8L96.1228 46.3C96.1228 46.3 24.7227 62.8999 21.8227 146ZM795.923 119.2C795.923 119.2 797.023 32.7 777.023 0C777.023 0 765.623 24.8 749.823 29.9L746.923 5.5L703.023 36.5C703.023 36.5 776.423 38.5 795.923 119.2V119.2Z" fill="#31323D"/>
<path d="M252.823 145.4C260.179 152.946 264.304 163.062 264.323 173.6C264.123 206.43 251.489 237.965 228.967 261.852C206.445 285.74 175.708 300.205 142.946 302.335C110.185 304.465 77.8334 294.101 52.4079 273.331C26.9825 252.561 10.3722 222.928 5.92272 190.4C-3.47728 119.4 60.5227 26 125.923 55.5C175.423 77.7 214.823 106.2 252.823 145.4Z" fill="white"/>
<path d="M170.018 275.333C227.566 267.757 268.077 214.963 260.5 157.414C252.924 99.8657 200.13 59.3553 142.581 66.9317C85.0324 74.5081 44.522 127.302 52.0984 184.851C59.6748 242.399 112.469 282.91 170.018 275.333Z" fill="url(#paint0_linear)"/>
<path d="M164.107 255.298C209.554 249.315 241.546 207.622 235.563 162.174C229.58 116.727 187.887 84.7348 142.439 90.718C96.9919 96.7013 64.9998 138.394 70.9831 183.842C76.9664 229.289 118.659 261.281 164.107 255.298Z" fill="#31323D"/>
<path d="M198.283 147.011C222.485 143.825 239.522 121.622 236.336 97.42C233.149 73.2179 210.947 56.1812 186.745 59.3675C162.542 62.5537 145.506 84.7564 148.692 108.959C151.878 133.161 174.081 150.197 198.283 147.011Z" fill="white"/>
<path d="M252.823 145.4C260.179 152.946 264.304 163.062 264.323 173.6C264.123 206.43 251.489 237.965 228.967 261.852C206.445 285.74 175.708 300.205 142.946 302.335C110.185 304.465 77.8334 294.101 52.4079 273.331C26.9825 252.561 10.3722 222.928 5.92272 190.4C-3.47728 119.4 60.5227 26 125.923 55.5C175.423 77.7 214.823 106.2 252.823 145.4Z" stroke="#31323D" stroke-width="10" stroke-miterlimit="10" stroke-linecap="round"/>
<path d="M558.123 133.6C550.681 141.187 546.485 151.373 546.423 162C546.623 194.83 559.256 226.365 581.778 250.252C604.3 274.139 635.038 288.605 667.799 290.735C700.561 292.865 732.912 282.501 758.338 261.731C783.763 240.961 800.373 211.328 804.823 178.8C814.223 107.8 750.223 14.4 684.823 43.9C635.423 66.1 596.023 94.5 558.123 133.6Z" fill="white"/>
<path d="M653.823 264C711.868 264 758.923 216.945 758.923 158.9C758.923 100.855 711.868 53.8 653.823 53.8C595.778 53.8 548.723 100.855 548.723 158.9C548.723 216.945 595.778 264 653.823 264Z" fill="url(#paint1_linear)"/>
<path d="M738.379 170.823C744.362 125.376 712.37 83.6827 666.923 77.6994C621.475 71.7162 579.782 103.708 573.799 149.156C567.816 194.603 599.808 236.296 645.255 242.279C690.703 248.263 732.396 216.271 738.379 170.823Z" fill="#31323D"/>
<path d="M660.679 95.8985C663.866 71.6964 646.829 49.4937 622.627 46.3074C598.425 43.1212 576.222 60.1579 573.036 84.36C569.849 108.562 586.886 130.765 611.088 133.951C635.29 137.137 657.493 120.101 660.679 95.8985Z" fill="white"/>
<path d="M558.123 133.6C550.681 141.187 546.485 151.373 546.423 162C546.623 194.83 559.256 226.365 581.778 250.252C604.3 274.139 635.038 288.605 667.799 290.735C700.561 292.865 732.912 282.501 758.338 261.731C783.763 240.961 800.373 211.328 804.823 178.8C814.223 107.8 750.223 14.4 684.823 43.9C635.423 66.1 596.023 94.5 558.123 133.6Z" stroke="#31323D" stroke-width="10" stroke-miterlimit="10" stroke-linecap="round"/>
<defs>
<linearGradient id="paint0_linear" x1="38.3801" y1="80.65" x2="65.8167" y2="289.052" gradientUnits="userSpaceOnUse">
<stop stop-color="#B8BDFF"/>
</linearGradient>
<linearGradient id="paint1_linear" x1="548.723" y1="53.8" x2="548.723" y2="264" gradientUnits="userSpaceOnUse">
<stop stop-color="#B8BDFF"/>
</linearGradient>
</defs>
</svg>
