<svg width="793" height="314" viewBox="0 0 793 314" fill="none" xmlns="http://www.w3.org/2000/svg">
<path d="M536.985 105.119C525.085 136.858 526.074 171.993 539.738 203.013C553.403 234.033 578.66 258.477 610.11 271.12C641.561 283.763 676.709 283.601 708.042 270.67C739.375 257.739 764.406 233.063 777.785 201.919C804.485 135.419 772.285 39.8192 705.785 13.1192C639.285 -13.5808 563.685 38.7192 536.985 105.119Z" fill="white"/>
<path d="M255.685 129.919C262.111 145.738 265.349 162.67 265.216 179.744C265.082 196.817 261.579 213.696 254.906 229.413C248.234 245.129 238.524 259.373 226.334 271.329C214.144 283.284 199.713 292.714 183.87 299.079C168.027 305.444 151.082 308.618 134.01 308.42C116.937 308.221 100.071 304.653 84.38 297.921C68.6892 291.189 54.482 281.425 42.5735 269.189C30.665 256.953 21.2896 242.487 14.9851 226.619C-11.8149 160.219 20.4851 64.6191 86.9851 37.9191C153.485 11.2191 228.985 63.4191 255.685 129.919Z" fill="white" stroke="#31323D" stroke-width="10" stroke-miterlimit="10" stroke-linecap="round"/>
<path d="M659.585 212.619C690.513 212.619 715.585 187.547 715.585 156.619C715.585 125.691 690.513 100.619 659.585 100.619C628.657 100.619 603.585 125.691 603.585 156.619C603.585 187.547 628.657 212.619 659.585 212.619Z" fill="url(#paint0_linear)"/>
<path d="M658.285 195.019C679.051 195.019 695.885 178.185 695.885 157.419C695.885 136.653 679.051 119.819 658.285 119.819C637.519 119.819 620.685 136.653 620.685 157.419C620.685 178.185 637.519 195.019 658.285 195.019Z" fill="#31323D"/>
<path d="M679.885 143.019C693.361 143.019 704.285 132.095 704.285 118.619C704.285 105.143 693.361 94.2191 679.885 94.2191C666.409 94.2191 655.485 105.143 655.485 118.619C655.485 132.095 666.409 143.019 679.885 143.019Z" fill="white"/>
<path d="M605.985 26.6191L636.885 52.6191L633.385 73.3191C633.323 73.6886 633.401 74.0681 633.605 74.3828C633.809 74.6974 634.123 74.9244 634.485 75.0191C634.669 75.0798 634.863 75.1018 635.056 75.0836C635.248 75.0655 635.435 75.0076 635.604 74.9136C635.774 74.8197 635.921 74.6917 636.038 74.5377C636.156 74.3838 636.24 74.2072 636.285 74.0191L643.085 52.1191L643.585 50.4191L642.085 49.1191L610.285 22.3191" fill="#FF7B7B"/>
<path d="M696.185 10.2191L696.785 13.9191L698.385 24.4191L701.585 43.9191L680.185 65.2191L679.285 66.1191V67.0191L679.685 79.3191C679.696 79.6653 679.819 79.9988 680.035 80.2693C680.251 80.5398 680.55 80.7327 680.885 80.8191C681.281 80.8807 681.685 80.7916 682.019 80.5695C682.352 80.3473 682.59 80.0082 682.685 79.6191L684.985 68.9191L703.285 50.7191L709.185 71.2191L705.885 78.3191C705.78 78.6107 705.762 78.9267 705.833 79.2285C705.904 79.5303 706.061 79.805 706.285 80.0192C706.578 80.2811 706.963 80.4173 707.356 80.3986C707.748 80.3799 708.118 80.2077 708.385 79.9191L714.885 73.0191L715.685 72.1191L715.285 70.5191L707.685 44.3191L704.385 23.5191L702.685 12.9191L702.385 10.8191" fill="#FF7B7B"/>
<path d="M784.285 169.219L753.985 175.819L744.585 171.219C744.262 171.109 743.915 171.088 743.58 171.158C743.246 171.228 742.937 171.388 742.685 171.619C742.451 171.95 742.343 172.353 742.379 172.756C742.416 173.159 742.595 173.536 742.885 173.819L752.085 181.419L752.885 182.219L754.285 181.919L785.585 175.119C785.974 175.036 786.342 174.877 786.669 174.651C786.996 174.424 787.274 174.135 787.488 173.8C787.702 173.465 787.847 173.091 787.916 172.699C787.984 172.308 787.973 171.907 787.885 171.519C787.695 170.747 787.215 170.078 786.545 169.65C785.875 169.222 785.066 169.068 784.285 169.219V169.219Z" fill="#FF7B7B"/>
<path d="M543.285 92.7191L558.385 103.219L559.585 104.119L561.085 103.619L585.885 94.8191L595.685 105.419C595.917 105.684 596.233 105.859 596.581 105.914C596.928 105.969 597.283 105.9 597.585 105.719C597.916 105.495 598.15 105.155 598.243 104.766C598.335 104.378 598.279 103.968 598.085 103.619L589.185 89.5192L587.985 87.7191L585.785 88.5192L560.485 97.4191L546.385 87.6191" fill="#FF7B7B"/>
<path d="M713.385 237.819L715.285 223.319L715.685 220.919L713.585 220.219L697.185 214.319C696.83 214.168 696.431 214.16 696.07 214.296C695.709 214.432 695.415 214.702 695.247 215.049C695.08 215.396 695.053 215.795 695.172 216.162C695.291 216.529 695.546 216.836 695.885 217.019L709.085 224.519L707.285 238.519" fill="#FF7B7B"/>
<path d="M591.285 241.119L604.785 227.619L606.585 225.819L605.085 223.719L595.785 211.019L603.785 199.619C603.978 199.329 604.063 198.98 604.027 198.633C603.99 198.286 603.834 197.963 603.585 197.719C603.305 197.444 602.928 197.29 602.535 197.29C602.143 197.29 601.766 197.444 601.485 197.719L589.885 209.119L588.185 210.719L589.685 212.819L598.685 225.219L584.385 239.519" fill="#FF7B7B"/>
<path d="M777.385 96.1191L754.285 112.419L728.485 118.219C728.123 118.292 727.801 118.495 727.58 118.79C727.358 119.085 727.253 119.451 727.285 119.819C727.335 120.226 727.54 120.598 727.856 120.858C728.172 121.119 728.576 121.248 728.985 121.219L755.985 118.119H756.685L757.285 117.619L779.085 102.219" fill="#FF7B7B"/>
<path d="M532.585 184.519L549.585 177.519L550.085 177.319H563.885C564.245 177.303 564.589 177.166 564.861 176.93C565.133 176.694 565.318 176.373 565.385 176.019C565.444 175.636 565.352 175.244 565.128 174.927C564.904 174.61 564.566 174.392 564.185 174.319L554.685 172.519L574.485 147.419C574.585 147.266 574.63 147.083 574.612 146.901C574.594 146.72 574.514 146.549 574.385 146.419C574.32 146.353 574.242 146.3 574.156 146.264C574.07 146.228 573.978 146.209 573.885 146.209C573.792 146.209 573.7 146.228 573.614 146.264C573.528 146.3 573.45 146.353 573.385 146.419L547.585 171.919L530.885 178.819" fill="#FF7B7B"/>
<path d="M536.985 105.119C525.085 136.858 526.074 171.993 539.738 203.013C553.403 234.033 578.66 258.477 610.11 271.12C641.561 283.763 676.709 283.601 708.042 270.67C739.375 257.739 764.406 233.063 777.785 201.919C804.485 135.419 772.285 39.8192 705.785 13.1192C639.285 -13.5808 563.685 38.7192 536.985 105.119Z" stroke="#31323D" stroke-width="10" stroke-miterlimit="10" stroke-linecap="round"/>
<path d="M557.085 236.219C569.875 251.744 586.109 264.073 604.497 272.228C622.885 280.383 642.921 284.139 663.014 283.197C683.107 282.256 702.704 276.643 720.248 266.804C737.793 256.965 752.803 243.172 764.085 226.519C764.085 226.519 729.685 240.419 664.885 243.919C600.085 247.419 557.085 236.219 557.085 236.219Z" fill="#AFB4D5"/>
<path d="M559.085 236.219C582.885 265.019 616.785 283.319 656.985 283.319C701.485 283.319 739.785 260.819 763.085 226.519C763.085 226.519 729.685 240.419 664.885 243.919C600.085 247.419 559.085 236.219 559.085 236.219Z" stroke="#31323D" stroke-width="10" stroke-linecap="round" stroke-linejoin="round"/>
<path d="M133.085 237.419C164.013 237.419 189.085 212.347 189.085 181.419C189.085 150.491 164.013 125.419 133.085 125.419C102.157 125.419 77.085 150.491 77.085 181.419C77.085 212.347 102.157 237.419 133.085 237.419Z" fill="url(#paint1_linear)"/>
<path d="M131.685 219.819C152.451 219.819 169.285 202.985 169.285 182.219C169.285 161.453 152.451 144.619 131.685 144.619C110.919 144.619 94.085 161.453 94.085 182.219C94.085 202.985 110.919 219.819 131.685 219.819Z" fill="#31323D"/>
<path d="M153.285 167.719C166.761 167.719 177.685 156.795 177.685 143.319C177.685 129.843 166.761 118.919 153.285 118.919C139.81 118.919 128.885 129.843 128.885 143.319C128.885 156.795 139.81 167.719 153.285 167.719Z" fill="white"/>
<path d="M183.385 47.3191L160.685 76.8191L160.185 77.4191V77.9191L156.385 98.1191C156.338 98.4735 156.411 98.8334 156.592 99.1415C156.773 99.4496 157.052 99.6882 157.385 99.8191C157.769 99.9176 158.177 99.87 158.528 99.6852C158.879 99.5004 159.149 99.1917 159.285 98.8191L165.685 80.1191L187.885 51.3191" fill="#FF7B7B"/>
<path d="M61.6853 51.1191L61.3853 68.4191V69.7191L62.2853 70.6191L84.8853 91.7191L92.9852 111.419C93.1 111.758 93.3401 112.04 93.6562 112.207C93.9724 112.375 94.3406 112.415 94.6853 112.319C95.0687 112.224 95.3992 111.982 95.6051 111.645C95.811 111.308 95.8758 110.904 95.7853 110.519L90.1853 89.0192V88.4191L89.4852 87.8191L67.4852 67.2191L67.7853 51.2191V48.1191" fill="#FF7B7B"/>
<path d="M49.3851 195.819L34.8851 189.819L34.3851 189.619H33.585L7.28511 193.919C6.54902 194.1 5.9086 194.552 5.49251 195.186C5.07643 195.819 4.91554 196.587 5.04219 197.334C5.16885 198.081 5.57365 198.753 6.17525 199.214C6.77685 199.675 7.53062 199.891 8.28511 199.819L33.9851 195.619L48.585 198.619C48.929 198.692 49.2876 198.642 49.5983 198.478C49.9091 198.313 50.1521 198.045 50.2851 197.719C50.3898 197.347 50.3564 196.95 50.191 196.601C50.0256 196.251 49.7393 195.974 49.3851 195.819V195.819Z" fill="#FF7B7B"/>
<path d="M247.085 111.819L231.985 122.419L209.085 118.219L207.785 118.019L206.885 118.619L195.085 128.019C194.786 128.223 194.577 128.534 194.502 128.889C194.428 129.243 194.493 129.612 194.685 129.919C194.769 130.098 194.889 130.257 195.038 130.385C195.187 130.514 195.362 130.61 195.551 130.667C195.74 130.723 195.938 130.739 196.134 130.714C196.329 130.689 196.517 130.622 196.685 130.519L208.985 124.319L232.085 128.519L233.385 128.719L234.385 128.019L249.885 117.219" fill="#FF7B7B"/>
<path d="M79.2852 264.219L82.0851 258.019L82.3851 257.319V256.719L80.3851 239.219C80.3272 238.869 80.161 238.545 79.9099 238.294C79.6588 238.043 79.3354 237.877 78.9851 237.819C78.7799 237.805 78.5741 237.834 78.3804 237.903C78.1867 237.973 78.0093 238.081 77.8593 238.221C77.7092 238.362 77.5896 238.532 77.5081 238.721C77.4265 238.91 77.3847 239.113 77.3851 239.319L76.3851 256.019L73.4851 262.519" fill="#FF7B7B"/>
<path d="M208.785 265.619L206.385 257.519L205.985 255.919L204.285 255.519L192.785 252.319L191.585 238.019C191.562 237.656 191.407 237.313 191.149 237.055C190.891 236.798 190.549 236.643 190.185 236.619C189.803 236.59 189.424 236.709 189.126 236.951C188.829 237.192 188.635 237.539 188.585 237.919L187.085 254.719L186.785 256.919L189.285 257.619L201.085 260.819L202.785 266.519" fill="#FF7B7B"/>
<path d="M35.9851 148.819L37.0851 150.519L38.8851 150.219L64.1852 145.919C64.5388 145.869 64.8599 145.686 65.083 145.407C65.3061 145.128 65.4141 144.775 65.3851 144.419C65.4028 144.222 65.3753 144.023 65.3047 143.839C65.234 143.654 65.1221 143.487 64.9774 143.352C64.8327 143.217 64.6591 143.117 64.4698 143.059C64.2805 143.002 64.0805 142.988 63.8851 143.019L40.1852 144.119L22.8851 116.719C22.4608 116.043 21.7851 115.563 21.0068 115.385C20.2285 115.206 19.4114 115.345 18.7351 115.769C18.0588 116.193 17.5788 116.869 17.4006 117.647C17.2225 118.426 17.3608 119.243 17.7851 119.919L35.9851 148.819Z" fill="#FF7B7B"/>
<path d="M261.985 203.519L245.185 196.619L219.385 171.119C219.255 170.991 219.085 170.911 218.903 170.893C218.721 170.874 218.538 170.919 218.385 171.019C218.23 171.155 218.133 171.344 218.115 171.549C218.096 171.754 218.157 171.958 218.285 172.119L238.085 197.119L228.585 198.919C228.239 199.001 227.927 199.191 227.693 199.46C227.46 199.729 227.317 200.064 227.285 200.419C227.285 200.817 227.443 201.198 227.724 201.48C228.006 201.761 228.387 201.919 228.785 201.919L242.685 202.119H243.085L261.185 209.619" fill="#FF7B7B"/>
<path d="M235.585 261.019C222.797 276.538 206.566 288.861 188.182 297.007C169.797 305.154 149.766 308.901 129.68 307.949C109.594 306.998 90.0064 301.375 72.4742 291.527C54.9421 281.679 39.9486 267.877 28.6851 251.219C28.6851 251.219 63.085 265.119 127.885 268.619C192.685 272.119 235.585 261.019 235.585 261.019Z" fill="#AFB4D5"/>
<path d="M233.585 261.019C209.885 289.719 175.985 308.119 135.785 308.119C91.185 308.119 52.8851 285.519 29.6851 251.219C29.6851 251.219 63.085 265.119 127.885 268.619C192.685 272.119 233.585 261.019 233.585 261.019Z" stroke="#31323D" stroke-width="10" stroke-linecap="round" stroke-linejoin="round"/>
<path d="M255.685 129.919C262.111 145.738 265.349 162.67 265.216 179.744C265.082 196.817 261.579 213.696 254.906 229.413C248.234 245.129 238.524 259.373 226.334 271.329C214.144 283.284 199.713 292.714 183.87 299.079C168.027 305.444 151.082 308.618 134.01 308.42C116.937 308.221 100.071 304.653 84.38 297.921C68.6892 291.189 54.482 281.425 42.5735 269.189C30.665 256.953 21.2896 242.487 14.9851 226.619C-11.8149 160.219 20.4851 64.6191 86.9851 37.9191C153.485 11.2191 228.985 63.4191 255.685 129.919Z" stroke="#31323D" stroke-width="10" stroke-miterlimit="10" stroke-linecap="round"/>
<defs>
<linearGradient id="paint0_linear" x1="603.585" y1="100.619" x2="603.585" y2="212.619" gradientUnits="userSpaceOnUse">
<stop stop-color="#FCDF35"/>
</linearGradient>
<linearGradient id="paint1_linear" x1="77.085" y1="125.419" x2="77.085" y2="237.419" gradientUnits="userSpaceOnUse">
<stop stop-color="#FCDF35"/>
</linearGradient>
</defs>
</svg>
