<svg width="857" height="334" viewBox="0 0 857 334" fill="none" xmlns="http://www.w3.org/2000/svg">
<path d="M699.5 315C786.485 315 857 244.485 857 157.5C857 70.5152 786.485 0 699.5 0C612.515 0 542 70.5152 542 157.5C542 244.485 612.515 315 699.5 315Z" fill="url(#paint0_linear)"/>
<path d="M699.5 296.2C776.102 296.2 838.2 234.102 838.2 157.5C838.2 80.8981 776.102 18.8 699.5 18.8C622.898 18.8 560.8 80.8981 560.8 157.5C560.8 234.102 622.898 296.2 699.5 296.2Z" fill="#31323D"/>
<path opacity="0.44" d="M598.9 211.2C594.1 230.9 634.7 262.9 675.1 272.2C684 274.2 719.4 281.3 755.9 262.3C794 242.5 822.4 199.9 813 185.3C806 174.4 778.6 180.6 774.9 181.5C735.9 190.7 731.2 224.5 705.6 224.9C680 225.3 675.2 194 643.1 191.4C624.6 189.9 602 198.5 598.9 211.2Z" fill="white"/>
<path d="M640.1 262.1C655.453 262.1 667.9 249.653 667.9 234.3C667.9 218.946 655.453 206.5 640.1 206.5C624.746 206.5 612.3 218.946 612.3 234.3C612.3 249.653 624.746 262.1 640.1 262.1Z" fill="white"/>
<path d="M793.2 223.9C815.623 223.9 833.8 215.572 833.8 205.3C833.8 195.027 815.623 186.7 793.2 186.7C770.777 186.7 752.6 195.027 752.6 205.3C752.6 215.572 770.777 223.9 793.2 223.9Z" fill="white"/>
<path d="M754.4 133.1C767.655 133.1 778.4 119.534 778.4 102.8C778.4 86.0657 767.655 72.5 754.4 72.5C741.145 72.5 730.4 86.0657 730.4 102.8C730.4 119.534 741.145 133.1 754.4 133.1Z" fill="white"/>
<path d="M793.2 140.4C798.888 140.4 803.5 134.58 803.5 127.4C803.5 120.22 798.888 114.4 793.2 114.4C787.511 114.4 782.9 120.22 782.9 127.4C782.9 134.58 787.511 140.4 793.2 140.4Z" fill="white"/>
<path d="M803.5 85.6C809.189 85.6 813.8 79.7797 813.8 72.6C813.8 65.4203 809.189 59.6 803.5 59.6C797.811 59.6 793.2 65.4203 793.2 72.6C793.2 79.7797 797.811 85.6 803.5 85.6Z" fill="white"/>
<path d="M614.4 72.6C609.7 77.1 577.1 108.2 584.9 138.9C585.6 141.7 588.6 153.3 598.2 158C610.5 164.2 627.7 156 637.2 146.2C650.9 132.1 643 120.5 654.9 108.6C670.9 92.7 693.6 105.2 703.5 91.6999C712.3 79.6999 705.7 54.1 691 44.6C663.4 26.7 616.3 70.7 614.4 72.6Z" fill="white"/>
<path d="M157.5 333.3C244.485 333.3 315 262.785 315 175.8C315 88.8151 244.485 18.3 157.5 18.3C70.5152 18.3 0 88.8151 0 175.8C0 262.785 70.5152 333.3 157.5 333.3Z" fill="url(#paint1_linear)"/>
<path d="M157.5 269.3C134.65 264.388 113.79 252.757 97.6 235.9M97.6 235.9C87.5721 225.503 79.5689 213.328 74 200L97.6 235.9Z" stroke="white" stroke-width="65.04" stroke-miterlimit="10" stroke-linecap="round"/>
<path d="M157.5 314.5C234.102 314.5 296.2 252.402 296.2 175.8C296.2 99.198 234.102 37.1 157.5 37.1C80.8982 37.1 18.8 99.198 18.8 175.8C18.8 252.402 80.8982 314.5 157.5 314.5Z" fill="#31323D"/>
<path opacity="0.44" d="M68.7 237.3C72.5 271.4 126.2 286.2 133.8 288.1C144.7 290.9 178.6 298 213.9 280.5C249.2 263 280.6 223.1 271 203.5C266.2 193.8 252.6 191.5 250.5 191.1C217.4 185.5 205 231 166.3 236.4C125.3 242.1 95.6 197.3 76.5 211C66.9 218 68.3 234.2 68.7 237.3V237.3Z" fill="white"/>
<path d="M99.7 285.6C115.385 285.6 128.1 272.885 128.1 257.2C128.1 241.515 115.385 228.8 99.7 228.8C84.0151 228.8 71.3 241.515 71.3 257.2C71.3 272.885 84.0151 285.6 99.7 285.6Z" fill="white"/>
<path d="M258 221.3C277.772 221.3 293.8 214.45 293.8 206C293.8 197.55 277.772 190.7 258 190.7C238.228 190.7 222.2 197.55 222.2 206C222.2 214.45 238.228 221.3 258 221.3Z" fill="white"/>
<path d="M217 132.7C230.255 132.7 241 119.134 241 102.4C241 85.6658 230.255 72.1 217 72.1C203.745 72.1 193 85.6658 193 102.4C193 119.134 203.745 132.7 217 132.7Z" fill="white"/>
<path d="M260 154.1C263.866 154.1 267 150.115 267 145.2C267 140.285 263.866 136.3 260 136.3C256.134 136.3 253 140.285 253 145.2C253 150.115 256.134 154.1 260 154.1Z" fill="white"/>
<path d="M82 89.2C73.828 95.6457 66.6508 103.261 60.6999 111.8C41.5999 139.2 41.7 166.8 41.9 175.8C42.1 188.4 42.2999 195.6 47.6999 201.4C58.7999 213.3 84.7 211.4 98.3 198.3C103.1 193.7 105 188.5 109 178.2C116.4 159 112.9 153.9 117.2 145.6C128.6 123.2 165.8 135.2 177.3 115C184.9 101.6 177.9 79.9 165.6 70C142.4 51.6 100.2 74.9 82 89.2V89.2Z" fill="white"/>
<defs>
<linearGradient id="paint0_linear" x1="542" y1="0" x2="542" y2="315" gradientUnits="userSpaceOnUse">
<stop stop-color="#FCDF35"/>
</linearGradient>
<linearGradient id="paint1_linear" x1="0" y1="18.3" x2="0" y2="333.3" gradientUnits="userSpaceOnUse">
<stop stop-color="#FCDF35"/>
</linearGradient>
</defs>
</svg>
