<svg width="785" height="385" viewBox="0 0 785 385" fill="none" xmlns="http://www.w3.org/2000/svg">
<path d="M751.146 33.2812L748.946 31.7812L742.646 27.5812L738.146 24.8812L735.546 23.3812L732.646 21.9811C730.567 20.8695 728.431 19.8682 726.246 18.9811L722.746 17.4811L721.846 17.0812L720.946 16.7812L719.046 16.1811L715.146 14.8812L711.046 13.8812L708.946 13.3812L706.746 13.0812L702.346 12.4811C696.138 11.9484 689.886 12.2174 683.746 13.2812L678.946 14.2812L674.246 15.6811L671.846 16.4811L669.446 17.3812C667.846 17.8812 666.346 18.6812 664.746 19.3812C658.393 22.321 652.305 25.8005 646.546 29.7812C640.646 33.8812 634.946 38.2812 629.446 42.7812C623.946 47.2812 618.646 52.0812 613.546 56.7812L598.746 70.4811L585.346 82.8812L579.246 88.3812L573.646 93.2812L564.446 101.181L558.346 106.181L556.146 107.981C554.616 109.229 552.856 110.163 550.965 110.73C549.074 111.297 547.09 111.486 545.126 111.286C543.162 111.087 541.257 110.502 539.519 109.566C537.781 108.63 536.244 107.361 534.996 105.831C533.749 104.301 532.815 102.541 532.248 100.65C531.681 98.7589 531.491 96.7749 531.691 94.8109C531.891 92.8469 532.475 90.9415 533.411 89.2034C534.347 87.4654 535.616 85.9287 537.146 84.6811L538.346 83.7812L538.546 83.5812L540.746 82.1811L546.846 78.0812L556.346 71.4811L562.146 67.2812L568.546 62.5812L582.946 51.7812L599.246 39.4811C604.946 35.2811 611.046 30.8811 617.346 26.6811C623.646 22.4811 630.346 18.2812 637.246 14.5812C644.192 10.7663 651.452 7.55447 658.946 4.98113C660.846 4.38113 662.646 3.68118 664.646 3.28118L667.546 2.58117L670.446 1.88115L676.146 0.781178L681.846 0.181142C689.143 -0.297402 696.471 0.173221 703.646 1.58117L708.546 2.88115L710.946 3.48113L713.246 4.28118L717.746 5.88115L721.846 7.68114L723.846 8.58117L724.846 8.98113L725.746 9.48113L729.346 11.4811C731.544 12.6717 733.681 13.9735 735.746 15.3812L738.646 17.1811L741.246 19.0812L745.746 22.3812C748.346 24.4812 750.246 26.1812 751.646 27.2812L753.746 28.9811C754.029 29.1518 754.275 29.3766 754.47 29.6423C754.666 29.9081 754.807 30.2098 754.886 30.5301C754.965 30.8505 754.98 31.1833 754.93 31.5094C754.881 31.8356 754.767 32.1488 754.596 32.4311C754.426 32.7135 754.201 32.9594 753.935 33.155C753.669 33.3505 753.368 33.4917 753.047 33.5707C752.4 33.7301 751.717 33.626 751.146 33.2812V33.2812ZM18.9464 112.981L20.9464 111.281L26.5464 106.481L30.7463 103.081L33.1463 101.181L35.7463 99.1811L38.5464 97.0812L41.5464 94.9811L48.2463 90.5812C53.4072 87.3447 58.7493 84.4066 64.2463 81.7812C70.5077 78.8067 76.9946 76.3322 83.6463 74.3812C97.4463 70.0812 113.046 68.2812 128.446 68.7812C136.042 69.0643 143.618 69.7319 151.146 70.7812C158.546 71.7812 165.646 73.0812 172.546 74.3812L192.146 78.3812L209.446 82.0812L223.946 84.9811L235.046 87.0812L242.146 88.2812L244.646 88.6811H244.846C246.79 89.0094 248.65 89.7174 250.32 90.7645C251.99 91.8115 253.437 93.1773 254.579 94.7837C255.721 96.3902 256.536 98.2059 256.976 100.127C257.417 102.048 257.475 104.038 257.146 105.981C256.818 107.925 256.11 109.785 255.063 111.455C254.016 113.125 252.65 114.572 251.044 115.714C249.437 116.856 247.622 117.671 245.7 118.111C243.779 118.552 241.79 118.609 239.846 118.281L238.246 117.981L235.646 117.281L228.346 115.181L217.046 111.781L202.646 107.381L185.746 101.881L167.146 95.8812C160.746 93.8812 154.146 91.9812 147.346 90.2812C140.619 88.5734 133.811 87.205 126.946 86.1811C120.156 85.2278 113.303 84.7932 106.446 84.8812C99.7997 84.952 93.1729 85.6214 86.6463 86.8812C80.4601 88.0328 74.3746 89.6712 68.4464 91.7812C63.0581 93.6779 57.7828 95.8815 52.6463 98.3812L45.8463 101.881L42.7463 103.581L39.8463 105.281L37.1463 106.881L34.6463 108.481L30.2463 111.281L24.1463 115.481L21.9464 116.981C21.416 117.379 20.7491 117.55 20.0928 117.456C19.4364 117.362 18.8442 117.012 18.4464 116.481C18.0486 115.951 17.8776 115.284 17.9714 114.628C18.0652 113.971 18.416 113.379 18.9464 112.981V112.981Z" fill="#31323D"/>
<path d="M264.547 253.581C264.08 270.616 260.262 287.391 253.309 302.949C246.357 318.507 236.406 332.543 224.027 344.253C211.648 355.964 197.082 365.121 181.162 371.2C165.242 377.278 148.281 380.161 131.246 379.681C59.6465 377.681 3.14655 318.881 5.04655 247.181C6.94655 175.481 66.8466 118.381 138.447 120.381C172.832 121.323 205.434 135.886 229.083 160.865C252.731 185.845 265.488 219.196 264.547 253.581V253.581Z" fill="white"/>
<path d="M264.547 253.581C264.08 270.616 260.262 287.391 253.309 302.949C246.357 318.507 236.406 332.543 224.027 344.253C211.648 355.964 197.082 365.121 181.162 371.2C165.242 377.278 148.281 380.161 131.246 379.681C59.6465 377.681 3.14655 318.881 5.04655 247.181C6.94655 175.481 66.8466 118.381 138.447 120.381C172.832 121.323 205.434 135.886 229.083 160.865C252.731 185.845 265.488 219.196 264.547 253.581V253.581Z" stroke="#31323D" stroke-width="10" stroke-miterlimit="10" stroke-linecap="round"/>
<path d="M140.447 319.481C178.112 319.481 208.647 288.947 208.647 251.281C208.647 213.615 178.112 183.081 140.447 183.081C102.781 183.081 72.2466 213.615 72.2466 251.281C72.2466 288.947 102.781 319.481 140.447 319.481Z" fill="url(#paint0_linear)"/>
<path d="M190.228 255.146C191.786 228.129 171.147 204.964 144.13 203.407C117.113 201.849 93.9483 222.488 92.3905 249.505C90.8327 276.522 111.471 299.686 138.489 301.244C165.506 302.802 188.67 282.163 190.228 255.146Z" fill="#31323D"/>
<path d="M211.062 220.498C211.657 210.188 203.78 201.347 193.47 200.753C183.159 200.158 174.319 208.035 173.724 218.345C173.13 228.656 181.006 237.496 191.317 238.091C201.627 238.685 210.468 230.809 211.062 220.498Z" fill="white"/>
<path d="M12.7466 209.981C27.8466 156.781 79.7467 118.781 138.447 120.381C165.237 121.111 191.144 130.115 212.612 146.158C234.08 162.201 250.056 184.495 258.347 209.981H12.7466V209.981Z" fill="#ADD5D2"/>
<path d="M12.7466 209.981C27.8466 156.781 79.7467 118.781 138.447 120.381C165.237 121.111 191.144 130.115 212.612 146.158C234.08 162.201 250.056 184.495 258.347 209.981H12.7466V209.981Z" stroke="#31323D" stroke-width="10" stroke-linecap="round" stroke-linejoin="round"/>
<path d="M779.846 234.581C778.905 268.966 764.342 301.569 739.362 325.217C714.383 348.866 681.032 361.622 646.647 360.681C575.047 358.681 518.547 299.881 520.447 228.181C522.347 156.481 582.147 99.2812 653.747 101.281C670.781 101.747 687.557 105.566 703.115 112.518C718.673 119.471 732.708 129.421 744.419 141.801C756.13 154.18 765.286 168.746 771.365 184.666C777.444 200.585 780.326 217.547 779.846 234.581V234.581Z" fill="white"/>
<path d="M779.846 234.581C778.905 268.966 764.342 301.569 739.362 325.217C714.383 348.866 681.032 361.622 646.647 360.681C575.047 358.681 518.547 299.881 520.447 228.181C522.347 156.481 582.147 99.2812 653.747 101.281C670.781 101.747 687.557 105.566 703.115 112.518C718.673 119.471 732.708 129.421 744.419 141.801C756.13 154.18 765.286 168.746 771.365 184.666C777.444 200.585 780.326 217.547 779.846 234.581V234.581Z" stroke="#31323D" stroke-width="10" stroke-miterlimit="10" stroke-linecap="round"/>
<path d="M655.746 300.481C693.412 300.481 723.947 269.947 723.947 232.281C723.947 194.615 693.412 164.081 655.746 164.081C618.081 164.081 587.547 194.615 587.547 232.281C587.547 269.947 618.081 300.481 655.746 300.481Z" fill="url(#paint1_linear)"/>
<path d="M706.022 236.107C707.58 209.09 686.941 185.925 659.924 184.367C632.907 182.81 609.742 203.449 608.185 230.466C606.627 257.483 627.266 280.647 654.283 282.205C681.3 283.763 704.464 263.124 706.022 236.107Z" fill="#31323D"/>
<path d="M726.757 201.559C727.351 191.248 719.475 182.408 709.164 181.814C698.854 181.219 690.013 189.095 689.419 199.406C688.824 209.717 696.701 218.557 707.011 219.151C717.322 219.746 726.162 211.87 726.757 201.559Z" fill="white"/>
<path d="M528.047 190.981C543.147 137.781 595.046 99.7811 653.746 101.381C680.537 102.111 706.444 111.115 727.912 127.158C749.38 143.201 765.356 165.495 773.646 190.981H528.047V190.981Z" fill="#ADD5D2"/>
<path d="M528.047 190.981C543.147 137.781 595.046 99.7811 653.746 101.381C680.537 102.111 706.444 111.115 727.912 127.158C749.38 143.201 765.356 165.495 773.646 190.981H528.047V190.981Z" stroke="#31323D" stroke-width="10" stroke-linecap="round" stroke-linejoin="round"/>
<defs>
<linearGradient id="paint0_linear" x1="72.2466" y1="183.081" x2="72.2466" y2="319.481" gradientUnits="userSpaceOnUse">
<stop stop-color="#45F0F4"/>
</linearGradient>
<linearGradient id="paint1_linear" x1="587.547" y1="164.081" x2="587.547" y2="300.481" gradientUnits="userSpaceOnUse">
<stop stop-color="#45F0F4"/>
</linearGradient>
</defs>
</svg>
