<svg width="873" height="376" viewBox="0 0 873 376" fill="none" xmlns="http://www.w3.org/2000/svg">
<path d="M332.8 241.447C342.3 313.347 285 359.247 213.1 368.747C141.2 378.247 82.1999 347.747 72.6999 275.847C68.7446 241.65 78.3883 207.268 99.5513 180.116C120.714 152.965 151.701 135.219 185.829 130.705C219.957 126.191 254.491 135.272 281.985 155.988C309.479 176.705 327.729 207.397 332.8 241.447V241.447Z" fill="white" stroke="#31323D" stroke-width="10" stroke-miterlimit="10" stroke-linecap="round"/>
<path d="M201.9 336.147C241.885 336.147 274.3 303.732 274.3 263.747C274.3 223.761 241.885 191.347 201.9 191.347C161.915 191.347 129.5 223.761 129.5 263.747C129.5 303.732 161.915 336.147 201.9 336.147Z" fill="url(#paint0_linear)"/>
<path d="M202.9 317.147C232.392 317.147 256.3 293.239 256.3 263.747C256.3 234.255 232.392 210.347 202.9 210.347C173.408 210.347 149.5 234.255 149.5 263.747C149.5 293.239 173.408 317.147 202.9 317.147Z" fill="#31323D"/>
<path d="M222.1 248.047C238.116 248.047 251.1 235.063 251.1 219.047C251.1 203.03 238.116 190.047 222.1 190.047C206.084 190.047 193.1 203.03 193.1 219.047C193.1 235.063 206.084 248.047 222.1 248.047Z" fill="white"/>
<path d="M576 216.647C565.4 296.847 621.9 353.447 702.1 364.047C782.3 374.647 855.9 335.247 866.5 255.047C871.582 216.539 861.164 177.589 837.536 146.76C813.909 115.932 779.005 95.748 740.5 90.6467C660.3 79.9467 586.7 136.447 576 216.647V216.647Z" fill="white" stroke="#31323D" stroke-width="10" stroke-miterlimit="10" stroke-linecap="round"/>
<path d="M717.9 319.047C760.426 319.047 794.9 284.573 794.9 242.047C794.9 199.521 760.426 165.047 717.9 165.047C675.374 165.047 640.9 199.521 640.9 242.047C640.9 284.573 675.374 319.047 717.9 319.047Z" fill="url(#paint1_linear)"/>
<path d="M719 297.947C750.37 297.947 775.8 272.516 775.8 241.147C775.8 209.777 750.37 184.347 719 184.347C687.63 184.347 662.2 209.777 662.2 241.147C662.2 272.516 687.63 297.947 719 297.947Z" fill="#31323D"/>
<path d="M738.4 223.347C755.466 223.347 769.3 209.512 769.3 192.447C769.3 175.381 755.466 161.547 738.4 161.547C721.334 161.547 707.5 175.381 707.5 192.447C707.5 209.512 721.334 223.347 738.4 223.347Z" fill="white"/>
<path d="M650.8 23.8467C673.1 19.3467 688.8 14.0467 740.8 15.1467C780.9 16.0467 814.1 30.1467 839.3 47.2467M223.1 89.3467C179.4 135.947 134 149.247 69 141.947L223.1 89.3467Z" stroke="#31323D" stroke-width="30" stroke-miterlimit="10" stroke-linecap="round"/>
<defs>
<linearGradient id="paint0_linear" x1="129.5" y1="191.347" x2="129.5" y2="336.147" gradientUnits="userSpaceOnUse">
<stop stop-color="#0BA09C"/>
</linearGradient>
<linearGradient id="paint1_linear" x1="640.9" y1="165.047" x2="640.9" y2="319.047" gradientUnits="userSpaceOnUse">
<stop stop-color="#0BA09C"/>
</linearGradient>
</defs>
</svg>
