<svg width="765" height="254" viewBox="0 0 765 254" fill="none" xmlns="http://www.w3.org/2000/svg">
<path d="M499.7 133.184C499.7 133.184 554 212.184 625.6 213.684C697.2 215.184 759.1 138.884 759.1 138.884C759.1 138.884 744.6 -23.1157 624.3 9.2843C578.3 21.6843 499.7 133.184 499.7 133.184V133.184Z" fill="#31323D" stroke="#31323D" stroke-width="10" stroke-miterlimit="10" stroke-linecap="round"/>
<path d="M265.4 146.184C265.4 146.184 211.1 225.184 139.5 226.684C67.9 228.184 6 151.884 6 151.884C6 151.884 20.5 -10.1157 140.8 22.2843C186.7 34.6843 265.4 146.184 265.4 146.184V146.184Z" fill="#31323D" stroke="#31323D" stroke-width="10" stroke-miterlimit="10" stroke-linecap="round"/>
<path d="M274.1 145.584C274.1 145.584 219.8 241.684 148.2 243.184C76.6 244.684 14.7 151.284 14.7 151.284C14.7 151.284 55 18.1842 149.5 38.7842C196.1 48.8842 274.1 145.584 274.1 145.584V145.584Z" fill="white"/>
<path d="M152.3 226.984L129.4 253.784L112.3 221.484C98.7741 196.338 92.6704 167.866 94.7001 139.384C94.7668 138.184 94.8668 136.984 95.0002 135.784C98.0866 106.303 109.771 78.3786 128.6 55.4843L154 24.2843L172.6 61.4843C184.79 85.5219 190.315 112.387 188.6 139.284C188.533 140.484 188.434 141.684 188.3 142.884C185.279 173.964 172.702 203.344 152.3 226.984V226.984Z" fill="url(#paint0_linear)"/>
<path d="M153.4 195.684L131.6 232.584L118.3 192.884C112.384 175.215 110.27 156.495 112.097 137.951C113.924 119.407 119.65 101.459 128.9 85.2842L151.7 45.3843L165.4 88.3843C171.063 106.107 172.921 124.825 170.854 143.315C168.786 161.805 162.838 179.65 153.4 195.684V195.684Z" fill="#31323D"/>
<path d="M190.466 95.6162C191.845 83.878 183.447 73.2445 171.709 71.8656C159.971 70.4867 149.338 78.8845 147.959 90.6227C146.58 102.361 154.978 112.994 166.716 114.373C178.454 115.752 189.087 107.354 190.466 95.6162Z" fill="white"/>
<path d="M274.1 145.584C274.1 145.584 219.8 241.684 148.2 243.184C76.6 244.684 14.7 151.284 14.7 151.284C14.7 151.284 55 18.1842 149.5 38.7842C196.1 48.8842 274.1 145.584 274.1 145.584V145.584Z" stroke="#31323D" stroke-width="10" stroke-miterlimit="10" stroke-linecap="round"/>
<path d="M492.7 133.184C492.7 133.184 547 229.284 618.6 230.784C690.2 232.284 752.1 138.884 752.1 138.884C752.1 138.884 711.8 5.78433 617.3 26.3843C570.8 36.5843 492.7 133.184 492.7 133.184V133.184Z" fill="white"/>
<path d="M616.7 215.384L640.2 241.584L656.6 208.884C669.545 183.428 674.99 154.817 672.3 126.384L671.9 122.784C668.117 93.3768 655.772 65.7304 636.4 43.2843L610.3 12.6843L592.6 50.2843C580.959 74.6122 576.055 101.617 578.4 128.484L578.8 132.084C582.519 163.101 595.759 192.203 616.7 215.384V215.384Z" fill="url(#paint1_linear)"/>
<path d="M614.8 184.284L637.4 220.684L649.8 180.684C655.315 162.871 656.998 144.093 654.74 125.583C652.483 107.073 646.335 89.2497 636.7 73.2843L612.9 33.8844L600.2 77.1843C594.951 95.0572 593.538 113.838 596.054 132.295C598.57 150.752 604.958 168.469 614.8 184.284V184.284Z" fill="#31323D"/>
<path d="M648.904 94.3067C660.608 92.6618 668.763 81.8406 667.118 70.1368C665.473 58.4329 654.652 50.2784 642.948 51.9233C631.244 53.5682 623.09 64.3895 624.734 76.0934C626.379 87.7972 637.201 95.9516 648.904 94.3067Z" fill="white"/>
<path d="M492.7 133.184C492.7 133.184 547 229.284 618.6 230.784C690.2 232.284 752.1 138.884 752.1 138.884C752.1 138.884 711.8 5.78433 617.3 26.3843C570.8 36.5843 492.7 133.184 492.7 133.184V133.184Z" stroke="#31323D" stroke-width="10" stroke-miterlimit="10" stroke-linecap="round"/>
<defs>
<linearGradient id="paint0_linear" x1="94.3188" y1="24.2843" x2="94.3188" y2="253.784" gradientUnits="userSpaceOnUse">
<stop stop-color="#A56429"/>
</linearGradient>
<linearGradient id="paint1_linear" x1="577.829" y1="12.6843" x2="577.829" y2="241.584" gradientUnits="userSpaceOnUse">
<stop stop-color="#A56429"/>
</linearGradient>
</defs>
</svg>
