<svg width="120" height="180" viewBox="0 0 120 180" fill="none" xmlns="http://www.w3.org/2000/svg">
<path fill-rule="evenodd" clip-rule="evenodd" d="M80 1.33514e-05L99.9683 20H100V60H99.9683L80 80L119.968 60H120V20H119.968L80 1.33514e-05ZM40 80L20.0317 60H20V20H20.0317L40 1.33514e-05L0.0317383 20H0V60H0.0317383L40 80ZM99.9683 160L80 180L119.968 160H120V100H119.968L80 80L99.9683 100H100V160H99.9683ZM40 180L20.0317 160H20V100H20.0317L40 80L0.0317383 100H0V160H0.0317383L40 180Z" fill="black"/>
</svg>
