<svg width="181" height="181" viewBox="0 0 181 181" fill="none" xmlns="http://www.w3.org/2000/svg">
<path d="M149.357 89.4944L159.915 59.3278V120.164L149.357 89.4944Z" fill="black"/>
<path d="M39.7513 181L39.7512 173.961L59.3915 181H39.7513Z" fill="black"/>
<path d="M19.6402 181L19.6402 173.961L0 181H19.6402Z" fill="black"/>
<path d="M39.7513 0L39.7513 7.03889L59.3915 0H39.7513Z" fill="black"/>
<path d="M19.6689 0V7.03889L0.0286865 0H19.6689Z" fill="black"/>
<path d="M19.6402 0H39.7513V181H19.6402V100.556L39.7513 90.5L19.6402 80.4444V0Z" fill="black"/>
<path d="M160.889 3.51634e-06L180.968 20.1111L140.778 0L160.889 3.51634e-06Z" fill="black"/>
<path d="M160.418 181L180.497 160.889L140.307 181H160.418Z" fill="black"/>
</svg>
