<svg width="299" height="298" viewBox="0 0 299 298" fill="none" xmlns="http://www.w3.org/2000/svg">
<path d="M246.703 147.345L264.087 97.678V197.839L246.703 147.345Z" fill="#EB5E28"/>
<path d="M66.2479 298L66.2477 286.411L98.5836 298H66.2479Z" fill="#EB5E28"/>
<path d="M33.1366 298L33.1367 286.411L0.800781 298H33.1366Z" fill="#EB5E28"/>
<path d="M66.2478 0L66.2478 11.5889L98.5836 0H66.2478Z" fill="#EB5E28"/>
<path d="M33.184 0V11.5889L0.848267 0H33.184Z" fill="#EB5E28"/>
<path d="M33.1365 0H66.2476V298H33.1365V165.556L66.2476 149L33.1365 132.444V0Z" fill="#EB5E28"/>
<path d="M265.69 5.78933e-06L298.748 33.1111L232.579 0L265.69 5.78933e-06Z" fill="#EB5E28"/>
<path d="M264.914 298L297.973 264.889L231.803 298H264.914Z" fill="#EB5E28"/>
</svg>
