<svg width="181" height="180" viewBox="0 0 181 180" fill="none" xmlns="http://www.w3.org/2000/svg">
<path d="M159.532 -1.70751e-06L159.532 7L179.064 0L159.532 -1.70751e-06Z" fill="black"/>
<path d="M159.532 1.70751e-06L159.532 7L140 0L159.532 1.70751e-06Z" fill="black"/>
<path d="M40 90L180.5 180H161L40 90Z" fill="black"/>
<path d="M39.5317 180L39.5317 173L59.0634 180H39.5317Z" fill="black"/>
<path d="M19.5317 180L19.5317 173L0 180H19.5317Z" fill="black"/>
<path d="M39.5317 0L39.5317 7L59.0634 0H39.5317Z" fill="black"/>
<path d="M19.5634 0V7L0.0317383 0H19.5634Z" fill="black"/>
<path d="M19.5317 0H39.5317V180H19.5317V100L39.5317 90L19.5317 80V0Z" fill="black"/>
</svg>
