<svg width="200" height="182" viewBox="0 0 200 182" fill="none" xmlns="http://www.w3.org/2000/svg">
<path fill-rule="evenodd" clip-rule="evenodd" d="M19.5317 0L19.5317 7L0 0H19.5317ZM179.532 0V7L199.064 0H179.532ZM140 180H159.53H159.532H179.53V0H159.563H159.53H140.032L159.53 6.98816V173L140 180ZM179.532 173L179.532 180H199.064L179.532 173ZM39.5318 1.70072e-05L19.5318 1.52588e-05V7.00002L101.064 182L39.5318 7.00002L59.0635 1.52588e-05L39.5318 1.70072e-05ZM30.5317 180L30.5317 173L11 180H30.5317ZM30.5319 173L30.5319 180H50.0636L30.5319 173Z" fill="black"/>
</svg>
