<svg width="180" height="182" viewBox="0 0 180 182" fill="none" xmlns="http://www.w3.org/2000/svg">
<path d="M19.5317 1.52588e-05L39.5317 1.70072e-05L39.5317 7.00002L101.063 182L19.5317 7.00002L19.5317 1.52588e-05Z" fill="black"/>
<path d="M159.532 2.88101e-05L159.532 7.00003L179.064 3.05176e-05L159.532 2.88101e-05Z" fill="black"/>
<path d="M159.532 1.69663e-05L159.532 7.00002L140 1.52588e-05L159.532 1.69663e-05Z" fill="black"/>
<path d="M19.5316 1.70751e-06L19.5317 7L-6.86646e-05 0L19.5316 1.70751e-06Z" fill="black"/>
<path d="M39.5318 1.35513e-05L39.5317 7.00001L59.0635 1.52588e-05L39.5318 1.35513e-05Z" fill="black"/>
</svg>
