<svg width="329" height="297" viewBox="0 0 329 297" fill="none" xmlns="http://www.w3.org/2000/svg">
<path fill-rule="evenodd" clip-rule="evenodd" d="M65.4391 11.5249L65.4392 0L97.5963 2.81126e-06L65.4391 11.5249ZM295.936 11.5249L295.937 0L328.094 2.81126e-06L295.936 11.5249ZM295.936 11.5249L295.936 5.62252e-06L263.779 2.81126e-06L295.936 11.5249ZM0.353638 5.3112e-06L32.5093 11.5243V11.5249L163.348 130.89L163.671 130.889V285.027L132.066 296.354H164.223L164.223 285.652H164.224L164.224 296.354H196.381L164.671 284.989V130.889L164.995 130.89L65.4379 11.5249V2.87871e-06L32.5093 0L0.353638 5.3112e-06Z" fill="#EB5E28"/>
</svg>
