<svg width="1366" height="333" viewBox="0 0 1366 333" fill="none" xmlns="http://www.w3.org/2000/svg">
<g style="mix-blend-mode:multiply" opacity="0.2">
<path d="M610.1 259.722C610.1 259.722 611.7 332.422 688.6 332.722C762.9 333.022 774.2 265.422 774.2 265.422C774.2 265.422 746.2 294.721 698.1 293.521C650 292.321 610.1 259.722 610.1 259.722Z" fill="#595959"/>
</g>
<path d="M620.7 38.6215C619.564 35.8946 619.32 32.8786 620.003 30.0048C620.685 27.1309 622.259 24.5465 624.5 22.6215C634.3 13.7215 655.3 0.621477 694.7 0.0214768C734.1 -0.578523 752.9 11.5216 761.9 20.2215C764.053 22.2332 765.506 24.8812 766.046 27.7783C766.586 30.6754 766.184 33.6693 764.9 36.3215V36.3215C761.4 43.6215 753.7 48.5215 744.9 48.8215C733.8 49.2215 718.5 52.4215 709 65.0215C708.416 65.8257 707.745 66.5635 707 67.2215L706.7 67.5215C698.7 74.3215 686 73.8215 678.7 66.4215C678.7 66.4215 670.5 54.0215 640.8 52.2215C631.9 51.7215 624.3 46.4215 621.1 38.9215V38.6215H620.7Z" fill="#31323D"/>
<path d="M778.2 262.822L777.3 264.822C776.942 265.642 776.542 266.443 776.1 267.222C775.6 268.122 775 269.321 774.2 270.521C772.433 273.355 770.426 276.032 768.2 278.521C765.242 281.745 761.995 284.691 758.5 287.322C754.366 290.404 749.946 293.083 745.3 295.322C742.8 296.522 740.3 297.621 737.6 298.621C734.9 299.621 732.1 300.522 729.3 301.322C726.5 302.122 723.5 302.822 720.5 303.422C717.5 304.022 714.4 304.422 711.3 304.722C705.054 305.359 698.767 305.492 692.5 305.121C680.189 304.461 668.05 301.932 656.5 297.621L654.4 296.822L653.4 296.422H652.8L652.3 296.222L650.4 295.422L648.5 294.521C645.8 293.321 643.4 292.022 641 290.722C636.565 288.277 632.319 285.502 628.3 282.422C622.265 277.84 616.882 272.457 612.3 266.422L611.1 264.922L610.1 263.521L608.6 261.222L607.5 259.322C607.153 258.8 607.015 258.167 607.112 257.548C607.21 256.93 607.536 256.37 608.026 255.98C608.517 255.591 609.135 255.399 609.76 255.444C610.385 255.489 610.97 255.766 611.4 256.222H611.5L613 257.722L614.8 259.422L617.3 261.722C619.2 263.422 621.6 265.322 624.4 267.322C627.546 269.603 630.818 271.706 634.2 273.621C638.183 275.884 642.289 277.92 646.5 279.722L653.4 282.422L655.2 283.021L657.1 283.722L657.6 283.922H658L658.9 284.222L660.8 284.822C665.989 286.367 671.265 287.602 676.6 288.521C687.589 290.452 698.777 290.989 709.9 290.121C712.6 289.921 715.3 289.622 718 289.222C720.7 288.822 723.3 288.422 725.8 287.822C728.3 287.222 730.8 286.622 733.2 285.922L740.2 283.621C744.403 282.107 748.482 280.268 752.4 278.121C755.711 276.285 758.886 274.213 761.9 271.922L763.8 270.422L765.5 268.922C766.6 268.022 767.6 267.021 768.5 266.121L769.7 264.922L770.7 263.822C771.269 263.219 771.803 262.585 772.3 261.922L773.7 260.222C774.045 259.625 774.613 259.189 775.278 259.011C775.944 258.833 776.653 258.927 777.25 259.271C777.847 259.616 778.282 260.184 778.46 260.85C778.638 261.515 778.545 262.225 778.2 262.822Z" fill="#31323D"/>
<path d="M543.1 203.222L543.3 202.521L543.9 200.521C544.685 197.969 545.62 195.464 546.7 193.021C548.395 189.221 550.473 185.602 552.9 182.222C556.07 177.792 559.801 173.792 564 170.322C568.951 166.278 574.354 162.822 580.1 160.021C586.463 156.933 593.048 154.326 599.8 152.222C606.8 150.022 614 148.022 621.4 146.222C628.8 144.422 636.2 142.621 643.4 140.621C650.484 138.787 657.407 136.379 664.1 133.422C670.5 130.422 676 126.721 679.7 122.121C683.283 117.689 685.474 112.296 686 106.621C686.175 105.228 686.275 103.826 686.3 102.422V101.922C686.3 101.622 686.3 102.322 686.3 102.222V98.4215L686 89.5215L684.6 51.3215C684.561 50.271 684.729 49.2229 685.094 48.2372C685.46 47.2515 686.016 46.3475 686.731 45.5768C688.175 44.0202 690.178 43.1011 692.3 43.0215C694.422 42.9419 696.488 43.7084 698.045 45.1525C698.816 45.8675 699.438 46.7273 699.876 47.6829C700.315 48.6384 700.561 49.671 700.6 50.7216C700.6 50.8216 700.6 50.9215 700.6 51.0215V89.3215C700.6 92.1882 700.6 95.1882 700.6 98.3215V102.121C700.6 102.021 700.6 102.821 700.6 102.521V103.222C700.463 105.066 700.229 106.902 699.9 108.722C699.23 112.624 698.054 116.423 696.4 120.021C694.654 123.825 692.326 127.334 689.5 130.422C686.643 133.514 683.38 136.205 679.8 138.422C676.338 140.576 672.69 142.417 668.9 143.922C661.493 146.74 653.868 148.948 646.1 150.521C638.5 152.221 630.9 153.522 623.6 154.922C616.3 156.322 609.1 157.821 602.2 159.621C595.683 161.275 589.298 163.414 583.1 166.021C577.61 168.345 572.409 171.298 567.6 174.822C563.566 177.807 559.936 181.303 556.8 185.222C554.373 188.266 552.262 191.549 550.5 195.021C549.367 197.261 548.365 199.565 547.5 201.922L546.8 203.822L546.6 204.521C546.428 204.986 546.078 205.362 545.628 205.569C545.178 205.775 544.664 205.794 544.2 205.621C543.736 205.449 543.359 205.099 543.153 204.649C542.947 204.199 542.928 203.686 543.1 203.222Z" fill="#31323D"/>
<path d="M844.6 202.722L844.4 202.021L843.7 200.121C842.734 197.76 841.632 195.456 840.4 193.222C838.526 189.778 836.315 186.529 833.8 183.521C830.539 179.673 826.81 176.246 822.7 173.322C817.807 169.873 812.541 166.988 807 164.722C800.729 162.179 794.278 160.107 787.7 158.521C780.8 156.821 773.6 155.421 766.2 154.021C758.8 152.621 751.2 151.422 743.5 149.822C735.677 148.341 727.986 146.234 720.5 143.521C716.687 142.076 713.007 140.303 709.5 138.222C705.881 136.093 702.554 133.505 699.6 130.521C696.665 127.51 694.204 124.071 692.3 120.322C690.525 116.771 689.215 113.007 688.4 109.121C688.009 107.304 687.708 105.469 687.5 103.621V102.621V102.222V98.4215L687.2 89.4215L685.8 51.0215C685.72 48.8998 686.487 46.8333 687.931 45.2767C689.375 43.7202 691.378 42.8011 693.5 42.7216C695.622 42.642 697.688 43.4085 699.245 44.8526C700.801 46.2966 701.72 48.2998 701.8 50.4215V101.722V101.422V102.222C701.9 103.622 702 105.022 702.2 106.422C703.008 112.12 705.438 117.466 709.2 121.822C713.1 126.322 718.8 130.022 725.2 132.922C731.97 135.807 738.958 138.148 746.1 139.922C753.4 141.822 760.9 143.522 768.3 145.322C775.7 147.122 783 148.921 790 151.121C796.816 153.19 803.468 155.764 809.9 158.822C815.735 161.59 821.237 165.012 826.3 169.021C830.573 172.431 834.403 176.361 837.7 180.722C840.214 184.065 842.391 187.649 844.2 191.422C845.341 193.829 846.342 196.3 847.2 198.822L847.9 200.822L848.1 201.521C848.259 201.986 848.228 202.494 848.012 202.935C847.796 203.375 847.414 203.712 846.95 203.871C846.486 204.031 845.978 203.999 845.537 203.783C845.096 203.568 844.759 203.186 844.6 202.722V202.722Z" fill="#31323D"/>
<path d="M753 90.2216L760.3 88.7216C765.1 87.7216 772.2 86.3216 781.2 84.7216C806.054 80.378 831.123 77.3737 856.3 75.7216C891.88 73.3908 927.587 73.8254 963.1 77.0215C982.6 78.8215 1002.6 81.5216 1022.8 85.2216C1043 88.9216 1063.3 93.6216 1083.3 99.4216C1103.3 105.222 1123.1 111.822 1142.1 119.322L1156.3 125.122L1170.1 131.222L1176.9 134.322L1183.6 137.522C1188.1 139.722 1192.5 141.722 1196.8 144.022L1209.7 150.722L1222.1 157.622L1225.2 159.322L1228.2 161.122L1234.2 164.622L1240.1 168.122L1245.8 171.722C1261 181.122 1274.9 190.722 1287.4 199.922C1299.9 209.122 1311.1 218.122 1320.8 226.222C1325.6 230.322 1330.1 234.122 1334.2 237.822L1340.1 243.022L1345.4 247.922C1348.8 251.022 1351.7 253.822 1354.2 256.222L1357.7 259.622L1360.6 262.522L1365.9 267.822L1360.5 262.622L1357.6 259.822L1354 256.522C1351.4 254.122 1348.5 251.322 1345.1 248.322L1339.8 243.522L1333.9 238.422C1329.8 234.822 1325.2 231.122 1320.3 227.022C1310.5 219.122 1299.3 210.322 1286.6 201.322C1273.9 192.322 1260 182.922 1244.7 173.822L1238.9 170.322L1233 166.922L1227 163.522L1224 161.822L1220.9 160.222L1208.4 153.522L1195.5 147.122C1191.2 144.922 1186.7 142.922 1182.3 140.822L1175.6 137.722L1168.7 134.722L1154.8 128.822L1140.6 123.322C1121.5 116.222 1101.9 109.822 1081.9 104.422C1061.9 99.0216 1041.7 94.6216 1021.7 91.3216C1001.7 88.0216 981.8 85.6215 962.5 84.1215C927.345 81.4893 892.039 81.5896 856.9 84.4216C832.072 86.4262 807.37 89.7644 782.9 94.4216C774 96.1216 767.1 97.6215 762.4 98.6215L755.1 100.322C754.457 100.466 753.791 100.482 753.141 100.37C752.491 100.257 751.87 100.017 751.313 99.6642C750.756 99.3114 750.274 98.8521 749.894 98.3129C749.514 97.7737 749.244 97.165 749.1 96.5215C748.956 95.8781 748.939 95.2124 749.052 94.5627C749.165 93.9129 749.404 93.2917 749.757 92.7345C750.11 92.1774 750.569 91.6952 751.109 91.3155C751.648 90.9358 752.257 90.666 752.9 90.5215H753V90.2216Z" fill="#31323D"/>
<path d="M640.7 96.5215L636.1 95.6215C633.1 95.0215 628.7 94.2216 623 93.4216C607.333 91.1354 591.531 89.8994 575.7 89.7216C553.271 89.4007 530.864 91.2763 508.8 95.3216C496.358 97.6393 484.069 100.712 472 104.522C459.536 108.451 447.343 113.195 435.5 118.722C423.627 124.303 412.165 130.719 401.2 137.922C395.7 141.422 390.6 145.222 385.4 148.922C380.2 152.622 375.3 156.722 370.8 160.822L367.3 163.822L363.9 166.922L357.3 173.122L351.1 179.422C349.1 181.522 347.2 183.622 345.2 185.722C338.012 193.642 331.268 201.955 325 210.622C319.2 218.722 314.2 226.222 310.1 233.222L307.1 238.322L304.4 243.022C302.8 246.122 301.2 248.922 299.9 251.522C297.2 256.722 295.3 260.822 294 263.622L292 267.922L293.9 263.522C295.1 260.622 297 256.522 299.5 251.222C300.7 248.622 302.2 245.722 303.8 242.622L306.4 237.822L309.3 232.722C313.2 225.622 318.1 217.922 323.8 209.722C329.891 200.865 336.468 192.352 343.5 184.222C345.4 182.122 347.3 179.822 349.3 177.722L355.4 171.222L361.9 164.822L365.2 161.622L368.7 158.522C373.3 154.222 378.2 150.322 383.2 146.222C388.2 142.122 393.5 138.322 399 134.622C409.941 127.055 421.402 120.271 433.3 114.322C445.249 108.384 457.575 103.24 470.2 98.9216C482.413 94.7352 494.869 91.2955 507.5 88.6215C529.974 83.9629 552.849 81.518 575.8 81.3216C592.042 81.1371 608.278 82.0391 624.4 84.0215C630.2 84.7215 634.8 85.5215 638 86.0215L642.8 86.8216C643.99 87.1578 645.013 87.9231 645.672 88.9695C646.33 90.016 646.578 91.2694 646.367 92.4877C646.155 93.7061 645.5 94.8029 644.527 95.5663C643.555 96.3298 642.334 96.7057 641.1 96.6215H640.9L640.7 96.5215Z" fill="#31323D"/>
<path d="M0 219.722L5.5 215.121C9.1 212.121 14.4 207.822 21.4 202.422C35.2 191.722 55.3 176.822 80.7 160.722C109.604 142.422 139.743 126.149 170.9 112.021C188 104.221 206 96.9216 224.5 90.2216C243 83.5216 262.2 77.5215 281.6 72.3215C301 67.1215 320.6 62.7215 340 59.3215L354.6 56.9215L358.3 56.3215L361.9 55.8215L369.1 54.8215L376.2 53.8215L383.4 53.0215L390.5 52.2216L394 51.8215L397.5 51.5215L411.4 50.3215L425.1 49.5215C429.6 49.2215 434.1 49.1215 438.5 48.9215L445.1 48.7216H476.8L488.8 49.0215L494.6 49.2216L500.3 49.5215L511.3 50.1215L521.8 50.9215L531.8 51.8215L541.2 52.8215L550 53.8215L558.2 54.9215L572.6 57.0215L584.2 58.9215L592.8 60.4215L599.9 61.7216C601.108 62.0516 602.149 62.8231 602.816 63.8835C603.482 64.944 603.727 66.2161 603.5 67.4481C603.274 68.6801 602.594 69.7823 601.594 70.5366C600.594 71.2909 599.347 71.6424 598.1 71.5215H597.9L590.9 70.1215L582.5 68.5215L571.1 66.5215L556.9 64.2216L548.8 63.0215L540.1 61.9215L530.8 60.8215L520.9 59.8215L510.5 58.9215L499.6 58.1215L494 57.7216L488.2 57.4215L476.4 56.9215L464.2 56.6215H438.6C434.2 56.7215 429.8 56.7215 425.3 57.0215L411.7 57.6215L397.9 58.6215L394.4 58.9215L390.9 59.2216L383.9 59.9215L376.8 60.6215L369.6 61.5215L362.4 62.4215L358.8 62.8215L355.2 63.3215L340.7 65.5215C321.4 68.6215 301.8 72.7215 282.5 77.5215C263.2 82.3215 244.1 88.0215 225.5 94.4215C206.9 100.822 188.9 107.822 171.8 115.222C140.545 128.841 110.272 144.612 81.2 162.422C55.6 178.022 35.3 192.621 21.4 203.121C14.4 208.321 8.99999 212.621 5.29999 215.521L0 219.722Z" fill="#31323D"/>
<path d="M776.5 61.7216L870.1 50.0215L915.4 44.3216L940.1 41.2216L952.9 39.6215L959.5 38.8216L966.1 38.1215L972.7 37.4215L979.4 36.8216L993.1 35.9215C995.4 35.7215 997.7 35.7215 1000 35.6215L1006.9 35.4215L1013.9 35.2216H1020.9C1030.2 35.1216 1039.6 35.7216 1049.1 36.2216L1063.2 37.4215L1066.7 37.7216L1070.2 38.1215L1077.3 39.0215L1084.4 39.9215L1091.4 41.0215L1098.4 42.1215L1101.9 42.7216L1105.4 43.4215L1119.2 46.2216L1132.8 49.5215L1136.2 50.3216L1139.6 51.2216L1146.3 53.1215L1153 55.0215L1159.5 57.1215L1166 59.2216C1168.2 59.9216 1170.3 60.5216 1172.4 61.3216L1185 65.9215L1191.2 68.3216L1197.3 70.8216L1203.3 73.3216L1209.2 75.9215L1220.7 81.1215L1231.7 86.6215L1242.4 92.1215L1252.7 97.5215L1272.2 107.722L1355.7 151.422L1271.4 109.121L1251.7 99.2216L1241.3 94.0215L1230.6 88.7216L1219.5 83.4215L1208 78.4215L1202.1 75.9215L1196.1 73.6215L1190 71.2216L1183.8 68.9215L1171.2 64.6215C1169.1 63.8215 1166.9 63.2215 1164.8 62.6215L1158.3 60.6215L1151.8 58.6215L1145.2 56.9215L1138.5 55.2216L1135.2 54.3216L1131.8 53.5215L1118.2 50.5215L1104.4 48.0215L1101 47.4215L1097.5 46.9215L1090.5 45.9215L1083.5 44.9215L1076.5 44.1215L1069.5 43.4215L1066 43.0215L1062.5 42.7216L1048.5 41.7216C1039.2 41.4216 1029.9 41.0216 1020.7 41.2216H1013.8L1006.9 41.5215L1000.1 41.8216C997.8 41.9216 995.6 42.0216 993.3 42.2216L979.9 43.3216L973.3 44.0215L966.7 44.8216L960.1 45.6215L953.7 46.5215L940.9 48.3216L916.2 51.8216L871 58.2216L777.7 71.4215C776.399 71.5826 775.087 71.2262 774.046 70.429C773.005 69.6318 772.319 68.4578 772.135 67.1596C771.952 65.8614 772.285 64.543 773.064 63.4884C773.843 62.4339 775.005 61.7276 776.3 61.5215H776.4L776.5 61.7216Z" fill="#31323D"/>
<path d="M625.2 117.521L624.6 117.322L622.9 116.822C621.4 116.422 619.1 115.822 616.1 115.222C607.879 113.502 599.499 112.664 591.1 112.722C585.503 112.783 579.919 113.284 574.4 114.222C568.214 115.276 562.15 116.951 556.3 119.222C550.027 121.622 544.053 124.742 538.5 128.521L536.3 130.021L534.3 131.521L530.2 134.822C527.535 137.114 524.998 139.551 522.6 142.121C517.813 147.256 513.589 152.888 510 158.921C506.513 164.794 503.599 170.99 501.3 177.421C499.128 183.467 497.489 189.691 496.4 196.021C495.386 201.704 494.784 207.452 494.6 213.222C494.461 218.127 494.628 223.037 495.1 227.921C495.5 232.321 496.1 236.021 496.6 239.121C497.1 242.221 497.7 244.622 498.2 246.222L498.8 248.722L498.1 246.222C497.6 244.622 497 242.221 496.2 239.121C495.4 236.021 494.7 232.321 494.2 227.921C493.526 223.016 493.159 218.073 493.1 213.121C493.007 207.238 493.341 201.356 494.1 195.521C494.94 189.012 496.345 182.587 498.3 176.322C500.4 169.573 503.146 163.043 506.5 156.822C509.977 150.364 514.134 144.296 518.9 138.722C521.319 135.916 523.889 133.245 526.6 130.722C528 129.522 529.3 128.221 530.8 127.021L533 125.222L535.1 123.621C540.862 119.315 547.104 115.691 553.7 112.822C559.876 110.117 566.309 108.039 572.9 106.621C578.795 105.353 584.78 104.55 590.8 104.222C599.828 103.761 608.879 104.264 617.8 105.722C621 106.222 623.6 106.822 625.3 107.222L627.3 107.722L627.9 107.921C629.187 108.253 630.288 109.082 630.964 110.226C631.639 111.37 631.832 112.735 631.5 114.021C631.169 115.308 630.34 116.41 629.196 117.085C628.052 117.76 626.687 117.953 625.4 117.621H625.2V117.521Z" fill="#31323D"/>
<path d="M777.5 109.321L780.2 108.921L788.1 107.821L793.7 107.421L796.9 107.222H800.3C805.613 107.194 810.924 107.494 816.2 108.121C829.394 109.749 842.232 113.533 854.2 119.321C860.896 122.599 867.259 126.517 873.2 131.021C879.321 135.669 884.921 140.967 889.9 146.821C892.404 149.754 894.741 152.826 896.9 156.021C897.9 157.621 899 159.221 899.9 160.921L901.4 163.421L902.7 165.921C903.6 167.521 904.4 169.321 905.2 171.021C906 172.721 906.6 174.422 907.3 176.222C911.02 186.063 913.212 196.416 913.8 206.921C914.155 213.022 914.021 219.142 913.4 225.222C912.485 234.295 910.607 243.245 907.8 251.921C906.8 255.021 905.9 257.521 905.2 259.121L904.1 261.621L905 259.121C905.6 257.421 906.4 255.021 907.3 251.821C909.741 243.106 911.25 234.156 911.8 225.121C912.181 219.123 912.081 213.104 911.5 207.121C910.518 196.963 907.989 187.015 904 177.621C903.3 176.021 902.5 174.322 901.7 172.722C900.9 171.122 900.1 169.521 899.1 167.921C895.495 161.545 891.167 155.606 886.2 150.222C881.265 144.878 875.766 140.083 869.8 135.921C864.014 131.902 857.852 128.453 851.4 125.621C839.973 120.672 827.812 117.632 815.4 116.621C810.478 116.217 805.535 116.117 800.6 116.321L797.4 116.521L794.4 116.821L789.2 117.421L782 118.722L779.4 119.321C778.757 119.453 778.093 119.456 777.449 119.331C776.804 119.206 776.19 118.955 775.642 118.593C775.094 118.231 774.623 117.765 774.256 117.221C773.888 116.676 773.631 116.065 773.5 115.421C773.369 114.778 773.365 114.115 773.49 113.47C773.615 112.825 773.866 112.212 774.228 111.664C774.59 111.116 775.057 110.645 775.601 110.277C776.145 109.91 776.757 109.653 777.4 109.521H777.6L777.5 109.321Z" fill="#31323D"/>
</svg>
