<svg width="1437" height="332" viewBox="0 0 1437 332" fill="none" xmlns="http://www.w3.org/2000/svg">
<g style="mix-blend-mode:multiply" opacity="0.2">
<path d="M778.5 114.305C778.5 114.305 783 190.205 737.9 194.605C669.4 201.305 680.3 130.305 680.3 130.305C680.3 130.305 698.2 163.705 721.4 158.205C758.4 149.305 778.5 114.305 778.5 114.305Z" fill="#595959"/>
</g>
<path d="M678.5 135.905C678.5 135.905 677.4 176.005 728.1 176.705C778.8 177.405 779.8 106.805 779.8 106.805L718.6 72.3052L678.5 135.905Z" fill="#F29CB1"/>
<path d="M721 76.7052L728.4 138.405" stroke="#DB829B" stroke-width="25" stroke-miterlimit="10" stroke-linecap="round"/>
<path d="M729.1 62.5052L729.5 63.1052L730 63.7052L730.8 64.6052C732 66.0052 733.7 68.0052 736.2 70.5052C738.7 73.0052 741.7 76.0052 745.3 79.2052C748.9 82.4052 753.3 85.9052 758.1 89.5052C760.6 91.2052 763.1 93.1051 765.9 94.8051L770.1 97.5052L774.5 100.105C780.821 103.692 787.368 106.866 794.1 109.605C797.6 111.105 801.2 112.305 804.9 113.605L810.5 115.305C812.4 115.905 814.3 116.505 816.2 116.905L822 118.305L827.9 119.405L830.9 119.905L832.4 120.205L833.9 120.405L840 121.105L843 121.405L846 121.605L852.1 122.005H864.2L870.2 121.605L873.2 121.405L876.2 121.105L882 120.405L884.9 120.005L887.8 119.605L898.9 117.505L909.5 114.905C911.2 114.505 912.9 114.005 914.5 113.405L919.4 111.905L924.1 110.405L928.5 108.805L936.8 105.705L940.6 104.105L944.2 102.505L950.7 99.6052L953.5 98.2052L956.1 96.9051L966.3 91.8051H966.4C966.79 91.7151 967.198 91.7575 967.561 91.9256C967.924 92.0937 968.221 92.378 968.405 92.7335C968.588 93.089 968.648 93.4954 968.575 93.8886C968.501 94.2819 968.299 94.6396 968 94.9051L957.9 100.505L955.4 101.905L952.6 103.405L946.2 106.605L942.6 108.405C941.4 109.005 940.1 109.705 938.8 110.205L930.5 113.805L926 115.705L921.3 117.405L916.4 119.205C914.7 119.805 913.1 120.405 911.3 120.905L900.6 124.105L889.2 126.805L886.3 127.405L883.3 127.905L877.3 128.905L874.2 129.305L871.1 129.605L864.9 130.305L858.6 130.605L852.2 130.805H842.6L839.4 130.605L833 130.105H831.4L829.8 129.905L826.6 129.505C824.5 129.205 822.4 129.005 820.3 128.605L814 127.405C811.9 127.005 809.9 126.505 807.8 126.005L801.7 124.405C797.7 123.105 793.8 122.105 790 120.605C782.673 117.971 775.525 114.865 768.6 111.305L763.8 108.705L759.2 106.005C756.2 104.305 753.3 102.405 750.6 100.705C745.2 97.1052 740.4 93.6052 736.3 90.2052C732.2 86.8052 728.7 83.8052 726 81.1052C723.3 78.4052 721.1 76.3052 719.7 74.7052L718.8 73.7052L718.1 72.9051L717.6 72.3051C716.3 70.7934 715.655 68.8273 715.805 66.8394C715.955 64.8516 716.888 63.0047 718.4 61.7052C719.912 60.4056 721.878 59.7599 723.866 59.9099C725.853 60.0599 727.7 60.9935 729 62.5052L729.2 62.7052H729.3L729.1 62.5052Z" fill="#31323D"/>
<path d="M460.5 144.205L463.7 145.905C465.8 147.005 469 148.505 473.1 150.405C477.2 152.305 482.2 154.405 488 156.705C493.8 159.005 500.4 161.305 507.7 163.605C515 165.905 523 168.005 531.6 169.805C540.542 171.694 549.593 173.03 558.7 173.805C568.35 174.593 578.049 174.593 587.7 173.805C597.567 173.007 607.322 171.163 616.8 168.305C621.529 166.879 626.171 165.176 630.7 163.205C632.9 162.105 635.2 161.205 637.3 160.005L640.5 158.305L643.6 156.505C651.773 151.705 659.358 145.966 666.2 139.405C672.615 133.271 678.472 126.578 683.7 119.405C684.9 117.705 686.2 116.005 687.3 114.305L690.6 109.205C692.6 105.705 694.7 102.505 696.4 99.1052C700 92.6052 702.8 86.3051 705.3 80.7051C707.8 75.1051 709.6 70.1052 711 66.0052C711.8 63.9052 712.4 62.1052 713 60.5052C713.554 59.1318 714.258 57.8238 715.1 56.6052C715.66 55.8121 716.297 55.0752 717 54.4051L717.8 53.7051H718C719.313 52.7659 720.946 52.3858 722.539 52.6483C724.133 52.9107 725.557 53.7942 726.5 55.1052C726.896 55.6522 727.2 56.2601 727.4 56.9051C727.493 57.2664 727.56 57.6341 727.6 58.0052C727.731 58.9995 727.765 60.0043 727.7 61.0052C727.632 62.5592 727.397 64.1014 727 65.6052C726.414 67.5781 725.713 69.5147 724.9 71.4051C723.3 75.7051 721.1 80.9051 718.4 86.8051C715.7 92.7051 712.5 99.2052 708.5 106.105C706.6 109.605 704.3 113.105 702 116.705L698.3 122.105C697 123.905 695.6 125.705 694.2 127.505C688.303 135.166 681.708 142.263 674.5 148.705C666.789 155.633 658.299 161.64 649.2 166.605L645.7 168.505L642.1 170.205C639.7 171.405 637.2 172.405 634.8 173.405C629.835 175.367 624.76 177.037 619.6 178.405C609.362 181.073 598.87 182.649 588.3 183.105C578.145 183.499 567.975 183.031 557.9 181.705C548.559 180.509 539.306 178.705 530.2 176.305C521.5 174.005 513.5 171.405 506.2 168.705C494.436 164.381 482.977 159.269 471.9 153.405C467.9 151.305 464.8 149.505 462.7 148.305L459.5 146.305C459.295 146.135 459.152 145.901 459.095 145.64C459.038 145.38 459.069 145.107 459.184 144.866C459.298 144.626 459.49 144.43 459.728 144.31C459.967 144.19 460.238 144.153 460.5 144.205V144.205Z" fill="#31323D"/>
<path d="M654.5 43.4052C653.295 40.7845 652.871 37.872 653.279 35.0165C653.687 32.161 654.909 29.4835 656.8 27.3052C665 17.9052 683.2 3.50525 718.7 0.505254C754.2 -2.49475 772 8.50523 780.7 16.6052C782.814 18.5967 784.3 21.1627 784.975 23.9876C785.65 26.8124 785.485 29.773 784.5 32.5053V32.5053C783.199 36.1677 780.898 39.3925 777.858 41.814C774.818 44.2354 771.161 45.7566 767.3 46.2052C757.3 47.3052 743.7 51.4052 735.9 64.6052C735.418 65.4312 734.848 66.2023 734.2 66.9052L733.9 67.2052C732.292 68.9291 730.356 70.3144 728.205 71.2798C726.055 72.2452 723.733 72.7714 721.376 72.8273C719.02 72.8832 716.675 72.4676 714.481 71.6052C712.288 70.7428 710.288 69.4509 708.6 67.8052V67.8052C708.6 67.8052 700.4 55.9052 673.4 55.9052C669.454 55.8805 665.597 54.7285 662.284 52.5847C658.971 50.4409 656.34 47.3947 654.7 43.8052L654.5 43.4052Z" fill="#31323D"/>
<path d="M823.7 61.5053L831 60.0053C835.8 59.0053 842.9 57.6053 851.9 56.0053C876.754 51.6617 901.824 48.6574 927 47.0053C962.58 44.6745 998.287 45.1091 1033.8 48.3052C1053.3 50.1052 1073.3 52.8053 1093.5 56.5053C1113.7 60.2053 1134 64.9052 1154 70.7052C1174 76.5052 1193.8 83.1053 1212.8 90.6053L1227 96.4052L1240.8 102.505L1247.6 105.605L1254.3 108.805C1258.8 111.005 1263.2 113.005 1267.5 115.305L1280.4 122.005L1292.8 128.905L1295.9 130.605L1298.9 132.405L1304.9 135.905L1310.8 139.405L1316.5 143.005C1331.7 152.405 1345.6 162.005 1358.1 171.205C1370.6 180.405 1381.8 189.405 1391.5 197.505C1396.3 201.605 1400.8 205.405 1404.9 209.105L1410.8 214.305L1416.1 219.205C1419.5 222.305 1422.4 225.105 1424.9 227.505L1428.4 230.905L1431.3 233.805L1436.6 239.105L1431.2 233.905L1428.3 231.105L1424.7 227.805C1422.1 225.405 1419.2 222.605 1415.8 219.605L1410.5 214.805L1404.6 209.705C1400.5 206.105 1395.9 202.405 1391 198.305C1381.2 190.405 1370 181.605 1357.3 172.605C1344.6 163.605 1330.7 154.205 1315.4 145.105L1309.6 141.605L1303.7 138.205L1297.7 134.805L1294.7 133.105L1291.6 131.505L1279.1 124.805L1266.2 118.405C1261.9 116.205 1257.4 114.205 1253 112.105L1246.3 109.005L1239.4 106.005L1225.5 100.105L1211.3 94.6053C1192.2 87.5053 1172.6 81.1052 1152.6 75.7052C1132.6 70.3052 1112.4 65.9053 1092.4 62.6053C1072.4 59.3053 1052.5 56.9052 1033.2 55.4052C998.045 52.773 962.739 52.8733 927.6 55.7052C902.772 57.7099 878.07 61.0481 853.6 65.7052C844.7 67.4052 837.8 68.9052 833.1 69.9052L825.8 71.6053C824.501 71.897 823.138 71.6606 822.013 70.9479C820.888 70.2353 820.092 69.1048 819.8 67.8052C819.508 66.5057 819.745 65.1435 820.458 64.0182C821.17 62.893 822.301 62.097 823.6 61.8052H823.7V61.5053Z" fill="#31323D"/>
<path d="M633.9 100.305L629.2 99.6052C626.2 99.2052 621.7 98.6052 616 98.0052C600.249 96.4832 584.413 96.0155 568.6 96.6052C546.166 97.3567 523.859 100.304 502 105.405C489.688 108.332 477.566 112.006 465.7 116.405C453.429 120.948 441.47 126.293 429.9 132.405C418.323 138.544 407.195 145.495 396.6 153.205C391.3 156.905 386.3 161.005 381.3 165.005C376.3 169.005 371.6 173.305 367.3 177.605L364 180.805L360.8 184.105L354.5 190.605L348.6 197.205C346.7 199.405 344.9 201.605 343 203.805C336.195 212.048 329.852 220.661 324 229.605C318.6 237.905 313.9 245.805 310.2 252.905C309.2 254.705 308.3 256.405 307.5 258.105L305 263.005C303.5 266.205 302.1 269.005 300.9 271.705C298.5 277.005 296.8 281.205 295.6 284.105L293.8 288.505L295.5 284.005C296.6 281.105 298.2 276.805 300.5 271.505C301.6 268.805 303 265.905 304.4 262.705L306.8 257.805C307.6 256.105 308.5 254.305 309.4 252.505C313 245.205 317.5 237.305 322.7 228.805C328.375 219.671 334.551 210.857 341.2 202.405C343 200.205 344.7 197.805 346.6 195.605L352.4 188.805C354.4 186.505 356.5 184.305 358.6 182.105L361.8 178.705L365.1 175.405C369.5 170.905 374.2 166.705 379 162.405C383.8 158.105 388.9 154.005 394.2 150.105C404.77 142.029 415.897 134.711 427.5 128.205C439.145 121.72 451.205 116.008 463.6 111.105C475.61 106.329 487.899 102.288 500.4 99.0052C522.6 93.2677 545.308 89.7173 568.2 88.4051C584.422 87.4187 600.691 87.519 616.9 88.7052C622.8 89.1052 627.4 89.6052 630.5 90.0052L635.3 90.6052C636.557 90.8409 637.675 91.5491 638.426 92.5842C639.177 93.6193 639.502 94.9027 639.336 96.1705C639.169 97.4383 638.523 98.5941 637.531 99.4004C636.538 100.207 635.275 100.602 634 100.505H633.8L633.9 100.305Z" fill="#31323D"/>
<path d="M0 254.505L5.29999 249.705C8.79999 246.605 13.9 242.005 20.5 236.305C33.8 224.905 53.1 209.105 77.7 191.805C105.673 172.132 134.976 154.423 165.4 138.805C182.1 130.205 199.7 122.005 217.9 114.405C236.1 106.805 254.9 99.9052 274 93.8052C293.1 87.7052 312.5 82.4052 331.7 78.0052L346.1 74.9052L349.7 74.1052L353.3 73.4052L360.4 72.1052L367.5 70.8052L374.6 69.7052L381.7 68.6052L385.2 68.0052L388.7 67.5052L402.6 65.6052L416.3 64.1052C420.8 63.6052 425.3 63.3052 429.7 62.9052L436.3 62.3052L442.8 61.9052L455.5 61.2052L467.9 60.7052L479.9 60.5052H502.5L513.1 60.8052L523.1 61.2052L532.6 61.7052L541.5 62.3052L549.7 63.0052L564.2 64.4052L575.9 65.7052L584.5 66.8052L591.7 67.8052C592.957 68.0408 594.075 68.749 594.826 69.7842C595.577 70.8193 595.902 72.1027 595.736 73.3705C595.569 74.6383 594.924 75.7941 593.931 76.6003C592.939 77.4066 591.675 77.802 590.4 77.7052H590.2L583.1 76.6052L574.6 75.4052L563.1 73.9052L548.8 72.3052L540.7 71.5052L531.9 70.8052L522.6 70.2052L512.7 69.6052L502.3 69.2052L491.4 68.9052H468.2L456 69.2052L443.4 69.7052L437 70.0052L430.5 70.5052C426.1 70.8052 421.7 71.0052 417.2 71.5052L403.7 72.8052L389.9 74.4052L386.4 74.8052L382.9 75.3052L375.9 76.3052L368.9 77.3052L361.8 78.5052L354.7 79.7052L351.1 80.3052L347.6 81.0052L333.3 83.9052C314.1 87.9052 294.8 92.9052 275.8 98.7052C256.8 104.505 237.9 111.105 219.7 118.305C201.5 125.505 183.8 133.405 167.1 141.705C136.545 156.812 107.074 174.02 78.9 193.205C54.1 210.005 34.5 225.605 21.1 236.705C14.4 242.305 9.20001 246.805 5.70001 249.905L0 254.505Z" fill="#31323D"/>
<path d="M847.2 33.0053L940.8 21.3052L986.1 15.6053L1010.8 12.5053L1023.6 10.9052L1030.2 10.1053L1036.8 9.40519L1043.4 8.70524L1050.1 8.10526L1063.8 7.20524C1066.1 7.00524 1068.4 7.00519 1070.7 6.90519L1077.6 6.70524L1084.6 6.50529H1091.6C1100.9 6.40529 1110.3 7.00529 1119.8 7.50529L1133.9 8.70524L1137.4 9.00529L1140.9 9.40519L1148 10.3052L1155.1 11.2052L1162.1 12.3052L1169.1 13.4052L1172.6 14.0053L1176.1 14.7052L1189.9 17.5053L1203.5 20.8052L1206.9 21.6053L1210.3 22.5053L1217 24.4052L1223.7 26.3052L1230.2 28.4052L1236.7 30.5053C1238.9 31.2053 1241 31.8053 1243.1 32.6053L1255.7 37.2052L1261.9 39.6053L1268 42.1053L1274 44.6053L1279.9 47.2052L1291.4 52.4052L1302.4 57.9052L1313.1 63.4052L1323.4 68.8052L1342.9 79.0053L1426.4 122.705L1342.1 80.4052L1322.4 70.5053L1312 65.3052L1301.3 60.0053L1290.2 54.7052L1278.7 49.7052L1272.8 47.2052L1266.8 44.9052L1260.7 42.5053L1254.5 40.2052L1241.9 35.9052C1239.8 35.1052 1237.6 34.5052 1235.5 33.9052L1229 31.9052L1222.5 29.9052L1215.9 28.2052L1209.2 26.5053L1205.9 25.6053L1202.5 24.8052L1188.9 21.8052L1175.1 19.3052L1171.7 18.7052L1168.2 18.2052L1161.2 17.2052L1154.2 16.2052L1147.2 15.4052L1140.2 14.7052L1136.7 14.3052L1133.2 14.0053L1119.2 13.0053C1109.9 12.7053 1100.6 12.3053 1091.4 12.5053H1084.5L1077.6 12.8052L1070.8 13.1053C1068.5 13.2053 1066.3 13.3053 1064 13.5053L1050.6 14.6053L1044 15.3052L1037.4 16.1053L1030.8 16.9052L1024.4 17.8052L1011.6 19.6053L986.9 23.1053L941.7 29.5053L848.4 42.7052C847.099 42.8663 845.786 42.5099 844.745 41.7127C843.705 40.9155 843.019 39.7414 842.835 38.4433C842.651 37.1451 842.985 35.8267 843.764 34.7721C844.543 33.7176 845.705 33.0113 847 32.8052H847.1L847.2 33.0053Z" fill="#31323D"/>
<path d="M619.4 122.005L618.8 121.805L617 121.405C615.4 121.005 613.1 120.605 610.1 120.105C601.8 118.814 593.386 118.412 585 118.905C579.415 119.236 573.865 120.005 568.4 121.205C562.284 122.57 556.321 124.546 550.6 127.105C544.458 129.824 538.652 133.246 533.3 137.305L531.2 138.905L529.2 140.505C527.9 141.605 526.6 142.805 525.3 144.005C522.764 146.406 520.36 148.943 518.1 151.605C513.557 156.967 509.601 162.8 506.3 169.005C503.098 175.04 500.486 181.369 498.5 187.905C496.622 194.043 495.284 200.334 494.5 206.705C493.782 212.442 493.481 218.224 493.6 224.005C493.697 228.892 494.098 233.768 494.8 238.605C495.4 242.905 496.2 246.705 496.9 249.805C497.6 252.905 498.3 255.305 498.8 256.905L499.5 259.405L498.6 257.005C498 255.405 497.3 253.005 496.4 250.005C495.5 247.005 494.6 243.205 493.8 238.905C492.896 234.047 492.294 229.138 492 224.205C491.642 218.341 491.708 212.459 492.2 206.605C492.734 200.055 493.839 193.564 495.5 187.205C497.254 180.356 499.666 173.691 502.7 167.305C505.856 160.68 509.711 154.411 514.2 148.605C516.478 145.674 518.915 142.869 521.5 140.205C522.8 138.905 524.1 137.605 525.5 136.305L527.6 134.405L529.7 132.705C535.26 128.118 541.334 124.191 547.8 121.005C553.846 118.011 560.178 115.632 566.7 113.905C572.537 112.338 578.489 111.235 584.5 110.605C593.515 109.707 602.6 109.774 611.6 110.805C614.9 111.205 617.4 111.605 619.2 111.905L621.2 112.305H621.8C623.1 112.57 624.241 113.341 624.972 114.447C625.703 115.554 625.965 116.906 625.7 118.205C625.435 119.505 624.664 120.646 623.558 121.377C622.451 122.108 621.1 122.37 619.8 122.105H619.6L619.4 122.005Z" fill="#31323D"/>
<path d="M848.2 80.6052L850.9 80.2052L858.8 79.1052L864.4 78.7052L867.6 78.5052H871C876.314 78.4772 881.624 78.7777 886.9 79.4051C900.095 81.0326 912.932 84.8164 924.9 90.6052C931.596 93.8823 937.96 97.8006 943.9 102.305C950.022 106.953 955.621 112.25 960.6 118.105C963.104 121.038 965.441 124.11 967.6 127.305C968.6 128.905 969.7 130.505 970.6 132.205L972.1 134.705L973.4 137.205C974.3 138.805 975.1 140.605 975.9 142.305C976.7 144.005 977.3 145.705 978 147.505C981.721 157.347 983.913 167.7 984.5 178.205C984.855 184.306 984.722 190.426 984.1 196.505C983.185 205.578 981.307 214.529 978.5 223.205C977.5 226.305 976.6 228.805 975.9 230.405L974.8 232.905L975.7 230.405C976.3 228.705 977.1 226.305 978 223.105C980.441 214.39 981.95 205.439 982.5 196.405C982.881 190.407 982.781 184.387 982.2 178.405C981.219 168.247 978.689 158.299 974.7 148.905C974 147.305 973.2 145.605 972.4 144.005C971.6 142.405 970.8 140.805 969.8 139.205C966.195 132.829 961.867 126.889 956.9 121.505C951.965 116.161 946.466 111.367 940.5 107.205C934.714 103.186 928.552 99.7363 922.1 96.9051C910.673 91.9557 898.512 88.9152 886.1 87.9051C881.178 87.5009 876.235 87.4008 871.3 87.6052L868.1 87.8051L865.1 88.1052L859.9 88.7052L852.7 90.0052L850.1 90.6052C849.457 90.7365 848.794 90.7398 848.149 90.6148C847.504 90.4899 846.89 90.2392 846.342 89.877C845.236 89.1456 844.465 88.0047 844.2 86.7052C843.935 85.4056 844.197 84.0539 844.928 82.9475C845.66 81.841 846.801 81.0704 848.1 80.8051H848.3L848.2 80.6052Z" fill="#31323D"/>
<path d="M801.9 254.105L801.5 255.905C801.4 256.505 801.3 257.205 801 258.105L800.1 261.205C799.7 262.305 799.3 263.505 798.7 264.805C798.1 266.105 797.5 267.505 796.7 269.005C794.98 272.3 792.936 275.415 790.6 278.305C787.838 281.756 784.721 284.907 781.3 287.705L778.4 289.905L775.4 292.005C773.3 293.305 771.1 294.605 768.8 295.805C766.5 297.005 764.1 298.005 761.6 298.905L757.8 300.205L753.9 301.305C748.596 302.641 743.166 303.412 737.7 303.605C732.28 303.81 726.853 303.475 721.5 302.605C716.353 301.746 711.297 300.407 706.4 298.605L705.5 298.305L705.1 298.105H704.6L703 297.405L699.6 295.905C697.3 294.805 695.3 293.705 693.3 292.505C689.561 290.31 686.015 287.801 682.7 285.005C679.92 282.664 677.313 280.124 674.9 277.405C673.073 275.307 671.37 273.103 669.8 270.805C669.1 269.905 668.6 269.005 668.1 268.205L666.9 266.205L666 264.505C665.602 263.975 665.431 263.308 665.525 262.652C665.619 261.995 665.97 261.403 666.5 261.005C667.03 260.607 667.697 260.437 668.354 260.53C669.01 260.624 669.602 260.975 670 261.505H670.1L671.4 262.705L675 266.005C676.5 267.405 678.6 269.005 680.9 270.805C683.2 272.605 685.9 274.405 688.9 276.205C692.155 278.147 695.528 279.884 699 281.405L701.8 282.605L704.7 283.705L707.7 284.705L709.4 285.205L710.9 285.605C715.16 286.806 719.506 287.675 723.9 288.205C728.412 288.75 732.961 288.918 737.5 288.705C742.009 288.482 746.492 287.88 750.9 286.905L754.1 286.105L757.3 285.205C759.4 284.605 761.4 283.805 763.4 283.005C765.4 282.205 767.3 281.305 769.1 280.405L771.8 279.005L774.3 277.505C777.413 275.555 780.356 273.347 783.1 270.905C785.474 268.814 787.681 266.54 789.7 264.105C791.3 262.217 792.802 260.248 794.2 258.205L795.7 255.905C796.1 255.305 796.5 254.505 796.8 254.005L797.7 252.405C798.048 252.081 798.482 251.863 798.95 251.777C799.418 251.69 799.9 251.739 800.341 251.918C800.782 252.096 801.163 252.397 801.439 252.784C801.716 253.172 801.875 253.63 801.9 254.105V254.105Z" fill="#31323D"/>
<g style="mix-blend-mode:multiply" opacity="0.2">
<path d="M669.4 264.805C669.4 264.805 677.3 337.005 737.9 331.205C796.6 325.505 799.3 257.305 799.3 257.305C799.3 257.305 779.9 288.705 741.9 291.405C703.9 294.105 669.4 264.805 669.4 264.805Z" fill="#595959"/>
</g>
</svg>
