<svg width="1492" height="385" viewBox="0 0 1492 385" fill="none" xmlns="http://www.w3.org/2000/svg">
<path d="M752.921 124.502V126.002C753.021 127.002 753.221 128.502 753.621 130.502C754.516 135.932 755.718 141.308 757.221 146.602C759.306 154.092 762.12 161.36 765.621 168.302C767.57 172.135 769.809 175.812 772.321 179.302C774.901 182.87 777.851 186.155 781.121 189.102C784.379 192.034 788.011 194.522 791.921 196.502C795.722 198.393 799.758 199.772 803.921 200.602C807.904 201.389 811.963 201.724 816.021 201.602C819.713 201.483 823.391 201.081 827.021 200.402L829.521 199.902L831.921 199.302L836.321 198.102L843.321 195.702L847.721 194.002L849.321 193.402H849.421C849.827 193.3 850.255 193.342 850.632 193.521C851.01 193.7 851.313 194.005 851.491 194.383C851.668 194.762 851.708 195.19 851.605 195.595C851.501 196 851.259 196.356 850.921 196.602L849.321 197.402L844.921 199.502L837.821 202.502L833.321 204.102L830.821 204.902L828.221 205.602C824.35 206.636 820.405 207.372 816.421 207.802C811.899 208.279 807.337 208.245 802.821 207.702C797.912 207.109 793.103 205.864 788.521 204.002C783.769 202.031 779.297 199.442 775.221 196.302C771.195 193.199 767.508 189.679 764.221 185.802C761.085 182.06 758.244 178.082 755.721 173.902C751.311 166.579 747.627 158.842 744.721 150.802C742.628 145.14 740.859 139.364 739.421 133.502C738.921 131.402 738.521 129.702 738.321 128.502L738.021 127.102V126.602C737.69 124.639 738.151 122.625 739.305 121.003C740.458 119.381 742.209 118.283 744.171 117.952C746.134 117.62 748.148 118.082 749.77 119.235C751.392 120.389 752.49 122.139 752.821 124.102V124.702L752.921 124.502Z" fill="#31323D"/>
<path d="M677.721 104.902C676.569 102.244 676.21 99.3093 676.69 96.4522C677.169 93.5952 678.465 90.938 680.422 88.8017C688.922 79.6017 707.422 65.7018 742.922 63.6018C778.422 61.5018 796.022 73.0017 804.522 81.3017C806.567 83.3379 807.978 85.9244 808.581 88.747C809.185 91.5697 808.956 94.5069 807.922 97.2017V97.2017C806.53 100.846 804.142 104.025 801.03 106.377C797.918 108.729 794.207 110.158 790.321 110.502C780.321 111.402 766.622 115.102 758.522 128.102C758.04 128.928 757.47 129.699 756.821 130.402L756.522 130.702C754.867 132.379 752.893 133.71 750.717 134.615C748.542 135.52 746.207 135.981 743.851 135.972C741.494 135.962 739.163 135.482 736.994 134.56C734.826 133.638 732.863 132.292 731.221 130.602V130.602C731.221 130.602 723.321 118.502 696.321 117.802C692.372 117.677 688.54 116.424 685.28 114.191C682.019 111.959 679.466 108.839 677.922 105.202V104.902H677.721Z" fill="#31323D"/>
<path d="M824.221 307.202L823.821 309.002C823.721 309.602 823.621 310.302 823.321 311.202L822.421 314.302C822.021 315.402 821.621 316.602 821.021 317.902C820.421 319.202 819.821 320.602 819.021 322.102C817.301 325.396 815.258 328.511 812.921 331.402C810.16 334.853 807.042 338.003 803.621 340.802L800.721 343.002L797.721 345.102C795.621 346.402 793.421 347.702 791.121 348.902C788.821 350.102 786.421 351.102 783.921 352.002L780.121 353.302L776.221 354.402C770.918 355.738 765.487 356.509 760.021 356.702C754.602 356.906 749.175 356.571 743.821 355.702C738.674 354.843 733.619 353.503 728.721 351.702L727.821 351.402L727.421 351.202H726.921L725.321 350.502L721.921 349.002C719.621 347.902 717.621 346.802 715.621 345.602C711.882 343.406 708.336 340.897 705.021 338.102C702.241 335.76 699.634 333.22 697.221 330.502C695.394 328.403 693.691 326.2 692.121 323.902C691.421 323.002 690.921 322.102 690.421 321.302L689.221 319.302L688.321 317.602C687.923 317.071 687.753 316.405 687.846 315.748C687.94 315.092 688.291 314.5 688.821 314.102C689.352 313.704 690.019 313.533 690.675 313.627C691.331 313.721 691.923 314.071 692.321 314.602H692.421L693.721 315.802L697.321 319.102C698.821 320.502 700.921 322.102 703.221 323.902C705.521 325.702 708.221 327.502 711.221 329.302C714.477 331.244 717.85 332.98 721.321 334.502L724.121 335.702L727.021 336.802L730.021 337.802L731.721 338.302L733.221 338.702C737.481 339.902 741.827 340.771 746.221 341.302C750.733 341.847 755.282 342.014 759.821 341.802C764.331 341.579 768.813 340.976 773.221 340.002L776.421 339.202L779.621 338.302C781.721 337.702 783.721 336.902 785.721 336.102C787.721 335.302 789.621 334.402 791.421 333.502L794.121 332.102L796.621 330.602C799.734 328.652 802.678 326.444 805.421 324.002C807.795 321.911 810.002 319.637 812.021 317.202C813.621 315.313 815.123 313.344 816.521 311.302L818.021 309.002C818.421 308.402 818.821 307.602 819.121 307.102L820.021 305.502C820.37 305.178 820.803 304.96 821.271 304.873C821.739 304.787 822.222 304.836 822.663 305.014C823.104 305.193 823.485 305.494 823.761 305.881C824.037 306.268 824.197 306.727 824.221 307.202V307.202Z" fill="#31323D"/>
<g style="mix-blend-mode:multiply" opacity="0.2">
<path d="M691.722 317.902C691.722 317.902 699.622 390.102 760.222 384.302C818.922 378.602 821.622 310.402 821.622 310.402C821.622 310.402 802.222 341.802 764.222 344.502C726.222 347.202 691.722 317.902 691.722 317.902Z" fill="#595959"/>
</g>
<path d="M136.322 89.8018L135.822 90.6018L135.421 91.5017C135.231 91.8913 135.064 92.2921 134.921 92.7018C134.588 93.9392 134.487 95.2274 134.622 96.5017C134.803 98.2289 135.423 99.8811 136.421 101.302C137.029 102.151 137.772 102.894 138.622 103.502L138.921 103.702H139.221L140.022 104.202L140.921 104.702L141.721 105.102C144.293 106.311 147.082 106.992 149.921 107.102C153.219 107.268 156.509 106.652 159.522 105.302L160.721 104.702L161.921 104.002C162.721 103.518 163.489 102.983 164.221 102.402C165.703 101.182 167.015 99.7696 168.122 98.2018L168.522 97.6018H168.622V97.8018L168.822 97.5017L169.622 96.1018C170.214 95.2038 170.749 94.2684 171.221 93.3018L172.522 90.4017L173.622 87.2018C175.044 82.7067 175.752 78.0164 175.721 73.3018C175.544 62.5878 171.453 52.3087 164.221 44.4017C163.721 43.9017 163.321 43.3018 162.721 42.8018L161.122 41.4017L159.522 40.0017L157.721 38.7018L155.921 37.4017L153.921 36.2018L151.921 35.0017L149.921 33.9017C138.556 27.5836 125.905 23.9253 112.921 23.2018C105.994 22.7835 99.0419 23.22 92.2215 24.5017C73.7837 27.7601 56.9033 36.9198 44.1215 50.6018C42.7215 52.0018 41.5215 53.5017 40.2215 55.0017L38.4215 57.3018L36.6215 59.7018L34.9215 62.1018L34.7215 62.4017L34.5215 62.7018L34.1215 63.3018L33.3215 64.6018L30.1215 69.8018L27.2215 75.1018L25.7215 77.8018L24.3215 80.6018L22.1215 85.8018L19.6215 91.5017C18.7215 93.4017 18.1215 95.4018 17.3215 97.3018C16.5215 99.2018 15.8215 101.202 15.2215 103.202L13.3215 109.202C12.7215 111.202 12.2215 113.302 11.7215 115.302C11.2215 117.302 11.1215 117.402 10.9215 118.402L10.3215 121.502L9.62151 124.602L9.32152 126.202L9.02153 127.802C6.05311 145.085 5.71597 162.718 8.02153 180.102C8.52153 184.502 9.42148 188.902 10.2215 193.302L11.7215 199.902C11.9215 201.002 12.2215 202.102 12.6215 203.202L13.5215 206.502C16.0558 215.205 19.2655 223.698 23.1215 231.902C27.0806 240.17 31.6604 248.126 36.8215 255.702L40.8215 261.302L45.1215 266.802L47.3215 269.502L49.6215 272.102L51.9215 274.702L54.3215 277.202C57.5215 280.602 60.9215 283.702 64.3215 286.902L69.6215 291.402C71.4215 292.902 73.3215 294.302 75.1215 295.702L77.9215 297.802L80.8215 299.802L83.7215 301.802L84.4215 302.302L84.7215 302.502L85.1215 302.702L86.6215 303.702L98.8215 311.402C115.129 321.241 132.103 329.928 149.622 337.402C167.057 344.852 185.131 350.709 203.622 354.902C221.862 359.047 240.516 361.094 259.221 361.002C277.501 360.906 295.701 358.589 313.422 354.102L316.721 353.202L319.922 352.202L326.422 350.302L332.721 348.102L335.922 347.002L339.022 345.802L345.221 343.302C347.221 342.502 349.321 341.602 351.321 340.602L357.321 337.802L360.321 336.402L363.221 334.802C378.463 326.697 392.896 317.153 406.321 306.302C419.213 295.88 431.313 284.516 442.522 272.302C447.922 266.302 453.321 260.302 458.221 254.102L465.821 244.802L467.721 242.502L469.622 240.202L473.721 235.502L475.721 233.202L477.821 231.002L481.922 226.602C484.622 223.702 487.521 221.002 490.221 218.202C492.921 215.402 495.821 212.802 498.721 210.302L503.022 206.502L507.321 202.802C518.374 193.504 530.033 184.952 542.221 177.202C553.252 170.227 564.708 163.948 576.522 158.402L584.821 154.602L592.922 151.202L593.422 151.002H594.022L595.022 150.602L596.922 149.902L600.721 148.502L608.622 145.702C618.074 142.499 627.728 139.926 637.522 138.002C655.522 134.502 670.721 134.502 681.221 136.002L684.922 136.502L688.122 137.102L690.922 137.602L693.221 138.202L697.321 139.302C701.167 140.336 704.444 142.856 706.432 146.306C708.42 149.757 708.956 153.856 707.922 157.702C706.887 161.547 704.367 164.825 700.917 166.813C697.466 168.8 693.367 169.336 689.522 168.302H689.022L688.022 168.002L685.321 167.202L683.821 166.702L681.922 166.302L679.721 165.802L677.122 165.302C672.398 164.495 667.614 164.094 662.821 164.102C656.022 164.08 649.233 164.615 642.522 165.702C633.901 167.104 625.382 169.075 617.022 171.602L610.022 173.802L606.221 175.102L604.321 175.802L603.321 176.102L602.522 176.402L595.022 179.202L587.321 182.402C563.968 192.395 542.043 205.442 522.122 221.202L518.022 224.502L513.922 227.902L505.821 235.002L497.821 242.602L493.922 246.602L491.922 248.602L490.022 250.602L486.221 254.702L484.321 256.902L482.321 259.102L474.422 268.202C469.022 274.502 463.222 280.602 457.422 286.802C445.168 299.361 431.999 310.993 418.022 321.602C403.382 332.767 387.711 342.511 371.221 350.702L368.122 352.302L364.922 353.702L358.422 356.602C356.322 357.602 354.021 358.402 351.821 359.302L345.122 361.902L341.721 363.102L338.321 364.202L331.522 366.402L324.522 368.302L321.022 369.202L317.522 370.102C298.503 374.444 279.027 376.459 259.522 376.102C239.788 375.738 220.161 373.121 201.022 368.302C181.901 363.463 163.258 356.903 145.322 348.702L138.622 345.602C136.422 344.602 134.122 343.502 132.022 342.402L125.522 339.002C123.322 337.902 121.122 336.802 119.022 335.602L106.221 328.302L93.6215 320.602L81.5215 312.602L80.0215 311.602L79.6215 311.402L79.2215 311.102L78.4215 310.602L75.4215 308.402L72.4215 306.202L69.5215 303.902C67.6215 302.302 65.6215 300.902 63.8215 299.202L58.3215 294.302C54.8215 290.902 51.2215 287.502 48.0215 283.902L45.5215 281.202L43.1215 278.402L40.8215 275.602L38.5215 272.802L34.1215 267.002L30.0215 261.002C24.7568 252.966 20.1101 244.542 16.1215 235.802C12.2416 227.127 9.0322 218.167 6.52153 209.002L5.62151 205.602C5.32151 204.502 5.02152 203.302 4.82152 202.202L3.32152 195.302C2.52152 190.702 1.72148 186.102 1.22148 181.502C-2.95339 145.856 3.62871 109.777 20.1215 77.9017L21.5215 75.1018L23.1215 72.3018L26.2215 66.8018L29.5215 61.6018L30.3215 60.3018L30.7215 59.7018L30.9215 59.4017L31.2215 59.0017L33.0215 56.5017L34.9215 54.0017L36.8215 51.6018C38.2215 50.1018 39.5215 48.5017 40.9215 47.0017C43.7394 44.0749 46.7458 41.3358 49.9215 38.8018C62.1133 29.1144 76.5645 22.6802 91.9215 20.1018C99.0822 18.8452 106.37 18.4757 113.622 19.0017C120.545 19.4829 127.39 20.758 134.022 22.8018C140.311 24.761 146.378 27.3754 152.122 30.6018L154.221 31.8018L156.221 33.0017L158.122 34.2018L160.022 35.6018L161.921 37.0017L163.721 38.6018L165.421 40.2018C166.021 40.7018 166.422 41.3017 167.022 41.9017C174.766 50.4602 179.106 61.5599 179.221 73.1018C179.239 78.1583 178.463 83.1861 176.921 88.0017C176.521 89.1017 176.121 90.3017 175.721 91.4017L174.221 94.6018C173.748 95.6003 173.214 96.5687 172.622 97.5017L171.822 98.9017L171.622 99.2018V99.4017L171.421 99.6018L170.921 100.302C169.644 102.097 168.13 103.711 166.421 105.102C165.593 105.756 164.725 106.357 163.822 106.902L162.522 107.702L161.122 108.302C157.668 109.849 153.902 110.568 150.122 110.402C146.858 110.247 143.66 109.431 140.721 108.002L139.721 107.502L138.822 107.002L138.022 106.502H137.522L137.122 106.202C136.037 105.393 135.092 104.414 134.322 103.302C133.025 101.435 132.233 99.2647 132.022 97.0017C131.884 95.3515 132.054 93.6902 132.522 92.1018C132.684 91.5226 132.884 90.9546 133.122 90.4017L133.721 89.3018L134.221 88.5017C134.32 88.331 134.451 88.1814 134.607 88.0614C134.764 87.9414 134.942 87.8533 135.133 87.8023C135.323 87.7512 135.521 87.738 135.717 87.7637C135.912 87.7894 136.101 87.8533 136.272 87.9518C136.442 88.0503 136.592 88.1815 136.712 88.3378C136.832 88.4941 136.92 88.6724 136.971 88.8628C137.022 89.0532 137.035 89.2517 137.01 89.4472C136.984 89.6426 136.92 89.831 136.822 90.0017L136.322 89.8018Z" fill="#31323D"/>
<path d="M1355.62 70.6018L1356.12 71.4017L1356.72 72.5017C1356.99 73.0196 1357.22 73.5541 1357.42 74.1018C1357.92 75.6838 1358.13 77.3453 1358.02 79.0017C1357.84 81.2554 1357.08 83.4248 1355.82 85.3017C1355.06 86.4491 1354.11 87.4628 1353.02 88.3017L1352.62 88.6018H1352.12L1351.32 89.1018L1350.42 89.6018L1349.42 90.1018C1346.53 91.587 1343.37 92.4714 1340.12 92.7017C1336.37 92.9621 1332.6 92.3459 1329.12 90.9017L1327.72 90.3017L1326.32 89.6018C1325.42 89.0891 1324.55 88.5213 1323.72 87.9017C1321.99 86.5797 1320.44 85.0327 1319.12 83.3017L1318.62 82.6018L1318.42 82.4017V82.2017L1318.22 81.9017L1317.32 80.5017C1316.7 79.5713 1316.13 78.6028 1315.62 77.6018L1314.02 74.4017L1312.72 71.0017C1311.04 66.2079 1310.13 61.1795 1310.02 56.1018C1309.87 44.5481 1313.96 33.3402 1321.52 24.6018C1322.02 24.0018 1322.52 23.4017 1323.02 22.9017L1324.72 21.3017L1326.42 19.7017L1328.32 18.2017L1330.22 16.7017L1332.12 15.4017L1334.02 14.1018L1336.12 12.9017C1341.79 9.54995 1347.78 6.80163 1354.02 4.70174C1360.6 2.49568 1367.41 1.05284 1374.32 0.401693C1381.55 -0.289564 1388.84 -0.0880729 1396.02 1.00167C1411.42 3.22071 1426.01 9.3107 1438.42 18.7017C1441.66 21.1645 1444.73 23.8369 1447.62 26.7017C1449.12 28.1017 1450.42 29.7017 1451.82 31.2017L1453.82 33.6018L1455.72 36.0017L1457.62 38.5017L1457.92 38.9017L1458.12 39.2017L1458.52 39.8017L1459.42 41.1018L1462.82 46.2017L1466.12 51.6018L1467.72 54.3017L1469.22 57.1018C1486.37 88.4595 1493.78 124.213 1490.52 159.802C1490.22 164.402 1489.42 169.002 1488.82 173.602L1487.52 180.502C1487.32 181.702 1487.02 182.802 1486.72 183.902L1485.92 187.302C1483.65 196.515 1480.67 205.542 1477.02 214.302C1473.24 223.16 1468.8 231.718 1463.72 239.902L1459.82 246.002L1455.62 251.902L1453.42 254.802L1451.12 257.702L1448.82 260.502L1446.42 263.202C1443.22 266.902 1439.82 270.402 1436.32 273.902L1430.92 278.902C1429.12 280.602 1427.22 282.102 1425.32 283.702L1422.42 286.002L1419.52 288.202L1416.52 290.402L1415.82 291.002L1415.42 291.302L1415.02 291.602L1413.52 292.602L1401.62 300.802L1389.22 308.802L1376.62 316.402C1374.52 317.702 1372.32 318.802 1370.22 320.002L1363.72 323.502C1361.62 324.702 1359.42 325.802 1357.22 326.902L1350.62 330.202C1332.89 338.82 1314.41 345.815 1295.42 351.102C1276.4 356.378 1256.84 359.465 1237.12 360.302C1217.61 361.136 1198.06 359.591 1178.92 355.702L1175.42 354.902L1171.92 354.102L1164.92 352.402L1158.02 350.302L1154.62 349.302L1151.22 348.202L1144.52 345.802C1142.32 345.002 1140.02 344.202 1137.92 343.302L1131.42 340.602L1128.12 339.202L1124.92 337.702C1108.24 329.932 1092.33 320.589 1077.42 309.802C1063.2 299.513 1049.76 288.182 1037.22 275.902C1031.22 269.902 1025.22 263.902 1019.72 257.702L1011.62 248.802L1009.62 246.602L1007.62 244.502L1003.72 240.502L1001.82 238.502L999.822 236.502L995.822 232.602L987.622 225.202L979.322 218.202L975.122 214.902L970.922 211.702C950.63 196.434 928.403 183.925 904.822 174.502L897.022 171.502L889.422 168.902L888.622 168.602L887.622 168.302L885.722 167.702L881.922 166.502L874.922 164.502C866.482 162.169 857.896 160.398 849.222 159.202C842.496 158.282 835.707 157.914 828.922 158.102C824.121 158.193 819.337 158.694 814.622 159.602L812.022 160.102L809.822 160.702L807.922 161.202L806.422 161.702L803.722 162.602L802.822 162.902C799.042 164.161 794.917 163.868 791.354 162.087C787.791 160.305 785.081 157.181 783.822 153.402C782.562 149.622 782.855 145.497 784.637 141.934C786.418 138.371 789.542 135.661 793.322 134.402L793.822 134.202L797.922 133.002L800.222 132.402L802.922 131.802L806.122 131.102L809.822 130.502C820.222 128.802 835.422 128.402 853.522 131.502C863.332 133.192 873.02 135.531 882.522 138.502L890.422 141.102L894.222 142.502L896.122 143.202L897.122 143.502H897.722L898.222 143.702L906.422 146.902L914.822 150.502C926.786 155.77 938.409 161.782 949.622 168.502C961.989 175.939 973.849 184.191 985.122 193.202L989.522 196.802L993.922 200.502C996.822 203.002 999.722 205.602 1002.62 208.202C1005.52 210.802 1008.32 213.602 1011.12 216.402L1015.32 220.702L1017.42 222.902L1019.52 225.202L1023.72 229.802L1025.72 232.102L1027.62 234.402L1035.42 243.502C1040.52 249.602 1045.92 255.402 1051.52 261.302C1063.02 273.27 1075.38 284.367 1088.52 294.502C1102.18 305.038 1116.81 314.247 1132.22 322.002L1135.12 323.502L1138.12 324.902L1144.12 327.602C1146.12 328.502 1148.22 329.302 1150.22 330.102L1156.42 332.502L1159.52 333.602L1162.72 334.602L1169.12 336.702L1175.62 338.402L1178.92 339.302L1182.22 340.102C1200.02 344.193 1218.26 346.107 1236.52 345.802C1255.21 345.453 1273.8 342.97 1291.92 338.402C1310.32 333.766 1328.26 327.473 1345.52 319.602C1362.87 311.716 1379.64 302.627 1395.72 292.402L1407.82 284.402L1409.32 283.402L1409.72 283.202L1410.02 283.002L1410.72 282.502L1413.52 280.402L1416.32 278.302L1419.02 276.102C1420.82 274.602 1422.72 273.202 1424.42 271.702L1429.62 267.002C1432.92 263.802 1436.32 260.502 1439.42 257.102L1441.82 254.502L1444.02 251.802L1446.22 249.102L1448.42 246.402L1452.62 240.802L1456.52 235.102C1461.52 227.413 1465.94 219.357 1469.72 211.002C1473.39 202.683 1476.4 194.09 1478.72 185.302L1479.52 182.002C1479.82 180.902 1480.12 179.802 1480.32 178.702L1481.72 172.102C1482.42 167.702 1483.22 163.302 1483.62 158.802C1485.49 141.385 1484.71 123.787 1481.32 106.602L1481.02 105.002L1480.62 103.402L1479.92 100.302L1479.22 97.2017C1478.92 96.2017 1478.62 95.2018 1478.32 94.1018C1478.02 93.0018 1477.22 90.0017 1476.52 88.0017L1474.52 82.0017C1473.92 80.0017 1473.02 78.1018 1472.32 76.1018C1471.62 74.1018 1470.82 72.2017 1469.92 70.3017L1467.32 64.7017L1464.52 59.2017L1463.12 56.5017L1461.62 53.9017L1458.52 48.7017L1455.12 43.6018L1454.32 42.3017L1453.92 41.7017L1453.72 41.4017L1453.52 41.2017L1451.82 38.8017L1450.02 36.5017L1448.12 34.2017C1446.82 32.8017 1445.52 31.3017 1444.12 29.9017C1431.03 16.5101 1413.94 7.73618 1395.42 4.90169C1388.55 3.77882 1381.56 3.51019 1374.62 4.10177C1361.67 5.14608 1349.12 9.11204 1337.92 15.7017L1335.92 16.9017L1334.02 18.2017L1332.12 19.5017L1330.42 20.8017L1328.72 22.1018L1327.12 23.6018L1325.52 25.1018C1325.02 25.6018 1324.62 26.2017 1324.12 26.7017C1317.08 34.7888 1313.23 45.1758 1313.32 55.9017C1313.39 60.6322 1314.2 65.3229 1315.72 69.8017L1316.92 72.9017L1318.32 75.8017C1318.79 76.7683 1319.33 77.7036 1319.92 78.6018L1320.82 80.0017L1321.02 80.3017V80.5017H1321.12L1321.62 81.1018C1322.77 82.6407 1324.11 84.0196 1325.62 85.2017C1326.36 85.7487 1327.12 86.2497 1327.92 86.7017L1329.12 87.4017L1330.32 87.9017C1333.38 89.1987 1336.71 89.7472 1340.02 89.5017C1342.84 89.3155 1345.6 88.5676 1348.12 87.3017L1348.92 86.9017L1349.82 86.4017L1350.62 85.9017H1350.92L1351.22 85.6018C1352.04 84.9558 1352.75 84.1787 1353.32 83.3017C1354.3 81.8421 1354.89 80.1542 1355.02 78.4017C1355.11 77.1543 1354.98 75.901 1354.62 74.7017C1354.48 74.2922 1354.31 73.8914 1354.12 73.5017L1353.72 72.7017L1353.22 71.9017C1353.08 71.7391 1352.98 71.5479 1352.92 71.3413C1352.85 71.1346 1352.84 70.9173 1352.87 70.7041C1352.9 70.4909 1352.98 70.2869 1353.09 70.1058C1353.21 69.9247 1353.36 69.7709 1353.55 69.6547C1353.73 69.5386 1353.93 69.4629 1354.14 69.4328C1354.36 69.4027 1354.58 69.4189 1354.78 69.4803C1354.99 69.5417 1355.18 69.6469 1355.34 69.7887C1355.5 69.9304 1355.63 70.1053 1355.72 70.3017L1355.62 70.6018Z" fill="#31323D"/>
<path d="M752.422 126.402V126.902L752.121 128.302C751.921 129.502 751.521 131.202 751.021 133.302C749.584 139.164 747.814 144.94 745.721 150.602C742.816 158.642 739.132 166.378 734.721 173.702C732.199 177.882 729.357 181.86 726.221 185.602C722.935 189.479 719.248 192.999 715.221 196.102C711.146 199.242 706.674 201.831 701.922 203.802C697.34 205.664 692.531 206.909 687.621 207.502C683.106 208.045 678.544 208.079 674.021 207.602C670.038 207.172 666.093 206.436 662.221 205.402L659.621 204.702L657.121 203.902L652.621 202.302L645.521 199.302L641.121 197.202L639.521 196.402C639.204 196.156 638.977 195.812 638.877 195.423C638.777 195.034 638.811 194.623 638.972 194.255C639.133 193.887 639.412 193.584 639.765 193.393C640.119 193.202 640.526 193.135 640.922 193.202H641.021L642.621 193.802L647.021 195.502L654.021 197.902L658.422 199.102L660.821 199.702L663.321 200.202C666.952 200.881 670.63 201.282 674.321 201.402C678.38 201.524 682.439 201.189 686.422 200.402C690.585 199.572 694.62 198.193 698.422 196.302C702.332 194.322 705.963 191.834 709.221 188.902C712.492 185.955 715.442 182.67 718.021 179.102C720.533 175.612 722.773 171.935 724.721 168.102C728.223 161.16 731.036 153.892 733.121 146.402C734.625 141.107 735.827 135.732 736.721 130.302C737.021 128.302 737.222 126.802 737.422 125.802V124.302C737.727 122.425 738.734 120.735 740.238 119.572C741.743 118.41 743.633 117.862 745.526 118.04C747.419 118.218 749.173 119.108 750.435 120.53C751.697 121.953 752.371 123.801 752.321 125.702V126.302L752.422 126.402Z" fill="#31323D"/>
</svg>
