<svg width="856" height="402" viewBox="0 0 856 402" fill="none" xmlns="http://www.w3.org/2000/svg">
<path d="M324.9 159.809C361 175.609 361.7 306.109 421 309.609C485.6 313.409 481.2 168.009 507.1 142.409C460.9 113.409 422.5 59.2092 422.5 59.2092C369.6 155.709 324.9 159.809 324.9 159.809V159.809Z" fill="#31323D"/>
<path d="M347.5 292.809C347.5 292.809 364.1 256.009 420.1 253.809C478 251.509 497.8 301.509 497.8 301.509L421.8 319.509L347.5 292.809Z" fill="#F29CB1"/>
<path d="M422.5 59.2092L417.8 156.409C417 171.309 399.3 178.709 388.2 168.809L350.8 135.409L377.4 119.609L422.5 59.2092Z" fill="white" stroke="#31323D" stroke-width="7" stroke-miterlimit="10" stroke-linecap="round"/>
<path d="M432 76.3092L433.4 148.009C433.8 164.209 454.4 170.609 463.9 157.609L495.7 113.909" fill="white"/>
<path d="M432 76.3092L433.4 148.009C433.8 164.209 454.4 170.609 463.9 157.609L495.7 113.909" stroke="#31323D" stroke-width="7" stroke-miterlimit="10" stroke-linecap="round"/>
<path d="M324.9 159.809C361 175.609 361.7 306.109 421 309.609C485.6 313.409 481.2 168.009 507.1 142.409C460.9 113.409 422.5 59.2092 422.5 59.2092C369.6 155.709 324.9 159.809 324.9 159.809V159.809Z" stroke="#31323D" stroke-width="8" stroke-linecap="round" stroke-linejoin="round"/>
<path d="M432.9 62.0093L434 63.7093L437.5 68.5093C440.6 72.7093 445.1 78.6093 450.8 85.4093C456.5 92.2093 463.5 100.009 471.5 107.809C479.752 115.977 488.502 123.625 497.7 130.709C506.925 137.769 516.803 143.93 527.2 149.109C536.235 153.537 545.771 156.861 555.6 159.009C559.563 159.815 563.57 160.382 567.6 160.709C570.692 160.994 573.797 161.094 576.9 161.009C579.5 160.909 581.5 160.809 582.9 160.609L585 160.409H585.1C585.324 160.381 585.551 160.398 585.768 160.459C585.984 160.519 586.187 160.622 586.364 160.762C586.541 160.901 586.688 161.075 586.797 161.272C586.906 161.469 586.975 161.685 587 161.909C587.061 162.358 586.951 162.812 586.691 163.183C586.432 163.554 586.042 163.813 585.6 163.909L583.4 164.209C581.9 164.509 579.8 164.709 577.1 165.009C573.874 165.276 570.637 165.376 567.4 165.309C563.153 165.194 558.914 164.86 554.7 164.309C544.218 162.659 533.976 159.738 524.2 155.609C513.062 150.852 502.412 145.025 492.4 138.209C482.353 131.489 472.765 124.106 463.7 116.109C455 108.509 447.3 100.909 441 94.2093C434.7 87.5093 429.6 81.7093 426.1 77.5093L422.1 72.6093L420.7 70.7093C420.086 69.9388 419.631 69.0533 419.364 68.1048C419.096 67.1563 419.02 66.1639 419.142 65.1858C419.263 64.2078 419.578 63.2637 420.069 62.4091C420.56 61.5545 421.216 60.8066 422 60.2093C423.592 59.0133 425.586 58.4807 427.562 58.7231C429.539 58.9655 431.344 59.9641 432.6 61.5093C432.6 61.5869 432.618 61.6635 432.653 61.7329C432.688 61.8024 432.738 61.8628 432.8 61.9093L432.9 62.0093Z" fill="#31323D"/>
<path d="M430.2 56.7092L430.4 57.5093C430.545 58.1994 430.579 58.9084 430.5 59.6092C430.475 60.6364 430.272 61.6514 429.9 62.6092C429.5 63.7092 428.8 64.8092 428.2 66.2092C427.757 66.8838 427.356 67.5852 427 68.3092L425.7 70.6092C424.8 72.2092 423.8 74.0092 422.7 75.8092C421.6 77.6092 420.5 79.7092 419.3 81.7092L415.3 88.1092L410.8 94.9093C409.2 97.3093 407.4 99.6092 405.7 102.109C404 104.609 402 107.009 400.1 109.509C398.2 112.009 396 114.509 393.8 117.009L392.2 118.909L390.5 120.709C389.4 122.009 388.2 123.209 387.1 124.409L383.5 128.109L379.7 131.709C377.1 134.009 374.6 136.509 371.8 138.609L367.7 142.009L363.4 145.109C357.649 149.193 351.599 152.836 345.3 156.009C339.121 159.043 332.699 161.551 326.1 163.509C314.524 166.915 302.447 168.302 290.4 167.609C285.633 167.441 280.885 166.906 276.2 166.009C272.594 165.398 269.022 164.596 265.5 163.609L258.7 161.609L256.4 160.809C256.249 160.763 256.108 160.688 255.986 160.588C255.864 160.488 255.763 160.365 255.689 160.225C255.614 160.086 255.568 159.933 255.553 159.776C255.538 159.619 255.554 159.46 255.6 159.309C255.692 159.026 255.887 158.787 256.146 158.639C256.404 158.491 256.709 158.445 257 158.509H257.1L259.4 159.109L266.2 160.509C269.1 160.909 272.6 161.509 276.7 161.909C281.255 162.306 285.829 162.439 290.4 162.309C295.806 162.212 301.193 161.643 306.5 160.609C312.364 159.614 318.122 158.074 323.7 156.009C329.677 153.784 335.463 151.075 341 147.909C346.665 144.649 352.08 140.972 357.2 136.909L361 133.709L364.7 130.409C367.1 128.209 369.4 125.809 371.7 123.609C374 121.409 373.9 121.209 375 120.009C376.1 118.809 377.3 117.609 378.3 116.409L381.3 112.709L382.9 110.909L384.3 109.109C388.1 104.209 391.6 99.3093 394.8 94.5093C396.4 92.1093 398 89.8093 399.4 87.5093L403.4 80.8092L407 74.5093C408.1 72.5093 409.2 70.7093 410.1 68.9093L412.7 63.8092C413.106 63.0964 413.474 62.362 413.8 61.6092C414.2 60.9092 414.5 60.1093 414.9 59.5093C415.378 58.2521 415.981 57.046 416.7 55.9093C417.234 55.0368 417.91 54.2594 418.7 53.6092C419.258 53.1782 419.862 52.8094 420.5 52.5093L421.3 52.2092C423.078 51.6907 424.986 51.867 426.638 52.7025C428.291 53.538 429.564 54.9703 430.2 56.7092V56.7092Z" fill="#31323D"/>
<path d="M357.5 36.7092C356.54 33.9661 356.397 31.003 357.09 28.1803C357.782 25.3576 359.279 22.7968 361.4 20.8092C370.5 12.2092 389.9 -0.390706 425.5 0.00929368C461.1 0.409294 477.8 13.0093 485.6 21.9093C487.537 24.0622 488.79 26.7425 489.199 29.6094C489.609 32.4763 489.157 35.4002 487.9 38.0093C486.268 41.5345 483.677 44.5293 480.423 46.6514C477.169 48.7734 473.384 49.9371 469.5 50.0093C459.4 50.2093 445.5 53.0092 436.5 65.3092C435.921 66.0877 435.286 66.823 434.6 67.5093L434.3 67.8092C432.535 69.389 430.468 70.5962 428.225 71.3583C425.982 72.1204 423.608 72.4217 421.246 72.2443C418.883 72.0669 416.581 71.4144 414.477 70.3258C412.372 69.2373 410.51 67.7351 409 65.9093C409 65.9093 401.9 53.3092 375.1 50.8092C371.174 50.406 367.445 48.8944 364.346 46.4508C361.247 44.0073 358.907 40.7327 357.6 37.0093L357.5 36.7092Z" fill="#31323D"/>
<g style="mix-blend-mode:multiply" opacity="0.2">
<path d="M347.7 324.409C347.7 324.409 343.5 397.009 404.2 401.309C463 405.409 477 338.609 477 338.609C477 338.609 452.6 366.309 414.7 362.709C376.8 359.109 347.7 324.409 347.7 324.409Z" fill="#595959"/>
</g>
<path d="M480.1 335.909C479.838 336.464 479.604 337.031 479.4 337.609C479.169 338.289 478.902 338.957 478.6 339.609L477.2 342.509C476.6 343.509 475.9 344.609 475.2 345.909C474.5 347.209 473.6 348.309 472.6 349.609C470.371 352.609 467.822 355.359 465 357.809C461.705 360.763 458.12 363.376 454.3 365.609L451.1 367.209L447.7 368.809C445.379 369.796 443.009 370.664 440.6 371.409C438.1 372.109 435.6 372.809 433 373.309L429 373.909C427.679 374.141 426.342 374.275 425 374.309C419.535 374.774 414.036 374.64 408.6 373.909C403.227 373.186 397.936 371.947 392.8 370.209C387.851 368.469 383.066 366.294 378.5 363.709L377.7 363.209L377.3 363.009L377 362.809H376.8L375.3 361.909L372.3 359.809C370.323 358.481 368.42 357.045 366.6 355.509C363.234 352.724 360.121 349.645 357.3 346.309C354.923 343.561 352.782 340.617 350.9 337.509C349.424 335.157 348.089 332.719 346.9 330.209C346.4 329.109 346.1 328.209 345.7 327.409L344.9 325.209L344.3 323.509C344.174 323.202 344.113 322.872 344.121 322.54C344.129 322.207 344.207 321.881 344.348 321.58C344.489 321.279 344.691 321.011 344.941 320.792C345.191 320.573 345.483 320.409 345.8 320.309C346.307 320.126 346.858 320.104 347.378 320.247C347.897 320.391 348.359 320.692 348.7 321.109H348.8L349.8 322.609L352.8 326.509C354.1 328.109 355.8 330.009 357.8 332.109C359.8 334.209 362.2 336.509 364.8 338.809C367.4 341.109 370.6 343.309 373.9 345.509L376.5 347.109L379.1 348.709L381.9 350.209C382.462 350.415 382.998 350.684 383.5 351.009L384.9 351.609C388.914 353.475 393.058 355.046 397.3 356.309C401.618 357.596 406.032 358.533 410.5 359.109C414.981 359.623 419.494 359.79 424 359.609L427.3 359.309L430.6 359.009C432.721 358.725 434.824 358.324 436.9 357.809C438.96 357.382 440.996 356.848 443 356.209L445.8 355.209L448.6 354.109C451.963 352.707 455.207 351.035 458.3 349.109C461.002 347.436 463.576 345.564 466 343.509C468.1 341.709 469.9 339.909 471.4 338.409L473.2 336.409C473.702 335.872 474.169 335.304 474.6 334.709L475.8 333.309C476.227 332.809 476.834 332.497 477.489 332.441C478.144 332.385 478.795 332.589 479.3 333.009C479.706 333.359 479.999 333.821 480.141 334.338C480.284 334.854 480.27 335.401 480.1 335.909V335.909Z" fill="#31323D"/>
<path d="M517.5 83.7093L521.5 82.8093L533 80.7093C542.8 79.0093 556.9 76.9093 574 75.3093C593.376 73.4678 612.838 72.6668 632.3 72.9094C643 73.0094 654 73.5094 665.2 74.4094C676.4 75.3094 687.7 76.7093 698.9 78.6093C710.081 80.4075 721.162 82.7773 732.1 85.7093C742.698 88.5824 753.144 91.9868 763.4 95.9094C772.94 99.6696 782.256 103.977 791.3 108.809C799.343 113.184 807.123 118.026 814.6 123.309C820.942 127.823 827.018 132.698 832.8 137.909C834.1 139.009 835.3 140.209 836.4 141.309L839.8 144.509L842.8 147.609L845.5 150.409C847.2 152.209 848.6 153.909 849.9 155.409C851.2 156.909 852.2 158.109 853 159.109L855.6 162.309L853 159.209L849.7 155.509L845.2 150.709L842.4 147.909L839.3 145.009L835.9 141.909L832.2 138.609C826.311 133.63 820.169 128.958 813.8 124.609C806.23 119.55 798.348 114.974 790.2 110.909C781.156 106.339 771.838 102.332 762.3 98.9094C752.09 95.2309 741.672 92.1588 731.1 89.7093C720.3 87.1093 709.3 85.1093 698.1 83.5093C686.9 81.9093 675.8 81.0094 664.8 80.4094C653.8 79.8094 642.8 79.6093 632.3 79.7093C613.108 79.9901 593.946 81.3255 574.9 83.7093C558.1 85.7093 544.3 88.2093 534.7 90.1093L523.6 92.5093L519.7 93.4094C519.043 93.6209 518.35 93.6942 517.664 93.6248C516.978 93.5554 516.313 93.3447 515.712 93.006C515.111 92.6674 514.587 92.2082 514.172 91.657C513.757 91.1059 513.461 90.4749 513.302 89.8038C513.143 89.1326 513.124 88.4357 513.247 87.757C513.371 87.0783 513.633 86.4324 514.018 85.86C514.403 85.2876 514.902 84.8011 515.484 84.431C516.066 84.0608 516.718 83.8151 517.4 83.7093H517.5Z" fill="#31323D"/>
<path d="M690.4 34.4093L683.8 34.6093L676.2 35.0093L666.3 35.6093L654.6 36.7092L641.7 38.2092C637.2 38.8092 632.6 39.3093 627.9 40.1093L620.8 41.2092L613.7 42.5093L606.6 43.8092C604.3 44.3092 601.9 44.7092 599.6 45.3092L592.7 46.8092L586 48.3092L579.6 49.9093L573.4 51.5093L562.2 54.7092L552.8 57.5093L545.6 59.9093L539.4 62.0093H539.3C538.053 62.424 536.693 62.3312 535.515 61.7511C534.336 61.171 533.432 60.1502 533 58.9093C532.78 58.2858 532.685 57.6246 532.722 56.9642C532.758 56.3038 532.926 55.6573 533.214 55.062C533.502 54.4668 533.906 53.9347 534.401 53.4965C534.897 53.0583 535.474 52.7227 536.1 52.5093H536.4L542.9 50.8092L550.4 48.9093L560.1 46.6093L571.7 44.2092L578 42.9093L584.7 41.8092L591.5 40.6093L598.6 39.5093L605.7 38.5093L613 37.6093L620.2 36.8092L627.4 36.2092C632.1 35.7092 636.8 35.5093 641.4 35.1093L654.5 34.5093L666.2 34.2092H683.8L690.4 34.4093Z" fill="#31323D"/>
<path d="M531.4 106.809L539.1 105.609L543.5 105.309L548.6 104.909C552.636 104.769 556.676 104.869 560.7 105.209L564 105.409L567.5 105.809L571.1 106.309L574.8 107.009L578.5 107.709L582.3 108.709L586.2 109.709L590.1 110.909L594 112.209L597.9 113.709L601.8 115.209L605.7 117.009L607.7 117.809L609.6 118.809L613.4 120.709C616 122.009 618.5 123.509 621 124.909C626 127.843 630.8 130.943 635.4 134.209C640 137.409 644.4 140.909 648.5 144.309C652.6 147.709 656.5 151.109 660.1 154.509C663.7 157.909 666.9 161.209 669.9 164.209C672.9 167.209 675.5 170.209 677.7 172.809L683.5 179.709C686.6 183.609 688.3 185.909 688.3 185.909C688.3 185.909 686.5 183.709 683.2 180.009C681.5 178.209 679.5 175.909 677 173.509C674.5 171.109 671.9 168.309 668.8 165.309C665.7 162.309 662.3 159.309 658.5 156.209C654.7 153.109 650.8 149.909 646.6 146.709C642.4 143.509 637.8 140.509 633.1 137.609C628.4 134.709 623.6 131.909 618.6 129.209L611.1 125.609L607.2 124.009L605.3 123.109L603.4 122.409L599.6 121.009L595.7 119.709L591.9 118.509L588.2 117.509L584.4 116.509L580.7 115.809C579.52 115.48 578.317 115.246 577.1 115.109L573.5 114.609L570.1 114.109L566.7 113.909L563.4 113.609H560.3C556.595 113.528 552.889 113.661 549.2 114.009L544.6 114.509C543.324 114.645 542.055 114.845 540.8 115.109L533.2 116.709C531.891 116.951 530.539 116.681 529.422 115.955C528.306 115.23 527.511 114.104 527.2 112.809C527.068 112.166 527.065 111.503 527.19 110.858C527.315 110.213 527.565 109.599 527.927 109.051C528.29 108.503 528.756 108.032 529.301 107.665C529.845 107.297 530.456 107.041 531.1 106.909L531.4 106.809Z" fill="#31323D"/>
<path d="M340.7 108.809L325.3 105.809C315.4 103.809 301.5 101.109 284.6 98.3092C276.2 96.9092 267 95.6093 257.3 94.4093C247.6 93.2093 237.4 92.0092 226.7 91.2092C216 90.4092 205.1 89.8093 193.9 89.6093C182.7 89.4093 171.3 89.7093 160 90.4093C148.7 91.1093 137.3 92.4092 126.3 94.3092C120.8 95.2092 115.4 96.4093 110 97.6093C104.6 98.8093 99.4 100.109 94.3 101.709C73.9 107.809 55.6999 116.409 41.4999 125.809C34.9631 130.084 28.7466 134.83 22.9 140.009L19.2 143.409C18 144.409 16.9 145.509 15.8 146.609L12.7 149.709C11.8 150.709 10.9 151.609 10.1 152.609C8.53945 154.191 7.07037 155.86 5.70001 157.609L3.89996 159.609L2.5 161.409L0 164.609L2.39996 161.309L3.79999 159.509L5.5 157.409C6.7 155.909 8.10001 154.109 9.70001 152.309C11.3 150.509 11.4 150.309 12.4 149.309L15.3 146.109L18.7 142.809C19.8 141.709 21 140.409 22.3 139.309C28.045 133.952 34.1602 129.007 40.6 124.509C56.8661 113.412 74.6496 104.722 93.4 98.7092C98.5 97.0092 103.8 95.5093 109.2 94.1093C114.6 92.7093 120 91.4092 125.6 90.3092C136.7 88.1092 148.1 86.6093 159.6 85.5093C171.1 84.4093 182.6 83.8092 193.9 83.7092C205.2 83.6092 216.4 83.8093 227.2 84.4093C238 85.0093 248.3 85.7092 258.2 86.7092C268.1 87.7092 277.3 88.8093 285.8 90.0093C302.9 92.3093 317.1 94.7092 327 96.3092L342.5 98.9093C343.147 99.0062 343.769 99.2316 344.327 99.5725C344.886 99.9134 345.371 100.363 345.753 100.894C346.135 101.425 346.407 102.028 346.552 102.666C346.698 103.304 346.714 103.965 346.6 104.609C346.491 105.261 346.254 105.884 345.903 106.443C345.552 107.003 345.094 107.487 344.555 107.868C344.015 108.249 343.406 108.52 342.761 108.664C342.117 108.809 341.45 108.824 340.8 108.709L340.7 108.809Z" fill="#31323D"/>
<path d="M166 50.1093L167.7 49.7093L172.7 48.9093L180.5 47.8092L190.6 46.8092C199.111 46.0384 207.655 45.7047 216.2 45.8092C220.9 45.9092 225.7 46.0092 230.6 46.3092L238.1 46.9093L245.5 47.7093L253 48.7093C255.4 49.1093 257.9 49.4093 260.3 49.9093C265.2 50.7093 270 51.8092 274.6 52.8092L281.3 54.5093L287.8 56.2093L299.4 59.8092L309.2 63.3092L316.6 66.2093L321.3 68.2093L323 68.9093C324.205 69.4569 325.15 70.4516 325.635 71.6833C326.121 72.9149 326.108 74.2869 325.6 75.5093C325.35 76.1237 324.978 76.681 324.507 77.1474C324.035 77.6138 323.474 77.9796 322.857 78.2227C322.24 78.4658 321.58 78.5811 320.917 78.5616C320.254 78.5421 319.602 78.3882 319 78.1093H318.7L317.1 77.3092L312.7 75.1093C310.8 74.1093 308.4 73.0092 305.7 71.8092L296.5 67.8092C293.1 66.5092 289.4 65.0093 285.4 63.6093L279.3 61.5093L272.8 59.5093C268.4 58.2093 263.8 56.9092 259.1 55.8092L252 54.2093C249.6 53.6093 247.2 53.2092 244.8 52.8092L237.5 51.5093L230.2 50.5093C225.4 49.9093 220.7 49.4093 216 49.1093C206.8 48.4093 198.1 48.3093 190.7 48.4093L180.6 48.9093L172.7 49.5093L167.7 50.0093L166 50.1093Z" fill="#31323D"/>
<path d="M328 132.609L320.3 130.709L316.6 130.109L314.4 129.809L313.3 129.609H312.1L306.8 129.209H299.4L297.8 129.409L294.5 129.709C292.3 129.809 290.1 130.309 287.7 130.609C285.3 130.909 283 131.609 280.6 132.109L278.8 132.509L276.9 133.109L273.2 134.209C271.942 134.569 270.707 135.003 269.5 135.509L265.7 136.909L258.2 140.109C253.3 142.509 248.2 145.109 243.4 148.009L239.8 150.209L236.3 152.509C233.9 154.009 231.7 155.709 229.4 157.309C227.1 158.909 224.9 160.609 222.8 162.309L216.5 167.409L213.5 170.009L210.6 172.609C208.6 174.309 206.8 176.009 205 177.709C203.2 179.409 201.6 181.009 199.9 182.609L195.2 187.409C192.3 190.509 189.6 193.409 187.4 196.009C185.2 198.609 183.1 200.909 181.5 202.909C178.4 206.709 176.7 209.109 176.7 209.109C176.7 209.109 178.2 206.709 181.2 202.609L186.6 195.409C188.8 192.709 191.3 189.609 194.1 186.409L198.5 181.309L203.4 176.009C205.1 174.209 206.8 172.409 208.7 170.609C210.6 168.809 210.5 168.709 211.5 167.809L214.4 165.109C216.3 163.209 218.4 161.409 220.5 159.509L226.9 154.109C229.1 152.309 231.3 150.509 233.7 148.809L237.2 146.209L240.8 143.809C245.541 140.504 250.484 137.498 255.6 134.809L263.2 131.009L267.1 129.309C268.4 128.809 269.7 128.209 271 127.809L274.8 126.409L276.7 125.709L278.7 125.109C281.2 124.409 283.7 123.609 286.2 123.109C288.606 122.507 291.043 122.04 293.5 121.709L297 121.209L298.7 120.909H300.4L306.8 120.509H315.3L317.9 120.809L322.3 121.309L330.1 122.709C330.776 122.799 331.426 123.026 332.01 123.376C332.595 123.727 333.102 124.193 333.5 124.746C333.898 125.3 334.178 125.928 334.324 126.594C334.47 127.26 334.479 127.948 334.349 128.617C334.219 129.286 333.954 129.922 333.57 130.485C333.186 131.047 332.69 131.526 332.115 131.89C331.539 132.255 330.894 132.498 330.221 132.604C329.548 132.711 328.86 132.678 328.2 132.509L328 132.609Z" fill="#31323D"/>
</svg>
