<svg width="615" height="258" viewBox="0 0 615 258" fill="none" xmlns="http://www.w3.org/2000/svg">
<path d="M223.6 142.606C251.2 154.706 251.8 183.106 297.3 185.806C346.8 188.706 343.4 149.006 363.2 129.306C327.8 107.106 298.4 65.6063 298.4 65.6063C257.9 139.506 223.6 142.606 223.6 142.606Z" fill="#31323D"/>
<path d="M243.3 185.506C243.3 185.506 256 157.306 298.9 155.606C341.8 153.906 358.4 192.206 358.4 192.206L300.2 206.006L243.3 185.506Z" fill="#F29CB1"/>
<path d="M271.9 88.1063L269.3 142.306C269.229 144.185 268.625 146.005 267.557 147.553C266.49 149.101 265.004 150.313 263.273 151.047C261.543 151.782 259.638 152.008 257.784 151.7C255.929 151.391 254.2 150.561 252.8 149.306L231.9 130.706L246.8 121.906L271.9 88.1063Z" fill="white" stroke="#31323D" stroke-width="7" stroke-miterlimit="10" stroke-linecap="round"/>
<path d="M326.7 89.3064L327.6 134.306C327.9 144.406 340.8 148.506 346.8 140.306L366.7 112.906" fill="white"/>
<path d="M326.7 89.3064L327.6 134.306C327.9 144.406 340.8 148.506 346.8 140.306L366.7 112.906" stroke="#31323D" stroke-width="7" stroke-miterlimit="10" stroke-linecap="round"/>
<path d="M223.6 142.606C251.2 154.706 251.8 183.106 297.3 185.806C346.8 188.706 343.4 149.006 363.2 129.306C327.8 107.106 298.4 65.6063 298.4 65.6063C257.9 139.506 223.6 142.606 223.6 142.606Z" stroke="#31323D" stroke-width="8" stroke-linecap="round" stroke-linejoin="round"/>
<path d="M309.2 53.3063L311.4 57.4063L313.8 61.5063L318.9 69.7064C322.4 75.1064 326.1 80.3063 330 85.5063C337.568 95.8017 346.254 105.226 355.9 113.606C360.666 117.761 365.823 121.445 371.3 124.606C376.702 127.663 382.534 129.888 388.6 131.206C394.668 132.542 400.962 132.473 407 131.006C410.06 130.309 413.042 129.303 415.9 128.006C418.765 126.604 421.508 124.965 424.1 123.106H424.2C424.589 122.871 425.053 122.792 425.498 122.885C425.943 122.977 426.337 123.235 426.6 123.606C426.731 123.781 426.826 123.981 426.877 124.194C426.928 124.406 426.935 124.627 426.898 124.843C426.86 125.059 426.779 125.264 426.659 125.447C426.539 125.63 426.383 125.786 426.2 125.906C423.587 128.098 420.775 130.04 417.8 131.706C414.828 133.418 411.675 134.793 408.4 135.806C401.671 137.869 394.574 138.449 387.6 137.506C380.711 136.626 374.018 134.598 367.8 131.506C361.598 128.562 355.702 125.011 350.2 120.906C339.346 112.75 329.42 103.427 320.6 93.1063C316.1 88.1063 311.9 82.8063 307.8 77.5063L301.8 69.3063L299 65.1063L296.1 60.7064C295.058 59.0207 294.725 56.9913 295.175 55.0613C295.625 53.1314 296.82 51.4579 298.5 50.4063C300.201 49.3594 302.246 49.0243 304.192 49.4735C306.138 49.9226 307.829 51.1199 308.9 52.8063L309.1 53.2064L309.2 53.3063Z" fill="#31323D"/>
<path d="M306.2 48.9064C306.716 49.9963 306.923 51.2068 306.8 52.4064C306.701 53.3479 306.43 54.2632 306 55.1063L303.4 60.2064L298.1 70.3064C294.5 77.0064 290.8 83.7064 286.9 90.3064C283 96.9064 278.8 103.406 274.2 109.706C269.582 116.065 264.394 121.99 258.7 127.406C252.934 133.056 246.279 137.718 239 141.206C231.594 144.668 223.469 146.314 215.3 146.006C207.375 145.723 199.589 143.852 192.4 140.506C185.375 137.353 178.705 133.465 172.5 128.906C172.374 128.809 172.269 128.687 172.19 128.548C172.112 128.409 172.062 128.257 172.043 128.098C172.025 127.94 172.038 127.78 172.082 127.627C172.126 127.473 172.2 127.331 172.3 127.206C172.462 126.972 172.709 126.809 172.989 126.753C173.269 126.697 173.56 126.752 173.8 126.906V126.906C177.1 128.706 180.4 130.506 183.8 132.006L186.3 133.206L188.9 134.206C190.6 134.806 192.3 135.606 194.1 136.106C200.887 138.411 208.037 139.461 215.2 139.206C222.194 138.848 229.008 136.862 235.1 133.406C241.161 129.844 246.655 125.395 251.4 120.206C261 109.606 268.6 96.9064 275.5 83.9064C279 77.3064 282.2 70.6064 285.4 63.9064L290.2 53.7064L292.5 48.6063C292.915 47.7093 293.491 46.896 294.2 46.2064C295.094 45.4952 296.111 44.9529 297.2 44.6063C298.966 44.0951 300.859 44.2507 302.518 45.0435C304.177 45.8362 305.488 47.2109 306.2 48.9064V48.9064Z" fill="#31323D"/>
<path d="M245.7 30.4064C244.929 28.1289 244.82 25.6794 245.387 23.3427C245.953 21.0059 247.171 18.8781 248.9 17.2064C256.4 10.1064 272.5 -0.293653 301.9 0.00634748C331.3 0.306347 345.1 10.8063 351.6 18.1063C353.204 19.9029 354.24 22.1342 354.578 24.5188C354.916 26.9034 354.541 29.3347 353.5 31.5063C352.14 34.4089 349.997 36.8738 347.311 38.623C344.625 40.3723 341.504 41.3363 338.3 41.4064C330 41.5064 318.4 43.8063 311 54.1063C310.554 54.7183 310.051 55.2875 309.5 55.8064L309.2 56.1063C307.729 57.3888 306.019 58.3659 304.167 58.9805C302.315 59.595 300.36 59.8348 298.414 59.6859C296.469 59.537 294.573 59.0023 292.836 58.113C291.1 57.2238 289.558 55.9977 288.3 54.5063V54.5063C288.3 54.5063 282.5 44.1063 260.3 42.0063C257.046 41.6909 253.951 40.4494 251.381 38.429C248.811 36.4085 246.874 33.6937 245.8 30.6063L245.7 30.4064Z" fill="#31323D"/>
<g style="mix-blend-mode:multiply" opacity="0.2">
<path d="M249.2 202.706C249.2 202.706 251.2 258.306 297.9 257.206C344.6 256.106 348.9 204.206 348.9 204.206C348.9 204.206 332.3 227.106 303.1 227.006C273.9 226.906 249.2 202.706 249.2 202.706Z" fill="#595959"/>
</g>
<path d="M351.6 202.106C351.083 204.842 350.209 207.498 349 210.006C347.86 212.601 346.416 215.051 344.7 217.306C342.991 219.633 341.084 221.808 339 223.806C336.866 225.737 334.593 227.508 332.2 229.106C322.36 235.339 310.834 238.377 299.2 237.806C287.759 237.373 276.657 233.81 267.1 227.506C257.7 221.406 250 212.606 246.1 202.406C245.97 202.098 245.904 201.767 245.904 201.433C245.905 201.099 245.972 200.768 246.103 200.461C246.233 200.153 246.424 199.875 246.664 199.642C246.904 199.409 247.188 199.227 247.5 199.106C247.974 198.921 248.492 198.88 248.99 198.986C249.488 199.093 249.943 199.343 250.3 199.706V199.706C256.829 206.692 264.636 212.361 273.3 216.406C281.59 220.265 290.563 222.441 299.7 222.806C308.68 223.056 317.601 221.278 325.8 217.606C327.8 216.606 329.8 215.606 331.7 214.406C333.668 213.222 335.541 211.884 337.3 210.406C339.095 208.911 340.798 207.308 342.4 205.606C344.035 203.826 345.571 201.957 347 200.006H347.1C347.53 199.49 348.137 199.152 348.803 199.06C349.469 198.967 350.145 199.127 350.7 199.506C351.078 199.812 351.363 200.218 351.522 200.678C351.681 201.137 351.708 201.632 351.6 202.106V202.106Z" fill="#31323D"/>
<path d="M212.3 65.9064L206.2 63.1063L203.2 61.7064L200 60.5063L196.9 59.3064C195.8 58.9064 194.8 58.4063 193.7 58.1063L187.3 56.1063L184 55.1063L180.7 54.3064L174.2 52.6063L167.5 51.3064L164.1 50.7064L160.8 50.1063C142.691 47.4721 124.348 46.8351 106.1 48.2064L99.2999 48.8064L95.7999 49.1063L92.3999 49.6063L85.6 50.6063L82.2 51.0063L78.7999 51.6063L65.2999 54.3064L51.8999 57.7064C34.1244 62.7806 16.7719 69.2334 0 77.0063C16.4548 68.4067 33.577 61.1498 51.2 55.3064L64.5 51.3064L78.1 47.9064L81.5 47.2064L84.8999 46.6063L91.7999 45.3064L95.2 44.6063L98.7 44.2064L105.6 43.2064C124.222 40.9396 143.04 40.7719 161.7 42.7064L165.2 43.1063L168.7 43.6063L175.7 44.7064L182.7 46.1063L186.2 46.8064L189.6 47.7064L196.5 49.5063L199.9 50.6063L203.3 51.7064L206.7 52.9064C207.832 53.2526 208.936 53.6873 210 54.2064L216.6 56.9064C217.833 57.4103 218.816 58.3834 219.332 59.6118C219.847 60.8402 219.854 62.2231 219.35 63.4564C218.846 64.6897 217.873 65.6721 216.645 66.1878C215.416 66.7036 214.033 66.7103 212.8 66.2064H212.6L212.3 65.9064Z" fill="#31323D"/>
<path d="M208.5 95.3064C198.59 92.2908 188.346 90.5106 178 90.0063C167.521 89.5091 157.019 90.2136 146.7 92.1063C136.295 94.0479 126.087 96.9264 116.2 100.706C106.255 104.545 96.5968 109.09 87.2998 114.306C96.2103 108.35 105.534 103.037 115.2 98.4063C125.007 93.7582 135.215 90.0095 145.7 87.2064C156.256 84.434 167.091 82.8574 178 82.5063C189.085 82.1933 200.167 83.2343 211 85.6063C211.641 85.7365 212.249 85.9937 212.789 86.3628C213.329 86.7318 213.79 87.2052 214.144 87.7551C214.498 88.305 214.739 88.9202 214.851 89.5644C214.964 90.2087 214.946 90.8689 214.8 91.5063C214.511 92.793 213.736 93.9181 212.636 94.6452C211.536 95.3724 210.197 95.6451 208.9 95.4063L208.5 95.3064Z" fill="#31323D"/>
<path d="M397.6 52.8063L404.2 50.0063L407.5 48.7064L410.9 47.6063L414.3 46.4063L417.7 45.3063L424.6 43.5063L428 42.6063L431.5 41.9063L438.5 40.5063L445.5 39.5063L449 39.0063L452.5 38.5063C471.166 36.6553 489.978 36.8564 508.6 39.1063L515.5 40.0063L519 40.5063L522.4 41.1063L529.3 42.4063L532.7 43.0063L536.1 43.8063L549.7 47.1063L563 51.2064C580.623 57.0498 597.745 64.3067 614.2 72.9063C597.464 65.0467 580.105 58.5911 562.3 53.6063L548.9 50.2064L535.4 47.5063C534.286 47.2096 533.149 47.0089 532 46.9063L528.6 46.4063L521.8 45.4063L518.4 45.0063L514.9 44.7064L508.1 44.1063C489.854 42.6348 471.5 43.2724 453.4 46.0063L450.1 46.5063L446.7 47.2064L440 48.5063L433.5 50.1063L430.2 50.9063L426.9 51.9063L420.5 54.0063L417.3 55.1063L414.2 56.4063L411 57.6063C410 57.9063 409 58.5063 408 58.9063L401.9 61.8063H401.6C401 62.1774 400.327 62.4171 399.628 62.5097C398.928 62.6023 398.217 62.5458 397.54 62.3437C396.864 62.1416 396.238 61.7986 395.704 61.3374C395.17 60.8761 394.739 60.3069 394.441 59.6673C394.142 59.0277 393.983 58.3322 393.972 57.6264C393.962 56.9207 394.101 56.2208 394.381 55.5727C394.66 54.9246 395.074 54.343 395.594 53.8662C396.115 53.3894 396.73 53.0282 397.4 52.8063H397.6Z" fill="#31323D"/>
<path d="M403.2 81.4064C414.041 79.0829 425.117 78.0425 436.2 78.3064C447.113 78.691 457.947 80.3011 468.5 83.1064C478.996 85.8304 489.209 89.5472 499 94.2065C508.688 98.8327 518.014 104.181 526.9 110.206C517.626 104.918 507.965 100.338 498 96.5064C488.098 92.7722 477.894 89.895 467.5 87.9064C457.175 86.0639 446.679 85.3597 436.2 85.8064C425.854 86.3107 415.61 88.0907 405.7 91.1064C404.44 91.4817 403.083 91.3459 401.923 90.7283C400.763 90.1107 399.892 89.061 399.5 87.8064C399.122 86.5334 399.255 85.1628 399.871 83.9862C400.487 82.8097 401.538 81.9201 402.8 81.5064L403.2 81.4064Z" fill="#31323D"/>
</svg>
