<svg width="1153" height="769" viewBox="0 0 1153 769" fill="none" xmlns="http://www.w3.org/2000/svg">
<path opacity="0.2" d="M393.885 375.414C379.218 373.863 331.974 425.055 352.282 469.619C355.526 476.67 362.436 477.939 367.654 472.439C383.167 456.363 398.256 454.388 398.256 454.388C386.833 454.952 352.564 529.978 429.846 590.901C432.336 592.856 435.639 593.434 438.644 592.442C441.65 591.449 443.959 589.018 444.795 585.965C447.128 578.172 450.296 570.654 454.244 563.542C454.824 562.73 455.87 562.396 456.815 562.721C457.759 563.047 458.377 563.954 458.333 564.952C454.526 588.08 454.808 636.029 513.192 662.542C550.846 679.606 547.038 726.004 539.705 756.465C538.759 760.392 540.414 764.486 543.823 766.652C547.232 768.819 551.641 768.579 554.795 766.055C611.628 720.504 747.154 601.055 706.256 525.606C706.256 525.606 743.769 548.593 757.026 584.978C758.485 589.064 762.21 591.911 766.535 592.246C770.861 592.581 774.98 590.342 777.051 586.529C799.897 543.657 835.013 456.08 787.346 388.247" fill="#595959"/>
<path d="M582.859 98.7214L583.564 102.67C583.987 105.209 584.692 109.016 585.538 113.811C586.384 118.606 587.513 124.106 588.923 130.734C590.333 137.362 592.025 144.555 594.141 152.452C595.269 156.401 596.256 160.491 597.525 164.721L599.359 171.209L601.474 177.837C602.884 182.35 604.577 186.862 606.128 191.375C607.679 195.888 609.654 200.683 611.769 205.337C615.836 214.926 620.499 224.252 625.731 233.26C631.09 242.496 637.273 251.228 644.205 259.35C651.084 267.402 658.949 274.557 667.615 280.645C671.849 283.576 676.278 286.215 680.872 288.542C694.096 295.061 708.581 298.622 723.32 298.978C727.838 299.113 732.359 298.971 736.859 298.555C741.069 298.21 745.259 297.646 749.41 296.862C756.74 295.491 763.954 293.558 770.987 291.08C776.416 289.163 781.735 286.95 786.923 284.452C791.295 282.337 794.538 280.503 796.795 279.234L799.333 277.683L800.179 277.119H800.32C800.95 276.691 801.761 276.631 802.446 276.962C803.132 277.293 803.589 277.965 803.645 278.725C803.701 279.485 803.348 280.216 802.718 280.645L801.872 281.209L799.333 282.901C797.077 284.311 793.833 286.427 789.461 288.683C784.199 291.516 778.784 294.058 773.243 296.298C766.054 299.211 758.652 301.569 751.102 303.35C746.775 304.376 742.397 305.176 737.987 305.747C733.219 306.414 728.416 306.791 723.602 306.875C718.515 306.976 713.427 306.741 708.372 306.17C697.522 304.953 686.919 302.1 676.923 297.709C671.713 295.381 666.671 292.695 661.833 289.67C652.055 283.437 643.1 275.998 635.179 267.529C627.327 259.159 620.247 250.096 614.025 240.452C608.021 231.164 602.604 221.508 597.807 211.542C595.41 206.747 593.295 201.952 591.32 197.157C589.346 192.362 587.372 187.709 585.679 183.196L583.141 176.427L580.884 169.798C579.333 165.427 578.064 161.196 576.795 157.247C574.256 149.068 572.141 141.593 570.307 134.965C568.474 128.337 567.205 122.414 565.936 117.619C564.666 112.824 563.961 109.157 563.397 106.619L562.551 102.67C561.434 98.8887 562.513 94.7997 565.35 92.0617C568.187 89.3237 572.312 88.3913 576.051 89.6429C579.791 90.8944 582.523 94.1219 583.141 98.0163V98.5804L582.859 98.7214Z" fill="#31323D"/>
<path d="M384.013 279.939L387.256 281.632C389.513 282.76 392.756 284.311 396.987 285.862C402.099 287.904 407.326 289.647 412.641 291.08C419.525 292.94 426.555 294.214 433.654 294.888C437.686 295.241 441.735 295.382 445.782 295.311C450.079 295.207 454.366 294.83 458.615 294.183C467.652 292.806 476.411 289.997 484.564 285.862C488.848 283.651 492.95 281.105 496.833 278.247C500.775 275.274 504.498 272.022 507.974 268.516C515.025 261.238 521.18 253.142 526.308 244.401C531.471 235.563 535.905 226.319 539.564 216.76C543.164 207.448 546.225 197.937 548.731 188.273C551.128 178.824 553.244 169.657 554.795 160.773C556.346 151.888 557.615 143.568 558.603 135.67C559.026 131.721 559.449 128.055 559.872 124.388C560.295 120.721 560.577 117.478 560.859 114.234C561.141 110.991 561.423 108.029 561.564 105.35L562.128 97.7343L562.833 83.3496C563.035 79.5709 565.237 76.1867 568.61 74.4718C571.984 72.757 576.015 72.972 579.187 75.0359C582.359 77.0998 584.189 80.6991 583.987 84.4779V85.042L582.436 99.8496L581.449 107.606C581.167 110.427 580.744 113.529 580.32 116.773C579.897 120.016 579.474 123.542 578.769 127.209C578.064 130.875 577.641 134.683 576.936 138.773C575.526 146.811 573.833 155.414 571.718 164.58C569.603 173.747 567.064 183.196 563.962 193.068C560.82 203.145 557.1 213.033 552.82 222.683C548.399 232.73 543.163 242.399 537.167 251.593C531.063 260.882 523.866 269.404 515.731 276.978C511.702 280.666 507.413 284.059 502.897 287.132C498.455 290.08 493.786 292.674 488.936 294.888C479.726 299.001 469.919 301.619 459.885 302.645C455.294 303.124 450.678 303.313 446.064 303.209C441.77 303.057 437.486 302.68 433.231 302.08C425.862 301.001 418.597 299.302 411.513 297.003C406.085 295.246 400.764 293.174 395.577 290.798C391.205 288.824 387.961 287.132 385.705 285.862L382.32 283.888C381.615 283.586 381.125 282.93 381.034 282.168C380.943 281.406 381.265 280.654 381.88 280.194C382.494 279.734 383.307 279.637 384.013 279.939Z" fill="#31323D"/>
<path fill-rule="evenodd" clip-rule="evenodd" d="M485.128 30.747C479.167 36.5691 477.18 45.3481 480.051 53.17L480.192 53.3111V53.7341C484.102 64.3949 493.839 71.8212 505.154 72.7726C542.949 75.7341 553.244 93.3623 553.244 93.3623C557.648 98.4496 563.92 101.543 570.637 101.941C577.355 102.34 583.948 100.009 588.923 95.4777L589.346 95.0546C590.351 94.1223 591.249 93.0818 592.026 91.9521C604.436 74.3239 624.038 70.0931 638.141 69.67C649.353 69.2984 659.371 62.565 663.949 52.3239C667.382 44.7263 665.999 35.8175 660.423 29.6188C649.141 17.2085 625.308 -0.278682 575.103 0.00336926C524.897 0.285421 497.821 18.3367 485.128 30.747ZM681.859 166.696L676.218 167.824H676.077C673.456 168.231 671.285 170.073 670.459 172.593C669.632 175.113 670.289 177.884 672.159 179.764C674.029 181.645 676.796 182.317 679.32 181.503L684.82 180.234L700.474 176.85C714.013 174.17 733.474 170.644 757.026 167.824C783.888 164.5 810.91 162.617 837.974 162.183C852.923 161.901 868.154 162.183 883.808 163.029C899.462 163.875 915.115 165.426 930.91 167.542C946.705 169.657 962.218 172.478 977.449 176.144C992.341 179.664 1007.03 183.995 1021.45 189.119C1034.89 193.98 1048.02 199.631 1060.79 206.042C1072.24 211.833 1083.3 218.333 1093.94 225.503C1102.95 231.537 1111.62 238.082 1119.88 245.106L1125.24 249.76L1130.04 254.132L1134.41 258.362L1138.22 262.311C1139.96 264.058 1141.56 265.804 1143.01 267.387L1143.01 267.391L1143.44 267.864C1143.58 268.007 1143.71 268.149 1143.83 268.289L1144.01 268.485L1144.16 268.641L1144.26 268.753C1144.36 268.863 1144.46 268.972 1144.56 269.08L1149.08 274.157L1152.88 278.529L1149.22 274.016L1144.85 268.798C1144.05 267.939 1143.22 267.001 1142.35 266.005C1141.22 264.712 1140 263.322 1138.64 261.888L1134.83 257.798L1130.6 253.567L1125.95 249.055L1120.73 244.26C1112.62 236.962 1104.1 230.135 1095.21 223.811C1084.64 216.314 1073.62 209.485 1062.21 203.362C1049.46 196.528 1036.32 190.453 1022.86 185.17C1008.42 179.574 993.683 174.772 978.718 170.785C963.487 166.696 947.692 163.452 931.897 160.773C916.103 158.093 900.167 156.119 884.372 154.85C868.577 153.58 853.064 152.875 837.974 152.734C810.528 152.394 783.082 153.523 755.756 156.119C731.782 158.375 711.897 161.337 697.936 163.734L681.859 166.696ZM920.051 98.2982L910.744 98.7213L900.026 99.2854L886.064 100.273L869.564 101.683L851.231 103.798L849.962 103.967L849.962 103.967L849.961 103.967C844.02 104.758 837.956 105.566 831.769 106.619L821.756 108.17L811.744 110.003L801.731 111.978L791.859 113.952L782.128 116.067L772.679 118.324L763.654 120.58L755.051 122.837L739.256 127.209L726 131.157L715.846 134.401L707.103 137.362H706.962C704.568 138.168 701.927 137.637 700.032 135.967C698.137 134.298 697.277 131.744 697.776 129.268C698.274 126.793 700.055 124.771 702.449 123.965H702.872L712.038 121.567L722.615 118.888L736.295 115.644L752.654 112.119L761.538 110.426L770.846 108.734L780.577 107.042L790.449 105.491L800.603 104.08L810.756 102.811L820.91 101.683L831.064 100.696C834.978 100.288 838.846 100.022 842.639 99.7605C845.405 99.57 848.131 99.3823 850.808 99.1444L869.282 98.2982L885.782 97.8752H910.603L920.051 98.2982ZM706.68 198.708L695.82 200.401L696.385 200.542H695.962C693.493 201.046 691.48 202.828 690.682 205.218C689.884 207.608 690.422 210.242 692.092 212.129C693.763 214.015 696.313 214.866 698.782 214.362L709.5 212.106L714.859 211.401L721.205 210.555C722.268 210.492 723.351 210.416 724.457 210.338C728.34 210.064 732.499 209.771 737 209.991H741.372L746.026 210.414L750.82 210.837L755.756 211.401L760.833 212.106L765.91 213.093L771.128 214.221L776.346 215.632L781.705 217.042L787.064 218.734L792.423 220.567L797.782 222.542L800.462 223.529L803.141 224.657L808.5 227.055L819.218 232.132C826.128 235.798 833.038 239.747 839.667 243.837C846.295 247.926 852.5 252.298 858.564 256.811C864.628 261.324 870.269 265.837 875.487 270.208C880.705 274.58 885.5 278.952 889.872 283.042C894.244 287.132 898.192 291.08 901.577 294.465C903.818 296.706 905.812 298.885 907.599 300.839C908.511 301.836 909.37 302.774 910.179 303.632C914.833 308.85 917.372 311.952 917.372 311.952C917.372 311.952 914.974 308.708 910.603 303.208C908.974 301.173 907.052 298.917 904.941 296.44L904.92 296.415L904.826 296.304C904.504 295.927 904.178 295.544 903.848 295.157L903.4 294.63C903.078 294.251 902.752 293.867 902.423 293.478C899.32 289.811 895.654 285.58 891.423 281.35C890.243 280.169 889.04 278.945 887.81 277.692C884.63 274.454 881.263 271.025 877.603 267.67C872.526 263.016 867.026 258.08 861.244 253.285C855.462 248.491 849.256 243.696 842.769 239.042C836.282 234.388 829.372 230.157 822.462 225.927L822.462 225.926L811.744 220.003L806.244 217.324L803.564 215.914L800.744 214.644L795.244 212.247L789.744 209.991L784.244 207.875L778.744 206.042L773.244 204.35L767.744 202.939L762.385 201.67L757.026 200.683L751.808 199.696L746.731 198.991L741.795 198.285L737 198.003C732.137 197.451 727.534 197.504 723.327 197.554H723.326C722.165 197.567 721.034 197.58 719.936 197.58L712.744 198.144L706.68 198.708ZM480.615 191.657L458.756 187.426C457.241 187.133 455.655 186.824 454 186.501C440.558 183.883 422.579 180.381 401.359 176.991C389.513 175.016 376.538 173.183 362.859 171.35C349.18 169.516 334.654 168.106 319.705 166.837C304.756 165.567 289.244 164.862 273.449 164.58C257.654 164.298 241.577 164.721 225.641 165.708C209.716 166.738 193.854 168.573 178.115 171.208C170.359 172.478 162.603 174.029 155.128 175.721C147.654 177.414 140.179 179.388 132.987 181.644C106.65 189.302 81.5664 200.751 58.5256 215.632C49.3236 221.632 40.5581 228.277 32.2949 235.516C31.0841 236.541 29.9348 237.627 28.8064 238.693C28.2262 239.241 27.6516 239.784 27.0769 240.311L22.2821 244.824L17.9103 249.196L14.1026 253.285C12.3015 255.192 10.7392 257.02 9.2961 258.708L9.29545 258.709L9.29529 258.709C8.81773 259.267 8.35323 259.811 7.89744 260.337L5.5 263.298L3.52564 265.837L0 270.35L3.52564 265.696L5.35897 263.157L7.75641 260.196C7.95151 259.952 8.15036 259.702 8.35318 259.448C9.90958 257.495 11.6995 255.249 13.8205 253.003L17.4872 248.773L21.7179 244.26L26.3718 239.465C27.0053 238.884 27.6191 238.264 28.2426 237.634L28.2427 237.634C29.2849 236.58 30.3545 235.5 31.5897 234.529C39.6933 227.02 48.3173 220.092 57.3974 213.798C80.3124 198.071 105.396 185.767 131.859 177.273C139.051 174.875 146.526 172.76 154.141 170.785C161.756 168.811 169.513 166.978 177.269 165.567C193.125 162.456 209.129 160.15 225.218 158.657C241.436 157.106 257.654 156.401 273.59 156.119C289.526 155.837 305.32 156.26 320.551 157.106C335.782 157.952 350.449 159.08 364.269 160.491C378.09 161.901 391.205 163.452 403.333 165.144C427.449 168.388 447.333 171.773 461.295 174.17L483.154 177.837C485.648 178.265 487.724 179.991 488.6 182.365C489.476 184.739 489.019 187.4 487.401 189.346C485.783 191.292 483.25 192.227 480.756 191.798H480.615V191.657ZM237.487 119.311L227.756 120.157L227.897 119.311H237.487ZM237.487 119.311L248.628 118.465L263.154 117.619L280.359 117.055H320.128L330.705 117.478L341.423 118.183L352.141 119.029L362.718 119.875L373.154 120.862L383.308 121.991L388.244 122.555L393.038 123.26L402.346 124.529L419.41 127.35L433.795 130.029L444.795 132.285L454.385 134.401C458.201 135.219 460.632 138.975 459.814 142.792C458.996 146.608 455.24 149.039 451.423 148.221H450.859L441.551 145.542L430.833 142.721L416.872 139.196L400.231 135.388L391.064 133.555L386.41 132.567L381.615 131.721L371.744 129.888L361.59 128.196L351.154 126.644L340.718 125.234L330.282 123.965L319.846 122.837L314.628 122.273L309.551 121.85L299.538 121.003L280.5 119.875L263.295 119.311H237.487ZM462.705 225.221L451.987 222.542L446.628 221.696L443.667 221.273L442.115 220.991H440.282L432.808 220.426H420.115L415.462 220.85C413.422 220.942 411.321 221.279 409.199 221.619L409.198 221.619C408.093 221.796 406.982 221.974 405.872 222.119C403.754 222.395 401.576 222.912 399.377 223.433L399.377 223.433C398.208 223.711 397.034 223.989 395.859 224.234L393.321 224.798L390.782 225.503L385.564 227.055L380.346 228.888L374.987 230.862L364.41 235.375C357.266 238.728 350.3 242.447 343.538 246.516L338.462 249.619L333.526 252.862C331.269 254.272 329.139 255.808 327.008 257.343L327.007 257.344C325.942 258.112 324.876 258.879 323.795 259.632L314.487 266.683C313.5 267.482 312.497 268.281 311.495 269.08L311.494 269.081C309.488 270.679 307.483 272.277 305.603 273.875L301.372 277.542L297.282 281.208L289.526 288.401L282.333 295.452L275.705 302.221C271.474 306.593 267.808 310.683 264.564 314.35L256.385 324.08C251.872 329.58 249.474 332.824 249.474 332.824C249.474 332.824 251.731 329.439 255.821 323.798C256.284 323.18 256.768 322.528 257.274 321.847L257.282 321.836C259.082 319.411 261.158 316.613 263.577 313.644C264.609 312.378 265.673 311.048 266.778 309.667L266.784 309.659L266.786 309.656C269 306.889 271.381 303.913 274.013 300.811L280.218 293.619L287.128 286.144L294.603 278.529L298.551 274.58L302.641 270.632C305.321 267.952 308.282 265.414 311.244 262.875L320.269 255.26C321.375 254.405 322.481 253.515 323.6 252.614L323.601 252.613C325.62 250.987 327.681 249.328 329.859 247.785L334.795 244.119L339.872 240.593C346.607 236.007 353.573 231.771 360.744 227.901L371.603 222.542L377.103 220.144L382.603 217.888L388.103 215.914L390.782 214.926L393.462 214.08C394.669 213.755 395.846 213.399 397.008 213.048L397.008 213.048C399.373 212.333 401.674 211.638 404.038 211.26C405.496 211.027 406.93 210.697 408.35 210.37C410.363 209.907 412.348 209.451 414.333 209.285L419.269 208.58L421.667 208.298H424.064L433.09 207.734H445.077L448.603 208.157L454.949 208.862L465.808 210.837C469.341 211.802 471.547 215.311 470.885 218.913C470.224 222.515 466.915 225.011 463.269 224.657H462.846L462.705 225.221ZM390.5 365.119L393.038 361.875L393.603 362.157H393.744C394.449 361.427 394.711 360.375 394.431 359.399C394.151 358.423 393.372 357.67 392.386 357.425C391.401 357.179 390.359 357.478 389.654 358.208L386.269 361.593L383.167 365.26L380.346 369.067C380.021 369.61 379.675 370.131 379.332 370.647C378.783 371.474 378.242 372.289 377.808 373.157C377.455 373.862 377.067 374.567 376.68 375.272C376.292 375.978 375.904 376.683 375.551 377.388C374.846 378.798 374.141 380.35 373.577 381.76L371.885 386.273L370.474 390.926C370.018 392.457 369.641 394.01 369.346 395.58C368.971 397.161 368.689 398.762 368.5 400.375L367.936 405.17C367.795 406.721 367.795 408.414 367.795 409.965C367.694 411.562 367.694 413.163 367.795 414.76L368.077 419.555V421.952L368.5 424.35L369.346 429.144C369.818 431.815 371.838 433.946 374.479 434.56C377.12 435.174 379.873 434.153 381.474 431.965L382.321 430.696L384.436 427.17L385.564 425.478L386.833 423.785L389.372 420.542L392.192 417.439L393.603 415.888L395.154 414.478L398.256 411.798L401.641 409.26C402.205 408.837 402.805 408.484 403.404 408.132C404.003 407.779 404.603 407.426 405.167 407.003L406.859 405.875L408.692 404.888L412.359 402.914L416.167 401.221L420.115 399.67L421.446 399.195C420.566 400.951 419.699 402.708 418.846 404.465L416.59 409.542L414.474 414.619L412.5 419.696L410.667 424.914L408.974 430.132L407.423 435.491C406.436 439.157 405.167 444.516 404.744 446.35C404.321 448.183 403.615 451.85 403.615 451.85L402.769 457.35C402.225 460.885 401.944 464.552 401.671 468.096L401.641 468.491V474.132C401.547 475.359 401.579 476.65 401.61 477.919C401.626 478.545 401.641 479.167 401.641 479.773C401.641 481.606 401.782 483.58 401.923 485.414L401.951 485.781C402.083 487.508 402.224 489.343 402.487 491.055C402.628 491.971 402.769 492.923 402.91 493.875C403.051 494.827 403.192 495.779 403.333 496.696L404.462 502.337C404.631 503.437 404.952 504.537 405.274 505.637C405.488 506.37 405.703 507.103 405.872 507.837L406.718 510.657L407.705 513.337C408.269 515.17 408.833 517.003 409.68 518.696L412.077 523.914C412.5 524.929 413.075 525.944 413.651 526.96C414.034 527.637 414.418 528.314 414.756 528.991L416.167 531.529L417.718 533.926L420.821 538.721L424.346 543.234L426.18 545.491L428.154 547.606L431.962 551.837C433.97 554.046 437.17 554.716 439.895 553.497C442.621 552.279 444.256 549.448 443.949 546.478V545.773C443.736 544.418 443.595 543.053 443.526 541.683C443.45 540.321 443.45 538.955 443.526 537.593C443.642 536.221 443.83 534.856 444.09 533.503C444.348 532.124 444.677 530.759 445.077 529.414C445.16 529.163 445.244 528.907 445.328 528.648C445.672 527.593 446.034 526.484 446.487 525.465L447.333 523.491L448.321 521.516L449.308 519.542L450.436 517.708L452.974 514.042L455.654 510.516L458.615 507.132L461.859 503.888L465.244 500.785C465.926 500.183 466.609 499.592 467.291 499.013C467.264 499.463 467.239 499.912 467.218 500.362C466.938 506.283 466.985 512.216 467.359 518.132C467.723 524.09 468.429 530.023 469.474 535.901C470.609 541.773 472.116 547.567 473.987 553.247C475.93 558.958 478.286 564.52 481.038 569.888C482.449 572.567 485.551 577.785 485.551 577.785L488.09 581.593L490.769 585.26C491.288 586.039 491.861 586.711 492.453 587.408C492.827 587.847 493.208 588.295 493.59 588.785C493.829 589.093 494.002 589.326 494.157 589.535C494.641 590.187 494.949 590.602 496.551 592.311L496.552 592.312C498.667 594.568 500.782 596.824 503.038 598.798L506.423 601.901L509.949 604.721C511.831 606.271 513.8 607.561 515.788 608.862C516.332 609.219 516.878 609.576 517.423 609.939L521.231 612.337L525.18 614.593L529.269 616.568L533.077 618.401L536.885 620.375L537.872 620.798L538.718 621.221L540.269 622.208L541.821 623.196L543.231 624.324C543.453 624.482 543.682 624.641 543.914 624.801C544.711 625.353 545.537 625.924 546.192 626.58C549.93 629.768 553.081 633.587 555.5 637.862C557.913 642.186 559.672 646.843 560.718 651.683C562.761 661.963 562.857 672.534 561 682.849C560.143 688.18 558.965 693.455 557.474 698.644C556.769 701.324 555.923 703.862 555.077 706.401L553.667 710.208L552.256 713.734C551.034 716.61 551.849 719.947 554.26 721.935C556.671 723.922 560.103 724.086 562.692 722.337C566.265 719.798 569.712 717.26 573.16 714.721C574.883 713.452 576.607 712.183 578.346 710.914L593.577 699.208C603.637 691.217 613.509 682.991 623.192 674.529C642.686 657.643 661.015 639.456 678.051 620.093C686.615 610.305 694.619 600.04 702.026 589.349C705.692 583.991 709.171 578.444 712.462 572.708C715.758 566.959 718.724 561.026 721.346 554.939C726.564 542.811 730.513 529.555 731.359 515.734C731.77 508.739 731.248 501.72 729.808 494.862C729.491 493.392 729.129 491.934 728.724 490.488L730.936 491.478L736.154 494.157L741.231 497.119L746.026 500.362L748.423 502.055L750.68 503.888L755.051 507.696C756.462 509.106 757.731 510.375 759 511.785L759.987 512.773L760.833 513.901L762.526 516.157L764.077 518.414L765.487 520.811C765.91 521.515 766.332 522.36 766.755 523.205L766.756 523.208C767.179 523.985 767.556 524.786 767.885 525.606L768.872 528.144L769.718 530.683C769.859 531.106 769.965 531.564 770.071 532.023C770.176 532.481 770.282 532.939 770.423 533.362C770.668 534.243 770.856 535.138 770.987 536.042L771.41 538.721L771.692 541.401V547.606C771.864 550.565 773.867 553.101 776.706 553.953C779.544 554.804 782.613 553.79 784.385 551.414C785.936 549.298 787.205 547.324 788.474 545.349L792.141 539.285C793.912 536.263 795.607 533.165 797.281 530.102C797.873 529.02 798.462 527.943 799.051 526.875C801.308 522.738 803.376 518.508 805.256 514.183C807.137 509.858 808.97 505.533 810.756 501.208C811.18 500.08 811.603 498.986 812.026 497.893C812.449 496.8 812.872 495.708 813.295 494.58L815.692 487.952L817.808 481.183L819.782 474.414C819.982 473.613 820.165 472.794 820.348 471.971C820.682 470.473 821.019 468.959 821.474 467.503C822.124 465.425 822.534 463.226 822.926 461.129C822.959 460.949 822.992 460.771 823.026 460.593C823.158 459.89 823.303 459.186 823.45 458.478C823.773 456.916 824.101 455.333 824.295 453.683C824.436 452.484 824.612 451.32 824.789 450.157C824.965 448.993 825.141 447.83 825.282 446.632L826.128 439.58L826.551 432.529C826.692 430.273 826.692 427.875 826.692 425.478V421.952C826.692 421.591 826.692 421.346 826.688 421.101C826.678 420.579 826.647 420.057 826.551 418.426C826.505 417.639 826.474 416.866 826.443 416.098C826.38 414.531 826.318 412.985 826.128 411.375L825.423 404.324C825.178 402.242 824.827 400.266 824.461 398.211C824.406 397.9 824.351 397.588 824.295 397.273L823.731 393.747L822.885 390.362L822.038 386.978C821.897 385.85 821.615 384.721 821.192 383.593L819.077 376.824C818.632 375.4 818.075 374.032 817.511 372.649C817.182 371.841 816.851 371.028 816.538 370.196L815.269 366.952L813.718 363.708L810.615 357.362L807.09 351.298L805.256 348.196L803.282 345.234L799.333 339.452C798.401 338.386 796.823 338.176 795.645 338.961C794.467 339.747 794.054 341.284 794.68 342.555H794.821L798.346 348.337L800.18 351.157L801.731 354.119L804.833 360.042L807.513 366.247C807.724 366.741 807.936 367.269 808.147 367.798C808.359 368.327 808.571 368.856 808.782 369.35L809.91 372.452C810.145 373.157 810.396 373.862 810.647 374.567C811.148 375.978 811.65 377.388 812.026 378.798L813.718 385.285C814.007 386.354 814.242 387.437 814.423 388.529L815.128 391.773L815.833 395.016L816.256 398.401C816.355 399.187 816.47 399.956 816.585 400.72C816.799 402.149 817.011 403.559 817.103 405.029L817.526 411.657C817.667 413.773 817.667 418.285 817.667 418.285V425.055C817.618 425.78 817.587 426.521 817.554 427.274C817.492 428.717 817.429 430.2 817.244 431.683L816.538 438.311L815.551 444.939C815.405 446.111 815.144 447.283 814.888 448.434C814.651 449.501 814.418 450.55 814.282 451.567C814 453.683 813.436 455.939 812.872 458.055C812.308 460.17 811.744 462.285 811.18 464.542C810.615 466.798 810.051 468.914 809.346 471.029L807.231 477.375L804.974 483.721L802.436 489.926L799.756 496.132C797.923 500.221 795.949 504.311 793.974 508.26C792 512.208 789.744 516.298 787.628 520.106C786.428 522.266 785.138 524.426 783.807 526.586C783.731 526.306 783.643 526.027 783.538 525.747L782.41 522.362L781 519.119C780.542 518.01 780.024 516.928 779.449 515.875C779.167 515.381 778.884 514.852 778.602 514.324C778.32 513.795 778.038 513.266 777.756 512.773L775.923 509.811L773.949 506.991L771.833 504.311L770.705 502.901L769.577 501.632C768.026 499.939 766.474 498.247 764.782 496.696L759.705 492.183L757.026 490.067L754.346 488.093L748.705 484.426L742.923 481.042L737 478.08L730.936 475.401L724.731 473.003L721.628 472.016L718.244 471.029C715.525 470.298 712.632 471.254 710.884 473.462C709.137 475.669 708.87 478.704 710.205 481.183C712.93 486.185 714.925 491.551 716.128 497.119C717.315 502.772 717.742 508.558 717.397 514.324C716.692 525.888 713.308 537.593 708.513 548.734C706.099 554.338 703.368 559.8 700.333 565.093C697.231 570.452 693.94 575.67 690.462 580.747C683.359 590.996 675.685 600.837 667.474 610.221C650.828 629.086 632.924 646.801 613.885 663.247C604.389 671.614 594.705 679.7 584.833 687.503L572.419 697.107C573.502 692.867 574.398 688.58 575.103 684.26C576.048 678.289 576.52 672.253 576.513 666.208C576.537 659.996 575.875 653.801 574.538 647.734C573.177 641.508 570.896 635.519 567.769 629.965C564.575 624.31 560.424 619.252 555.5 615.016C554.654 614.264 553.807 613.637 552.961 613.01C552.538 612.697 552.115 612.384 551.692 612.055L549.718 610.644L547.603 609.375C545.059 607.764 542.421 606.304 539.705 605.003L532.231 601.337L528.846 599.362L525.462 597.247C524.942 596.89 524.423 596.541 523.908 596.193C522.182 595.032 520.495 593.896 518.974 592.593L515.872 590.196L512.91 587.516C511.26 586.196 509.267 584.104 508.068 582.846C507.73 582.491 507.455 582.202 507.269 582.016C506.705 581.452 506.141 580.763 505.577 580.073C505.295 579.728 505.013 579.384 504.731 579.055C504.513 578.801 504.287 578.548 504.058 578.292C503.396 577.551 502.716 576.791 502.192 575.952L499.936 572.708C499.715 572.399 499.563 572.187 499.416 571.972C499.092 571.5 498.789 571.014 497.821 569.465C496.781 567.801 495.818 566.061 494.874 564.357C494.539 563.75 494.205 563.147 493.872 562.555C491.451 557.822 489.378 552.921 487.667 547.888C486.025 542.805 484.706 537.624 483.718 532.375C482.754 527.058 482.095 521.69 481.744 516.298C481.398 510.899 481.351 505.485 481.603 500.08C481.744 497.401 482.026 493.311 482.167 492.042C482.237 491.407 482.308 490.737 482.378 490.067C482.449 489.398 482.519 488.728 482.59 488.093L482.872 486.119L483.154 484.285C483.665 481.554 482.525 478.776 480.241 477.193C477.957 475.609 474.956 475.515 472.577 476.952L470.18 478.503L468.064 479.914L463.833 483.016C461.013 485.085 458.333 487.294 455.795 489.644L451.987 493.17L448.321 496.978L444.795 500.926L441.551 505.157L438.449 509.67L437.038 511.926L435.769 514.324L434.5 516.721L433.372 519.26L433.371 519.26C432.666 520.953 431.961 522.645 431.397 524.478C431.066 525.537 430.768 526.606 430.502 527.683L429.141 525.606L427.731 523.491L426.603 521.375C426.307 520.832 426.011 520.324 425.721 519.826C425.182 518.901 424.664 518.012 424.205 517.003L422.231 512.491C421.761 511.456 421.416 510.422 421.071 509.388C420.899 508.871 420.727 508.354 420.538 507.837L419.692 505.58L418.987 503.183C418.859 502.713 418.718 502.243 418.575 501.769C418.248 500.678 417.915 499.567 417.718 498.388L416.731 493.593C416.598 492.798 416.497 492.002 416.397 491.222C416.285 490.341 416.175 489.479 416.026 488.657C415.841 487.641 415.777 486.504 415.716 485.404C415.683 484.825 415.651 484.256 415.603 483.721C415.462 482.17 415.321 478.785 415.321 478.785V468.632C415.35 468.298 415.38 467.944 415.412 467.577C415.688 464.378 416.055 460.137 416.308 458.619C416.402 458.055 416.496 457.475 416.59 456.896C416.778 455.736 416.966 454.576 417.154 453.542C417.201 453.283 417.24 453.064 417.276 452.863C417.456 451.857 417.553 451.309 418.141 448.606C418.846 445.362 419.692 441.978 420.538 438.734L421.949 433.798L423.5 428.862L425.192 424.067L427.026 419.273L429 414.478L431.115 409.824C432.62 406.721 434.171 403.666 435.769 400.657L438.308 396.144L440.846 391.914C442.327 389.637 442.368 386.713 440.954 384.396C439.539 382.078 436.919 380.779 434.218 381.055H431.538L429 381.478L424.205 382.606L419.41 383.875L414.756 385.426L410.103 387.26L405.59 389.375L401.218 391.632L399.103 392.901L396.987 394.311C396.353 394.805 395.647 395.263 394.942 395.721C394.237 396.18 393.532 396.638 392.897 397.132L388.949 400.093L385.141 403.478L383.308 405.17L381.615 407.003L379.426 409.376C379.4 409.102 379.377 408.829 379.359 408.555C379.317 408.173 379.261 407.779 379.205 407.375C379.074 406.437 378.936 405.451 378.936 404.465V400.375C378.946 399.007 379.04 397.642 379.218 396.285C379.284 394.915 379.425 393.55 379.641 392.196L380.346 388.106L381.333 384.016C381.501 383.26 381.77 382.503 382.049 381.716C382.238 381.184 382.432 380.637 382.603 380.067C383.026 378.657 383.59 377.388 384.154 376.119C384.436 375.484 384.753 374.85 385.071 374.215C385.388 373.58 385.705 372.946 385.987 372.311L388.103 368.644L390.5 365.119Z" fill="#31323D"/>
</svg>
