<svg width="1213" height="474" viewBox="0 0 1213 474" fill="none" xmlns="http://www.w3.org/2000/svg">
<g style="mix-blend-mode:multiply" opacity="0.2">
<path d="M516.598 383.825C516.598 383.825 534.025 474.973 625.311 473.59C716.598 472.207 740.803 370.409 740.803 370.409C740.803 370.409 692.808 425.457 640.111 426.149C587.414 426.84 516.598 383.825 516.598 383.825Z" fill="#595959"/>
</g>
<path d="M746.059 366.259C745.258 369.081 744.288 371.853 743.154 374.558C741.915 377.241 740.482 379.829 738.867 382.304C737.367 384.841 735.655 387.247 733.749 389.496C731.962 391.835 730.021 394.053 727.94 396.135C719.639 404.289 710.12 411.102 699.724 416.329C694.663 419.035 689.443 421.437 684.095 423.521C678.701 425.596 673.307 427.394 667.774 428.915C662.242 430.437 656.709 431.82 651.038 432.788L642.601 434.033L634.026 435.001C628.355 435.554 622.546 435.692 616.875 435.692C611.204 435.692 605.395 435.277 599.724 434.724C593.954 434.105 588.226 433.135 582.573 431.82C579.807 431.266 576.903 430.437 574.136 429.607L569.849 428.224L565.699 426.564C554.973 422.057 544.993 415.948 536.1 408.445C531.7 404.849 527.585 400.918 523.791 396.688C519.976 392.468 516.463 387.985 513.279 383.272C512.295 381.622 512.783 379.49 514.385 378.431C515.694 377.575 517.422 377.748 518.535 378.846H518.673C522.546 382.442 526.695 385.762 530.844 388.943C534.994 392.124 539.42 394.89 543.846 397.656C552.515 402.972 561.806 407.199 571.508 410.243L575.105 411.349L578.701 412.179L586.17 413.424C591.149 414.254 596.266 414.669 601.384 415.084C606.502 415.499 611.619 415.36 616.737 415.36C621.854 415.36 626.972 414.945 632.089 414.392C652.649 412.558 672.828 407.711 691.979 400.008C701.427 396.162 710.425 391.292 718.811 385.485C727.11 379.651 734.163 372.222 739.558 363.631H739.697C740.155 362.84 740.919 362.273 741.809 362.063C742.699 361.854 743.636 362.021 744.399 362.525C745.708 363.275 746.379 364.786 746.059 366.259Z" fill="#31323D"/>
<path d="M623.79 95.1663C623.79 110.242 623.79 125.318 624.343 140.256C624.897 155.194 626.28 169.579 630.568 183.133L632.366 188.112C633.057 189.772 633.61 191.432 634.44 193.092C635.784 196.378 637.355 199.567 639.143 202.635C642.766 208.68 647.343 214.098 652.698 218.68C658.326 223.306 664.449 227.295 670.955 230.574C677.594 233.894 684.509 236.937 691.425 239.98C691.935 240.163 692.345 240.551 692.555 241.051C692.766 241.55 692.757 242.115 692.532 242.608C692.144 243.6 691.068 244.138 690.042 243.852C682.711 241.501 675.519 239.15 668.327 236.384C660.99 233.566 653.986 229.948 647.442 225.595C640.759 220.942 634.913 215.19 630.153 208.583C627.73 205.389 625.557 202.013 623.652 198.486C622.684 196.688 621.715 194.89 620.886 193.092C620.056 191.294 619.088 189.496 618.396 187.559C615.36 180.181 612.999 172.542 611.342 164.738C609.682 156.992 608.576 149.247 607.608 141.639C605.671 126.287 604.288 111.211 603.043 96.1345C602.421 92.3109 603.981 88.4591 607.088 86.1461C610.196 83.8331 614.333 83.4443 617.817 85.138C621.301 86.8317 623.551 90.3255 623.652 94.1981C623.652 94.613 623.79 94.8897 623.79 95.1663Z" fill="#31323D"/>
<path d="M544.537 247.587C551.591 243.628 558.425 239.288 565.007 234.586C571.462 229.931 577.48 224.7 582.988 218.956C588.309 213.356 592.657 206.904 595.851 199.869C596.542 198.071 597.234 196.411 597.787 194.613C598.34 192.815 598.755 191.017 599.17 189.081C599.993 185.246 600.593 181.367 600.968 177.463C602.905 161.833 602.766 145.512 602.905 129.191C603.043 112.87 602.766 96.4113 602.766 79.9521C602.766 74.223 607.411 69.5786 613.14 69.5786C618.869 69.5786 623.513 74.223 623.513 79.9521V80.9203C621.992 97.1028 620.747 113.424 619.364 129.883C617.981 146.342 616.598 162.801 613.14 179.537C612.34 183.749 611.278 187.906 609.959 191.985C609.405 193.922 608.714 196.135 607.884 198.209C607.054 200.284 605.948 202.359 604.979 204.295C600.812 212.004 595.336 218.931 588.797 224.765C582.484 230.348 575.679 235.348 568.465 239.703C561.273 243.991 553.942 247.725 546.473 251.322C545.442 251.817 544.204 251.384 543.707 250.353C543.191 249.358 543.558 248.134 544.537 247.587Z" fill="#31323D"/>
<path d="M585.616 226.702C604.393 214.874 628.155 214.343 647.442 225.319C647.442 225.319 620.609 205.955 613.694 161.695C613.694 161.695 610.512 211.902 585.616 226.702Z" fill="#31323D"/>
<path d="M520.886 60.035C517.445 52.6369 518.692 43.9052 524.067 37.7666C535.409 24.7652 560.582 4.84821 609.683 0.69883C658.784 -3.45055 683.265 11.7638 695.298 22.9672C701.307 28.5774 703.377 37.238 700.554 44.9589C696.884 55.2932 687.658 62.642 676.764 63.9077C662.933 65.4292 644.123 71.1 633.334 89.3573C632.676 90.5048 631.887 91.5723 630.983 92.5385L630.568 92.9534C626.076 97.7864 619.815 100.589 613.218 100.719C606.621 100.85 600.254 98.2967 595.575 93.645C595.575 93.645 584.233 77.3241 546.889 77.3241C535.755 77.2205 525.681 70.7018 521.024 60.5882L520.886 60.035Z" fill="#31323D"/>
<path d="M754.911 132.096C774.689 128.638 794.606 125.733 814.523 123.52C834.44 121.307 854.496 119.924 874.551 119.233C914.709 117.637 954.928 119.581 994.745 125.042C1034.44 130.851 1073.72 140.671 1110.79 155.886C1147.88 171.028 1182.26 192.096 1212.59 218.265C1181.66 193.025 1146.8 173.027 1109.41 159.067C1072.34 145.097 1033.2 136.522 993.915 131.957C954.455 127.718 914.701 126.931 875.104 129.606C855.326 130.851 835.685 132.787 816.045 135.554C796.404 138.32 776.902 141.639 757.4 145.65C755.603 146.018 753.733 145.656 752.203 144.644C750.672 143.632 749.606 142.054 749.24 140.256C748.553 136.529 750.936 132.925 754.634 132.096H754.911Z" fill="#31323D"/>
<path d="M996.128 69.8553C978.285 69.8553 960.443 70.5469 942.601 71.7917C924.758 73.0365 907.193 75.1112 889.627 77.7392C872.061 80.3671 854.634 83.6866 837.345 87.6977C820.056 91.7087 802.905 96.2731 786.031 101.391C783.591 102.458 780.756 102.029 778.74 100.289C776.725 98.5487 775.887 95.8058 776.587 93.2366C777.287 90.6674 779.4 88.7283 782.02 88.2509H782.435C800 84.1015 817.566 80.3671 835.408 77.6008C853.251 74.8346 870.955 72.4833 888.797 70.9618C906.639 69.4404 924.62 68.6105 942.462 68.4722C960.305 68.3339 978.285 68.7488 996.128 69.8553Z" fill="#31323D"/>
<path d="M772.753 159.897L780.913 158.929L785.063 158.514L789.074 158.237H797.234L805.395 158.514H807.469L809.544 158.79L813.555 159.067L817.704 159.482L821.716 160.173L829.738 161.557L837.621 163.355C848.033 166.026 858.21 169.541 868.05 173.866C877.702 178.224 887.078 183.166 896.128 188.666C913.963 200.095 930.558 213.352 945.644 228.223C953.113 235.554 960.305 243.161 967.22 251.183C974.052 259.147 980.469 267.456 986.446 276.079C980.03 267.768 973.149 259.825 965.837 252.29C958.645 244.821 951.176 237.629 943.292 230.713C927.71 216.964 910.745 204.867 892.67 194.613C883.641 189.693 874.31 185.35 864.731 181.612C855.136 178.064 845.288 175.244 835.27 173.175L827.801 171.93L820.332 170.962L816.46 170.685L812.725 170.409H805.118L797.649 170.685L793.915 170.962L790.18 171.377L786.446 171.653L782.711 172.345L775.381 173.59H774.828C772.382 174.01 769.897 173.093 768.31 171.185C766.724 169.276 766.276 166.667 767.135 164.338C767.994 162.01 770.03 160.317 772.476 159.897H772.753Z" fill="#31323D"/>
<path d="M478.285 167.919C457.953 160.588 436.515 155.194 415.076 150.492C393.638 145.789 371.923 142.469 350.069 139.841C328.216 137.213 306.224 135.554 284.233 135C262.222 134.398 240.195 135.044 218.257 136.937C196.31 138.878 174.535 142.437 153.112 147.587C131.692 152.867 110.914 160.473 91.1481 170.27C71.3926 180.073 53.324 192.959 37.6211 208.445C21.9336 224.117 9.19069 242.482 0 262.663C8.72355 242.155 21.0427 223.372 36.3762 207.2C51.911 191.117 69.8812 177.581 89.6266 167.089C109.365 156.672 130.192 148.462 151.729 142.608C173.269 136.745 195.236 132.583 217.428 130.16C239.603 127.606 261.91 126.359 284.233 126.425C306.639 126.425 328.908 127.393 351.176 129.468C373.444 131.543 395.436 134.586 417.428 138.735C439.59 142.575 461.453 147.983 482.85 154.918C486.476 156.104 488.457 160.003 487.276 163.631C486.029 167.206 482.184 169.159 478.562 168.057H478.285V167.919Z" fill="#31323D"/>
<path d="M273.444 85.4846C310.024 80.8958 347.084 81.7815 383.403 88.1126C401.694 91.3541 419.723 95.9306 437.345 101.806C455.054 107.65 472.3 114.816 488.936 123.244C492.266 125.021 493.607 129.105 491.978 132.511C491.15 134.176 489.685 135.438 487.916 136.01C486.146 136.583 484.22 136.418 482.573 135.554H482.297C451.049 117.181 417.259 103.525 382.02 95.0282C346.494 86.5244 309.909 83.3086 273.444 85.4846H273.444Z" fill="#31323D"/>
<path d="M465.007 197.794C459.475 196.55 453.942 195.443 448.41 194.752C442.813 194.039 437.178 193.669 431.536 193.645C425.85 193.623 420.169 193.946 414.523 194.613C408.991 195.305 403.32 196.273 397.787 197.518C375.519 202.635 354.357 212.732 334.855 225.319C315.363 238.281 297.324 253.305 281.051 270.132C272.891 278.431 265.007 287.144 257.538 296.273C250.057 305.364 243.04 314.828 236.515 324.627C242.563 314.483 249.118 304.651 256.155 295.167C263.209 285.761 270.678 276.494 278.562 267.642C294.236 249.784 311.814 233.69 330.982 219.648C350.208 205.678 371.784 194.198 395.159 187.559C401.021 185.865 406.979 184.525 413.002 183.548C419.036 182.486 425.136 181.839 431.259 181.612C437.39 181.289 443.536 181.381 449.654 181.888C455.789 182.31 461.888 183.142 467.912 184.378C471.377 185.324 473.541 188.766 472.892 192.299C472.243 195.832 468.997 198.28 465.422 197.933C465.284 197.933 465.146 197.933 465.146 197.794H465.007Z" fill="#31323D"/>
</svg>
