<?xml version="1.0" encoding="UTF-8"?>
<svg width="856px" height="389px" viewBox="0 0 856 389" version="1.1" xmlns="http://www.w3.org/2000/svg" xmlns:xlink="http://www.w3.org/1999/xlink">
    <title>mouth</title>
    <g id="页面-1" stroke="none" stroke-width="1" fill="none" fill-rule="evenodd">
        <g id="651803" transform="translate(0.000000, -3763.000000)" fill-rule="nonzero">
            <g id="mouth" transform="translate(0.000000, 3763.000000)">
                <path d="M201.8,233.1 C210.1,278.1 271.3,314.2 300.8,330.8 L296.7,280.6 C317.648627,303.143034 342.87112,321.29507 370.9,334 L363.2,299.3 C384.839964,331.779451 413.004028,359.398624 445.9,380.4 C451.820365,349.787322 464.307153,320.822067 482.5,295.5 C482.80924,317.433765 490.250912,338.670611 503.7,356 L542.7,293.1 L552.4,348 C595.4,316 667.6,283 671.8,224 C671.8,224 677.6,143.9 655.1,123.2 C655.1,123.2 557.1,266 422.7,60.7 C422.7,60.7 347.7,250.1 220.4,148 C220.5,148 194.5,193.3 201.8,233.1 Z" id="路径" fill="#D1DADF"></path>
                <path d="M432.7,63.4 L434.3,65.9 C435.4,67.6 437.1,70 439.2,73.1 C443.6,79.3 450.1,88 458.6,97.9 C462.8,102.8 467.6,108.1 472.8,113.4 C478,118.7 483.7,124.2 489.9,129.4 C496.186835,134.831241 502.799114,139.873938 509.7,144.5 C516.768134,149.287097 524.227984,153.468627 532,157 C535.8792,158.750659 539.851884,160.286318 543.9,161.6 C547.895431,162.921808 551.970168,163.990592 556.1,164.8 C564.135447,166.353629 572.350882,166.757667 580.5,166 C588.166955,165.284465 595.701914,163.535278 602.9,160.8 C609.386163,158.298465 615.587739,155.113871 621.4,151.3 C626.388711,148.085507 631.134791,144.509235 635.6,140.6 L638.5,138.1 L641.1,135.6 L643.5,133.3 L645.6,131.1 L649.1,127.4 L651.6,124.6 L653.7,122.2 L653.7,122.2 C654.373234,121.640785 655.351133,121.646859 656.017369,122.214393 C656.683605,122.781927 656.84507,123.746423 656.4,124.5 L654.4,127 L652,130 L648.6,133.9 L646.5,136.2 L644.1,138.6 L641.5,141.3 L638.6,144 C634.125612,148.244165 629.346139,152.154642 624.3,155.7 C618.301613,159.971495 611.865307,163.591918 605.1,166.5 C597.467239,169.767212 589.427738,171.987326 581.2,173.1 C572.363944,174.261468 563.407614,174.160457 554.6,172.8 C550.076712,172.116527 545.601129,171.147931 541.2,169.9 C536.7893,168.672702 532.449416,167.203819 528.2,165.5 C519.767722,162.092401 511.638752,157.977737 503.9,153.2 C496.435026,148.641778 489.255029,143.632477 482.4,138.2 C475.7,132.9 469.6,127.5 463.9,122.2 C458.2,116.9 453.1,111.6 448.5,106.7 C439.3,96.8 432.2,88 427.3,81.7 C424.9,78.6 423,76 421.8,74.3 L420.4,72.3 L419.9,71.6 C417.55279,68.1758346 418.425835,63.4972107 421.850001,61.1500007 C425.274166,58.8027908 429.95279,59.6758351 432.3,63.1 L432.3,63.3 L432.4,63.3 L432.7,63.4 Z" id="路径" fill="#31323D"></path>
                <path d="M221.3,147.2 L223.7,149.1 C225.3,150.3 227.6,152 230.8,154 C234,156 237.8,158.4 242.3,160.8 C247.37952,163.493041 252.623177,165.864376 258,167.9 C264.294759,170.292982 270.785944,172.133266 277.4,173.4 C284.707909,174.839117 292.155704,175.442993 299.6,175.2 C303.488763,175.054319 307.363765,174.653457 311.2,174 L314.1,173.4 L317,172.7 L319.9,172 L322.8,171.1 C326.63323,169.861706 330.375609,168.358072 334,166.6 C335.9,165.8 337.6,164.8 339.4,163.8 L342,162.3 L344.6,160.7 C351.421585,156.237942 357.785807,151.113068 363.6,145.4 C369.283086,139.80763 374.531623,133.790199 379.3,127.4 C384,121.2 388.1,114.9 391.9,108.8 C395.7,102.7 398.9,96.7 401.7,91.1 L403.8,87 L405.7,83 L407.5,79.2 L409.1,75.6 C411.2,70.9 412.9,66.8 414.3,63.4 C415.1,61.7 415.5,60.1 416.2,58.9 C416.763079,57.7802493 417.468963,56.7382303 418.3,55.8 C418.868368,55.1646639 419.505616,54.5944943 420.2,54.1 L421,53.6 L421.1,53.6 C422.636747,52.796119 424.431023,52.639705 426.083688,53.1655528 C427.736352,53.6914005 429.110339,54.8558983 429.9,56.4 L430.3,57.3 C430.388911,57.5946206 430.455762,57.8954521 430.5,58.2 C430.632266,59.0600929 430.665133,59.932341 430.6,60.8 C430.52927,62.0912873 430.294036,63.3682691 429.9,64.6 C429.360308,66.2029132 428.725857,67.7723451 428,69.3 C426.4,72.8 424.5,77 422.2,81.8 L420.4,85.5 L418.4,89.4 L416.3,93.5 L414,97.7 C410.9,103.5 407.2,109.6 403.1,115.9 C398.732756,122.537834 394.026522,128.946323 389,135.1 C383.612745,141.736686 377.729154,147.954573 371.4,153.7 C364.804705,159.702963 357.598716,164.998527 349.9,169.5 L347,171.1 L344,172.7 C342,173.6 340,174.7 337.9,175.5 C333.804227,177.222291 329.594169,178.659057 325.3,179.8 C316.922507,182.049865 308.27342,183.126795 299.6,183 C291.601642,182.869132 283.646655,181.795041 275.9,179.8 C269.039749,178.018787 262.347769,175.643134 255.9,172.7 C250.495979,170.231429 245.252325,167.425907 240.2,164.3 C236.303276,161.893648 232.531718,159.290271 228.9,156.5 C225.9,154.2 223.6,152.3 222.1,150.9 L219.8,148.8 L219.8,148.8 C219.615566,148.363096 219.705505,147.858556 220.030088,147.512582 C220.354438,147.166609 220.852118,147.044107 221.3,147.2 Z" id="路径" fill="#31323D"></path>
                <path d="M357.4,38.7 C355.363817,33.153539 356.773272,26.9284433 361,22.8 C369.9,14 389.1,1.1 424.7,0.9 C460.3,0.7 477.2,13 485.3,21.7 C489.253559,26.0954631 490.234482,32.412605 487.8,37.8 L487.8,37.8 C484.569501,45.030355 477.513503,49.7989687 469.6,50.1 C459.6,50.4 445.7,53.5 436.9,66 C436.349591,66.8010456 435.712395,67.5388516 435,68.2 L434.7,68.5 C431.185367,71.7250944 426.517791,73.3950789 421.754975,73.1315239 C416.992159,72.8679689 412.537336,70.6931875 409.4,67.1 L409.4,67.1 C409.4,67.1 402.1,54.6 375.2,52.6 C367.176557,51.9253957 360.2723,46.6594371 357.5,39.1 L357.5,38.8 L357.4,38.7 Z" id="路径" fill="#31323D"></path>
                <path d="M517.7,84.1 L521.7,83.3 L533.1,81.2 C543,79.5 557.1,77.4 574.1,75.8 C593.476535,73.9595313 612.937753,73.1583834 632.4,73.4 C643.1,73.5 654.1,74 665.3,74.9 C676.5,75.8 687.8,77.2 699,79.1 C710.2,81 721.4,83.3 732.2,86.2 C742.811531,89.0266774 753.260478,92.4317653 763.5,96.4 C773.046355,100.145805 782.362644,104.453337 791.4,109.3 C799.49426,113.64147 807.309473,118.48423 814.8,123.8 C821.104854,128.284288 827.148056,133.125528 832.9,138.3 L836.6,141.7 L839.9,144.9 L842.9,147.9 L845.6,150.8 C847.3,152.6 848.7,154.3 850,155.7 L853.1,159.4 L855.7,162.6 L853,159.5 L849.8,155.9 C848.5,154.5 847,152.8 845.3,151.1 L842.6,148.3 L839.5,145.3 L836.1,142.2 L832.3,138.9 C826.436901,133.919392 820.29352,129.278468 813.9,125 C806.361167,119.91594 798.512599,115.306994 790.4,111.2 C781.344395,106.654133 772.028169,102.647155 762.5,99.2 C752.27556,95.5666435 741.859995,92.4953873 731.3,90 C720.5,87.4 709.5,85.4 698.3,83.9 C687.1,82.4 676,81.3 664.9,80.7 C653.8,80.1 643,79.9 632.4,80.1 C613.208956,80.4071511 594.048155,81.7423985 575,84.1 C558.3,86.1 544.5,88.6 534.9,90.5 L523.8,92.9 L519.9,93.8 L519.9,93.8 C517.322129,94.2001398 514.869853,92.5511088 514.267973,90.0127486 C513.666094,87.4743883 515.116913,84.8998812 517.6,84.1 L517.7,84.1 L517.7,84.1 Z" id="路径" fill="#31323D"></path>
                <path d="M690.6,34.8 L684,35.1 L676.4,35.5 L666.5,36.2 L654.8,37.2 L641.8,38.7 C637.3,39.3 632.7,39.9 628,40.7 L620.9,41.8 L613.8,43.1 L606.7,44.5 L599.7,45.9 L592.8,47.4 L586.1,49 L579.7,50.6 L573.6,52.2 L562.4,55.3 L553,58.1 L545.8,60.4 L539.6,62.5 L539.5,62.5 C536.876648,63.3836552 534.033656,61.9733521 533.150001,59.3499998 C532.266345,56.7266475 533.676648,53.8836558 536.3,53 L536.6,53 L543.1,51.3 L550.6,49.4 L560.3,47.1 L571.9,44.6 L578.2,43.4 L584.8,42.2 L591.7,41 L598.7,39.9 L605.9,38.9 L613.1,38 L620.3,37.2 L627.5,36.5 C632.3,36 637,35.8 641.5,35.4 L654.6,34.8 L666.3,34.5 L684,34.5 L690.6,34.8 Z" id="路径" fill="#31323D"></path>
                <path d="M531.6,107.2 L539.3,106 L543.6,105.6 L548.7,105.2 C552.3,105.2 556.4,105 560.8,105.5 L564.2,105.7 L567.7,106.2 L571.3,106.7 L575,107.4 L578.8,108.1 L582.6,109 L586.5,110 L590.4,111.2 L594.3,112.5 L598.2,114 L602.1,115.6 L606,117.3 L608,118.2 L609.9,119.2 L613.8,121.1 L621.4,125.3 C626.3,128.3 631.2,131.3 635.8,134.6 C640.4,137.9 644.8,141.3 648.9,144.7 C653,148.1 656.9,151.6 660.5,154.9 C664.1,158.2 667.3,161.6 670.3,164.6 C673.3,167.6 675.9,170.6 678.1,173.2 C680.3,175.8 682.3,178.1 683.9,180.1 C687,184 688.7,186.3 688.7,186.3 C688.7,186.3 686.9,184.1 683.6,180.4 C681.9,178.6 679.9,176.3 677.5,173.9 C675.1,171.5 672.3,168.7 669.2,165.8 C666.1,162.9 662.7,159.8 659,156.7 C655.3,153.6 651.3,150.4 647,147.2 C642.7,144 638.3,140.9 633.6,138 C628.9,135.1 624,132.3 619.1,129.7 L611.5,126.1 L607.7,124.4 L605.8,123.6 L603.9,122.9 L600.1,121.5 L596.3,120.2 L592.5,119 L588.7,118 L585,117 L581.3,116.2 L577.7,115.5 L574.1,115 L570.6,114.6 L567.2,114.3 L563.9,114 L560.8,114 C556.7,113.8 553,114.2 549.6,114.4 L545.1,115 L541.3,115.5 L533.7,117.1 C530.993805,117.652285 528.352285,115.906195 527.8,113.2 C527.247715,110.493805 528.993805,107.852285 531.7,107.3 L532,107.3 L531.6,107.2 Z" id="路径" fill="#31323D"></path>
                <path d="M340.9,109.2 L325.4,106.2 C315.6,104.3 301.6,101.5 284.7,98.8 C276.3,97.4 267.1,96.1 257.4,94.8 C247.7,93.5 237.4,92.5 226.8,91.6 C216.2,90.7 205.2,90.2 194,90 C182.8,89.8 171.4,90.1 160.1,90.8 C148.807994,91.5298391 137.560233,92.8315087 126.4,94.7 C120.9,95.6 115.4,96.7 110.1,97.9 C104.8,99.1 99.5,100.5 94.4,102.1 C75.7247643,107.531269 57.9386425,115.649556 41.6,126.2 C35.0751266,130.455316 28.8595989,135.167087 23,140.3 C21.7,141.4 20.5,142.6 19.3,143.7 L15.9,146.9 L12.8,150 L10.1,152.9 C8.4,154.7 7,156.4 5.7,157.9 L4,160 L2.6,161.8 L0.1,165 L2.6,161.7 L3.9,159.9 L5.6,157.8 C6.8,156.3 8.2,154.5 9.9,152.7 L12.5,149.7 L15.5,146.5 L18.8,143.1 C20,142 21.1,140.7 22.5,139.6 C28.2461404,134.275077 34.3613695,129.362844 40.8,124.9 C57.0487836,113.748277 74.8355774,105.023316 93.6,99 C98.7,97.3 104,95.8 109.4,94.4 C114.8,93 120.3,91.7 125.8,90.7 C137.043359,88.4938127 148.391223,86.8583853 159.8,85.8 C171.3,84.7 182.8,84.2 194.1,84 C205.4,83.8 216.6,84.1 227.4,84.7 C238.2,85.3 248.6,86.1 258.4,87.1 C268.2,88.1 277.5,89.2 286.1,90.4 C303.2,92.7 317.3,95.1 327.2,96.8 L342.7,99.4 L342.7,99.4 C344.468465,99.7036756 345.940585,100.927748 346.561826,102.611122 C347.183068,104.294495 346.85905,106.181424 345.711826,107.561122 C344.564603,108.940819 342.768465,109.603676 341,109.3 L340.9,109.3 L340.9,109.2 Z" id="路径" fill="#31323D"></path>
                <path d="M166.2,50.5 L168,50.2 L173,49.4 L180.8,48.3 L190.9,47.2 C198.3,46.5 207.1,46.1 216.5,46.2 C221.2,46.3 226,46.4 231,46.7 L238.4,47.3 L245.8,48.1 L253.3,49.1 L260.7,50.3 C265.6,51.1 270.3,52.2 274.9,53.2 L281.7,54.9 L288.1,56.7 C292.3,57.9 296.2,59.1 299.8,60.3 L309.5,63.8 L316.9,66.7 L321.6,68.7 L323.3,69.4 C324.943422,70.1145312 326.080808,71.6515403 326.283717,73.4320508 C326.486626,75.2125614 325.72423,76.9660714 324.283717,78.0320508 C322.843204,79.0980302 320.943422,79.3145312 319.3,78.6 L319,78.6 L317.4,77.8 L313,75.6 L306,72.3 L296.8,68.4 C293.4,67 289.7,65.6 285.7,64.2 L279.6,62.1 L273.1,60.1 C268.7,58.8 264.1,57.5 259.4,56.4 L252.3,54.8 L245.1,53.4 L237.8,52.2 L230.6,51.2 C225.8,50.6 221,50.1 216.4,49.8 C207.2,49.1 198.5,49 191.1,49.2 L181,49.6 L173.2,50.2 L168.2,50.7 L166.2,50.5 Z" id="路径" fill="#31323D"></path>
                <path d="M328.2,133 L320.6,131.1 L316.8,130.5 L314.7,130.2 L313.6,130 L312.4,130 L307.1,129.6 L298.1,129.6 L294.8,129.9 C292.6,130 290.3,130.5 288,130.8 C285.7,131.1 283.3,131.8 280.9,132.3 L279.1,132.7 L277.3,133.2 L273.6,134.3 L269.9,135.6 L266.1,137 L258.6,140.2 C253.534411,142.5777 248.594545,145.214521 243.8,148.1 L240.2,150.3 L236.7,152.6 C234.3,154.1 232.1,155.8 229.8,157.4 L223.2,162.4 C221.1,164.1 218.9,165.8 216.9,167.5 L213.9,170.1 L211,172.7 L205.5,177.8 L200.4,182.8 L195.7,187.6 C192.7,190.7 190.1,193.6 187.8,196.2 L182,203.1 C178.8,207 177.1,209.3 177.1,209.3 C177.1,209.3 178.7,206.9 181.6,202.9 C183.1,200.9 184.9,198.4 187.1,195.7 C189.3,193 191.7,189.9 194.5,186.6 L198.9,181.5 L203.8,176.2 L209.1,170.8 L211.9,168 L214.8,165.2 C216.7,163.3 218.8,161.5 220.9,159.7 L227.3,154.3 C229.5,152.6 231.7,150.7 234.1,149 L237.6,146.4 L241.2,143.9 C245.975674,140.648097 250.915541,137.644124 256,134.9 L263.7,131.1 L267.6,129.4 L271.5,127.8 L275.4,126.4 L277.3,125.7 L279.2,125.1 C281.8,124.4 284.2,123.5 286.7,123.1 C289.2,122.7 291.6,121.9 294,121.7 L297.5,121.2 L299.2,121 L300.9,121 L307.3,120.6 L315.8,120.6 L318.3,120.9 L322.8,121.4 L330.5,122.8 C333.005213,123.484187 334.569597,125.97238 334.100452,128.526614 C333.631307,131.080847 331.28483,132.850719 328.7,132.6 L328.4,132.6 L328.2,133 Z" id="路径" fill="#31323D"></path>
                <path d="M203.8,232.8 L204.3,235 L204.8,237.1 C205.2,238.5 205.6,239.9 206.1,241.2 C207.05292,243.90737 208.188875,246.546794 209.5,249.1 C212.146086,254.232311 215.29484,259.089433 218.9,263.6 C222.535443,268.131963 226.478067,272.408707 230.7,276.4 C234.9,280.4 239.3,284.2 243.9,287.9 C248.5,291.6 253.2,295 258.1,298.4 C263,301.8 267.9,305 272.9,308.1 L288,317.3 L303.3,326.4 L303.3,326.4 L295.9,331.2 L291.8,281 L290.7,266.9 L300.5,277.2 L304.4,281.3 L308.4,285.3 L312.5,289.2 L316.7,293 L321,296.7 L325.4,300.3 L329.8,303.8 L334.3,307.1 L338.9,310.3 L343.6,313.4 L348.4,316.4 L353.2,319.3 L358.1,322.1 L363.1,324.7 L368.1,327.2 L373.2,329.6 L366.3,335.2 L358.6,300.5 L353,275.2 L367.7,296.6 L371.7,302.5 L375.9,308.3 L380.2,314 L384.7,319.6 L389.3,325.1 L394.1,330.4 L399,335.6 L404,340.7 L409.2,345.7 L414.5,350.5 L419.9,355.2 L425.4,359.7 L431.1,364.1 L436.9,368.3 L442.8,372.4 L448.8,376.3 L441.2,379.6 L442.4,373.8 L443.8,368 L445.3,362.2 L447,356.5 L448.8,350.8 L450.8,345.2 L452.9,339.6 L455.2,334.1 L457.6,328.7 L460.2,323.3 L462.9,318 L465.8,312.8 L468.8,307.7 L471.9,302.6 L475.2,297.6 L478.6,292.7 L487.2,280.4 L487.7,295.5 L487.7,299.4 L488,303.3 L488.4,307.1 L489,310.9 L489.8,314.7 L490.7,318.5 L491.8,322.2 L493,325.9 L494.4,329.5 L495.9,333.1 L497.5,336.6 L499.3,340 L501.2,343.4 L503.3,346.7 L505.5,349.9 L507.8,353 L499.6,353.4 L538.6,290.5 L545.5,279.4 L547.8,292.3 L557.5,347.2 L549.6,344.1 L549.6,344.1 C552.6,341.7 555.7,339.5 558.8,337.3 L568.2,330.9 C574.5,326.8 580.8,322.8 587.1,318.8 C593.4,314.8 599.7,310.9 605.9,306.8 C612.1,302.7 618.2,298.6 624,294.2 C629.864772,289.824812 635.47397,285.117093 640.8,280.1 C643.4,277.6 646,275 648.4,272.3 C650.844313,269.621724 653.147434,266.817925 655.3,263.9 C659.590102,258.125524 663.087836,251.802697 665.7,245.1 C668.261602,238.344512 669.713686,231.219172 670,224 L670,224 C670,222.895431 670.895431,222 672,222 C673.104569,222 674,222.895431 674,224 C674.170834,227.87385 674.003534,231.755218 673.5,235.6 C672.980038,239.462011 672.143897,243.274817 671,247 C668.682695,254.440093 665.315412,261.511386 661,268 C658.897844,271.249113 656.628111,274.386685 654.2,277.4 C651.8,280.4 649.2,283.3 646.5,286 C641.132463,291.454173 635.456473,296.595952 629.5,301.4 C623.6,306.2 617.5,310.7 611.4,315.1 C605.3,319.5 599,323.6 592.7,327.7 L573.9,339.8 L564.6,345.9 L555.5,352.1 L555.5,352.1 L549,356.9 L547.6,349 L537.9,294.1 L547.1,295.9 L508.1,358.8 L504.2,365 L499.9,359.2 L497.3,355.8 L494.9,352.3 L492.6,348.7 L490.5,345 L488.5,341.2 L486.7,337.3 L485,333.4 L483.5,329.4 L482.2,325.3 L481,321.2 L480,317 L479.2,312.8 L478.5,308.6 L478,304.3 L477.7,300 L477.7,295.7 L486.8,298.6 L483.5,303.3 L480.4,308 L477.4,312.8 L474.5,317.7 L471.8,322.7 L469.2,327.8 L466.7,332.9 L464.4,338.1 L462.2,343.4 L460.2,348.7 L458.3,354.1 L456.6,359.5 L455,365 L453.5,370.5 L452.2,376 L451.1,381.6 L449.6,388.9 L443.5,384.9 L437.3,380.8 L431.2,376.6 L425.2,372.2 L419.3,367.7 L413.6,363 L408,358.2 L402.5,353.2 L397.1,348.1 L391.9,342.8 L386.8,337.4 L381.8,331.9 L377,326.2 L372.3,320.4 L367.8,314.5 L363.4,308.5 L359.2,302.4 L368.2,298.5 L375.9,333.2 L378.1,343.1 L369,338.8 L363.7,336.3 L358.4,333.7 L353.2,330.9 L348.1,328 L343.1,325 L338.1,321.9 L333.2,318.6 L328.4,315.2 L323.7,311.7 L319.1,308.1 L314.6,304.4 L310.1,300.6 L305.7,296.7 L301.4,292.7 L297.2,288.5 L293.1,284.2 L301.7,280.4 L305.8,330.6 L306.6,339.9 L298.4,335.3 L298.4,335.3 C293.1,332.5 287.8,329.7 282.6,326.6 C277.4,323.5 272.2,320.4 267.1,317.1 C262,313.8 257,310.3 252.2,306.6 C247.4,302.9 242.6,299.1 238,295.1 C233.38622,291.059468 228.980549,286.787302 224.8,282.3 C220.590169,277.786853 216.713326,272.97422 213.2,267.9 C209.658291,262.80099 206.674511,257.336314 204.3,251.6 C203.131822,248.702822 202.1629,245.729235 201.4,242.7 C201,241.2 200.7,239.7 200.4,238.1 L200.1,235.8 L199.9,233.6 C199.734315,232.495431 200.495431,231.465686 201.6,231.3 C202.704569,231.134315 203.734314,231.895431 203.9,233 L203.9,233 L203.8,232.8 Z" id="路径" fill="#31323D"></path>
            </g>
        </g>
    </g>
</svg>