<svg width="1151" height="409" viewBox="0 0 1151 409" fill="none" xmlns="http://www.w3.org/2000/svg">
<path opacity="0.2" d="M502.901 326.723C502.901 326.723 513.276 415.624 592.856 408.482C669.942 401.464 673.488 317.488 673.488 317.488C673.488 317.488 648.011 356.151 598.109 359.476C548.207 362.8 502.901 326.723 502.901 326.723Z" fill="#595959"/>
<path d="M482.021 54.111C478.738 47.4619 479.92 39.7046 485.041 34.2868C495.81 22.7125 519.71 4.98159 566.329 1.28765C612.948 -2.40629 636.323 11.1382 647.748 21.1118C653.395 26.1602 655.365 33.7943 652.738 40.6897C649.193 49.9245 640.526 56.4505 630.151 57.5587C617.019 58.9131 599.159 63.9615 588.916 80.2148C588.26 81.1999 587.472 82.1849 586.684 83.0468L586.29 83.4162C577.491 92.1586 562.784 92.6511 553.46 84.5244L553.066 84.155C553.066 84.155 542.297 69.5024 506.841 69.5024C496.204 69.3793 486.617 63.5921 482.284 54.6035L482.021 54.111Z" fill="#31323D"/>
<path d="M581.564 87.8491V88.4648L582.22 90.558C582.745 92.405 583.665 95.237 584.978 98.6847C588.524 108.535 592.857 118.139 597.716 127.374C600.736 133.161 604.282 139.318 608.484 145.598C612.818 152.247 617.414 158.526 622.536 164.683C627.92 171.209 633.829 177.242 640.133 183.029C646.699 188.94 653.659 194.358 661.144 199.16C664.821 201.622 668.76 203.839 672.7 205.932C676.64 208.025 680.711 209.872 684.782 211.596C692.923 214.92 701.328 217.629 709.864 219.599C717.874 221.446 726.148 222.555 734.421 223.17C741.906 223.663 749.391 223.786 756.877 223.416L766.857 222.678L771.453 222.185L775.787 221.57L783.666 220.338L790.363 219.107L799.687 217.137L802.97 216.398H803.101C804.415 216.398 805.465 217.26 805.596 218.491C805.596 219.353 805.071 220.215 804.283 220.584L801 221.57L791.676 224.032L784.979 225.633L776.969 227.234L772.504 227.972L767.776 228.711C764.493 229.204 761.079 229.573 757.533 229.942C749.785 230.681 741.906 230.927 734.158 230.804C725.36 230.558 716.692 229.696 708.025 228.219C698.701 226.618 689.64 224.155 680.842 220.954C676.377 219.353 671.912 217.506 667.447 215.413C662.982 213.32 658.78 211.103 654.578 208.764C646.305 203.962 638.425 198.544 631.071 192.511C623.98 186.723 617.283 180.321 611.111 173.672C605.333 167.392 599.948 160.866 594.958 153.971C590.231 147.445 586.028 141.042 582.483 135.131C576.705 125.404 571.583 115.43 567.118 105.087C565.542 101.27 564.361 98.3153 563.573 96.222L562.653 93.7594L562.391 92.8975C560.421 88.0954 562.916 82.8007 568.038 80.9538C573.159 79.1068 578.806 81.4463 580.776 86.2484C580.907 86.6178 581.038 87.1103 581.17 87.4797V87.8491H581.564Z" fill="#31323D"/>
<path fill-rule="evenodd" clip-rule="evenodd" d="M924.967 55.8345L933.634 55.4651L925.098 55.0957H901.854L886.49 55.4651L869.287 56.2039C866.795 56.4116 864.256 56.5755 861.68 56.7418C858.148 56.9698 854.547 57.2023 850.902 57.5583L841.447 58.4202L831.992 59.4053L822.536 60.5134L813.081 61.7448L803.889 63.0992L794.828 64.5768L786.161 66.0543L777.887 67.5319L762.654 70.6102L749.916 73.4422L740.067 75.7816L731.531 77.8749H731.137C727.591 78.8599 725.884 82.3076 726.935 85.6321C727.985 88.9566 731.794 90.6804 735.208 89.5723H735.339L743.481 86.9865L752.936 84.1545L765.281 80.7069L779.988 76.8898L787.999 74.9197L796.404 72.9496L805.202 70.9795L814.263 69.1326L823.456 67.4088L832.779 65.6849L842.103 64.0842L851.427 62.7298C857.188 61.8103 862.835 61.1054 868.367 60.4148L869.549 60.2672L886.621 58.4202L901.986 57.1889L914.986 56.327L924.967 55.8345ZM415.836 248.411H412.684L412.159 248.288C411.634 248.411 411.108 248.781 410.977 249.273C410.714 250.012 411.108 250.874 411.896 251.12H412.684L415.048 251.367L424.109 251.859C428.049 251.982 432.776 251.859 438.16 251.613C444.201 251.243 450.242 250.505 456.283 249.52C463.505 248.288 470.465 246.688 477.425 244.594L480.183 243.732L482.941 242.747L488.588 240.777C489.455 240.413 490.329 240.055 491.205 239.696L491.205 239.696C494.177 238.478 497.173 237.25 500.013 235.729L502.902 234.374L505.791 232.897L511.438 229.696C512.957 228.841 514.321 227.912 515.709 226.967C516.12 226.687 516.533 226.406 516.953 226.125C518.792 224.893 520.63 223.662 522.337 222.308L527.59 218.244L532.58 213.812C534.845 211.933 536.821 209.783 538.815 207.614L538.817 207.612L538.818 207.611L538.819 207.61L538.82 207.61L538.82 207.609L538.821 207.608C539.831 206.51 540.845 205.406 541.904 204.331C542.692 203.469 543.349 202.607 544.005 201.745L546.106 199.159L548.207 196.573C548.864 195.711 549.521 194.85 550.177 193.864L553.854 188.447L555.693 185.738L557.269 182.906C559.501 179.212 561.471 175.395 563.178 171.578C563.519 170.814 563.866 170.051 564.213 169.287C565.6 166.234 566.986 163.18 568.037 160.127L570.138 154.463C570.224 154.248 570.31 154.039 570.394 153.834L570.394 153.833C570.697 153.096 570.983 152.401 571.189 151.631L571.977 148.799L571.979 148.792C573.028 145.1 574.078 141.409 574.997 137.84L577.098 127.374L577.623 124.788C577.689 124.357 577.755 123.957 577.82 123.557L577.821 123.555C577.886 123.155 577.952 122.756 578.017 122.325L578.674 117.523C578.827 116.281 578.999 115.076 579.169 113.893C579.436 112.028 579.695 110.22 579.856 108.412L580.381 100.162L580.906 92.8972C581.034 90.8618 580.913 88.9428 580.786 86.9138L580.775 86.7407C580.512 83.9087 579.856 80.9535 578.936 78.2447C578.543 77.2596 578.149 76.2746 577.623 75.2895C576.967 74.1813 575.916 73.1963 574.734 72.5806C571.189 70.8568 566.724 72.0881 564.754 75.4127V75.782C564.229 76.7671 563.835 77.7521 563.441 78.7372C562.521 81.3229 561.996 84.1549 561.733 86.8638L561.722 87.0365V87.0372V87.0378V87.0384V87.039V87.0395V87.04C561.595 88.9444 561.475 90.7397 561.602 92.651V99.5463L561.339 107.304C561.219 109.785 560.989 112.37 560.749 115.058L560.683 115.8L560.289 120.355C560.223 120.725 560.19 121.125 560.158 121.525C560.125 121.925 560.092 122.325 560.026 122.695L559.632 125.034L558.056 134.885C556.743 141.903 554.905 148.799 552.804 155.571C551.753 159.142 550.44 162.712 548.995 166.16C547.551 169.731 545.975 173.178 544.136 176.626L542.823 179.212L541.379 181.675L538.358 186.723L538.357 186.725C537.832 187.586 537.307 188.447 536.782 189.185L535.075 191.648L533.368 194.111C532.843 194.972 532.187 195.711 531.53 196.45L531.53 196.45C530.585 197.513 529.675 198.607 528.762 199.705L528.761 199.705C527.135 201.66 525.5 203.625 523.65 205.439L519.448 209.748L514.983 213.689C513.539 215.043 511.963 216.274 510.256 217.382L507.892 219.229L505.528 220.953L500.538 224.278L498.043 225.878L495.548 227.356C492.987 228.834 490.426 230.104 487.865 231.373C487.012 231.797 486.158 232.22 485.305 232.651L480.183 234.867L477.688 235.975L475.062 236.96C468.627 239.423 462.061 241.516 455.363 243.117C449.191 244.717 443.282 245.826 438.16 246.564C433.039 247.303 428.443 247.796 424.634 248.042L415.836 248.411ZM676.377 315.764L676.902 313.548C676.902 312.809 676.508 312.193 675.983 311.578C674.801 310.346 672.7 310.346 671.386 311.455L670.205 313.425C670.058 313.654 669.893 313.934 669.717 314.234L669.715 314.237C669.418 314.741 669.089 315.301 668.76 315.764L666.79 318.596C664.952 321.059 662.982 323.522 660.881 325.861C658.254 328.816 655.365 331.648 652.214 334.234C648.668 337.189 644.728 339.898 640.657 342.361L637.374 344.208L633.829 345.931C631.465 347.04 628.97 348.148 626.343 349.133L626.343 349.133C623.716 350.118 621.09 351.103 618.333 351.842L614.13 352.95L609.928 353.935C604.15 355.166 598.241 355.905 592.331 356.151C586.422 356.398 580.381 356.151 574.472 355.536C568.693 354.92 563.047 353.812 557.4 352.334L555.43 351.842L553.198 351.226L549.258 349.995L545.45 348.64L541.773 347.163C537.177 345.316 532.843 343.099 528.509 340.76C524.57 338.544 521.024 336.327 518.004 334.111L517.675 333.87L517.353 333.634L516.743 333.188C514.221 331.344 511.948 329.681 510.256 328.201L505.528 324.137L503.821 322.66H503.69C502.639 321.305 500.538 321.059 499.093 322.044C497.649 323.029 497.386 324.999 498.437 326.354L499.619 328.447L501.195 330.909C501.348 331.139 501.5 331.375 501.657 331.616C502.171 332.411 502.722 333.261 503.427 334.111C505.528 336.943 507.761 339.652 510.124 342.238C513.276 345.562 516.69 348.764 520.367 351.596C524.701 355.043 529.429 358.122 534.287 360.83C536.914 362.308 539.54 363.662 542.561 365.017L547.026 366.864L549.127 367.726H549.783L550.309 367.972L551.49 368.341C557.925 370.558 564.623 372.159 571.32 373.267C578.411 374.375 585.503 374.744 592.594 374.498C599.817 374.252 606.908 373.267 613.868 371.666L618.989 370.312L623.98 368.711C627.263 367.603 630.414 366.371 633.435 364.894C636.455 363.416 639.344 361.815 642.102 360.215L646.041 357.629L649.85 354.92C654.315 351.472 658.386 347.655 662.063 343.346C665.083 339.775 667.841 335.958 670.073 331.895C670.886 330.466 671.541 329.112 672.161 327.831C672.342 327.455 672.521 327.086 672.7 326.723C673.347 325.408 673.817 324.177 674.255 323.028L674.259 323.017C674.353 322.771 674.446 322.529 674.538 322.29L675.72 318.473C676.079 317.464 676.22 316.66 676.341 315.966L676.355 315.888L676.377 315.764ZM706.58 116.169L711.833 115.184L726.804 112.598C739.804 110.505 758.321 107.919 780.645 105.949C806.121 103.732 831.598 102.747 857.205 102.993C871.257 103.117 885.702 103.732 900.41 104.84C915.118 105.949 929.957 107.672 944.665 110.012C959.373 112.351 974.081 115.183 988.263 118.754C1002.18 122.202 1015.97 126.388 1029.37 131.314C1041.84 135.87 1054.19 141.287 1066.01 147.198C1076.64 152.492 1086.89 158.526 1096.73 165.052C1105.01 170.593 1112.89 176.503 1120.5 182.906L1125.36 187.092L1129.7 191.033L1133.64 194.726L1137.18 198.297C1138.44 199.545 1139.57 200.754 1140.62 201.879L1140.63 201.891L1140.64 201.892L1140.64 201.896L1140.65 201.907L1140.66 201.92C1141.47 202.779 1142.22 203.589 1142.96 204.331L1147.03 208.887L1150.44 212.827L1146.9 209.01L1142.7 204.577C1142.24 204.113 1141.76 203.621 1141.26 203.11L1141.25 203.103L1141.25 203.097L1141.24 203.089C1139.89 201.71 1138.41 200.188 1136.79 198.667L1133.24 195.219L1129.17 191.525L1124.71 187.708L1119.72 183.645C1111.97 177.488 1103.96 171.824 1095.55 166.529C1085.7 160.25 1075.33 154.586 1064.69 149.537C1052.74 143.996 1040.53 138.948 1028.05 134.761C1014.66 130.329 1001 126.512 987.081 123.433C972.899 120.232 958.454 117.769 943.746 115.922C929.038 114.075 914.461 112.721 899.884 111.982C885.308 111.243 871.125 110.997 857.205 111.243C831.992 111.613 806.778 113.213 781.827 116.169C759.896 118.631 741.774 121.709 729.167 124.049L714.591 127.004L709.469 128.112C705.924 128.605 702.509 126.388 701.984 122.941C701.459 119.986 703.428 117.154 706.58 116.169ZM724.834 144.612L734.946 143.135L740.592 142.642L747.29 142.15C748.312 142.15 749.365 142.138 750.445 142.126H750.446H750.446H750.447C754.365 142.084 758.651 142.037 763.18 142.519L767.644 142.765L772.241 143.381L776.968 143.997L781.827 144.859L786.817 145.721L791.807 146.829L796.929 148.06L802.05 149.538L807.172 151.138L812.293 152.985L817.415 154.955L822.536 157.049L825.163 158.157L827.658 159.388L832.779 161.727L842.76 166.899C849.195 170.593 855.629 174.287 861.67 178.35C867.711 182.413 873.489 186.6 878.873 190.786C884.257 194.973 889.379 199.282 894.106 203.346C897.515 206.275 900.65 209.268 903.61 212.095L903.611 212.096L903.617 212.102C904.761 213.194 905.879 214.261 906.976 215.289C910.915 218.983 914.33 222.677 917.219 225.879C917.668 226.376 918.11 226.865 918.546 227.345C918.887 227.721 919.224 228.091 919.555 228.456L919.563 228.465C921.529 230.627 923.319 232.597 924.835 234.375C928.906 239.177 931.139 242.009 931.139 242.009C931.139 242.009 928.775 239.3 924.441 234.744C923.687 233.995 922.888 233.176 922.038 232.305C920.374 230.6 918.517 228.697 916.431 226.74C913.279 223.785 909.602 220.338 905.531 216.767C901.46 213.196 896.995 209.379 892.136 205.562C887.278 201.745 882.025 197.805 876.378 193.865C870.731 189.924 864.953 186.107 858.781 182.537C852.609 178.966 846.174 175.518 839.74 172.317L829.759 167.884L824.769 165.791L822.274 164.806L819.779 163.944L814.789 162.22L809.798 160.619L804.808 159.142L799.818 157.91L794.959 156.679L790.1 155.694L785.373 154.832L780.645 154.217L776.049 153.724L771.584 153.355L767.25 152.985H763.18C758.989 152.794 755.116 153.049 751.5 153.288C750.47 153.356 749.461 153.423 748.472 153.478L742.562 154.217L737.572 154.832L727.592 156.802C724.046 157.541 720.632 155.325 719.844 152C719.056 148.676 721.42 145.474 724.965 144.735H725.359L724.834 144.612ZM427.786 143.381L448.141 147.074L448.272 147.198C451.818 147.813 455.232 145.474 455.889 142.149C456.546 138.825 454.051 135.623 450.505 135.008L430.15 131.806C417.149 129.713 398.633 126.758 376.177 123.926C364.884 122.448 352.671 121.094 339.801 119.862C326.932 118.631 313.275 117.646 299.092 116.907C284.909 116.168 270.201 115.799 255.362 116.045C240.523 116.292 225.421 116.907 210.319 118.262C195.348 119.616 180.378 121.586 165.67 124.295C158.447 125.526 151.225 127.127 144.133 128.851C137.042 130.575 130.082 132.422 123.385 134.515C98.6963 141.903 75.3212 152.615 54.0472 166.406C45.6427 171.947 37.5008 177.98 30.0155 184.506C28.8652 185.354 27.8692 186.298 26.8987 187.217L26.8985 187.217C26.3179 187.768 25.7464 188.309 25.1566 188.816L20.823 193.003L16.8834 196.943L13.4691 200.637C11.494 202.598 9.82725 204.558 8.37795 206.263C8.1891 206.486 8.00393 206.703 7.82226 206.916L5.5898 209.502L3.88263 211.719L0.599609 215.782L3.88263 211.842L5.72112 209.625L7.95358 207.04C8.37803 206.58 8.8106 206.106 9.25533 205.618L9.25579 205.618C10.5996 204.144 12.0545 202.548 13.7317 200.883L17.2774 197.312L21.3483 193.495L25.8132 189.555C26.3483 189.095 26.8834 188.621 27.4237 188.142C28.4744 187.211 29.5446 186.263 30.6721 185.368C38.42 179.089 46.5619 173.301 55.0978 168.007C76.5031 154.955 99.8782 144.981 124.435 138.332C131.133 136.362 138.093 134.638 145.053 133.161C152.013 131.683 159.235 130.329 166.458 129.22C181.166 126.881 195.874 125.28 210.713 124.418C225.552 123.556 240.523 123.187 255.231 123.433C269.939 123.679 284.384 124.295 298.304 125.403C312.224 126.512 325.75 127.743 338.488 129.344C351.226 130.944 363.308 132.545 374.339 134.269C394.099 137.229 410.84 140.287 423.357 142.573C424.898 142.854 426.376 143.124 427.786 143.381ZM218.723 74.7969L221.087 74.4275L227.653 73.4424L237.896 72.088L251.16 70.7335C260.877 69.8716 272.434 69.3791 284.778 69.5022L284.977 69.5062C291.085 69.6281 297.324 69.7525 303.819 70.1179L313.537 70.8567L323.255 71.8417L333.104 73.073L342.821 74.5506C348.068 75.3537 353.139 76.4023 358.107 77.4296L358.108 77.4297C359.233 77.6624 360.353 77.894 361.469 78.1214L370.399 80.2146L378.803 82.4309C384.319 83.9085 389.44 85.3861 394.168 86.8636L406.906 91.1732L416.624 94.744L422.796 97.2066L425.028 98.0685C428.311 99.4229 429.887 103.117 428.443 106.195C426.998 109.273 423.058 110.751 419.775 109.396H419.381L417.28 108.411L411.502 105.703L402.31 101.639L390.228 96.8372C385.763 95.1134 380.904 93.3895 375.652 91.6657L367.641 89.08L359.105 86.6174C353.327 85.0167 347.286 83.416 341.114 82.0615L331.791 80.0915L322.335 78.3676L312.749 76.8901L303.294 75.6588C296.991 74.92 290.687 74.3043 284.646 73.9349C272.565 73.073 261.14 72.9499 251.422 73.1962L238.159 73.6887L227.916 74.4275L221.35 75.0431L218.723 74.7969ZM421.483 174.04L431.463 176.38L431.726 175.887H432.12C435.271 176.133 438.292 174.163 439.08 171.331C439.999 168.13 438.029 164.682 434.483 163.82L424.372 162.097L418.462 161.481L415.179 161.111H404.017L395.613 161.604H393.38L391.148 161.85L386.551 162.466C384.703 162.61 382.854 163.009 380.979 163.413C379.658 163.698 378.322 163.986 376.965 164.19C374.763 164.52 372.621 165.127 370.419 165.751C369.337 166.058 368.241 166.368 367.116 166.652L364.621 167.391L362.126 168.253L357.004 169.977L351.883 171.947L346.761 174.04L336.649 178.719C329.952 182.044 323.517 185.738 317.214 189.801L312.486 192.879L307.89 196.081C305.862 197.428 303.943 198.877 302.062 200.297C301.02 201.083 299.99 201.861 298.96 202.607L290.556 209.256C287.798 211.472 285.04 213.689 282.545 216.028L278.737 219.476L275.06 222.923L268.1 229.573L261.665 236.099L255.887 242.378C253.436 245.087 251.218 247.687 249.156 250.104C248.125 251.312 247.132 252.475 246.169 253.583C243.917 256.175 241.983 258.618 240.307 260.736C239.834 261.334 239.381 261.906 238.947 262.449C235.138 267.374 233.037 270.329 233.037 270.329C233.037 270.329 235.27 267.497 239.472 262.695L247.089 254.199C250.109 250.997 253.523 247.427 257.463 243.61L263.635 237.699L270.332 231.543L277.555 225.263L281.363 222.062L285.303 218.86C287.054 217.465 288.922 216.069 290.789 214.674C291.723 213.976 292.657 213.278 293.576 212.58L302.243 206.424C303.25 205.767 304.242 205.097 305.234 204.427C307.219 203.086 309.203 201.745 311.305 200.514L315.901 197.682L320.628 194.973C326.932 191.402 333.366 188.2 340.064 185.245L349.913 181.305L354.903 179.581L359.762 177.98L364.621 176.626L366.985 176.01L369.348 175.518C370.442 175.304 371.536 175.061 372.624 174.819C374.672 174.363 376.7 173.912 378.672 173.671C379.707 173.544 380.741 173.389 381.77 173.234C383.746 172.938 385.702 172.644 387.602 172.563L391.936 172.193H403.754L410.714 172.686H412.29L413.735 172.932L416.493 173.301L421.483 174.04Z" fill="#31323D"/>
</svg>
