<?xml version="1.0" encoding="UTF-8"?>
<svg width="898px" height="753px" viewBox="0 0 898 753" version="1.1" xmlns="http://www.w3.org/2000/svg" xmlns:xlink="http://www.w3.org/1999/xlink">
    <title>编组</title>
    <defs>
        <path d="M0.6,459.2 C69.6,489.2 163,499.1 163,499.1 C163,499.1 510.1,544.1 561.6,253.1 C581.1,91.2 384.5,57.7 384.5,57.7 C384.5,57.7 476.3,21 509.2,50.7 C509.2,50.7 490.7,20.4 462.9,18 C462.9,18 581.1,-61.9 676.2,120.6 C676.2,120.6 663.9,27.6 625.7,9 C625.7,9 768.2,41.6 793.3,250.5 C793.3,250.5 819.6,208.9 816.7,174.1 C816.7,174.1 884.6,273.9 809.4,388.8 C809.4,388.8 868.3,332.5 873.1,302.3 C873.1,302.3 947,514.4 721.6,546.4 C721.6,546.4 782.8,569.3 823.4,549.7 C823.4,549.7 784.3,635 657.5,624 C657.5,624 719.2,666.1 756.8,657.5 C756.8,657.5 663.6,705.2 505.5,670.7 C505.5,670.7 559.1,720.2 598.7,721.2 L588.2,723.8 C473.727947,750.498286 354.094142,744.925067 242.6,707.7 L91.6,657.3 L0.7,620.2 L0.7,459.2 L0.6,459.2 Z" id="path-1"></path>
        <path d="M0.6,459.2 C69.6,489.2 163,499.1 163,499.1 C163,499.1 510.1,544.1 561.6,253.1 C581.1,91.2 384.5,57.7 384.5,57.7 C384.5,57.7 476.3,21 509.2,50.7 C509.2,50.7 490.7,20.4 462.9,18 C462.9,18 581.1,-61.9 676.2,120.6 C676.2,120.6 663.9,27.6 625.7,9 C625.7,9 768.2,41.6 793.3,250.5 C793.3,250.5 819.6,208.9 816.7,174.1 C816.7,174.1 884.6,273.9 809.4,388.8 C809.4,388.8 868.3,332.5 873.1,302.3 C873.1,302.3 947,514.4 721.6,546.4 C721.6,546.4 782.8,569.3 823.4,549.7 C823.4,549.7 784.3,635 657.5,624 C657.5,624 719.2,666.1 756.8,657.5 C756.8,657.5 663.6,705.2 505.5,670.7 C505.5,670.7 559.1,720.2 598.7,721.2 L588.2,723.8 C473.727947,750.498286 354.094142,744.925067 242.6,707.7 L91.6,657.3 L0.7,620.2 L0.7,459.2 L0.6,459.2 Z" id="path-3"></path>
        <linearGradient x1="50.0310873%" y1="99.8945451%" x2="50.0310873%" y2="-0.0437141374%" id="linearGradient-5">
            <stop stop-color="#FFFFFF" stop-opacity="0" offset="0%"></stop>
            <stop stop-color="#FFFFFF" offset="72%"></stop>
        </linearGradient>
        <linearGradient x1="41.9606235%" y1="106.237469%" x2="41.9606235%" y2="6.17672891%" id="linearGradient-6">
            <stop stop-color="#FFFFFF" stop-opacity="0" offset="0%"></stop>
            <stop stop-color="#FFFFFF" offset="72%"></stop>
        </linearGradient>
        <linearGradient x1="49.9965621%" y1="100.016533%" x2="49.9965621%" y2="0.017569364%" id="linearGradient-7">
            <stop stop-color="#FFFFFF" stop-opacity="0" offset="0%"></stop>
            <stop stop-color="#FFFFFF" offset="72%"></stop>
        </linearGradient>
        <linearGradient x1="-0.0932172098%" y1="49.9825625%" x2="99.9895779%" y2="49.9825625%" id="linearGradient-8">
            <stop stop-color="#FFFFFF" stop-opacity="0" offset="0%"></stop>
            <stop stop-color="#FFFFFF" offset="72%"></stop>
        </linearGradient>
        <path d="M0.6,459.2 C69.6,489.2 163,499.1 163,499.1 C163,499.1 510.1,544.1 561.6,253.1 C581.1,91.2 384.5,57.7 384.5,57.7 C384.5,57.7 476.3,21 509.2,50.7 C509.2,50.7 490.7,20.4 462.9,18 C462.9,18 581.1,-61.9 676.2,120.6 C676.2,120.6 663.9,27.6 625.7,9 C625.7,9 768.2,41.6 793.3,250.5 C793.3,250.5 819.6,208.9 816.7,174.1 C816.7,174.1 884.6,273.9 809.4,388.8 C809.4,388.8 868.3,332.5 873.1,302.3 C873.1,302.3 947,514.4 721.6,546.4 C721.6,546.4 782.8,569.3 823.4,549.7 C823.4,549.7 784.3,635 657.5,624 C657.5,624 719.2,666.1 756.8,657.5 C756.8,657.5 663.6,705.2 505.5,670.7 C505.5,670.7 559.1,720.2 598.7,721.2 L588.2,723.8 C473.727947,750.498286 354.094142,744.925067 242.6,707.7 L91.6,657.3 L0.7,620.2 L0.7,459.2 L0.6,459.2 Z" id="path-9"></path>
        <linearGradient x1="-0.0116130485%" y1="49.9884611%" x2="99.9984378%" y2="49.9884611%" id="linearGradient-11">
            <stop stop-color="#808080" offset="0%"></stop>
            <stop stop-color="#7D7D7D" offset="27%"></stop>
            <stop stop-color="#747474" offset="46%"></stop>
            <stop stop-color="#646464" offset="64%"></stop>
            <stop stop-color="#4D4D4D" offset="80%"></stop>
            <stop stop-color="#303030" offset="95%"></stop>
            <stop stop-color="#242424" offset="100%"></stop>
        </linearGradient>
        <linearGradient x1="-0.0132846396%" y1="50.0542398%" x2="100.019658%" y2="50.0542398%" id="linearGradient-12">
            <stop stop-color="#808080" offset="0%"></stop>
            <stop stop-color="#7D7D7D" offset="27%"></stop>
            <stop stop-color="#747474" offset="46%"></stop>
            <stop stop-color="#646464" offset="64%"></stop>
            <stop stop-color="#4D4D4D" offset="80%"></stop>
            <stop stop-color="#303030" offset="95%"></stop>
            <stop stop-color="#242424" offset="100%"></stop>
        </linearGradient>
        <linearGradient x1="0.00690846287%" y1="49.9866674%" x2="99.9965458%" y2="49.9866674%" id="linearGradient-13">
            <stop stop-color="#808080" offset="0%"></stop>
            <stop stop-color="#7D7D7D" offset="27%"></stop>
            <stop stop-color="#747474" offset="46%"></stop>
            <stop stop-color="#646464" offset="64%"></stop>
            <stop stop-color="#4D4D4D" offset="80%"></stop>
            <stop stop-color="#303030" offset="95%"></stop>
            <stop stop-color="#242424" offset="100%"></stop>
        </linearGradient>
    </defs>
    <g id="页面-1" stroke="none" stroke-width="1" fill="none" fill-rule="evenodd">
        <g id="编组" transform="translate(6.000000, 6.000000)">
            <g id="tailFur">
                <g id="Clipped">
                    <mask id="mask-2" fill="white">
                        <use xlink:href="#path-1"></use>
                    </mask>
                    <g id="路径"></g>
                    <g id="编组" mask="url(#mask-2)">
                        <g transform="translate(-48.000000, -20.000000)">
                            <polygon id="路径" fill="#EC79F2" fill-rule="nonzero" points="10 0.4 949 0.4 949 765.97 10 765.97"></polygon>
                            <path d="M352.4,509.1 C402.8,565.2 483.2,592.4 557.4,579.3 C558.865308,579.185832 560.032138,578.026893 560.156248,576.562394 C560.280358,575.097895 559.325198,573.759127 557.9,573.4 C501.729813,553.566514 451.948428,518.951006 413.8,473.2 M546.7,390.4 C617.615464,375.912329 682.630726,340.689927 733.5,289.2 C734.354581,288.174334 734.456531,286.716751 733.753052,285.582108 C733.049573,284.447464 731.698689,283.890638 730.4,284.2 C681.379788,300.657935 630.009222,309.033938 578.3,309 L585.7,308.8 M599.9,271.8 C608.6,273.8 617.9,269.9 624.4,263.7 C630.9,257.5 635.2,249.4 639,241.3 C651.851408,214.063612 661.418571,185.39569 667.5,155.9 C667.709315,154.607369 667.17956,153.306017 666.126954,152.527089 C665.074348,151.748161 663.674981,151.621962 662.5,152.2 L591.5,190.5 C590.43269,191.049367 589.158302,191.01344 588.123639,190.404814 C587.088975,189.796189 586.438397,188.699783 586.4,187.5" id="形状" fill="#EA5F5A" fill-rule="nonzero"></path>
                            <path d="M70,552.5 C191.8,636.5 311.5,705.6 475,702.4 C478.4,702.3 480.7,699 478.7,696.1 C469.396149,682.64776 461.993,667.976064 456.7,652.5 C456.190246,651.015011 456.596381,649.369123 457.738421,648.291727 C458.880462,647.21433 460.547198,646.904679 462,647.5 C527.53277,673.300725 599.413895,678.327865 667.9,661.9 C669.43886,661.527058 670.612882,660.281475 670.894226,658.723263 C671.17557,657.165052 670.511272,655.587549 669.2,654.7 C661.605874,649.542851 655.057149,642.994126 649.9,635.4 C649.064764,634.218396 648.9328,632.677827 649.554914,631.371388 C650.177028,630.064949 651.456212,629.196354 652.9,629.1 C737.263494,622.474677 819.5287,599.47982 895.1,561.4 C896.312985,560.787228 897.754116,560.832231 898.926504,561.519493 C900.098892,562.206755 900.842147,563.442254 900.9,564.8 C904.3,643.9 904.1,729.7 854.5,791 C816.6,837.8 757,860.5 699.3,877.8 C616.7,902.6 531.3,920.5 445.1,919.9 C358.9,919.3 271.5,899.5 198.6,853.5 C113,799.5 52.9,713.6 0.7,626.9" id="路径" fill="#585666" fill-rule="nonzero"></path>
                            <path d="M424.9,445.9 C483.2,480.1 550.5,499 617.4,486.7 C674.7,476.2 725.6,449.5 771.1,413.5 C774.4,410.9 774.3,406 771,407.4 C675.1,448.2 569.6,442.8 470.6,411.4 L424.9,445.9 Z" id="路径" fill="#EA5F5A" fill-rule="nonzero"></path>
                            <path d="M424.9,445.9 C483.2,480.1 550.5,499 617.4,486.7 C674.7,476.2 725.6,449.5 771.1,413.5 C774.4,410.9 774.3,406 771,407.4 C675.1,448.2 569.6,442.8 470.6,411.4 L424.9,445.9 Z M264.5,494.9 C287.4,501.4 297,527.5 306.5,549.3 C324.762753,591.219929 353.394909,627.801637 389.7,655.6 C390.837555,656.503554 391.164253,658.092338 390.475512,659.371429 C389.78677,660.650521 388.28052,661.252333 386.9,660.8 C303.183856,631.51955 229.425883,579.216551 174.1,509.9" id="形状" fill="#EA5F5A" fill-rule="nonzero"></path>
                            <g id="Clipped" stroke-width="1" fill="none" fill-rule="evenodd" transform="translate(48.000000, 20.000000)">
                                <mask id="mask-4" fill="white">
                                    <use xlink:href="#path-3"></use>
                                </mask>
                                <g id="路径"></g>
                                <g id="编组" style="mix-blend-mode: overlay;" mask="url(#mask-4)" fill-rule="nonzero" opacity="0.3">
                                    <g transform="translate(462.000000, -52.000000)" id="路径">
                                        <path d="M9.6,52.9 C90.2,83.3 157.5,147.2 192.4,225.9 C192.709801,226.917033 193.702573,227.567008 194.758629,227.444211 C195.814685,227.321414 196.631829,226.460983 196.7,225.4 C202.9,187.8 202,148.7 190.3,112.5 C177.8,73.9 152.5,38.8 117.3,18.6 C82.1,-1.6 37.1,-5.7 0.5,11.8" fill="url(#linearGradient-5)" style="mix-blend-mode: overlay;"></path>
                                        <path d="M176.5,65.8 C261.3,139.7 301.8,260.7 279.4,370.8 C279.130448,371.794353 279.587043,372.842597 280.498722,373.322428 C281.410401,373.802259 282.53297,373.585154 283.2,372.8 C328.3,326.3 346.3,256.4 336,192.2 C325.3,125.5 286.4,65.2 235.5,20.8" fill="url(#linearGradient-6)" style="mix-blend-mode: overlay;"></path>
                                        <path d="M352.9,237.6 C360.5,323 338.1,410.7 290.7,482.1 C290.250487,482.9221 290.344603,483.934704 290.937927,484.659878 C291.531251,485.385052 292.505166,485.67782 293.4,485.4 C353.8,462.7 395.2,401.4 404.9,337.3 C415,271 395.2,202.9 363,144" fill="url(#linearGradient-7)" style="mix-blend-mode: overlay;"></path>
                                        <path d="M411.2,367.5 C410.4,415.9 394.2,463.7 366.9,503.7 C341.7,540.6 307.3,570.9 268.2,592.7 C267.365886,593.269015 267.00043,594.315509 267.298986,595.280076 C267.597542,596.244642 268.490286,596.900003 269.5,596.900003 C294.644942,594.381398 319.644364,590.576413 344.4,585.5 C358.3,582.7 372.2,579.4 385,573.1 C419.4,556.3 440.5,520.3 453.3,484.2 C456.4,475.6 458.2,464.1 450.6,459.1" fill="url(#linearGradient-8)" style="mix-blend-mode: overlay;"></path>
                                    </g>
                                </g>
                            </g>
                            <g id="Clipped" stroke-width="1" fill="none" fill-rule="evenodd" transform="translate(48.000000, 20.000000)">
                                <mask id="mask-10" fill="white">
                                    <use xlink:href="#path-9"></use>
                                </mask>
                                <g id="路径"></g>
                                <g id="编组" style="mix-blend-mode: multiply;" mask="url(#mask-10)" fill-rule="nonzero" opacity="0.25">
                                    <g transform="translate(-277.000000, 357.000000)" id="路径">
                                        <path d="M377,87.9 C390.2,153.5 418.6,208.4 467.7,237.7 C596.5,314.5 734.6,357 884.1,368.9 C884.8,410.3 858.8,448.8 824.7,472.4 C790.6,496 749.4,506.7 708.6,513.9 C513.9,548 306.4,506.8 141.1,398.3 C85,361.5 31.6,314.2 10,250.7 C-10.8,189.4 2.7,117.6 44.4,68.1 C86.1,18.6 154.5,-7 218.5,3.2" fill="url(#linearGradient-11)" style="mix-blend-mode: multiply;"></path>
                                        <path d="M1088.1,198.2 C1018.6,235.3 933.6,242 859.1,216.3 C858.232006,216.056215 857.301617,216.342049 856.720215,217.031119 C856.138813,217.720188 856.013623,218.685409 856.4,219.5 C866.2,237.4 882.7,251.2 900.8,260.8 C920.6,271.3 942.4,277.4 964,283.2 C992.7,290.9 1022,298.3 1051.7,296.9 C1081.4,295.5 1112,283.9 1129.6,260 C1147.2,236.1 1147.9,198.9 1126.1,178.7" fill="url(#linearGradient-12)" style="mix-blend-mode: multiply;"></path>
                                        <path d="M1007.3,300.6 C915.4,311.8 819.7,288.7 743.1,236.8 C750.9,282.2 786.5,318.6 826.5,341.4 C878.7,371.2 942.7,382.7 1000.3,365.5 C1014.2,361.3 1029.3,353.7 1032.6,339.6" fill="url(#linearGradient-13)" style="mix-blend-mode: multiply;"></path>
                                    </g>
                                </g>
                            </g>
                        </g>
                    </g>
                </g>
            </g>
            <g id="tail" stroke="#31323D" stroke-linecap="round" stroke-linejoin="round" stroke-width="12.5">
                <path d="M0.6,459.2 C69.6,489.2 163,499.1 163,499.1 C163,499.1 510.1,544.1 561.6,253.1 C581.1,91.2 384.5,57.7 384.5,57.7 C384.5,57.7 476.3,21 509.2,50.7 C509.2,50.7 490.7,20.4 462.9,18 C462.9,18 581.1,-61.9 676.2,120.6 C676.2,120.6 663.9,27.6 625.7,9 C625.7,9 768.2,41.6 793.3,250.5 C793.3,250.5 819.6,208.9 816.7,174.1 C816.7,174.1 884.6,273.9 809.4,388.8 C809.4,388.8 868.3,332.5 873.1,302.3 C873.1,302.3 947,514.4 721.6,546.4 C721.6,546.4 782.8,569.3 823.4,549.7 C823.4,549.7 784.3,635 657.5,624 C657.5,624 719.2,666.1 756.8,657.5 C756.8,657.5 663.6,705.2 505.5,670.7 C505.5,670.7 559.1,720.2 598.7,721.2 L588.2,723.8 C473.727947,750.498286 354.094142,744.925067 242.6,707.7 L91.6,657.3 L0.7,620.2 L0.7,459.2 L0.6,459.2 Z" id="路径"></path>
            </g>
        </g>
    </g>
</svg>