<?xml version="1.0" encoding="UTF-8"?>
<svg width="898px" height="753px" viewBox="0 0 898 753" version="1.1" xmlns="http://www.w3.org/2000/svg" xmlns:xlink="http://www.w3.org/1999/xlink">
    <title>编组</title>
    <defs>
        <path d="M0.6,459.2 C69.6,489.2 163,499.1 163,499.1 C163,499.1 510.1,544.1 561.6,253.1 C581.1,91.2 384.5,57.7 384.5,57.7 C384.5,57.7 476.3,21 509.2,50.7 C509.2,50.7 490.7,20.4 462.9,18 C462.9,18 581.1,-61.9 676.2,120.6 C676.2,120.6 663.9,27.6 625.7,9 C625.7,9 768.2,41.6 793.3,250.5 C793.3,250.5 819.6,208.9 816.7,174.1 C816.7,174.1 884.6,273.9 809.4,388.8 C809.4,388.8 868.3,332.5 873.1,302.3 C873.1,302.3 947,514.4 721.6,546.4 C721.6,546.4 782.8,569.3 823.4,549.7 C823.4,549.7 784.3,635 657.5,624 C657.5,624 719.2,666.1 756.8,657.5 C756.8,657.5 663.6,705.2 505.5,670.7 C505.5,670.7 559.1,720.2 598.7,721.2 L588.2,723.8 C473.727947,750.498286 354.094142,744.925067 242.6,707.7 L91.6,657.3 L0.7,620.2 L0.7,459.2 L0.6,459.2 Z" id="path-1"></path>
        <path d="M0.6,459.2 C69.6,489.2 163,499.1 163,499.1 C163,499.1 510.1,544.1 561.6,253.1 C581.1,91.2 384.5,57.7 384.5,57.7 C384.5,57.7 476.3,21 509.2,50.7 C509.2,50.7 490.7,20.4 462.9,18 C462.9,18 581.1,-61.9 676.2,120.6 C676.2,120.6 663.9,27.6 625.7,9 C625.7,9 768.2,41.6 793.3,250.5 C793.3,250.5 819.6,208.9 816.7,174.1 C816.7,174.1 884.6,273.9 809.4,388.8 C809.4,388.8 868.3,332.5 873.1,302.3 C873.1,302.3 947,514.4 721.6,546.4 C721.6,546.4 782.8,569.3 823.4,549.7 C823.4,549.7 784.3,635 657.5,624 C657.5,624 719.2,666.1 756.8,657.5 C756.8,657.5 663.6,705.2 505.5,670.7 C505.5,670.7 559.1,720.2 598.7,721.2 L588.2,723.8 C473.727947,750.498286 354.094142,744.925067 242.6,707.7 L91.6,657.3 L0.7,620.2 L0.7,459.2 L0.6,459.2 Z" id="path-3"></path>
        <linearGradient x1="50.0310873%" y1="99.8945451%" x2="50.0310873%" y2="-0.0437141374%" id="linearGradient-5">
            <stop stop-color="#FFFFFF" stop-opacity="0" offset="0%"></stop>
            <stop stop-color="#FFFFFF" offset="72%"></stop>
        </linearGradient>
        <linearGradient x1="41.9606235%" y1="106.237469%" x2="41.9606235%" y2="6.17672891%" id="linearGradient-6">
            <stop stop-color="#FFFFFF" stop-opacity="0" offset="0%"></stop>
            <stop stop-color="#FFFFFF" offset="72%"></stop>
        </linearGradient>
        <linearGradient x1="49.9965621%" y1="100.016533%" x2="49.9965621%" y2="0.017569364%" id="linearGradient-7">
            <stop stop-color="#FFFFFF" stop-opacity="0" offset="0%"></stop>
            <stop stop-color="#FFFFFF" offset="72%"></stop>
        </linearGradient>
        <linearGradient x1="-0.0932172098%" y1="49.9825625%" x2="99.9895779%" y2="49.9825625%" id="linearGradient-8">
            <stop stop-color="#FFFFFF" stop-opacity="0" offset="0%"></stop>
            <stop stop-color="#FFFFFF" offset="72%"></stop>
        </linearGradient>
        <path d="M0.6,459.2 C69.6,489.2 163,499.1 163,499.1 C163,499.1 510.1,544.1 561.6,253.1 C581.1,91.2 384.5,57.7 384.5,57.7 C384.5,57.7 476.3,21 509.2,50.7 C509.2,50.7 490.7,20.4 462.9,18 C462.9,18 581.1,-61.9 676.2,120.6 C676.2,120.6 663.9,27.6 625.7,9 C625.7,9 768.2,41.6 793.3,250.5 C793.3,250.5 819.6,208.9 816.7,174.1 C816.7,174.1 884.6,273.9 809.4,388.8 C809.4,388.8 868.3,332.5 873.1,302.3 C873.1,302.3 947,514.4 721.6,546.4 C721.6,546.4 782.8,569.3 823.4,549.7 C823.4,549.7 784.3,635 657.5,624 C657.5,624 719.2,666.1 756.8,657.5 C756.8,657.5 663.6,705.2 505.5,670.7 C505.5,670.7 559.1,720.2 598.7,721.2 L588.2,723.8 C473.727947,750.498286 354.094142,744.925067 242.6,707.7 L91.6,657.3 L0.7,620.2 L0.7,459.2 L0.6,459.2 Z" id="path-9"></path>
        <linearGradient x1="-0.0116130485%" y1="49.9884611%" x2="99.9984378%" y2="49.9884611%" id="linearGradient-11">
            <stop stop-color="#808080" offset="0%"></stop>
            <stop stop-color="#7D7D7D" offset="27%"></stop>
            <stop stop-color="#747474" offset="46%"></stop>
            <stop stop-color="#646464" offset="64%"></stop>
            <stop stop-color="#4D4D4D" offset="80%"></stop>
            <stop stop-color="#303030" offset="95%"></stop>
            <stop stop-color="#242424" offset="100%"></stop>
        </linearGradient>
        <linearGradient x1="-0.0132846396%" y1="50.0542398%" x2="100.019658%" y2="50.0542398%" id="linearGradient-12">
            <stop stop-color="#808080" offset="0%"></stop>
            <stop stop-color="#7D7D7D" offset="27%"></stop>
            <stop stop-color="#747474" offset="46%"></stop>
            <stop stop-color="#646464" offset="64%"></stop>
            <stop stop-color="#4D4D4D" offset="80%"></stop>
            <stop stop-color="#303030" offset="95%"></stop>
            <stop stop-color="#242424" offset="100%"></stop>
        </linearGradient>
        <linearGradient x1="0.00690846287%" y1="49.9866674%" x2="99.9965458%" y2="49.9866674%" id="linearGradient-13">
            <stop stop-color="#808080" offset="0%"></stop>
            <stop stop-color="#7D7D7D" offset="27%"></stop>
            <stop stop-color="#747474" offset="46%"></stop>
            <stop stop-color="#646464" offset="64%"></stop>
            <stop stop-color="#4D4D4D" offset="80%"></stop>
            <stop stop-color="#303030" offset="95%"></stop>
            <stop stop-color="#242424" offset="100%"></stop>
        </linearGradient>
    </defs>
    <g id="页面-1" stroke="none" stroke-width="1" fill="none" fill-rule="evenodd">
        <g id="编组" transform="translate(6.000000, 6.000000)">
            <g id="tailFur">
                <g id="Clipped">
                    <mask id="mask-2" fill="white">
                        <use xlink:href="#path-1"></use>
                    </mask>
                    <g id="路径"></g>
                    <g id="编组" mask="url(#mask-2)">
                        <g transform="translate(-74.000000, -185.000000)">
                            <polygon id="路径" fill="#ADD5D2" fill-rule="nonzero" points="36 135.8 975 135.8 975 930.95 36 930.95"></polygon>
                            <path d="M286.6,575 C286.6,575 416.8,625.7 441.1,721.4 C454.8,775.2 478.9,770.7 497.3,756.3 C513.637613,743.439048 523.948181,724.409719 525.8,703.7 C530.1,658.2 530.8,562.9 465.9,536.8 C379.9,502.2 286.6,575 286.6,575 L286.6,575 Z M0.6,751.5 C88.3,839.4 151.1,891.9 163.8,931.3 C166.6,940.2 177.3,975.4 208.8,998.5 C215.8,1003.7 241.4,1022.4 263.5,1015.6 C305.7,1002.7 306.9,905.7 306.9,894.4 C307,879.6 307.5,707.7 199.5,678.2 C143.2,662.7 47.6,698.3 0.6,751.5 Z M774.1,1114.5 C724.9,1000.5 699.3,922.7 667.5,896.4 C660.3,890.5 631.5,867.6 621.7,829.7 C619.5,821.2 611.6,790.6 626,772.5 C653.6,738 744.2,772.9 754.7,777 C768.4,782.4 928.3,845.5 915.8,956.8 C909.4,1014.9 841,1090.6 774.1,1114.5 L774.1,1114.5 Z" id="形状" fill="#EA5F5A" fill-rule="nonzero"></path>
                            <path d="M659.7,681.3 C623.4,684.1 615.3,575.4 537.5,549 C503.1,537.3 471.5,547.3 466.5,532.7 C461.5,518.1 483.9,498.4 503.2,488.2 C532.4,472.8 562.6,478.7 574.8,481.3 C631.3,493.2 702.2,544.9 699.1,611 C697.8,640.8 681.1,679.6 659.7,681.3 Z M579.7,1003.7 C578.7,967.3 469.8,970.6 435.4,895.9 C420.2,862.9 426.8,830.5 411.9,827 C397,823.5 379.5,847.9 371.4,868.1 C359.1,898.8 368.1,928.2 371.9,940.1 C389.6,995 448.4,1060.2 513.8,1050.3 C543.4,1045.7 580.3,1025 579.7,1003.7 L579.7,1003.7 Z" id="形状" fill="#EA5F5A" fill-rule="nonzero"></path>
                            <path d="M558.6,624.4 C548.4,629.3 551.2,647.4 551.8,717.3 C552.1,746.2 551.7,754.9 556.1,756.5 C564.8,759.7 585,733.8 593.3,706.6 C595.2,700.4 608.9,653.1 583.2,632 C581.8,630.8 568.3,619.8 558.6,624.4 Z M699.7,181 C688.1,200.9 713.6,223.7 754.9,308 C780.1,359.5 784.3,378.9 793.7,378.2 C809.7,377 822.8,319.1 815.9,267.9 C812.9,245.4 804.1,181.1 759.7,167.1 C739.4,160.7 709.5,164.2 699.7,181 L699.7,181 Z M879.4,434 C887.3,422.7 906,430.9 962,432.2 C996.2,433 1007.8,430.4 1009.7,435.7 C1013,444.7 984.9,466.3 955.5,475.3 C942.6,479.3 905.5,490.6 886.8,470 C878.4,460.6 872.8,443.6 879.4,434 Z M513.4,946.1 C521.2,958.7 529.7,954 594.2,956.6 C622.1,957.7 628.8,959 632.4,953.9 C641.3,941.1 620.9,917.8 588.2,902.4 C570.2,893.9 539.2,888 520.6,904.3 C511,912.7 507.3,924.7 506.2,928.3 C504,935 506.8,935.4 513.4,946.1 L513.4,946.1 Z M651,0.2 C617.2,-1.7 578.5,68.1 576.2,132.1 C573.9,196.1 606.6,255.2 623.7,253 C637,251.2 628.9,213.1 657.9,152 C679.6,106.2 698.4,97.3 697.7,68.2 C697,36.8 674.3,1.5 651,0.2 L651,0.2 Z M751.5,608.8 C744.3,623.4 796.8,642.3 821.5,703.4 C841.2,752.4 828.5,792.4 844.5,797.1 C857.1,800.8 875.7,779.1 883.8,761.2 C896,734 887.6,707.3 882,689.6 C876.9,673.6 866.4,641.8 835.2,620.8 C804,599.8 757.9,596 751.5,608.8 L751.5,608.8 Z M364,726.2 C324.8,747.1 266.8,707 244.4,663.1 C240,654.5 214.1,588.9 236.4,598.6 C303.9,628.1 328.9,630 376.2,617.2 C385.1,625.7 391.8,635.7 395,647.3 C402.8,675.7 389.4,712.7 364,726.2 L364,726.2 Z M389.8,757.2 C405,775.6 390.1,810.5 369.4,827 C365.4,830.2 347.9,844.1 336.3,838.1 C317.1,828.2 314.2,764.9 344.9,749.3 C359,742.2 379.9,745.3 389.8,757.2 Z M481.3,807.3 C490.942791,806.054081 500.685046,808.696237 508.377019,814.643445 C516.068992,820.590654 521.078452,829.354091 522.3,839 C524.9,859.1 504.2,897.3 484.1,899.9 C464,902.5 452.2,868.4 449.6,848.3 C448.354081,838.657209 450.996237,828.914954 456.943445,821.222981 C462.890654,813.531008 471.654091,808.521548 481.3,807.3 Z" id="形状" fill="#EA5F5A" fill-rule="nonzero"></path>
                            <path d="M739.8,655.5 C749.958364,654.197109 760.218097,656.984675 768.320453,663.248995 C776.422808,669.513316 781.703518,678.740816 783,688.9 C785.7,710 763.9,750.3 742.8,753 C721.7,755.7 709.2,719.8 706.5,698.6 C703.843792,677.516325 718.728501,658.251131 739.8,655.5 L739.8,655.5 Z M544.9,940.6 C548.905676,940.090866 552.949317,941.196499 556.138664,943.672933 C559.32801,946.149367 561.400924,949.793059 561.9,953.8 C563,962.1 554.2,979.2 545.9,980.2 C537.6,981.2 532.8,965.9 531.7,957.6 C531.190866,953.594324 532.296499,949.550683 534.772933,946.361336 C537.249367,943.17199 540.893059,941.099076 544.9,940.6 Z M580.2,788.1 C589.5,797.1 591.2,810.4 584.1,817.8 C577,825.2 551.5,827.5 542.2,818.5 C532.9,809.5 543.3,792.6 550.4,785.2 C557.5,777.8 570.9,779 580.2,788.1 L580.2,788.1 Z" id="形状" fill="#EA5F5A" fill-rule="nonzero"></path>
                            <circle id="椭圆形" fill="#EA5F5A" fill-rule="nonzero" transform="translate(669.774214, 910.039256) rotate(-7.300000) translate(-669.774214, -910.039256) " cx="669.774214" cy="910.039256" r="27"></circle>
                            <path d="M881.5,607.7 C890.160062,607.038739 897.817576,613.283983 898.911265,621.900118 C900.004954,630.516253 894.15063,638.476623 885.6,640 C876.7,641.1 862.1,629.6 861,620.7 C859.9,611.8 872.6,608.9 881.5,607.7 L881.5,607.7 Z M968.6,551.9 C964.795122,556.312231 958.925372,558.359422 953.201829,557.270415 C947.478286,556.181409 942.770492,552.121652 940.851828,546.620415 C938.933164,541.119178 940.095121,535.01223 943.9,530.6 C949.8,523.8 968.3,522.7 975.1,528.5 C981.9,534.3 974.4,545.1 968.6,551.9 L968.6,551.9 Z M691,262.8 C699.660062,262.138739 707.317576,268.383983 708.411265,277.000118 C709.504954,285.616253 703.65063,293.576623 695.1,295.1 C686.2,296.2 671.6,284.7 670.5,275.8 C669.4,266.9 682.1,263.9 691,262.8 Z M341.2,857.1 C347.689346,856.271573 353.621573,860.860654 354.45,867.35 C355.278427,873.839346 350.689346,879.771573 344.2,880.6 C337.7,881.4 327.2,873.1 326.3,866.6 C325.4,860.1 334.7,857.9 341.2,857.1 Z M659.6,726.6 C659.3,733.6 652.3,739.1 644,738.7 C635.7,738.3 629.2,732.4 629.5,725.3 C629.8,718.2 642.5,708.6 650.8,709 C659.1,709.4 659.9,719.5 659.6,726.6 L659.6,726.6 Z M559,860 C562.42975,862.482996 564.274307,866.607128 563.838844,870.818877 C563.403381,875.030625 560.754056,878.690124 556.888844,880.418877 C553.023632,882.147629 548.52975,881.682996 545.1,879.2 C539.8,875.4 537.8,862 541.7,856.7 C545.6,851.4 553.7,856.1 559,860 Z M742.1,547.6 C745.52975,550.082996 747.374308,554.207128 746.938845,558.418877 C746.503382,562.630625 743.854057,566.290125 739.988845,568.018878 C736.123632,569.74763 731.62975,569.282996 728.2,566.8 C722.9,563 720.9,549.6 724.8,544.3 C728.7,539 736.8,543.8 742.1,547.6 Z M857.6,476.5 C862.901934,480.338379 864.088379,487.748066 860.25,493.05 C856.411621,498.351934 849.001934,499.538379 843.7,495.7 C838.4,491.9 836.4,478.5 840.3,473.2 C844.2,467.9 852.3,472.7 857.6,476.5 L857.6,476.5 Z M717.7,383.7 C742.8,380.5 767.3,418.1 770.5,443.2 C772.720916,467.738551 755.130587,489.636803 730.690372,492.759121 C706.250158,495.881439 683.719492,479.108777 679.7,454.8 C676.5,429.7 692.7,386.9 717.7,383.7 L717.7,383.7 Z M609.1,321.1 C596.8,343.2 552,340.6 529.9,328.3 C509.086709,315.405533 502.095602,288.421864 514.029166,267.043126 C525.962729,245.664389 552.600147,237.452087 574.5,248.4 C596.5,260.7 621.4,299 609.1,321.1 Z M813,509.3 C819.630599,508.450222 826.327152,510.269798 831.615933,514.358288 C836.904715,518.446779 840.35231,524.469134 841.2,531.1 C843,544.9 820.5,573 806.6,574.8 C792.7,576.6 792.9,551.3 791.1,537.5 C790.251605,530.854078 792.084658,524.143887 796.194073,518.852312 C800.303487,513.560736 806.350938,510.123429 813,509.3 L813,509.3 Z M682.2,322.8 C696.2,330 703.6,343.4 698.9,352.7 C694.2,362 659.5,365.1 645.5,357.9 C631.5,350.7 643.4,335.7 648.2,326.5 C653,317.3 668.3,315.6 682.2,322.8 L682.2,322.8 Z M631,415.3 C637.630599,414.450222 644.327152,416.269798 649.615933,420.358288 C654.904715,424.446779 658.35231,430.469134 659.2,437.1 C661,450.9 638.5,479 624.6,480.8 C610.7,482.6 610.9,457.3 609.1,443.5 C608.251605,436.854078 610.084658,430.143887 614.194073,424.852312 C618.303487,419.560736 624.350938,416.123429 631,415.3 L631,415.3 Z" id="形状" fill="#EA5F5A" fill-rule="nonzero"></path>
                            <path d="M604.3,366.2 C610.930599,365.350222 617.627152,367.169798 622.915933,371.258288 C628.204715,375.346779 631.65231,381.369134 632.5,388 C634.3,401.8 611.8,429.9 597.9,431.7 C584,433.5 584.2,408.2 582.4,394.4 C581.551605,387.754078 583.384658,381.043887 587.494073,375.752312 C591.603487,370.460736 597.650938,367.023429 604.3,366.2 L604.3,366.2 Z M803.4,386.3 C816,384.7 835.3,385.7 836.9,398.3 C838.5,410.9 821.8,430.3 809.2,431.9 C796.883209,432.997254 785.903168,424.159528 784.342924,411.892786 C782.782681,399.626044 791.200705,388.32102 803.4,386.3 L803.4,386.3 Z M940.9,588.7 C906.8,593.9 912.9,645.2 947.3,641.9 C955.797559,640.958278 964.135152,638.907499 972.1,635.8 C1041.4,609.8 1083.7,642.2 1096.7,629.2 L1109.7,616.2 C1109.7,616.2 1028.1,575.3 940.9,588.7 L940.9,588.7 Z" id="形状" fill="#EA5F5A" fill-rule="nonzero"></path>
                            <g id="Clipped" stroke-width="1" fill="none" fill-rule="evenodd" transform="translate(74.000000, 185.000000)">
                                <mask id="mask-4" fill="white">
                                    <use xlink:href="#path-3"></use>
                                </mask>
                                <g id="路径"></g>
                                <g id="编组" style="mix-blend-mode: overlay;" mask="url(#mask-4)" fill-rule="nonzero" opacity="0.3">
                                    <g transform="translate(462.000000, -52.000000)" id="路径">
                                        <path d="M9.6,52.9 C90.2,83.3 157.5,147.2 192.4,225.9 C192.709801,226.917033 193.702573,227.567008 194.758629,227.444211 C195.814685,227.321414 196.631829,226.460983 196.7,225.4 C202.9,187.8 202,148.7 190.3,112.5 C177.8,73.9 152.5,38.8 117.3,18.6 C82.1,-1.6 37.1,-5.7 0.5,11.8" fill="url(#linearGradient-5)" style="mix-blend-mode: overlay;"></path>
                                        <path d="M176.5,65.8 C261.3,139.7 301.8,260.7 279.4,370.8 C279.130448,371.794353 279.587043,372.842597 280.498722,373.322428 C281.410401,373.802259 282.53297,373.585154 283.2,372.8 C328.3,326.3 346.3,256.4 336,192.2 C325.3,125.5 286.4,65.2 235.5,20.8" fill="url(#linearGradient-6)" style="mix-blend-mode: overlay;"></path>
                                        <path d="M352.9,237.6 C360.5,323 338.1,410.7 290.7,482.1 C290.250487,482.9221 290.344603,483.934704 290.937927,484.659878 C291.531251,485.385052 292.505166,485.67782 293.4,485.4 C353.8,462.7 395.2,401.4 404.9,337.3 C415,271 395.2,202.9 363,144" fill="url(#linearGradient-7)" style="mix-blend-mode: overlay;"></path>
                                        <path d="M411.2,367.5 C410.4,415.9 394.2,463.7 366.9,503.7 C341.7,540.6 307.3,570.9 268.2,592.7 C267.365886,593.269015 267.00043,594.315509 267.298986,595.280076 C267.597542,596.244642 268.490286,596.900003 269.5,596.900003 C294.644942,594.381398 319.644364,590.576413 344.4,585.5 C358.3,582.7 372.2,579.4 385,573.1 C419.4,556.3 440.5,520.3 453.3,484.2 C456.4,475.6 458.2,464.1 450.6,459.1" fill="url(#linearGradient-8)" style="mix-blend-mode: overlay;"></path>
                                    </g>
                                </g>
                            </g>
                            <g id="Clipped" stroke-width="1" fill="none" fill-rule="evenodd" transform="translate(74.000000, 185.000000)">
                                <mask id="mask-10" fill="white">
                                    <use xlink:href="#path-9"></use>
                                </mask>
                                <g id="路径"></g>
                                <g id="编组" style="mix-blend-mode: multiply;" mask="url(#mask-10)" fill-rule="nonzero" opacity="0.25">
                                    <g transform="translate(-277.000000, 357.000000)" id="路径">
                                        <path d="M377,87.9 C390.2,153.5 418.6,208.4 467.7,237.7 C596.5,314.5 734.6,357 884.1,368.9 C884.8,410.3 858.8,448.8 824.7,472.4 C790.6,496 749.4,506.7 708.6,513.9 C513.9,548 306.4,506.8 141.1,398.3 C85,361.5 31.6,314.2 10,250.7 C-10.8,189.4 2.7,117.6 44.4,68.1 C86.1,18.6 154.5,-7 218.5,3.2" fill="url(#linearGradient-11)" style="mix-blend-mode: multiply;"></path>
                                        <path d="M1088.1,198.2 C1018.6,235.3 933.6,242 859.1,216.3 C858.232006,216.056215 857.301617,216.342049 856.720215,217.031119 C856.138813,217.720188 856.013623,218.685409 856.4,219.5 C866.2,237.4 882.7,251.2 900.8,260.8 C920.6,271.3 942.4,277.4 964,283.2 C992.7,290.9 1022,298.3 1051.7,296.9 C1081.4,295.5 1112,283.9 1129.6,260 C1147.2,236.1 1147.9,198.9 1126.1,178.7" fill="url(#linearGradient-12)" style="mix-blend-mode: multiply;"></path>
                                        <path d="M1007.3,300.6 C915.4,311.8 819.7,288.7 743.1,236.8 C750.9,282.2 786.5,318.6 826.5,341.4 C878.7,371.2 942.7,382.7 1000.3,365.5 C1014.2,361.3 1029.3,353.7 1032.6,339.6" fill="url(#linearGradient-13)" style="mix-blend-mode: multiply;"></path>
                                    </g>
                                </g>
                            </g>
                        </g>
                    </g>
                </g>
            </g>
            <g id="tail" stroke="#31323D" stroke-linecap="round" stroke-linejoin="round" stroke-width="12.5">
                <path d="M0.6,459.2 C69.6,489.2 163,499.1 163,499.1 C163,499.1 510.1,544.1 561.6,253.1 C581.1,91.2 384.5,57.7 384.5,57.7 C384.5,57.7 476.3,21 509.2,50.7 C509.2,50.7 490.7,20.4 462.9,18 C462.9,18 581.1,-61.9 676.2,120.6 C676.2,120.6 663.9,27.6 625.7,9 C625.7,9 768.2,41.6 793.3,250.5 C793.3,250.5 819.6,208.9 816.7,174.1 C816.7,174.1 884.6,273.9 809.4,388.8 C809.4,388.8 868.3,332.5 873.1,302.3 C873.1,302.3 947,514.4 721.6,546.4 C721.6,546.4 782.8,569.3 823.4,549.7 C823.4,549.7 784.3,635 657.5,624 C657.5,624 719.2,666.1 756.8,657.5 C756.8,657.5 663.6,705.2 505.5,670.7 C505.5,670.7 559.1,720.2 598.7,721.2 L588.2,723.8 C473.727947,750.498286 354.094142,744.925067 242.6,707.7 L91.6,657.3 L0.7,620.2 L0.7,459.2 L0.6,459.2 Z" id="路径"></path>
            </g>
        </g>
    </g>
</svg>