<?xml version="1.0" encoding="UTF-8"?>
<svg width="842px" height="669px" viewBox="0 0 842 669" version="1.1" xmlns="http://www.w3.org/2000/svg" xmlns:xlink="http://www.w3.org/1999/xlink">
    <title>编组</title>
    <defs>
        <path d="M553.1,190.9 C620.7,161.9 685.6,230.8 699.7,264.6 C747.7,379.7 650.3,459.5 650.3,459.5 C613.7,494.3 561.8,527.2 493,548.3 C317.7,602.1 153.8,509.9 70.8,449.3 L36.1,424.4 L-4.54747351e-13,564.5 L220.6,641 C296.058137,655.194814 373.088085,659.130406 449.6,652.7 C547.7,644.3 636.5,623.6 715.6,548.1 C809.2,458.9 864.5,308.6 798.4,174.5 C753.9,84.2 646.4,-17 524.8,2.6 C435.8,17 333.9,97 342.1,189.1 C347.9,253.1 406.7,321.2 475.2,323 C523.5,324.2 587.3,292.8 587.3,249.6 C587.2,215.1 546.5,176.5 486.4,170.2" id="path-1"></path>
        <linearGradient x1="49.9927114%" y1="100%" x2="49.9927114%" y2="0%" id="linearGradient-3">
            <stop stop-color="#FFFFFF" stop-opacity="0" offset="0%"></stop>
            <stop stop-color="#FFFFFF" offset="72%"></stop>
        </linearGradient>
        <linearGradient x1="50.0054113%" y1="99.9892086%" x2="50.0054113%" y2="-0.0107913669%" id="linearGradient-4">
            <stop stop-color="#808080" offset="0%"></stop>
            <stop stop-color="#7D7D7D" offset="27%"></stop>
            <stop stop-color="#747474" offset="46%"></stop>
            <stop stop-color="#646464" offset="64%"></stop>
            <stop stop-color="#4D4D4D" offset="80%"></stop>
            <stop stop-color="#303030" offset="95%"></stop>
            <stop stop-color="#242424" offset="100%"></stop>
        </linearGradient>
        <linearGradient x1="50.0216239%" y1="99.9849327%" x2="50.0216239%" y2="-0.00679176779%" id="linearGradient-5">
            <stop stop-color="#808080" offset="0%"></stop>
            <stop stop-color="#7D7D7D" offset="27%"></stop>
            <stop stop-color="#747474" offset="46%"></stop>
            <stop stop-color="#646464" offset="64%"></stop>
            <stop stop-color="#4D4D4D" offset="80%"></stop>
            <stop stop-color="#303030" offset="95%"></stop>
            <stop stop-color="#242424" offset="100%"></stop>
        </linearGradient>
    </defs>
    <g id="页面-1" stroke="none" stroke-width="1" fill="none" fill-rule="evenodd">
        <g id="编组">
            <g id="tailFur" transform="translate(7.000000, 6.000000)">
                <g id="Clipped">
                    <mask id="mask-2" fill="white">
                        <use xlink:href="#path-1"></use>
                    </mask>
                    <g id="路径"></g>
                    <g id="编组" mask="url(#mask-2)">
                        <g transform="translate(-63.000000, -144.000000)">
                            <polygon id="路径" fill="#C5E2FF" fill-rule="nonzero" points="2 136.4 941 136.4 941 804.94 2 804.94"></polygon>
                            <path d="M625.8,730.9 C616.6,749.1 642.7,789.6 673.7,791.3 C687.1,792 706.3,785.7 712,770.2 C717.7,754.7 706.6,738.5 698.5,730.9 C676.7,710.7 634.4,713.8 625.8,730.9 L625.8,730.9 Z M841.9,467.8 C830.2,460.6 801.7,475.9 798.9,496.6 C797.7,505.6 800.8,518.7 811,523.4 C821.2,528.1 832.5,521.5 838,516.5 C852.6,503 852.8,474.5 841.9,467.8 L841.9,467.8 Z M822.6,366.2 C816.7,411 901,476.6 967.1,457.5 C995.8,449.2 1031.3,422 1031.8,385.2 C1032.3,348.4 997.3,322.7 974.7,312.9 C914.3,286.7 828.1,324.3 822.6,366.2 Z M395.5,919.3 C417.3,950 474.2,958.5 516.7,937.1 C566.8,911.9 586.7,850.6 569.1,801.6 C558.3,771.6 529.9,736.3 495.8,735.1 C428.6,732.9 356.3,864 395.5,919.3 L395.5,919.3 Z M683,149.1 C672.2,158.2 676.8,188.2 693.5,204.6 C701.8,212.7 719.9,224.2 735.5,216.6 C746.6,211.2 753,197.8 752,186.6 C749.6,157.7 698,136.5 683,149.1 Z M307.7,713.8 C313.1,736 345.2,752.4 374,748.6 C401.2,745 430.1,722.7 430.1,692.6 C430.1,669 412.5,647.5 392.5,641.5 C352.1,629.4 299.5,680.1 307.7,713.8 L307.7,713.8 Z M570.8,149.7 C552.4,136.1 517.2,144.2 497.6,165.5 C478,186.8 471.2,221.4 490.4,244.5 C505.5,262.7 532.9,267.8 552,259.6 C590.9,243 598.7,170.4 570.8,149.7 L570.8,149.7 Z M737.4,462.6 C731.1,440.6 698.3,425.6 669.7,430.6 C642.6,435.3 614.7,458.8 615.9,488.9 C616.8,512.5 635.4,533.2 655.6,538.4 C696.5,548.8 746.9,496 737.4,462.6 Z M798.8,274.4 C788.6,271.5 774.6,280.7 769.6,293.2 C764.6,305.7 767.2,321.7 779.3,328.7 C788.8,334.1 801.5,331.9 808.5,325.2 C822.6,311.6 814.3,278.8 798.8,274.4 Z M628.5,215.1 C622.4,218.2 619.8,228.7 622.9,236.8 C626,244.9 634.3,251.4 643.1,249.4 C649.804442,247.638947 654.708748,241.89732 655.4,235 C656.2,222.3 637.8,210.4 628.5,215.1 L628.5,215.1 Z M82.6,916.1 C126.2,937.4 196.5,907.2 229.3,855.1 C260.3,805.8 263,728.4 214,687.5 C175.5,655.4 116.5,655.1 79.7,679.6 C5.1,729.2 16.4,883.7 82.6,916.1 L82.6,916.1 Z" id="形状" fill="#4A4855" fill-rule="nonzero"></path>
                            <path d="M533.1,584 C576.7,605.3 647,575.1 679.8,523 C710.8,473.7 713.5,396.3 664.5,355.4 C626,323.3 567,323 530.2,347.5 C455.6,397.2 466.9,551.7 533.1,584 L533.1,584 Z M487.4,310.1 C482,297.6 454,290.7 437.5,304 C422.6,315.9 420.4,341.3 430.9,350.6 C436.8,355.9 445.4,354.9 448.5,354.5 C471.4,351.9 493.7,324.7 487.4,310.1 Z M706.8,606 C693.2,604.8 661.6,633.9 677.7,658.7 C684.7,669.4 701.2,677.2 711,671.8 C730.9,660.9 728.4,607.9 706.8,606 L706.8,606 Z M663.9,286.1 C647.1,290 631.9,314.4 638.4,332.6 C644.9,350.8 668,353.8 675.9,355.1 C687.3,356.9 694.7,361.7 709.2,341.2 C750.6,282.6 691.7,279.6 663.9,286.1 Z M771.4,619.9 C764.3,644.8 777.9,679.8 804.9,686.9 C831.9,694 857.2,668.1 866.7,648.2 C876.2,628.3 879.2,600.1 864.1,586.4 C842.2,566.4 782.3,581.7 771.4,619.9 L771.4,619.9 Z" id="形状" fill="#4A4855" fill-rule="nonzero"></path>
                            <path d="M405.1,333.1 C405.1,333.1 482.2,144.2 682.2,218.5 C882.2,292.8 885.9,494.2 885.9,494.2 L1020.2,230.5 L786.2,18 L442.2,0.6 L334.2,124.5 L405.1,333.1 Z" id="路径" fill="url(#linearGradient-3)" fill-rule="nonzero" opacity="0.35" style="mix-blend-mode: overlay;"></path>
                            <g id="编组" style="mix-blend-mode: multiply;" stroke-width="1" fill="none" fill-rule="evenodd" transform="translate(0.000000, 285.000000)" opacity="0.25">
                                <path d="M233.9,358.1 C340.9,410.1 305.5,462.1 433.1,471.9 C641.4,504.5 762.6,430 823.9,350.9 L924.1,306.5 L828.1,565.5 L0.1,556.4 L54.1,287.5 C54.1,287.5 176.6,330.2 233.9,358.1 Z" id="路径" fill="url(#linearGradient-4)" fill-rule="nonzero" style="mix-blend-mode: multiply;"></path>
                                <path d="M617.6,8.3 C626,6 726.7,-35.1 782.1,100.5 C839.6,241.1 755.8,324.9 581,398.9 L677.1,81.5 C677.1,81.5 657,70.3 616.1,49.9 C575.2,29.5 563.4,31 563.4,31 C563.4,31 583.9,20.6 617.6,8.3 Z" id="路径" fill="url(#linearGradient-5)" fill-rule="nonzero" style="mix-blend-mode: multiply;"></path>
                            </g>
                        </g>
                    </g>
                </g>
            </g>
            <g id="tail" fill="#31323D" fill-rule="nonzero">
                <path d="M557.9,191 L563.7,188.8 L565.3,188.3 L566.9,187.8 L570.2,186.8 L573.5,186 L576.7,185.3 L580,184.7 L583.3,184.2 C592.092963,183.202465 600.983573,183.471878 609.7,185 C618.305691,186.53106 626.69822,189.082389 634.7,192.6 C642.607001,196.052082 650.173365,200.237018 657.3,205.1 C664.361793,209.91975 671.047655,215.26844 677.3,221.1 C683.567101,226.912765 689.415038,233.161703 694.8,239.8 C700.284793,246.469523 705.138931,253.633562 709.3,261.2 L710.8,264.2 L712.2,267.3 L712.5,268.1 L712.5,269 L713.1,270.4 L714.2,273.3 L716.4,279.1 L718.4,285.3 L719.4,288.4 C719.7,289.4 720.1,290.5 720.3,291.5 L721.8,297.7 L722.6,300.8 L723.2,304 L724.3,310.3 C724.7,312.4 724.8,314.5 725.1,316.7 L725.5,319.9 L725.7,321.5 L725.7,323.1 L726,329.5 L726,335.9 C725.946641,344.482449 725.177306,353.045484 723.7,361.5 L722.5,367.8 C722,369.9 721.5,372 721,374 C720.5,376 720.5,376.1 720.2,377.1 L719.3,380.2 L718.4,383.3 L717.9,384.8 L717.4,386.3 L715.3,392.3 L712.9,398.2 C712.1,400.2 711.2,402.1 710.3,404 L709,406.9 L707.6,409.8 C703.787703,417.408615 699.478375,424.757857 694.7,431.8 C689.939793,438.835694 684.763925,445.58102 679.2,452 C676.4,455.2 673.6,458.3 670.6,461.4 L666,465.9 L663.6,468.1 L661,470.3 L661.3,470 C640.43793,489.629542 617.347076,506.746308 592.5,521 C580.15052,528.13314 567.432794,534.608832 554.4,540.4 C541.4,546.2 528.133333,551.4 514.6,556 L504.4,559.3 L501.9,560.1 L501.1,560.1 L500.5,560.3 L499.2,560.7 L494.1,562.1 L483.9,564.9 L473.4,567.4 L468.1,568.6 L462.8,569.6 L452.3,571.6 L441.7,573.1 L436.4,573.8 L431.1,574.4 L420.4,575.4 L409.7,576 C402.6,576.5 395.4,576.4 388.3,576.5 L377.6,576.2 L372.2,576 L366.9,575.7 L356.2,575 L345.6,573.9 L340.3,573.3 L335,572.6 L324.4,571.1 C317.4,569.8 310.3,568.7 303.4,567.1 C289.4,564.3 275.7,560.6 262,556.5 L251.8,553.3 L241.7,549.9 C238.3,548.8 235,547.5 231.7,546.3 C228.4,545.1 225,543.9 221.7,542.5 L211.8,538.5 L202,534.3 L192.3,529.9 L182.6,525.4 C169.8,519.3 157.2,512.7 144.8,505.8 C132.4,498.9 120.3,491.5 108.3,483.9 C96.3,476.3 84.7,468.2 73.3,459.9 L39.1,435.3 L48.8,431.8 L13,572.1 L9,564.6 L229.6,641.1 L228.7,640.9 C270.400504,648.652265 312.614041,653.331517 355,654.9 C376.2,655.633333 397.4,655.6 418.6,654.8 C439.8,654 460.9,652.3 482,649.9 C502.988109,647.618825 523.847904,644.281258 544.5,639.9 C565.063102,635.449855 585.255414,629.432278 604.9,621.9 C624.476478,614.332389 643.321326,604.993645 661.2,594 C679.061399,582.98008 695.836612,570.289849 711.3,556.1 L717.1,550.8 L717.8,550.1 L718.2,549.8 L718.5,549.5 L719.9,548.1 L722.7,545.3 C726.6,541.6 730.1,537.8 733.7,534 L735,532.6 L736.3,531.1 L738.9,528.2 C740.6,526.2 742.4,524.3 744.1,522.3 C747.4,518.2 750.9,514.3 754,510.1 L758.8,503.9 L763.4,497.5 L765.7,494.3 L767.9,491 L772.3,484.5 C777.9,475.6 783.4,466.7 788.3,457.4 C790.8,452.8 793.1,448.1 795.4,443.4 C796.6,441.1 797.6,438.6 798.7,436.3 C799.8,434 800.9,431.5 801.9,429.1 L804.9,421.8 L806.4,418.2 L807.8,414.5 L810.5,407.1 L812.9,399.6 C814.6,394.6 815.9,389.6 817.4,384.5 C817.8,383.2 818.1,382 818.4,380.7 L819.3,376.9 C819.9,374.4 820.6,371.8 821.1,369.3 L822.7,361.6 C822.9,360.3 823.3,359 823.4,357.7 L824,353.8 L825.2,346.1 L826.1,338.3 C828.513032,317.541989 828.613649,296.580219 826.4,275.8 L826,271.9 C825.9,270.6 825.6,269.3 825.5,268 L824.4,260.3 L824.1,258.4 L823.7,256.5 L822.9,252.7 C822.4,250.1 822,247.6 821.4,245 L819.5,237.4 L818.6,233.6 L817.5,229.8 L815.3,222.3 C815,221 814.5,219.8 814.1,218.6 L812.8,214.9 C799.1,175.5 776.1,139.4 748.3,108 C741.3,100.2 733.9,92.7 726.3,85.5 C718.7,78.3 710.6,71.6 702.4,65.1 C694.2,58.6 685.5,52.8 676.6,47.3 L669.9,43.3 L666.5,41.3 L663,39.5 C660.7,38.3 658.4,37 656.1,35.9 L649.1,32.5 L645.5,30.9 L641.9,29.4 L638.3,27.9 L634.7,26.5 L627.4,23.8 L620,21.4 C617.5,20.6 615,20 612.5,19.3 C610,18.6 607.5,17.9 605,17.4 L597.4,15.8 L589.7,14.6 C579.471712,13.0992826 569.135095,12.4636978 558.8,12.7 L554.9,12.7 L551,13 L543.3,13.6 L535.6,14.6 L533.7,14.9 L532.9,14.9 L531.9,15.1 L528,15.8 L524.1,16.5 L520.4,17.4 L516.7,18.2 L512.9,19.2 C510.4,19.9 507.9,20.5 505.4,21.3 C502.9,22.1 500.4,22.8 498,23.7 C488.148273,27.0668471 478.527676,31.0754293 469.2,35.7 C459.838552,40.2943017 450.756126,45.4365574 442,51.1 L435.5,55.4 L429.1,59.9 L422.9,64.7 C420.8,66.3 418.9,68 416.9,69.7 C408.973741,76.4088798 401.522516,83.6596239 394.6,91.4 C387.693325,99.0766186 381.469718,107.341301 376,116.1 C365.1,133.5 357.6,153 355.6,173.2 C355.4,175.7 355,178.2 355.1,180.8 L355.1,188.4 L355.3,192.2 L355.3,195.9 L355.8,199.9 C356,201.2 356.2,202.4 356.4,203.6 C356.6,204.8 357.4,208.5 357.9,211 C358.4,213.5 358.5,213.5 358.8,214.7 C359.1,215.9 359.4,217.2 359.8,218.4 C360.2,219.6 361.3,223.3 362.2,225.7 L363.5,229.3 L365,232.9 C368.958965,242.362032 373.849731,251.406599 379.6,259.9 C385.34196,268.42241 391.906782,276.360486 399.2,283.6 C402.8,287.3 406.6,290.6 410.6,293.9 C414.574401,297.113085 418.713333,300.117148 423,302.9 C427.258932,305.670818 431.665443,308.2079 436.2,310.5 C440.741689,312.750966 445.417129,314.72133 450.2,316.4 C454.942287,318.043757 459.785679,319.379865 464.7,320.4 C469.614939,321.388227 474.594344,322.023185 479.6,322.3 L490.9,322.3 L494.7,322 C499.770033,321.54552 504.811059,320.811066 509.8,319.8 C514.796816,318.794875 519.737035,317.52644 524.6,316 C529.495378,314.504136 534.302939,312.734687 539,310.7 C548.351852,306.741731 557.157097,301.599737 565.2,295.4 C573.1,289.3 579.9,281.8 584.2,273.3 C586.322864,269.128206 587.741969,264.634373 588.4,260 L588.4,252.9 C588.384124,252.598317 588.350734,252.29781 588.3,252 L588.3,251.2 C588.2,250.6 588.2,250.1 588.1,249.5 C588,248.9 587.8,247.2 587.5,246 C586.408706,241.26114 584.693755,236.687938 582.4,232.4 C580.072127,227.989247 577.290401,223.833416 574.1,220 C567.516096,212.191225 559.796653,205.415643 551.2,199.9 C542.500251,194.263168 533.169967,189.66515 523.4,186.2 C518.466667,184.466667 513.466667,182.966667 508.4,181.7 C503.3,180.5 498.2,179.5 493,178.7 C491.619288,178.534315 490.634315,177.280712 490.8,175.9 C490.965685,174.519288 492.219288,173.534315 493.6,173.7 C515.2,175.2 536.8,181.3 555.9,192.6 C565.579555,198.200818 574.31938,205.287163 581.8,213.6 C585.604165,217.839729 588.955638,222.464762 591.8,227.4 C594.671511,232.454449 596.857377,237.868671 598.3,243.5 C598.7,244.9 598.9,246.4 599.2,247.8 C599.5,249.2 599.6,251 599.8,252.4 L599.8,261.2 C599.170272,267.172908 597.51252,272.991957 594.9,278.4 C592.342835,283.690958 589.116417,288.63141 585.3,293.1 C581.588201,297.449206 577.469501,301.433965 573,305 C564.233855,312.02789 554.585164,317.877619 544.3,322.4 C534.135965,326.967165 523.507383,330.420616 512.6,332.7 C507.117233,333.8401 501.57536,334.67472 496,335.2 L491.8,335.5 L487.5,335.7 L479.1,335.7 C473.457032,335.40214 467.842657,334.700344 462.3,333.6 C456.768178,332.439951 451.322145,330.903033 446,329 C440.703107,327.119347 435.526699,324.915199 430.5,322.4 C425.511596,319.876661 420.670473,317.072149 416,314 C411.364748,310.934504 406.892042,307.630043 402.6,304.1 C398.4,300.5 394.2,296.8 390.3,292.8 C382.486535,284.931551 375.453689,276.324687 369.3,267.1 C363.106956,257.878752 357.847669,248.06365 353.6,237.8 L352,233.9 L350.6,230 C349.6,227.4 348.9,224.7 348,222.1 C347.1,219.5 347.3,219.4 346.9,218.1 C346.5,216.8 346.2,215.4 345.9,214 C345.6,212.6 344.7,208.6 344.3,205.7 C343.9,202.8 343.8,202.8 343.6,201.5 L343.1,197.5 L343.1,193 L342.9,188.8 L342.9,180.4 C342.9,177.6 343.2,174.8 343.5,172 C344.671074,160.860119 347.224028,149.909291 351.1,139.4 C354.956063,128.95319 359.882271,118.933215 365.8,109.5 C371.653677,100.138517 378.31221,91.3050869 385.7,83.1 C393.026737,74.9292347 400.912397,67.2774717 409.3,60.2 C411.4,58.5 413.5,56.7 415.6,55 L422.1,50 L428.8,45.2 L435.6,40.6 C444.772819,34.6436841 454.289385,29.2342678 464.1,24.4 C473.914224,19.5432992 484.035867,15.3342992 494.4,11.8 C497,10.8 499.6,10.1 502.2,9.3 C504.8,8.5 507.5,7.8 510.1,7 L514.1,5.9 L518.2,5 L522.3,4.1 L526.3,3.4 L530.2,2.7 L531.2,2.5 L532.4,2.5 L534.4,2.2 L542.6,1.1 L550.8,0.5 L554.9,0.2 L559,0.2 C570.003343,-0.0568468958 581.008795,0.612177568 591.9,2.2 L600.1,3.5 L608.2,5.2 C610.9,5.7 613.5,6.5 616.2,7.2 C618.9,7.9 621.5,8.5 624.1,9.4 L631.9,11.9 L639.6,14.7 L643.4,16.2 L647.2,17.8 L651,19.4 L654.7,21.1 L662.1,24.6 C664.6,25.8 666.9,27.1 669.4,28.4 L673,30.3 L676.5,32.4 L683.6,36.5 C692.9,42.2 701.8,48.5 710.5,55.1 C719.2,61.7 727.4,68.8 735.3,76.3 C743.2,83.8 750.8,91.5 758,99.6 C765.2,107.7 772.1,116.1 778.6,124.8 C785.1,133.5 791.2,142.5 796.9,151.8 C799.7,156.5 802.5,161.1 805.1,166 L807.1,169.6 L808.9,173.2 L810.7,176.8 L811.2,177.7 L811.5,178.2 L811.7,178.7 L812.6,180.6 L816,188 C816.6,189.2 817.2,190.5 817.7,191.7 L819.2,195.5 L822.3,203.1 C823.3,205.6 824.1,208.2 825,210.8 L826.4,214.7 C826.9,216 827.3,217.3 827.7,218.6 L830,226.4 L831.2,230.3 L832.2,234.3 L834.1,242.3 C834.7,245 835.2,247.7 835.7,250.3 L836.5,254.3 L836.9,256.3 L837.2,258.3 L838.4,266.4 C838.6,267.8 838.8,269.1 839,270.5 L839.4,274.6 C841.718497,296.310614 841.61788,318.211606 839.1,339.9 L838.1,348 L836.8,356.1 L836.2,360.1 C836,361.4 835.7,362.8 835.4,364.1 L833.8,372.1 C833.3,374.8 832.5,377.4 831.9,380 L830.9,384 C830.6,385.3 830.3,386.6 829.9,387.9 C828.4,393.1 827,398.4 825.3,403.5 L822.8,411.2 L820,418.9 L818.6,422.7 L817.1,426.5 L814,434 C812.9,436.5 811.8,439 810.7,441.4 C809.6,443.8 808.5,446.4 807.3,448.8 C804.9,453.7 802.6,458.6 799.9,463.3 C794.9,472.9 789.2,482.2 783.4,491.4 L778.9,498.2 L776.6,501.6 L774.2,504.9 L769.4,511.5 L764.4,518 C761.1,522.3 757.6,526.5 754.2,530.7 C752.5,532.8 750.6,534.8 748.8,536.8 L746.1,539.8 L744.7,541.3 L743.3,542.8 C739.5,546.8 735.8,550.8 732,554.5 L729.2,557.3 L727.8,558.7 L727.4,559.1 L727,559.4 L726.2,560.1 L720.2,565.6 C704.180863,580.310744 686.803111,593.469619 668.3,604.9 C649.785865,616.286036 630.271675,625.959451 610,633.8 C589.771483,641.577563 568.97744,647.795717 547.8,652.4 C526.687229,656.908215 505.359997,660.345938 483.9,662.7 C462.6,665.1 441.1,666.8 419.6,667.7 C398.1,668.6 376.6,668.6 355.1,667.8 C312.109968,666.208814 269.294827,661.462717 227,653.6 L226.5,653.6 L226.1,653.4 L5.5,576.9 L0.1,575 L1.5,569.4 L37.7,429.2 L40,420.4 L47.4,425.7 L81.6,450.3 C92.9,458.6 104.4,466.4 116.1,474 C127.8,481.6 139.8,488.7 151.9,495.5 C164,502.3 176.4,508.8 188.9,514.8 L198.4,519.2 L207.9,523.5 L217.5,527.6 L227.2,531.5 C230.4,532.8 233.7,534 236.9,535.2 C240.1,536.4 243.4,537.7 246.7,538.7 L256.6,542.1 L266.5,545.2 C279.8,549.2 293.2,552.8 306.8,555.6 C313.6,557.1 320.4,558.2 327.2,559.5 L337.5,561 L342.6,561.7 L347.8,562.2 L358.1,563.3 L368.5,564 L373.7,564.3 L378.9,564.5 L389.3,564.8 C396.2,564.7 403.1,564.8 410,564.3 L420.4,563.7 L430.7,562.7 L435.9,562.2 L441,561.5 L451.3,560 L461.5,558.1 L466.6,557.2 L471.6,556 L481.6,553.7 L491.7,550.9 L496.8,549.5 L498.1,549.1 L498.7,548.9 L499.2,548.9 L501.7,548.1 L511.6,544.9 C524.733333,540.433333 537.633333,535.366667 550.3,529.7 C562.956328,524.090397 575.306931,517.814955 587.3,510.9 C611.069504,496.883434 633.119123,480.136462 653,461 L653.1,461 L653.3,460.8 L655.4,459 L657.6,457 L661.8,452.8 C664.6,450 667.3,447 669.9,444 C675.105935,437.959893 679.947826,431.615346 684.4,425 C688.881866,418.406837 692.923973,411.525233 696.5,404.4 L697.8,401.7 L699,399 C699.8,397.2 700.7,395.4 701.4,393.5 L703.6,388 L705.6,382.4 L706.1,381 L706.5,379.6 L707.4,376.8 L708.3,374 C708.6,373.1 708.8,372.1 709,371.1 C709.2,370.1 710,367.3 710.4,365.3 L711.5,359.5 C712.857143,351.705692 713.559594,343.811475 713.6,335.9 L713.6,329.9 L713.3,324 L713.3,322.5 L713.1,321 L712.8,318.1 C712.6,316.1 712.4,314.2 712.1,312.2 L711.1,306.4 L710.6,303.5 L709.9,300.6 L708.5,294.8 C708.3,293.8 708,292.9 707.7,292 L706.8,289.2 L705.1,283.6 L702.9,277.8 L701.8,274.9 L701.2,273.5 L701.2,272.8 L700.9,272.2 L699.7,269.6 L698.4,267.1 C694.606646,260.240739 690.187879,253.746491 685.2,247.7 C675.219873,235.338684 663.497554,224.492171 650.4,215.5 C637.4,206.7 622.8,200 607.7,197.4 C600.172593,196.077418 592.494364,195.841683 584.9,196.7 L582.1,197.1 L579.3,197.6 L576.5,198.2 L573.8,198.9 L571.2,199.7 L569.9,200.1 L568.5,200.6 L562.7,202.8 C559.44152,204.125483 555.725484,202.558479 554.400001,199.3 C553.074518,196.04152 554.641521,192.325484 557.9,191 L557.9,191 Z" id="路径"></path>
            </g>
        </g>
    </g>
</svg>