<svg width="1189" height="945" viewBox="0 0 1189 945" fill="none" xmlns="http://www.w3.org/2000/svg">
<mask id="mask0" mask-type="alpha" maskUnits="userSpaceOnUse" x="9" y="8" width="1170" height="927">
<path fill-rule="evenodd" clip-rule="evenodd" d="M791.194 277.983C886.703 237.01 978.396 334.355 998.317 382.109C1066.13 544.728 928.523 657.473 928.523 657.473C876.813 706.64 803.486 753.122 706.282 782.933C458.611 858.944 227.046 728.68 109.779 643.062L60.7537 607.882L9.75 805.821L321.424 913.904C428.034 933.959 536.865 939.519 644.965 930.434C783.565 918.566 909.026 889.321 1020.78 782.651C1153.02 656.625 1231.15 444.275 1137.77 254.812C1074.89 127.232 923.013 -15.7476 751.211 11.9441C625.468 32.2891 481.499 145.317 493.084 275.44C501.279 365.862 584.354 462.076 681.134 464.619C749.374 466.315 839.514 421.952 839.514 360.917C839.372 312.174 781.87 257.638 696.958 248.737" fill="white"/>
</mask>
<g mask="url(#mask0)">
<path d="M1245.85 943.432L-76.4336 942.019V-2.46729L1245.85 -1.05444V943.432Z" fill="#DED0EE"/>
<path d="M1151.89 70.2942L1303.49 30.0281C1305.27 29.5634 1307.15 29.9883 1308.56 31.1677C1309.96 32.3472 1310.71 34.1346 1310.56 35.9621L1257.72 766.826C1257.55 768.852 1256.31 770.632 1254.47 771.489L1098.06 846.652L1097.5 846.935L802.214 1029.76C801.53 1030.2 800.759 1030.49 799.954 1030.6L694.697 1043.04H692.86L-11.7255 902.036C-14.6268 901.465 -16.5979 898.755 -16.2466 895.819L23.313 576.093C23.5404 574.103 24.8031 572.383 26.6326 571.57C28.462 570.757 30.5851 570.972 32.2139 572.137L191.583 686.718C192.147 687.143 192.626 687.671 192.996 688.272L264.909 802.006C265.963 803.716 267.846 804.738 269.854 804.691L347.702 801.583C349.361 801.522 350.963 802.193 352.082 803.419L423.854 881.549C425.243 883.079 427.356 883.73 429.365 883.245L526.427 859.933C527.604 859.646 528.842 859.745 529.959 860.216L616.425 895.819C617.784 896.369 619.304 896.369 620.664 895.819L703.598 861.628C704.53 861.223 705.555 861.076 706.565 861.205L802.355 875.192C804.206 875.433 806.056 874.746 807.3 873.355L858.587 816.559C859.43 815.596 860.576 814.948 861.836 814.722L961.018 799.039C963.369 798.665 965.234 796.857 965.68 794.518L982.493 706.074C982.901 703.818 984.631 702.032 986.873 701.553L1074.89 682.621C1077.51 682.086 1079.4 679.786 1079.41 677.111L1078.71 596.579C1078.69 595.176 1079.19 593.816 1080.12 592.764L1128.44 539.924C1129.94 538.272 1130.33 535.891 1129.43 533.849L1090.58 444.415C1089.91 442.873 1089.96 441.112 1090.72 439.612L1130.7 361.058C1131.74 359.032 1131.46 356.582 1129.99 354.841L1076.45 290.839C1075.72 289.956 1075.27 288.872 1075.18 287.731L1065.43 180.496C1065.21 178.284 1063.72 176.404 1061.61 175.692L1003.12 155.347C1001.19 154.66 999.789 152.985 999.447 150.968L986.308 77.0758C986.081 75.8159 985.434 74.6702 984.471 73.8263L910.014 6.71618C909.265 6.00939 908.337 5.52084 907.33 5.30334L773.392 -20.9756C770.65 -21.4133 768.632 -23.779 768.632 -26.5563C768.632 -29.3336 770.65 -31.6993 773.392 -32.137L999.871 -74.2398C1001.72 -74.6017 1003.63 -74.019 1004.96 -72.6857L1146.1 68.4575C1147.51 70.1441 1149.77 70.8605 1151.89 70.2942Z" fill="#EEF8F8"/>
<path fill-rule="evenodd" clip-rule="evenodd" d="M1047.91 212.709V251.844C1047.9 253.64 1047.04 255.325 1045.59 256.385C1044.14 257.444 1042.27 257.752 1040.56 257.213L1002.69 245.345C1000.4 244.624 998.809 242.525 998.739 240.118L997.185 196.885C997.091 194.958 997.987 193.117 999.56 192.001C1001.13 190.885 1003.17 190.649 1004.96 191.375L1044.66 207.481C1046.68 208.429 1047.95 210.477 1047.91 212.709ZM1079.7 402.03L1097.07 366.991C1098.07 364.938 1097.74 362.485 1096.23 360.775L1067.69 328.844C1066.41 327.435 1064.52 326.758 1062.64 327.043C1060.77 327.327 1059.16 328.535 1058.36 330.257L1040.7 369.817C1039.75 371.993 1040.25 374.533 1041.97 376.175L1070.79 403.584C1072.09 404.8 1073.88 405.335 1075.63 405.029C1077.38 404.724 1078.89 403.613 1079.7 402.03ZM1099.9 526.078L1073.62 555.041C1072.42 556.374 1070.67 557.061 1068.88 556.894C1067.1 556.727 1065.5 555.725 1064.58 554.193L1044.23 520.002C1043.02 517.935 1043.25 515.331 1044.8 513.503L1072.49 480.16C1073.71 478.666 1075.61 477.899 1077.53 478.128C1079.45 478.357 1081.12 479.55 1081.96 481.29L1100.75 519.72C1101.81 521.81 1101.47 524.339 1099.9 526.078ZM1002.7 674.426L1053.42 661.145C1055.98 660.553 1057.8 658.268 1057.8 655.635V608.164C1057.79 606.368 1056.93 604.683 1055.48 603.623C1054.03 602.564 1052.16 602.256 1050.45 602.795L1001.57 617.771C999.267 618.493 997.679 620.591 997.609 622.999L995.631 668.775C995.575 670.554 996.359 672.256 997.749 673.368C999.139 674.48 1000.97 674.872 1002.7 674.426ZM886.982 786.182L932.617 782.226C934.882 782.064 936.83 780.561 937.562 778.411L952.397 729.527C952.953 727.766 952.614 725.844 951.487 724.38C950.361 722.916 948.591 722.095 946.746 722.18L898.709 724.865C896.224 724.973 894.101 726.694 893.482 729.103L881.048 779.259C880.638 781.013 881.088 782.858 882.26 784.225C883.432 785.593 885.186 786.32 886.982 786.182ZM744.286 844.25L789.356 850.608C791.182 850.885 793.029 850.252 794.301 848.912L821.569 819.525C823.017 817.979 823.478 815.752 822.764 813.757C822.049 811.762 820.279 810.335 818.178 810.059L778.195 804.973C776.621 804.763 775.031 805.224 773.815 806.245L741.319 834.36C739.627 835.816 738.95 838.131 739.592 840.268C740.233 842.406 742.072 843.966 744.286 844.25ZM621.085 873.213L572.907 853.716C570.798 852.817 569.442 850.733 569.473 848.441C569.504 846.149 570.916 844.103 573.048 843.261L618.966 825.883C620.283 825.371 621.745 825.371 623.063 825.883L665.872 842.555C667.945 843.379 669.339 845.345 669.431 847.574C669.522 849.803 668.294 851.877 666.296 852.868L625.747 872.931C624.307 873.693 622.607 873.796 621.085 873.213ZM399.41 821.079L435.297 857.248C436.855 858.895 439.247 859.451 441.372 858.661L483.616 841.566C485.402 840.857 486.706 839.29 487.078 837.404C487.449 835.519 486.837 833.574 485.453 832.241L453.381 800.876C451.962 799.498 449.926 798.962 448.012 799.463L401.953 811.613C399.997 812.131 398.467 813.656 397.942 815.61C397.417 817.565 397.977 819.651 399.41 821.079ZM275.928 775.868L250.073 738.428C248.865 736.615 248.807 734.27 249.923 732.399C251.04 730.529 253.131 729.467 255.3 729.668L297.968 734.613C299.569 734.813 301.009 735.687 301.924 737.015L325.236 769.793C326.453 771.525 326.6 773.791 325.619 775.665C324.637 777.54 322.69 778.709 320.574 778.694H280.449C278.564 778.567 276.868 777.507 275.928 775.868ZM653.016 227.967L801.647 285.894C801.647 285.894 862.399 307.934 861.269 350.037C859.715 400.052 839.088 477.193 836.827 481.008C832.588 488.072 635.779 578.494 630.552 577.081C625.324 575.668 469.346 321.639 446.741 284.764C445.205 282.278 445.817 279.031 448.153 277.276L530.381 216.806C532.633 215.152 535.755 215.393 537.728 217.371L588.59 269.364C590.619 271.38 593.835 271.562 596.078 269.788L647.506 228.815C649.066 227.583 651.158 227.261 653.016 227.967Z" fill="#CF5BE8"/>
<path d="M562.596 191.799L590.711 223.023C592.627 225.171 595.852 225.536 598.2 223.87L626.456 203.667C628.621 202.148 629.443 199.33 628.434 196.885L604.84 140.654C604.043 138.789 602.308 137.493 600.294 137.26C598.279 137.026 596.294 137.89 595.091 139.524L562.313 184.735C560.741 186.865 560.859 189.801 562.596 191.799Z" fill="#CF5BE8"/>
<g style="mix-blend-mode:overlay" opacity="0.35">
<path d="M493.083 275.439C493.083 275.439 602.013 8.55292 884.582 113.527C1167.15 218.502 1172.38 503.049 1172.38 503.049L1362.12 130.481L1031.52 -169.748L545.499 -194.332L392.912 -19.2801L493.083 275.439Z" fill="url(#paint0_linear)"/>
</g>
<g style="mix-blend-mode:multiply">
<g style="mix-blend-mode:multiply" opacity="0.25">
<path d="M251.204 713.421C402.378 786.889 352.364 860.357 532.643 874.203C826.938 920.262 998.175 815.005 1084.78 703.249L1226.35 640.518L1090.72 1006.45L-79.1191 993.588L-2.82554 613.674C-2.82554 613.674 170.248 674.003 251.204 713.421Z" fill="url(#paint1_linear)"/>
</g>
<g style="mix-blend-mode:multiply" opacity="0.25">
<path d="M793.312 219.208C805.18 215.959 947.454 157.891 1025.73 349.472C1106.96 548.118 988.568 666.515 741.602 771.065L877.377 322.628C877.377 322.628 848.979 306.804 791.193 277.982C733.408 249.16 716.736 251.28 716.736 251.28C716.736 251.28 745.7 236.586 793.312 219.208Z" fill="url(#paint2_linear)"/>
</g>
</g>
</g>
<path d="M788.085 269.646L796.279 266.538L798.54 265.832L800.8 265.125L805.463 263.712L810.125 262.582L814.646 261.593L819.309 260.745L823.971 260.039C836.394 258.63 848.955 259.01 861.27 261.169C873.429 263.332 885.286 266.937 896.591 271.907C907.762 276.784 918.453 282.697 928.521 289.567C938.499 296.377 947.945 303.934 956.778 312.173C965.633 320.385 973.895 329.214 981.503 338.593C989.252 348.016 996.11 358.138 1001.99 368.828L1004.11 373.066L1006.09 377.446L1006.51 378.577V379.848L1007.36 381.826L1008.91 385.923L1012.02 394.118L1014.85 402.878L1016.26 407.257C1016.68 408.67 1017.25 410.224 1017.53 411.637L1019.65 420.397L1020.78 424.777L1021.63 429.298L1023.18 438.199C1023.75 441.166 1023.89 444.133 1024.31 447.241L1024.88 451.762L1025.16 454.022V456.283L1025.58 465.325V474.367C1025.51 486.493 1024.42 498.591 1022.33 510.536L1020.64 519.437C1019.93 522.404 1019.23 525.371 1018.52 528.197C1017.81 531.023 1017.81 531.164 1017.39 532.577L1016.12 536.956L1014.85 541.336L1014.14 543.456L1013.43 545.575L1010.47 554.052L1007.08 562.388C1005.95 565.213 1004.67 567.898 1003.4 570.582L1001.57 574.679L999.588 578.777C994.201 589.526 988.113 599.91 981.362 609.859C974.636 619.8 967.324 629.33 959.463 638.399C955.507 642.92 951.551 647.3 947.312 651.679L940.813 658.037L937.422 661.146L933.749 664.254L934.173 663.83C904.698 691.563 872.074 715.747 836.969 735.885C819.521 745.963 801.553 755.112 783.14 763.294C764.773 771.489 746.029 778.835 726.909 785.335L712.497 789.997L708.965 791.127H707.835L706.987 791.41L705.151 791.975L697.945 793.953L683.534 797.909L668.699 801.441L661.211 803.136L653.723 804.549L638.888 807.375L623.912 809.494L616.424 810.483L608.936 811.331L593.819 812.744L578.701 813.591C568.67 814.298 558.497 814.157 548.466 814.298L533.349 813.874L525.719 813.591L518.231 813.168L503.114 812.179L488.138 810.624L480.65 809.777L473.162 808.788L458.185 806.668C448.296 804.832 438.264 803.278 428.516 801.017C408.736 797.061 389.38 791.834 370.024 786.041L355.613 781.52L341.343 776.716C336.54 775.162 331.877 773.325 327.215 771.63C322.552 769.935 317.749 768.239 313.086 766.261L299.099 760.61L285.253 754.676L271.549 748.459L257.844 742.102C239.76 733.483 221.958 724.158 204.439 714.41C186.919 704.661 169.824 694.206 152.87 683.468C135.916 672.731 119.527 661.287 103.42 649.56L55.1009 614.804L68.8055 609.859L18.2257 808.081L12.5743 797.485L324.248 905.568L322.976 905.285C381.893 916.238 441.534 922.849 501.419 925.065C531.371 926.101 561.323 926.054 591.275 924.924C621.228 923.793 651.039 921.391 680.85 918.001C710.503 914.778 739.974 910.062 769.153 903.872C798.205 897.585 826.734 889.083 854.488 878.441C882.147 867.749 908.772 854.555 934.031 839.023C959.267 823.453 982.968 805.524 1004.82 785.476L1013.01 777.988L1014 776.999L1014.56 776.575L1014.99 776.151L1016.97 774.173L1020.92 770.217C1026.43 764.99 1031.38 759.621 1036.46 754.252L1038.3 752.274L1040.14 750.155L1043.81 746.057C1046.21 743.232 1048.75 740.547 1051.16 737.722C1055.82 731.929 1060.76 726.419 1065.14 720.485L1071.93 711.725L1078.42 702.683L1081.67 698.162L1084.78 693.5L1091 684.316C1098.91 671.742 1106.68 659.167 1113.6 646.028C1117.14 639.529 1120.39 632.889 1123.64 626.248C1125.33 622.999 1126.74 619.467 1128.3 616.217C1129.85 612.968 1131.41 609.435 1132.82 606.045L1137.06 595.731L1139.18 590.645L1141.15 585.417L1144.97 574.962L1148.36 564.366C1150.76 557.301 1152.6 550.237 1154.72 543.032C1155.28 541.195 1155.71 539.5 1156.13 537.663L1157.4 532.294C1158.25 528.762 1159.24 525.089 1159.95 521.556L1162.21 510.678C1162.49 508.841 1163.05 507.004 1163.19 505.167L1164.04 499.657L1165.74 488.778L1167.01 477.758C1170.42 448.43 1170.56 418.815 1167.43 389.456L1166.87 383.945C1166.73 382.109 1166.3 380.272 1166.16 378.435L1164.61 367.556L1164.18 364.872L1163.62 362.188L1162.49 356.819C1161.78 353.145 1161.22 349.613 1160.37 345.94L1157.68 335.202L1156.41 329.833L1154.86 324.465L1151.75 313.868C1151.33 312.032 1150.62 310.336 1150.06 308.641L1148.22 303.413C1128.86 247.747 1096.37 196.743 1057.09 152.38C1047.2 141.36 1036.75 130.764 1026.01 120.591C1015.27 110.419 1003.83 100.953 992.241 91.7691C980.655 82.5857 968.364 74.3912 955.789 66.6205L946.323 60.9691L941.52 58.1434L936.575 55.6003C933.325 53.9049 930.076 52.0682 926.826 50.5141L916.936 45.7104L911.85 43.4499L906.764 41.3306L901.677 39.2113L896.591 37.2333L886.277 33.4187L875.822 30.0278C872.29 28.8976 868.758 28.0498 865.226 27.0609C861.694 26.0719 858.162 25.0829 854.63 24.3765L843.892 22.1159L833.013 20.4205C818.562 18.3002 803.958 17.4022 789.356 17.7361H783.846L778.336 18.1599L767.457 19.0076L756.578 20.4205L753.894 20.8443H752.764L751.351 21.1269L745.841 22.1159L740.331 23.1049L735.103 24.3765L729.875 25.5067L724.507 26.9196C720.975 27.9086 717.442 28.7563 713.91 29.8865C710.378 31.0168 706.846 32.0058 703.455 33.2774C689.536 38.0342 675.944 43.6977 662.765 50.2315C649.539 56.7225 636.707 63.9878 624.336 71.9893L615.153 78.0645L606.11 84.4223L597.351 91.204C594.384 93.4646 591.699 95.8664 588.874 98.2682C577.675 107.747 567.148 117.991 557.367 128.927C547.609 139.773 538.816 151.45 531.088 163.824C515.688 188.408 505.092 215.958 502.266 244.498C501.984 248.03 501.419 251.562 501.56 255.235V265.973L501.842 271.342V276.569L502.549 282.221C502.831 284.057 503.114 285.753 503.396 287.448C503.679 289.144 504.809 294.371 505.516 297.903C506.222 301.435 506.363 301.435 506.787 303.131C507.211 304.826 507.635 306.663 508.2 308.358C508.765 310.054 510.319 315.281 511.591 318.672L513.428 323.758L515.547 328.844C521.14 342.213 528.05 354.991 536.174 366.991C544.287 379.032 553.562 390.247 563.866 400.476C568.953 405.703 574.321 410.366 579.973 415.028C585.588 419.568 591.436 423.812 597.492 427.744C603.509 431.658 609.735 435.243 616.142 438.481C622.558 441.661 629.164 444.445 635.921 446.817C642.621 449.139 649.464 451.027 656.408 452.468C663.352 453.865 670.387 454.762 677.459 455.153H693.424L698.793 454.729C705.956 454.087 713.078 453.049 720.127 451.621C727.187 450.201 734.166 448.408 741.037 446.252C747.953 444.138 754.746 441.638 761.382 438.764C774.595 433.171 787.035 425.906 798.398 417.147C809.56 408.529 819.167 397.933 825.242 385.923C828.242 380.029 830.247 373.68 831.176 367.133V357.101C831.154 356.675 831.107 356.251 831.035 355.83V354.699C830.894 353.852 830.894 353.145 830.753 352.298C830.611 351.45 830.329 349.048 829.905 347.353C828.363 340.657 825.94 334.196 822.699 328.138C819.41 321.906 815.48 316.035 810.973 310.619C801.671 299.586 790.764 290.013 778.619 282.221C766.327 274.257 753.145 267.76 739.342 262.865C732.372 260.416 725.307 258.296 718.149 256.507C710.943 254.811 703.738 253.399 696.391 252.268C694.44 252.034 693.049 250.263 693.283 248.312C693.517 246.362 695.288 244.97 697.239 245.204C727.756 247.323 758.274 255.942 785.259 271.907C798.935 279.82 811.283 289.832 821.852 301.577C827.226 307.567 831.961 314.101 835.98 321.074C840.037 328.215 843.125 335.864 845.164 343.821C845.729 345.799 846.011 347.918 846.435 349.896C846.859 351.874 847 354.417 847.283 356.395V368.828C846.393 377.267 844.051 385.488 840.36 393.129C836.747 400.604 832.189 407.584 826.797 413.898C821.552 420.042 815.733 425.672 809.419 430.711C797.033 440.64 783.401 448.905 768.87 455.294C754.51 461.747 739.493 466.626 724.083 469.846C716.337 471.457 708.507 472.636 700.63 473.378L694.696 473.802L688.62 474.085H676.753C668.78 473.664 660.848 472.673 653.017 471.118C645.201 469.479 637.507 467.307 629.987 464.619C622.504 461.962 615.19 458.848 608.088 455.294C601.04 451.729 594.201 447.767 587.602 443.426C581.053 439.095 574.734 434.426 568.67 429.439C562.736 424.353 556.802 419.125 551.292 413.474C540.253 402.357 530.316 390.197 521.622 377.164C512.872 364.136 505.442 350.268 499.441 335.767L497.18 330.257L495.202 324.747C493.789 321.074 492.8 317.259 491.529 313.586C490.257 309.912 490.54 309.771 489.974 307.934C489.409 306.098 488.985 304.12 488.562 302.142C488.138 300.164 486.866 294.512 486.301 290.415C485.736 286.318 485.595 286.318 485.312 284.481L484.606 278.83V272.472L484.323 266.538V254.67C484.323 250.714 484.747 246.758 485.171 242.802C486.825 227.063 490.432 211.591 495.908 196.743C501.356 181.984 508.316 167.827 516.677 154.499C524.948 141.273 534.355 128.793 544.793 117.2C555.144 105.656 566.286 94.8456 578.136 84.8462C581.103 82.4444 584.07 79.9012 587.037 77.4994L596.22 70.4352L605.686 63.6535L615.294 57.1544C628.254 48.7391 641.699 41.0964 655.56 34.2664C669.426 27.4046 683.726 21.4579 698.369 16.4645C702.042 15.0517 705.716 14.0627 709.389 12.9324C713.063 11.8021 716.877 10.8131 720.551 9.68287L726.202 8.12874L731.995 6.85718L737.787 5.58562L743.439 4.59663L748.949 3.60764L750.362 3.32507H752.057L754.883 2.90122L766.468 1.34709L778.054 0.499381L783.846 0.0755279H789.639C805.185 -0.287357 820.734 0.657871 836.121 2.90122L847.707 4.73791L859.151 7.13975C862.965 7.84617 866.639 8.97645 870.453 9.96544C874.268 10.9544 877.942 11.8021 881.615 13.0737L892.635 16.6058L903.514 20.5618L908.883 22.681L914.252 24.9416L919.621 27.2021L924.848 29.604L935.303 34.5489C938.835 36.2444 942.085 38.081 945.617 39.9177L950.703 42.6021L955.648 45.5691L965.679 51.3618C978.819 59.415 991.393 68.3159 1003.68 77.6407C1015.98 86.9655 1027.56 96.9967 1038.72 107.593C1049.88 118.189 1060.62 129.068 1070.79 140.512C1080.97 151.956 1090.72 163.824 1099.9 176.116C1109.08 188.408 1117.7 201.123 1125.75 214.263C1129.71 220.903 1133.67 227.402 1137.34 234.325L1140.17 239.411L1142.71 244.498L1145.25 249.584L1145.96 250.855L1146.38 251.562L1146.66 252.268L1147.94 254.953L1152.74 265.408C1153.59 267.103 1154.44 268.94 1155.14 270.635L1157.26 276.004L1161.64 286.742C1163.05 290.274 1164.18 293.947 1165.46 297.621L1167.43 303.131C1168.14 304.967 1168.7 306.804 1169.27 308.641L1172.52 319.661L1174.22 325.171L1175.63 330.822L1178.31 342.125C1179.16 345.94 1179.87 349.755 1180.57 353.428L1181.7 359.079L1182.27 361.905L1182.69 364.731L1184.39 376.175C1184.67 378.153 1184.95 379.989 1185.24 381.967L1185.8 387.76C1189.08 418.434 1188.93 449.376 1185.38 480.019L1183.96 491.463L1182.13 502.907L1181.28 508.558C1181 510.395 1180.57 512.373 1180.15 514.21L1177.89 525.512C1177.18 529.327 1176.05 533 1175.2 536.674L1173.79 542.325C1173.37 544.162 1172.94 545.999 1172.38 547.835C1170.26 555.182 1168.28 562.67 1165.88 569.876L1162.35 580.755L1158.39 591.634L1156.41 597.002L1154.29 602.371L1149.91 612.967C1148.36 616.5 1146.81 620.032 1145.25 623.423C1143.7 626.813 1142.14 630.487 1140.45 633.878C1137.06 640.801 1133.81 647.724 1129.99 654.364C1122.93 667.927 1114.88 681.067 1106.68 694.065L1100.32 703.672L1097.07 708.476L1093.68 713.138L1086.9 722.463L1079.84 731.646C1075.17 737.722 1070.23 743.656 1065.43 749.59C1063.02 752.557 1060.34 755.382 1057.8 758.208L1053.98 762.446L1052 764.566L1050.03 766.685C1044.66 772.336 1039.43 777.988 1034.06 783.215L1030.1 787.171L1028.13 789.149L1027.56 789.714L1027 790.138L1025.87 791.127L1017.39 798.898C994.757 819.682 970.205 838.273 944.063 854.423C917.905 870.509 890.335 884.176 861.694 895.254C833.114 906.242 803.735 915.028 773.815 921.533C743.986 927.902 713.854 932.759 683.534 936.085C653.441 939.476 623.064 941.878 592.688 943.149C562.312 944.421 531.936 944.421 501.56 943.291C440.822 941.042 380.33 934.337 320.574 923.228H319.868L319.303 922.946L7.62936 814.863L0 812.179L1.97798 804.267L53.123 606.186L56.3725 593.753L66.8275 601.241L115.147 635.997C131.112 647.724 147.36 658.744 163.89 669.481C180.42 680.219 197.374 690.25 214.47 699.857C231.565 709.465 249.085 718.648 266.745 727.125L280.167 733.342L293.589 739.417L307.152 745.21L320.857 750.72C325.378 752.557 330.04 754.252 334.562 755.947C339.083 757.643 343.745 759.479 348.407 760.892L362.395 765.696L376.382 770.076C395.173 775.727 414.105 780.813 433.319 784.769C442.927 786.889 452.534 788.443 462.141 790.279L476.694 792.399L483.899 793.388L491.246 794.094L505.798 795.648L520.492 796.637L527.839 797.061L535.185 797.344L549.879 797.768C559.628 797.626 569.376 797.768 579.125 797.061L593.819 796.213L608.371 794.801L615.718 794.094L622.923 793.105L637.475 790.986L651.886 788.301L659.092 787.03L666.156 785.335L680.285 782.085L694.554 778.129L701.76 776.151L703.597 775.586L704.444 775.303H705.151L708.683 774.173L722.67 769.652C741.225 763.341 759.451 756.183 777.347 748.177C795.229 740.251 812.678 731.385 829.622 721.615C863.205 701.812 894.358 678.151 922.446 651.114H922.587L922.87 650.832L925.837 648.289L928.945 645.463L934.879 639.529C938.835 635.573 942.65 631.334 946.323 627.096C953.678 618.562 960.519 609.598 966.81 600.252C973.142 590.937 978.853 581.214 983.905 571.147L985.742 567.333L987.437 563.518C988.567 560.975 989.839 558.432 990.828 555.747L993.936 547.977L996.762 540.065L997.468 538.087L998.033 536.109L999.305 532.153L1000.58 528.197C1001 526.925 1001.28 525.512 1001.57 524.1C1001.85 522.687 1002.98 518.731 1003.54 515.905L1005.1 507.711C1007.02 496.698 1008.01 485.545 1008.06 474.367V465.89L1007.64 457.555V455.435L1007.36 453.316L1006.93 449.219C1006.65 446.393 1006.37 443.709 1005.95 440.883L1004.53 432.689L1003.83 428.591L1002.84 424.494L1000.86 416.3C1000.58 414.887 1000.15 413.615 999.729 412.344L998.457 408.388L996.055 400.476L992.947 392.281L991.393 388.184L990.545 386.206V385.217L990.121 384.369L988.426 380.696L986.589 377.164C981.23 367.473 974.987 358.297 967.94 349.755C953.839 332.29 937.278 316.965 918.773 304.261C900.406 291.828 879.778 282.362 858.444 278.688C847.809 276.82 836.961 276.487 826.231 277.699L822.276 278.265L818.32 278.971L814.364 279.819L810.549 280.808L806.875 281.938L805.039 282.503L803.061 283.21L794.866 286.318C790.263 288.191 785.012 285.977 783.14 281.373C781.267 276.769 783.481 271.519 788.085 269.646Z" fill="#31323D"/>
<defs>
<linearGradient id="paint0_linear" x1="1362.05" y1="503.049" x2="1362.05" y2="-194.332" gradientUnits="userSpaceOnUse">
<stop stop-color="white" stop-opacity="0.01"/>
<stop offset="0.72" stop-color="white"/>
</linearGradient>
<linearGradient id="paint1_linear" x1="1226.42" y1="1006.4" x2="1226.42" y2="613.632" gradientUnits="userSpaceOnUse">
<stop stop-color="#808080"/>
<stop offset="0.27" stop-color="#7D7D7D"/>
<stop offset="0.46" stop-color="#747474"/>
<stop offset="0.64" stop-color="#646464"/>
<stop offset="0.8" stop-color="#4D4D4D"/>
<stop offset="0.95" stop-color="#303030"/>
<stop offset="1" stop-color="#242424"/>
</linearGradient>
<linearGradient id="paint2_linear" x1="1051.21" y1="770.98" x2="1051.21" y2="208.414" gradientUnits="userSpaceOnUse">
<stop stop-color="#808080"/>
<stop offset="0.27" stop-color="#7D7D7D"/>
<stop offset="0.46" stop-color="#747474"/>
<stop offset="0.64" stop-color="#646464"/>
<stop offset="0.8" stop-color="#4D4D4D"/>
<stop offset="0.95" stop-color="#303030"/>
<stop offset="1" stop-color="#242424"/>
</linearGradient>
</defs>
</svg>
