<?xml version="1.0" encoding="UTF-8"?>
<svg width="898px" height="753px" viewBox="0 0 898 753" version="1.1" xmlns="http://www.w3.org/2000/svg" xmlns:xlink="http://www.w3.org/1999/xlink">
    <title>编组</title>
    <defs>
        <path d="M0.6,459.2 C69.6,489.2 163,499.1 163,499.1 C163,499.1 510.1,544.1 561.6,253.1 C581.1,91.2 384.5,57.7 384.5,57.7 C384.5,57.7 476.3,21 509.2,50.7 C509.2,50.7 490.7,20.4 462.9,18 C462.9,18 581.1,-61.9 676.2,120.6 C676.2,120.6 663.9,27.6 625.7,9 C625.7,9 768.2,41.6 793.3,250.5 C793.3,250.5 819.6,208.9 816.7,174.1 C816.7,174.1 884.6,273.9 809.4,388.8 C809.4,388.8 868.3,332.5 873.1,302.3 C873.1,302.3 947,514.4 721.6,546.4 C721.6,546.4 782.8,569.3 823.4,549.7 C823.4,549.7 784.3,635 657.5,624 C657.5,624 719.2,666.1 756.8,657.5 C756.8,657.5 663.6,705.2 505.5,670.7 C505.5,670.7 559.1,720.2 598.7,721.2 L588.2,723.8 C473.727947,750.498286 354.094142,744.925067 242.6,707.7 L91.6,657.3 L0.7,620.2 L0.7,459.2 L0.6,459.2 Z" id="path-1"></path>
        <path d="M0.6,459.2 C69.6,489.2 163,499.1 163,499.1 C163,499.1 510.1,544.1 561.6,253.1 C581.1,91.2 384.5,57.7 384.5,57.7 C384.5,57.7 476.3,21 509.2,50.7 C509.2,50.7 490.7,20.4 462.9,18 C462.9,18 581.1,-61.9 676.2,120.6 C676.2,120.6 663.9,27.6 625.7,9 C625.7,9 768.2,41.6 793.3,250.5 C793.3,250.5 819.6,208.9 816.7,174.1 C816.7,174.1 884.6,273.9 809.4,388.8 C809.4,388.8 868.3,332.5 873.1,302.3 C873.1,302.3 947,514.4 721.6,546.4 C721.6,546.4 782.8,569.3 823.4,549.7 C823.4,549.7 784.3,635 657.5,624 C657.5,624 719.2,666.1 756.8,657.5 C756.8,657.5 663.6,705.2 505.5,670.7 C505.5,670.7 559.1,720.2 598.7,721.2 L588.2,723.8 C473.727947,750.498286 354.094142,744.925067 242.6,707.7 L91.6,657.3 L0.7,620.2 L0.7,459.2 L0.6,459.2 Z" id="path-3"></path>
        <linearGradient x1="50.0310873%" y1="99.8945451%" x2="50.0310873%" y2="-0.0437141374%" id="linearGradient-5">
            <stop stop-color="#FFFFFF" stop-opacity="0" offset="0%"></stop>
            <stop stop-color="#FFFFFF" offset="72%"></stop>
        </linearGradient>
        <linearGradient x1="41.9606235%" y1="106.237469%" x2="41.9606235%" y2="6.17672891%" id="linearGradient-6">
            <stop stop-color="#FFFFFF" stop-opacity="0" offset="0%"></stop>
            <stop stop-color="#FFFFFF" offset="72%"></stop>
        </linearGradient>
        <linearGradient x1="49.9965621%" y1="100.016533%" x2="49.9965621%" y2="0.017569364%" id="linearGradient-7">
            <stop stop-color="#FFFFFF" stop-opacity="0" offset="0%"></stop>
            <stop stop-color="#FFFFFF" offset="72%"></stop>
        </linearGradient>
        <linearGradient x1="-0.0932172098%" y1="49.9825625%" x2="99.9895779%" y2="49.9825625%" id="linearGradient-8">
            <stop stop-color="#FFFFFF" stop-opacity="0" offset="0%"></stop>
            <stop stop-color="#FFFFFF" offset="72%"></stop>
        </linearGradient>
        <path d="M0.6,459.2 C69.6,489.2 163,499.1 163,499.1 C163,499.1 510.1,544.1 561.6,253.1 C581.1,91.2 384.5,57.7 384.5,57.7 C384.5,57.7 476.3,21 509.2,50.7 C509.2,50.7 490.7,20.4 462.9,18 C462.9,18 581.1,-61.9 676.2,120.6 C676.2,120.6 663.9,27.6 625.7,9 C625.7,9 768.2,41.6 793.3,250.5 C793.3,250.5 819.6,208.9 816.7,174.1 C816.7,174.1 884.6,273.9 809.4,388.8 C809.4,388.8 868.3,332.5 873.1,302.3 C873.1,302.3 947,514.4 721.6,546.4 C721.6,546.4 782.8,569.3 823.4,549.7 C823.4,549.7 784.3,635 657.5,624 C657.5,624 719.2,666.1 756.8,657.5 C756.8,657.5 663.6,705.2 505.5,670.7 C505.5,670.7 559.1,720.2 598.7,721.2 L588.2,723.8 C473.727947,750.498286 354.094142,744.925067 242.6,707.7 L91.6,657.3 L0.7,620.2 L0.7,459.2 L0.6,459.2 Z" id="path-9"></path>
        <linearGradient x1="-0.0116130485%" y1="49.9884611%" x2="99.9984378%" y2="49.9884611%" id="linearGradient-11">
            <stop stop-color="#808080" offset="0%"></stop>
            <stop stop-color="#7D7D7D" offset="27%"></stop>
            <stop stop-color="#747474" offset="46%"></stop>
            <stop stop-color="#646464" offset="64%"></stop>
            <stop stop-color="#4D4D4D" offset="80%"></stop>
            <stop stop-color="#303030" offset="95%"></stop>
            <stop stop-color="#242424" offset="100%"></stop>
        </linearGradient>
        <linearGradient x1="-0.0132846396%" y1="50.0542398%" x2="100.019658%" y2="50.0542398%" id="linearGradient-12">
            <stop stop-color="#808080" offset="0%"></stop>
            <stop stop-color="#7D7D7D" offset="27%"></stop>
            <stop stop-color="#747474" offset="46%"></stop>
            <stop stop-color="#646464" offset="64%"></stop>
            <stop stop-color="#4D4D4D" offset="80%"></stop>
            <stop stop-color="#303030" offset="95%"></stop>
            <stop stop-color="#242424" offset="100%"></stop>
        </linearGradient>
        <linearGradient x1="0.00690846287%" y1="49.9866674%" x2="99.9965458%" y2="49.9866674%" id="linearGradient-13">
            <stop stop-color="#808080" offset="0%"></stop>
            <stop stop-color="#7D7D7D" offset="27%"></stop>
            <stop stop-color="#747474" offset="46%"></stop>
            <stop stop-color="#646464" offset="64%"></stop>
            <stop stop-color="#4D4D4D" offset="80%"></stop>
            <stop stop-color="#303030" offset="95%"></stop>
            <stop stop-color="#242424" offset="100%"></stop>
        </linearGradient>
    </defs>
    <g id="页面-1" stroke="none" stroke-width="1" fill="none" fill-rule="evenodd">
        <g id="编组" transform="translate(6.000000, 6.000000)">
            <g id="tailFur">
                <g id="Clipped">
                    <mask id="mask-2" fill="white">
                        <use xlink:href="#path-1"></use>
                    </mask>
                    <g id="路径"></g>
                    <g id="编组" mask="url(#mask-2)">
                        <g transform="translate(-38.000000, -20.000000)">
                            <polygon id="路径" fill="#B1B1BE" fill-rule="nonzero" points="0 0.4 939 0.4 939 765.97 0 765.97"></polygon>
                            <path d="M89,625.2 L181.4,661.3 C182.743676,661.838521 184.27346,661.609053 185.4,660.7 L267.7,594.3 C268.626616,593.556505 269.835779,593.263375 271,593.5 L342.4,607.7 C343.878595,607.97271 345.38523,607.393236 346.3,606.2 L392.9,546.2 C393.758457,545.109242 395.121022,544.541507 396.5,544.7 L476.9,552.6 C478.245095,552.723004 479.56142,552.158865 480.4,551.1 L531.7,487.7 C532.475969,486.730345 533.658312,486.176121 534.9,486.2 L610.5,488 C611.578085,488.026961 612.621381,487.617466 613.393296,486.864378 C614.16521,486.11129 614.600337,485.078422 614.6,484 L613.7,396.9 C613.691037,395.587735 614.326319,394.35454 615.4,393.6 L672.9,352.7 C674.331396,351.690259 674.939273,349.866631 674.4,348.2 L646,257.8 C645.780014,257.121439 645.745488,256.396394 645.9,255.7 L663,180.3 C663.412691,178.574258 662.639151,176.782902 661.1,175.9 L605.5,144.7 C604.75723,144.294888 604.162042,143.664689 603.8,142.9 L580.3,91.6 C579.693524,90.2957823 578.433516,89.4175945 577,89.3 L424.8,77.9 C423.436572,77.8001958 422.116598,78.4036128 421.3,79.5 L97.4,510.1 C96.9554676,510.680971 96.6787672,511.372723 96.6,512.1 L86.6,621.1 C86.4138824,622.845193 87.3871513,624.507861 89,625.2 Z" id="路径" fill="#585666" fill-rule="nonzero"></path>
                            <path d="M404.8,570.7 L373.8,610 C372.938804,611.084439 372.699773,612.537168 373.16811,613.840367 C373.636447,615.143566 374.745519,616.11182 376.1,616.4 L430.7,628.2 C432.393542,628.564625 434.129324,627.797652 435,626.3 L460.8,580.4 C461.443561,579.224533 461.455726,577.80489 460.832404,576.618567 C460.209082,575.432244 459.0331,574.636882 457.7,574.5 L408.3,569.2 C406.954905,569.076996 405.63858,569.641135 404.8,570.7 Z M271.3,618.3 L236.8,648.1 C235.767032,649.025287 235.287028,650.419588 235.531517,651.784654 C235.776007,653.149719 236.7101,654.29075 238,654.8 L292.3,676.2 C293.980224,676.882146 295.909136,676.348617 297,674.9 L324.5,637.9 C325.269428,636.848638 325.47862,635.488428 325.060661,634.254454 C324.642702,633.02048 323.649967,632.067373 322.4,631.7 L275,617.6 C273.727094,617.201903 272.339508,617.464419 271.3,618.3 Z M542.8,514 L513.8,553.6 C513.033278,554.678936 512.849937,556.067296 513.310301,557.308276 C513.770664,558.549255 514.815114,559.482145 516.1,559.8 L565.6,571.9 C567.248847,572.303086 568.972549,571.621622 569.9,570.2 L600.5,523.6 C601.282962,522.4217 601.385279,520.917461 600.769084,519.643992 C600.152889,518.370522 598.909847,517.517263 597.5,517.4 L546.4,512.4 C545.002343,512.264466 543.635972,512.871742 542.8,514 Z M635.9,415.1 L638.1,466.9 C638.172701,468.379062 639.056595,469.696937 640.397441,470.325459 C641.738288,470.953981 643.316664,470.790294 644.5,469.9 L686.1,438.7 C687.165606,437.903301 687.765324,436.628901 687.7,435.3 L684.7,387.6 C684.615589,386.172141 683.775172,384.898021 682.495826,384.258348 C681.21648,383.618675 679.692934,383.710813 678.5,384.5 L637.7,411.6 C636.52784,412.370374 635.844839,413.698432 635.9,415.1 Z M674.5,260.8 L691.8,311.6 C692.316343,313.193898 693.771329,314.29711 695.445437,314.364074 C697.119545,314.431039 698.657998,313.447564 699.3,311.9 L722.2,258.3 C722.674204,257.208239 722.63755,255.962004 722.1,254.9 L695.6,204.9 C694.820442,203.447022 693.229175,202.621289 691.592341,202.820363 C689.955508,203.019438 688.608557,204.202522 688.2,205.8 L674.4,258.6 C674.226825,259.328244 674.261472,260.09047 674.5,260.8 Z M620.8,137.3 L655.5,150 C656.920041,150.515977 658.509639,150.187802 659.609239,149.151641 C660.708838,148.11548 661.130783,146.548162 660.7,145.1 L649.4,108.9 C649.026888,107.685473 648.098967,106.720435 646.9,106.3 L611.9,94.5 C610.470706,94.013702 608.889377,94.3735887 607.811301,95.4305265 C606.733224,96.4874644 606.342097,98.0613576 606.8,99.5 L618.3,134.7 C618.673112,135.914527 619.601033,136.879565 620.8,137.3 Z" id="形状" fill="#E5E5F9" fill-rule="nonzero"></path>
                            <g id="Clipped" stroke-width="1" fill="none" fill-rule="evenodd" transform="translate(38.000000, 20.000000)">
                                <mask id="mask-4" fill="white">
                                    <use xlink:href="#path-3"></use>
                                </mask>
                                <g id="路径"></g>
                                <g id="编组" style="mix-blend-mode: overlay;" mask="url(#mask-4)" fill-rule="nonzero" opacity="0.3">
                                    <g transform="translate(462.000000, -52.000000)" id="路径">
                                        <path d="M9.6,52.9 C90.2,83.3 157.5,147.2 192.4,225.9 C192.709801,226.917033 193.702573,227.567008 194.758629,227.444211 C195.814685,227.321414 196.631829,226.460983 196.7,225.4 C202.9,187.8 202,148.7 190.3,112.5 C177.8,73.9 152.5,38.8 117.3,18.6 C82.1,-1.6 37.1,-5.7 0.5,11.8" fill="url(#linearGradient-5)" style="mix-blend-mode: overlay;"></path>
                                        <path d="M176.5,65.8 C261.3,139.7 301.8,260.7 279.4,370.8 C279.130448,371.794353 279.587043,372.842597 280.498722,373.322428 C281.410401,373.802259 282.53297,373.585154 283.2,372.8 C328.3,326.3 346.3,256.4 336,192.2 C325.3,125.5 286.4,65.2 235.5,20.8" fill="url(#linearGradient-6)" style="mix-blend-mode: overlay;"></path>
                                        <path d="M352.9,237.6 C360.5,323 338.1,410.7 290.7,482.1 C290.250487,482.9221 290.344603,483.934704 290.937927,484.659878 C291.531251,485.385052 292.505166,485.67782 293.4,485.4 C353.8,462.7 395.2,401.4 404.9,337.3 C415,271 395.2,202.9 363,144" fill="url(#linearGradient-7)" style="mix-blend-mode: overlay;"></path>
                                        <path d="M411.2,367.5 C410.4,415.9 394.2,463.7 366.9,503.7 C341.7,540.6 307.3,570.9 268.2,592.7 C267.365886,593.269015 267.00043,594.315509 267.298986,595.280076 C267.597542,596.244642 268.490286,596.900003 269.5,596.900003 C294.644942,594.381398 319.644364,590.576413 344.4,585.5 C358.3,582.7 372.2,579.4 385,573.1 C419.4,556.3 440.5,520.3 453.3,484.2 C456.4,475.6 458.2,464.1 450.6,459.1" fill="url(#linearGradient-8)" style="mix-blend-mode: overlay;"></path>
                                    </g>
                                </g>
                            </g>
                            <g id="Clipped" stroke-width="1" fill="none" fill-rule="evenodd" transform="translate(38.000000, 20.000000)">
                                <mask id="mask-10" fill="white">
                                    <use xlink:href="#path-9"></use>
                                </mask>
                                <g id="路径"></g>
                                <g id="编组" style="mix-blend-mode: multiply;" mask="url(#mask-10)" fill-rule="nonzero" opacity="0.25">
                                    <g transform="translate(-277.000000, 357.000000)" id="路径">
                                        <path d="M377,87.9 C390.2,153.5 418.6,208.4 467.7,237.7 C596.5,314.5 734.6,357 884.1,368.9 C884.8,410.3 858.8,448.8 824.7,472.4 C790.6,496 749.4,506.7 708.6,513.9 C513.9,548 306.4,506.8 141.1,398.3 C85,361.5 31.6,314.2 10,250.7 C-10.8,189.4 2.7,117.6 44.4,68.1 C86.1,18.6 154.5,-7 218.5,3.2" fill="url(#linearGradient-11)" style="mix-blend-mode: multiply;"></path>
                                        <path d="M1088.1,198.2 C1018.6,235.3 933.6,242 859.1,216.3 C858.232006,216.056215 857.301617,216.342049 856.720215,217.031119 C856.138813,217.720188 856.013623,218.685409 856.4,219.5 C866.2,237.4 882.7,251.2 900.8,260.8 C920.6,271.3 942.4,277.4 964,283.2 C992.7,290.9 1022,298.3 1051.7,296.9 C1081.4,295.5 1112,283.9 1129.6,260 C1147.2,236.1 1147.9,198.9 1126.1,178.7" fill="url(#linearGradient-12)" style="mix-blend-mode: multiply;"></path>
                                        <path d="M1007.3,300.6 C915.4,311.8 819.7,288.7 743.1,236.8 C750.9,282.2 786.5,318.6 826.5,341.4 C878.7,371.2 942.7,382.7 1000.3,365.5 C1014.2,361.3 1029.3,353.7 1032.6,339.6" fill="url(#linearGradient-13)" style="mix-blend-mode: multiply;"></path>
                                    </g>
                                </g>
                            </g>
                        </g>
                    </g>
                </g>
            </g>
            <g id="tail" stroke="#31323D" stroke-linecap="round" stroke-linejoin="round" stroke-width="12.5">
                <path d="M0.6,459.2 C69.6,489.2 163,499.1 163,499.1 C163,499.1 510.1,544.1 561.6,253.1 C581.1,91.2 384.5,57.7 384.5,57.7 C384.5,57.7 476.3,21 509.2,50.7 C509.2,50.7 490.7,20.4 462.9,18 C462.9,18 581.1,-61.9 676.2,120.6 C676.2,120.6 663.9,27.6 625.7,9 C625.7,9 768.2,41.6 793.3,250.5 C793.3,250.5 819.6,208.9 816.7,174.1 C816.7,174.1 884.6,273.9 809.4,388.8 C809.4,388.8 868.3,332.5 873.1,302.3 C873.1,302.3 947,514.4 721.6,546.4 C721.6,546.4 782.8,569.3 823.4,549.7 C823.4,549.7 784.3,635 657.5,624 C657.5,624 719.2,666.1 756.8,657.5 C756.8,657.5 663.6,705.2 505.5,670.7 C505.5,670.7 559.1,720.2 598.7,721.2 L588.2,723.8 C473.727947,750.498286 354.094142,744.925067 242.6,707.7 L91.6,657.3 L0.7,620.2 L0.7,459.2 L0.6,459.2 Z" id="路径"></path>
            </g>
        </g>
    </g>
</svg>