<?xml version="1.0" encoding="UTF-8"?>
<svg width="898px" height="753px" viewBox="0 0 898 753" version="1.1" xmlns="http://www.w3.org/2000/svg" xmlns:xlink="http://www.w3.org/1999/xlink">
    <title>编组</title>
    <defs>
        <path d="M0.6,459.2 C69.6,489.2 163,499.1 163,499.1 C163,499.1 510.1,544.1 561.6,253.1 C581.1,91.2 384.5,57.7 384.5,57.7 C384.5,57.7 476.3,21 509.2,50.7 C509.2,50.7 490.7,20.4 462.9,18 C462.9,18 581.1,-61.9 676.2,120.6 C676.2,120.6 663.9,27.6 625.7,9 C625.7,9 768.2,41.6 793.3,250.5 C793.3,250.5 819.6,208.9 816.7,174.1 C816.7,174.1 884.6,273.9 809.4,388.8 C809.4,388.8 868.3,332.5 873.1,302.3 C873.1,302.3 947,514.4 721.6,546.4 C721.6,546.4 782.8,569.3 823.4,549.7 C823.4,549.7 784.3,635 657.5,624 C657.5,624 719.2,666.1 756.8,657.5 C756.8,657.5 663.6,705.2 505.5,670.7 C505.5,670.7 559.1,720.2 598.7,721.2 L588.2,723.8 C473.727947,750.498286 354.094142,744.925067 242.6,707.7 L91.6,657.3 L0.7,620.2 L0.7,459.2 L0.6,459.2 Z" id="path-1"></path>
        <path d="M0.6,459.2 C69.6,489.2 163,499.1 163,499.1 C163,499.1 510.1,544.1 561.6,253.1 C581.1,91.2 384.5,57.7 384.5,57.7 C384.5,57.7 476.3,21 509.2,50.7 C509.2,50.7 490.7,20.4 462.9,18 C462.9,18 581.1,-61.9 676.2,120.6 C676.2,120.6 663.9,27.6 625.7,9 C625.7,9 768.2,41.6 793.3,250.5 C793.3,250.5 819.6,208.9 816.7,174.1 C816.7,174.1 884.6,273.9 809.4,388.8 C809.4,388.8 868.3,332.5 873.1,302.3 C873.1,302.3 947,514.4 721.6,546.4 C721.6,546.4 782.8,569.3 823.4,549.7 C823.4,549.7 784.3,635 657.5,624 C657.5,624 719.2,666.1 756.8,657.5 C756.8,657.5 663.6,705.2 505.5,670.7 C505.5,670.7 559.1,720.2 598.7,721.2 L588.2,723.8 C473.727947,750.498286 354.094142,744.925067 242.6,707.7 L91.6,657.3 L0.7,620.2 L0.7,459.2 L0.6,459.2 Z" id="path-3"></path>
        <linearGradient x1="50.0310873%" y1="99.8945451%" x2="50.0310873%" y2="-0.0437141374%" id="linearGradient-5">
            <stop stop-color="#FFFFFF" stop-opacity="0" offset="0%"></stop>
            <stop stop-color="#FFFFFF" offset="72%"></stop>
        </linearGradient>
        <linearGradient x1="41.9606235%" y1="106.237469%" x2="41.9606235%" y2="6.17672891%" id="linearGradient-6">
            <stop stop-color="#FFFFFF" stop-opacity="0" offset="0%"></stop>
            <stop stop-color="#FFFFFF" offset="72%"></stop>
        </linearGradient>
        <linearGradient x1="49.9965621%" y1="100.016533%" x2="49.9965621%" y2="0.017569364%" id="linearGradient-7">
            <stop stop-color="#FFFFFF" stop-opacity="0" offset="0%"></stop>
            <stop stop-color="#FFFFFF" offset="72%"></stop>
        </linearGradient>
        <linearGradient x1="-0.0932172098%" y1="49.9825625%" x2="99.9895779%" y2="49.9825625%" id="linearGradient-8">
            <stop stop-color="#FFFFFF" stop-opacity="0" offset="0%"></stop>
            <stop stop-color="#FFFFFF" offset="72%"></stop>
        </linearGradient>
        <path d="M0.6,459.2 C69.6,489.2 163,499.1 163,499.1 C163,499.1 510.1,544.1 561.6,253.1 C581.1,91.2 384.5,57.7 384.5,57.7 C384.5,57.7 476.3,21 509.2,50.7 C509.2,50.7 490.7,20.4 462.9,18 C462.9,18 581.1,-61.9 676.2,120.6 C676.2,120.6 663.9,27.6 625.7,9 C625.7,9 768.2,41.6 793.3,250.5 C793.3,250.5 819.6,208.9 816.7,174.1 C816.7,174.1 884.6,273.9 809.4,388.8 C809.4,388.8 868.3,332.5 873.1,302.3 C873.1,302.3 947,514.4 721.6,546.4 C721.6,546.4 782.8,569.3 823.4,549.7 C823.4,549.7 784.3,635 657.5,624 C657.5,624 719.2,666.1 756.8,657.5 C756.8,657.5 663.6,705.2 505.5,670.7 C505.5,670.7 559.1,720.2 598.7,721.2 L588.2,723.8 C473.727947,750.498286 354.094142,744.925067 242.6,707.7 L91.6,657.3 L0.7,620.2 L0.7,459.2 L0.6,459.2 Z" id="path-9"></path>
        <linearGradient x1="-0.0116130485%" y1="49.9884611%" x2="99.9984378%" y2="49.9884611%" id="linearGradient-11">
            <stop stop-color="#808080" offset="0%"></stop>
            <stop stop-color="#7D7D7D" offset="27%"></stop>
            <stop stop-color="#747474" offset="46%"></stop>
            <stop stop-color="#646464" offset="64%"></stop>
            <stop stop-color="#4D4D4D" offset="80%"></stop>
            <stop stop-color="#303030" offset="95%"></stop>
            <stop stop-color="#242424" offset="100%"></stop>
        </linearGradient>
        <linearGradient x1="-0.0132846396%" y1="50.0542398%" x2="100.019658%" y2="50.0542398%" id="linearGradient-12">
            <stop stop-color="#808080" offset="0%"></stop>
            <stop stop-color="#7D7D7D" offset="27%"></stop>
            <stop stop-color="#747474" offset="46%"></stop>
            <stop stop-color="#646464" offset="64%"></stop>
            <stop stop-color="#4D4D4D" offset="80%"></stop>
            <stop stop-color="#303030" offset="95%"></stop>
            <stop stop-color="#242424" offset="100%"></stop>
        </linearGradient>
        <linearGradient x1="0.00690846287%" y1="49.9866674%" x2="99.9965458%" y2="49.9866674%" id="linearGradient-13">
            <stop stop-color="#808080" offset="0%"></stop>
            <stop stop-color="#7D7D7D" offset="27%"></stop>
            <stop stop-color="#747474" offset="46%"></stop>
            <stop stop-color="#646464" offset="64%"></stop>
            <stop stop-color="#4D4D4D" offset="80%"></stop>
            <stop stop-color="#303030" offset="95%"></stop>
            <stop stop-color="#242424" offset="100%"></stop>
        </linearGradient>
    </defs>
    <g id="页面-1" stroke="none" stroke-width="1" fill="none" fill-rule="evenodd">
        <g id="编组" transform="translate(6.000000, 6.000000)">
            <g id="tailFur">
                <g id="Clipped">
                    <mask id="mask-2" fill="white">
                        <use xlink:href="#path-1"></use>
                    </mask>
                    <g id="路径"></g>
                    <g id="编组" mask="url(#mask-2)">
                        <g transform="translate(-38.000000, -69.000000)">
                            <polygon id="路径" fill="#DED0EE" fill-rule="nonzero" points="0 49.4 939 49.4 939 814.97 0 814.97"></polygon>
                            <path d="M822.7,226.1 C822.7,226.1 788.4,407.6 579.3,314.4 L383.2,122.4 L597.2,0.4 L841.7,108.3 L822.7,226.1 Z" id="路径" fill="#385877" fill-rule="nonzero"></path>
                            <path d="M629.5,229.1 C659.2,293.4 656.8,358.5 636.4,408.8 C635.2,411.8 636.4,415.4 639,416.4 C660.889152,424.726215 682.031768,434.896081 702.2,446.8 C704.8,448.3 705.3,453.6 703.2,457.4 C681.3,497.2 650.9,529.3 616,551.8 C613.5,553.4 613.8,556.9 616.4,556.1 C675.8,537.6 734.3,493.6 773.8,426.8 C776.9,421.7 775.8,412.7 772.1,411.6 C758.966667,407.6 745.8,404.033333 732.6,400.9 C729.4,400.1 727.7,394.1 729.2,389.3 C747,330.4 747.8,260 721.7,189" id="路径" fill="#385877" fill-rule="nonzero"></path>
                            <g id="Clipped" stroke-width="1" fill="none" fill-rule="evenodd" transform="translate(38.000000, 69.000000)">
                                <mask id="mask-4" fill="white">
                                    <use xlink:href="#path-3"></use>
                                </mask>
                                <g id="路径"></g>
                                <g id="编组" style="mix-blend-mode: overlay;" mask="url(#mask-4)" fill-rule="nonzero" opacity="0.3">
                                    <g transform="translate(462.000000, -52.000000)" id="路径">
                                        <path d="M9.6,52.9 C90.2,83.3 157.5,147.2 192.4,225.9 C192.709801,226.917033 193.702573,227.567008 194.758629,227.444211 C195.814685,227.321414 196.631829,226.460983 196.7,225.4 C202.9,187.8 202,148.7 190.3,112.5 C177.8,73.9 152.5,38.8 117.3,18.6 C82.1,-1.6 37.1,-5.7 0.5,11.8" fill="url(#linearGradient-5)" style="mix-blend-mode: overlay;"></path>
                                        <path d="M176.5,65.8 C261.3,139.7 301.8,260.7 279.4,370.8 C279.130448,371.794353 279.587043,372.842597 280.498722,373.322428 C281.410401,373.802259 282.53297,373.585154 283.2,372.8 C328.3,326.3 346.3,256.4 336,192.2 C325.3,125.5 286.4,65.2 235.5,20.8" fill="url(#linearGradient-6)" style="mix-blend-mode: overlay;"></path>
                                        <path d="M352.9,237.6 C360.5,323 338.1,410.7 290.7,482.1 C290.250487,482.9221 290.344603,483.934704 290.937927,484.659878 C291.531251,485.385052 292.505166,485.67782 293.4,485.4 C353.8,462.7 395.2,401.4 404.9,337.3 C415,271 395.2,202.9 363,144" fill="url(#linearGradient-7)" style="mix-blend-mode: overlay;"></path>
                                        <path d="M411.2,367.5 C410.4,415.9 394.2,463.7 366.9,503.7 C341.7,540.6 307.3,570.9 268.2,592.7 C267.365886,593.269015 267.00043,594.315509 267.298986,595.280076 C267.597542,596.244642 268.490286,596.900003 269.5,596.900003 C294.644942,594.381398 319.644364,590.576413 344.4,585.5 C358.3,582.7 372.2,579.4 385,573.1 C419.4,556.3 440.5,520.3 453.3,484.2 C456.4,475.6 458.2,464.1 450.6,459.1" fill="url(#linearGradient-8)" style="mix-blend-mode: overlay;"></path>
                                    </g>
                                </g>
                            </g>
                            <g id="Clipped" stroke-width="1" fill="none" fill-rule="evenodd" transform="translate(38.000000, 69.000000)">
                                <mask id="mask-10" fill="white">
                                    <use xlink:href="#path-9"></use>
                                </mask>
                                <g id="路径"></g>
                                <g id="编组" style="mix-blend-mode: multiply;" mask="url(#mask-10)" fill-rule="nonzero" opacity="0.25">
                                    <g transform="translate(-277.000000, 357.000000)" id="路径">
                                        <path d="M377,87.9 C390.2,153.5 418.6,208.4 467.7,237.7 C596.5,314.5 734.6,357 884.1,368.9 C884.8,410.3 858.8,448.8 824.7,472.4 C790.6,496 749.4,506.7 708.6,513.9 C513.9,548 306.4,506.8 141.1,398.3 C85,361.5 31.6,314.2 10,250.7 C-10.8,189.4 2.7,117.6 44.4,68.1 C86.1,18.6 154.5,-7 218.5,3.2" fill="url(#linearGradient-11)" style="mix-blend-mode: multiply;"></path>
                                        <path d="M1088.1,198.2 C1018.6,235.3 933.6,242 859.1,216.3 C858.232006,216.056215 857.301617,216.342049 856.720215,217.031119 C856.138813,217.720188 856.013623,218.685409 856.4,219.5 C866.2,237.4 882.7,251.2 900.8,260.8 C920.6,271.3 942.4,277.4 964,283.2 C992.7,290.9 1022,298.3 1051.7,296.9 C1081.4,295.5 1112,283.9 1129.6,260 C1147.2,236.1 1147.9,198.9 1126.1,178.7" fill="url(#linearGradient-12)" style="mix-blend-mode: multiply;"></path>
                                        <path d="M1007.3,300.6 C915.4,311.8 819.7,288.7 743.1,236.8 C750.9,282.2 786.5,318.6 826.5,341.4 C878.7,371.2 942.7,382.7 1000.3,365.5 C1014.2,361.3 1029.3,353.7 1032.6,339.6" fill="url(#linearGradient-13)" style="mix-blend-mode: multiply;"></path>
                                    </g>
                                </g>
                            </g>
                        </g>
                    </g>
                </g>
            </g>
            <g id="tail" stroke="#31323D" stroke-linecap="round" stroke-linejoin="round" stroke-width="12.5">
                <path d="M0.6,459.2 C69.6,489.2 163,499.1 163,499.1 C163,499.1 510.1,544.1 561.6,253.1 C581.1,91.2 384.5,57.7 384.5,57.7 C384.5,57.7 476.3,21 509.2,50.7 C509.2,50.7 490.7,20.4 462.9,18 C462.9,18 581.1,-61.9 676.2,120.6 C676.2,120.6 663.9,27.6 625.7,9 C625.7,9 768.2,41.6 793.3,250.5 C793.3,250.5 819.6,208.9 816.7,174.1 C816.7,174.1 884.6,273.9 809.4,388.8 C809.4,388.8 868.3,332.5 873.1,302.3 C873.1,302.3 947,514.4 721.6,546.4 C721.6,546.4 782.8,569.3 823.4,549.7 C823.4,549.7 784.3,635 657.5,624 C657.5,624 719.2,666.1 756.8,657.5 C756.8,657.5 663.6,705.2 505.5,670.7 C505.5,670.7 559.1,720.2 598.7,721.2 L588.2,723.8 C473.727947,750.498286 354.094142,744.925067 242.6,707.7 L91.6,657.3 L0.7,620.2 L0.7,459.2 L0.6,459.2 Z" id="路径"></path>
            </g>
        </g>
    </g>
</svg>