<svg width="1187" height="943" viewBox="0 0 1187 943" fill="none" xmlns="http://www.w3.org/2000/svg">
<mask id="mask0" mask-type="alpha" maskUnits="userSpaceOnUse" x="9" y="8" width="1168" height="926">
<path fill-rule="evenodd" clip-rule="evenodd" d="M790.078 277.973C885.436 237.081 976.986 334.235 996.876 381.895C1064.59 544.193 927.191 656.716 927.191 656.716C875.562 705.786 802.35 752.177 705.299 781.929C458.016 857.79 226.814 727.783 109.732 642.333L60.783 607.222L9.85938 804.772L321.044 912.642C427.487 932.657 536.148 938.207 644.078 929.139C782.46 917.295 907.724 888.107 1019.3 781.647C1151.34 655.87 1229.35 443.937 1136.1 254.848C1073.33 127.52 921.689 -15.1784 750.157 12.4588C624.611 32.7637 480.868 145.569 492.435 275.435C500.617 365.679 583.562 461.704 680.19 464.242C748.323 465.934 838.321 421.658 838.321 360.744C838.18 312.097 780.768 257.668 695.989 248.785" fill="white"/>
</mask>
<g mask="url(#mask0)">
<path d="M-76.189 -199.191H1248.39V940.716H-76.189V-199.191Z" fill="#F7BC56"/>
<path fill-rule="evenodd" clip-rule="evenodd" d="M558.594 130.34L589.769 158.682C597.937 166.105 608.808 169.829 619.815 168.975L701.067 162.771C709.54 162.139 717.592 158.831 724.06 153.324L791.488 95.9343C797.163 91.0746 801.365 84.7252 803.62 77.6035L816.739 36.5708C827.036 4.28038 795.156 -25.3309 763.699 -12.9224L570.866 63.3619C557.95 68.4191 548.57 79.7954 546.071 93.4347C543.572 107.074 548.309 121.035 558.594 130.34ZM577.604 327.308C558.105 338.75 529.4 355.594 506.965 368.217C498.554 372.964 488.496 373.826 479.4 370.578C470.304 367.331 463.067 360.295 459.568 351.296L421.763 252.874C417.539 241.907 419.416 229.526 426.7 220.302L484.959 146.697C491.254 138.763 500.821 134.126 510.951 134.099C521.081 134.071 530.673 138.656 537.011 146.556L577.355 197.177C580.984 201.703 583.367 207.098 584.267 212.828L596.398 291.933C598.469 305.366 592.158 318.708 580.458 325.633L577.604 327.308ZM599.925 346.643L550.835 387.394C541.731 394.897 537.085 406.524 538.513 418.232C539.941 429.94 547.247 440.111 557.888 445.206L660.159 495.264C670.748 500.406 683.228 499.806 693.276 493.672C703.323 487.538 709.555 476.713 709.813 464.947L710.518 427.581C710.729 418.133 707.058 409.011 700.362 402.341L646.335 348.758C633.717 336.215 613.633 335.299 599.925 346.643ZM692.462 290.664L670.88 305.892C665.727 309.517 662.58 315.354 662.386 321.65C662.192 327.946 664.972 333.966 669.892 337.901L714.186 373.575C718.668 377.158 724.472 378.647 730.126 377.665L834.371 360.18C841.11 359.056 846.811 354.577 849.496 348.297C852.18 342.017 851.477 334.803 847.631 329.158L820.829 289.677C816.862 283.833 810.108 280.511 803.055 280.934L703.042 286.998C699.238 287.189 695.568 288.461 692.462 290.664ZM736.615 398.674L876.267 405.725L805.736 494.559L735.204 501.609L736.615 398.674ZM793.463 211.7L849.183 293.343C853.892 300.258 860.882 305.298 868.932 307.584L924.652 323.095C940.82 327.641 957.972 320.301 965.842 305.469L1007.88 226.647C1015.81 211.753 1012.22 193.338 999.274 182.512L953.993 144.581C948.362 139.876 941.416 137.02 934.103 136.403L850.17 129.353C839.077 128.399 828.173 132.675 820.688 140.915L796.567 167.565C785.429 179.782 784.144 198.046 793.463 211.7ZM848.76 21.3421L845.233 69.8482C844.4 81.2904 852.085 91.6132 863.289 94.1013L921.266 106.792C929.169 108.533 937.406 106.019 942.99 100.165L979.102 61.9519C984.692 55.9874 986.717 47.5161 984.429 39.6696C982.141 31.823 975.879 25.7667 967.958 23.7392L877.537 0.755226C870.925 -0.929443 863.907 0.389194 858.358 4.35853C852.81 8.32787 849.297 14.543 848.76 21.3421ZM703.888 204.791L693.309 193.934C690.493 191.101 686.569 189.656 682.588 189.985L627.15 194.498C619.777 195.098 614.25 201.502 614.737 208.88L615.724 224.673C615.959 228.459 617.772 231.972 620.722 234.358C623.672 236.744 627.488 237.783 631.241 237.222L696.13 227.634C701.17 226.904 705.375 223.41 707.012 218.589C708.649 213.769 707.442 208.437 703.888 204.791ZM1064.4 231.188L1064.4 231.189C1062.3 234.66 1060.32 237.919 1058.52 240.889C1051.98 251.616 1050 264.51 1053.02 276.704L1074.74 363.423C1076.82 371.698 1081.11 379.252 1087.16 385.279L1120.16 418.274C1150.07 448.168 1201.13 426.594 1200.57 384.292L1198.31 214.943C1198.09 197.814 1188.59 182.154 1173.49 174.052L1156.56 165.027C1134.36 153.095 1106.7 160.738 1093.79 182.371C1084.23 198.525 1073.2 216.697 1064.4 231.188ZM987.142 106.087L994.901 94.9473C998.878 89.2645 1005.03 85.48 1011.9 84.4917C1018.76 83.5035 1025.73 85.3996 1031.15 89.7301L1071.5 122.161C1077.47 126.965 1080.93 134.235 1080.87 141.9C1080.82 149.565 1077.26 156.785 1071.22 161.502L1056.97 172.501C1047.14 180.111 1033.23 179.391 1024.24 170.809L990.387 138.518C981.475 129.975 980.1 116.224 987.142 106.087ZM990.669 414.608L1025.37 407.981C1038.1 405.576 1051.2 409.402 1060.64 418.274L1119.88 473.831C1130.64 483.905 1135.07 499.028 1131.45 513.312L1114.66 578.598C1112.04 588.839 1105.5 597.645 1096.47 603.133L1026.08 645.999C1017.76 651.069 1007.89 652.971 998.286 651.357L962.315 645.294C951.578 643.478 942.025 637.415 935.814 628.474C929.602 619.532 927.257 608.466 929.307 597.775L958.507 446.758C961.623 430.465 974.37 417.723 990.669 414.608ZM1049.77 675.61L1107.05 655.447C1116.27 652.155 1126.57 654.627 1133.29 661.746C1140.02 668.864 1141.9 679.284 1138.08 688.301L1104.22 768.533C1099.03 780.785 1085.05 786.711 1072.63 781.929L1042.58 770.367C1031.87 766.279 1025.38 755.356 1026.92 743.998L1033.55 695.492C1034.82 686.355 1041.07 678.686 1049.77 675.61ZM909.417 661.369L974.447 677.161C978.289 678.091 981.593 680.53 983.611 683.928C985.63 687.326 986.191 691.393 985.168 695.21L984.462 697.889C982.944 703.711 978.023 708.016 972.049 708.747L928.46 714.105C925.608 714.46 922.714 713.97 920.138 712.695L890.373 697.748C886.1 695.629 883.125 691.566 882.395 686.854C881.666 682.143 883.273 677.37 886.706 674.059L895.734 665.317C899.307 661.728 904.48 660.235 909.417 661.369ZM968.804 725.386L987.566 719.463C991.43 718.253 995.635 718.855 999.005 721.101C1002.37 723.346 1004.55 726.995 1004.92 731.026L1006.33 744.703C1006.95 751.014 1003.07 756.899 997.017 758.804L983.052 763.175C976.798 765.115 970.057 762.253 967.112 756.407L960.905 744.139C959.153 740.641 959.019 736.551 960.538 732.946C962.057 729.34 965.077 726.578 968.804 725.386Z" fill="#CF5BE8"/>
</g>
<mask id="mask1" mask-type="alpha" maskUnits="userSpaceOnUse" x="9" y="8" width="1168" height="926">
<path fill-rule="evenodd" clip-rule="evenodd" d="M790.078 277.973C885.436 237.081 976.986 334.235 996.876 381.895C1064.59 544.193 927.191 656.716 927.191 656.716C875.562 705.786 802.35 752.177 705.299 781.929C458.016 857.79 226.814 727.783 109.732 642.333L60.783 607.222L9.85938 804.772L321.044 912.642C427.487 932.657 536.148 938.207 644.078 929.139C782.46 917.295 907.724 888.107 1019.3 781.647C1151.34 655.87 1229.35 443.937 1136.1 254.848C1073.33 127.52 921.689 -15.1784 750.157 12.4588C624.611 32.7637 480.868 145.569 492.435 275.435C500.617 365.679 583.562 461.704 680.19 464.242C748.323 465.934 838.321 421.658 838.321 360.744C838.18 312.097 780.768 257.668 695.989 248.785" fill="white"/>
</mask>
<g mask="url(#mask1)">
<g style="mix-blend-mode:multiply" opacity="0.25">
<path d="M250.936 712.554C401.873 785.877 351.937 859.2 531.933 873.019C825.767 918.987 996.735 813.937 1083.21 702.402L1224.55 639.795L1089.13 1005L-78.8691 992.169L-2.69523 613.004C-2.69523 613.004 170.107 673.213 250.936 712.554Z" fill="url(#paint0_linear)"/>
</g>
<g style="mix-blend-mode:overlay" opacity="0.5">
<path d="M492.435 275.435C492.435 275.435 601.195 9.0746 883.32 113.842C1165.45 218.61 1170.67 502.596 1170.67 502.596L1360.11 130.763L1030.03 -168.875L544.77 -193.41L392.422 -18.7036L492.435 275.435Z" fill="url(#paint1_linear)"/>
</g>
<g style="mix-blend-mode:multiply" opacity="0.25">
<path d="M792.194 219.315C804.043 216.072 946.093 158.118 1024.24 349.322C1105.35 547.577 987.143 665.74 740.565 770.085L876.126 322.531C876.126 322.531 847.773 306.739 790.078 277.973C732.383 249.208 715.738 251.323 715.738 251.323C715.738 251.323 744.656 236.659 792.194 219.315Z" fill="url(#paint2_linear)"/>
</g>
</g>
<path d="M787.015 269.306L795.198 266.202L797.456 265.496L799.713 264.791L804.369 263.379L809.025 262.251L813.54 261.263L818.196 260.416L822.852 259.711C835.258 258.303 847.802 258.683 860.101 260.84C872.243 263 884.084 266.6 895.374 271.564C906.53 276.435 917.206 282.34 927.261 289.202C937.224 296.003 946.658 303.55 955.479 311.779C964.322 319.981 972.573 328.799 980.171 338.166C987.909 347.577 994.758 357.686 1000.63 368.362L1002.75 372.596L1004.72 376.97L1005.14 378.099V379.369L1005.99 381.344L1007.54 385.436L1010.65 393.62L1013.47 402.369L1014.88 406.743C1015.3 408.154 1015.87 409.707 1016.15 411.118L1018.27 419.866L1019.39 424.24L1020.24 428.756L1021.79 437.646C1022.36 440.609 1022.5 443.572 1022.92 446.676L1023.49 451.192L1023.77 453.449V455.707L1024.19 464.738V473.769C1024.12 485.879 1023.03 497.962 1020.95 509.892L1019.25 518.782C1018.55 521.745 1017.84 524.708 1017.14 527.53C1016.43 530.352 1016.43 530.493 1016.01 531.904L1014.74 536.279L1013.47 540.653L1012.76 542.77L1012.06 544.886L1009.09 553.353L1005.71 561.678C1004.58 564.5 1003.31 567.181 1002.04 569.862L1000.21 573.954L998.23 578.046C992.852 588.782 986.771 599.153 980.029 609.089C973.313 619.017 966.01 628.535 958.16 637.593C954.209 642.108 950.259 646.483 946.026 650.857L939.536 657.207L936.15 660.311L932.481 663.415L932.905 662.992C903.47 690.69 870.89 714.843 835.833 734.956C818.409 745.021 800.465 754.159 782.076 762.331C763.734 770.515 745.016 777.852 725.922 784.343L711.53 789L708.003 790.129H706.874L706.028 790.411L704.193 790.975L696.998 792.951L682.606 796.902L667.791 800.429L660.314 802.123L652.836 803.534L638.021 806.356L623.065 808.472L615.587 809.46L608.109 810.307L593.012 811.718L577.915 812.565C567.898 813.27 557.739 813.129 547.722 813.27L532.625 812.847L525.006 812.565L517.528 812.141L502.431 811.153L487.475 809.601L479.997 808.755L472.519 807.767L457.563 805.65C447.687 803.816 437.669 802.264 427.934 800.006C408.181 796.055 388.851 790.834 369.522 785.049L355.13 780.533L340.88 775.736C336.083 774.184 331.427 772.349 326.771 770.656C322.114 768.963 317.317 767.269 312.661 765.294L298.693 759.65L284.866 753.723L271.18 747.515L257.494 741.165C239.434 732.557 221.657 723.244 204.161 713.508C186.666 703.772 169.593 693.33 152.662 682.606C135.731 671.882 119.364 660.452 103.28 648.74L55.0261 614.028L68.7121 609.089L18.201 807.061L12.5572 796.478L323.808 904.425L322.538 904.142C381.374 915.081 440.934 921.684 500.738 923.897C530.649 924.932 560.561 924.885 590.473 923.756C620.384 922.627 650.155 920.229 679.925 916.842C709.538 913.623 738.97 908.914 768.108 902.731C797.121 896.452 825.611 887.961 853.328 877.332C880.949 866.654 907.538 853.476 932.763 837.964C957.965 822.414 981.633 804.507 1003.45 784.484L1011.63 777.006L1012.62 776.018L1013.19 775.595L1013.61 775.171L1015.58 773.196L1019.54 769.245C1025.04 764.024 1029.98 758.662 1035.06 753.3L1036.89 751.324L1038.72 749.208L1042.39 745.116C1044.79 742.294 1047.33 739.613 1049.73 736.791C1054.39 731.005 1059.32 725.502 1063.7 719.576L1070.47 710.827L1076.96 701.796L1080.21 697.281L1083.31 692.624L1089.52 683.452C1097.42 670.894 1105.18 658.336 1112.09 645.213C1115.62 638.722 1118.86 632.09 1122.11 625.458C1123.8 622.212 1125.21 618.685 1126.77 615.439C1128.32 612.194 1129.87 608.666 1131.28 605.28L1135.51 594.979L1137.63 589.899L1139.61 584.678L1143.41 574.236L1146.8 563.653C1149.2 556.598 1151.03 549.543 1153.15 542.346C1153.71 540.512 1154.14 538.819 1154.56 536.984L1155.83 531.622C1156.68 528.095 1157.67 524.426 1158.37 520.898L1160.63 510.033C1160.91 508.199 1161.47 506.364 1161.62 504.53L1162.46 499.027L1164.16 488.162L1165.43 477.155C1168.83 447.864 1168.97 418.286 1165.85 388.964L1165.28 383.461C1165.14 381.626 1164.72 379.792 1164.58 377.958L1163.03 367.092L1162.6 364.411L1162.04 361.73L1160.91 356.368C1160.2 352.7 1159.64 349.172 1158.79 345.503L1156.11 334.779L1154.84 329.417L1153.29 324.055L1150.19 313.472C1149.76 311.638 1149.06 309.944 1148.49 308.251L1146.66 303.03C1127.33 247.434 1094.88 196.495 1055.66 152.188C1045.78 141.182 1035.34 130.599 1024.61 120.439C1013.89 110.279 1002.46 100.825 990.894 91.6533C979.324 82.4814 967.049 74.2973 954.492 66.5364L945.038 60.8922L940.241 58.0701L935.303 55.5301C932.058 53.8369 928.813 52.0025 925.568 50.4503L915.691 45.6527L910.612 43.395L905.533 41.2784L900.453 39.1618L895.374 37.1863L885.074 33.3765L874.633 29.9899C871.106 28.8611 867.579 28.0144 864.051 27.0267C860.524 26.039 856.997 25.0512 853.469 24.3457L842.746 22.088L831.882 20.3947C817.451 18.2771 802.867 17.3803 788.285 17.7137H782.782L777.279 18.137L766.415 18.9837L755.551 20.3947L752.87 20.818H751.742L750.331 21.1002L744.828 22.088L739.325 23.0757L734.105 24.3457L728.885 25.4745L723.523 26.8856C719.996 27.8733 716.468 28.72 712.941 29.8488C709.414 30.9777 705.886 31.9654 702.5 33.2354C688.6 37.9862 675.026 43.6426 661.866 50.1681C648.657 56.651 635.843 63.907 623.488 71.8985L614.317 77.966L605.287 84.3158L596.54 91.0889C593.577 93.3466 590.896 95.7454 588.074 98.1442C576.891 107.611 566.378 117.842 556.61 128.764C546.866 139.596 538.085 151.258 530.367 163.617C514.988 188.17 504.406 215.686 501.584 244.189C501.302 247.717 500.738 251.244 500.879 254.913V265.637L501.161 270.999V276.22L501.867 281.864C502.149 283.699 502.431 285.392 502.713 287.085C502.995 288.779 504.124 294 504.829 297.527C505.535 301.055 505.676 301.055 506.099 302.748C506.523 304.441 506.946 306.276 507.51 307.969C508.075 309.662 509.627 314.883 510.896 318.27L512.731 323.35L514.847 328.429C520.433 341.781 527.333 354.543 535.447 366.528C543.548 378.554 552.81 389.755 563.101 399.97C568.18 405.191 573.542 409.848 579.185 414.504C584.793 419.038 590.633 423.277 596.681 427.204C602.69 431.113 608.907 434.693 615.305 437.928C621.713 441.104 628.31 443.884 635.058 446.253C641.749 448.572 648.583 450.458 655.516 451.897C662.451 453.292 669.477 454.188 676.539 454.578H692.483L697.844 454.155C704.998 453.514 712.11 452.477 719.149 451.051C726.199 449.632 733.17 447.842 740.031 445.689C746.938 443.578 753.721 441.081 760.348 438.21C773.543 432.625 785.967 425.369 797.315 416.621C808.461 408.013 818.055 397.43 824.122 385.436C827.117 379.55 829.12 373.209 830.048 366.669V356.651C830.026 356.225 829.978 355.801 829.907 355.381V354.252C829.766 353.405 829.766 352.7 829.625 351.853C829.484 351.006 829.201 348.608 828.778 346.914C827.238 340.227 824.819 333.774 821.582 327.724C818.298 321.5 814.373 315.636 809.872 310.227C800.582 299.208 789.691 289.647 777.562 281.864C765.287 273.91 752.122 267.422 738.338 262.533C731.377 260.087 724.323 257.97 717.174 256.183C709.978 254.49 702.782 253.079 695.446 251.95C693.498 251.716 692.108 249.947 692.342 247.999C692.575 246.051 694.344 244.661 696.292 244.895C726.768 247.011 757.244 255.619 784.193 271.564C797.85 279.467 810.181 289.466 820.736 301.196C826.103 307.178 830.832 313.705 834.845 320.669C838.897 327.801 841.981 335.441 844.016 343.387C844.581 345.362 844.863 347.479 845.286 349.454C845.709 351.43 845.85 353.97 846.133 355.945V368.362C845.244 376.791 842.905 385.002 839.219 392.633C835.611 400.099 831.059 407.07 825.674 413.375C820.437 419.512 814.626 425.135 808.32 430.167C795.951 440.084 782.338 448.338 767.826 454.719C753.485 461.164 738.489 466.037 723.1 469.253C715.364 470.862 707.545 472.04 699.678 472.781L693.753 473.204L687.685 473.486H675.834C667.872 473.066 659.95 472.076 652.13 470.523C644.325 468.886 636.641 466.718 629.132 464.032C621.659 461.379 614.355 458.268 607.263 454.719C600.224 451.159 593.394 447.201 586.804 442.866C580.264 438.541 573.954 433.878 567.898 428.897C561.972 423.817 556.046 418.596 550.543 412.952C539.519 401.849 529.596 389.704 520.914 376.688C512.176 363.676 504.756 349.826 498.762 335.344L496.505 329.84L494.53 324.337C493.119 320.669 492.131 316.859 490.861 313.19C489.591 309.521 489.874 309.38 489.309 307.546C488.745 305.711 488.322 303.736 487.898 301.76C487.475 299.785 486.205 294.141 485.641 290.049C485.077 285.956 484.935 285.956 484.653 284.122L483.948 278.478V272.128L483.666 266.202V254.349C483.666 250.398 484.089 246.447 484.512 242.496C486.164 226.777 489.766 211.324 495.235 196.495C500.676 181.754 507.626 167.615 515.976 154.304C524.235 141.095 533.63 128.63 544.053 117.052C554.391 105.523 565.517 94.7259 577.351 84.7391C580.314 82.3403 583.277 79.8004 586.24 77.4016L595.411 70.3463L604.864 63.5732L614.458 57.0823C627.401 48.6776 640.828 41.0446 654.67 34.2231C668.517 27.37 682.798 21.4309 697.421 16.4437C701.089 15.0327 704.758 14.0449 708.426 12.9161C712.095 11.7872 715.904 10.7995 719.572 9.67065L725.216 8.11848L731.001 6.84853L736.786 5.57857L742.429 4.59083L747.932 3.60309L749.343 3.32087H751.036L753.858 2.89756L765.428 1.34539L776.997 0.498751L782.782 0.0754325H788.567C804.092 -0.286994 819.62 0.65704 834.986 2.89756L846.556 4.73193L857.984 7.13074C861.794 7.83627 865.462 8.96512 869.272 9.95286C873.081 10.9406 876.75 11.7872 880.418 13.0572L891.423 16.5849L902.287 20.5358L907.649 22.6524L913.01 24.9101L918.372 27.1678L923.592 29.5666L934.033 34.5053C937.561 36.1986 940.806 38.033 944.333 39.8674L949.412 42.5484L954.351 45.5116L964.368 51.297C977.49 59.34 990.047 68.2297 1002.32 77.5427C1014.6 86.8557 1026.17 96.8742 1037.31 107.457C1048.46 118.04 1059.18 128.905 1069.34 140.335C1079.5 151.765 1089.24 163.617 1098.41 175.894C1107.58 188.17 1116.18 200.869 1124.23 213.992C1128.18 220.624 1132.13 227.115 1135.8 234.029L1138.62 239.109L1141.16 244.189L1143.7 249.269L1144.4 250.539L1144.83 251.244L1145.11 251.95L1146.38 254.631L1151.17 265.073C1152.02 266.766 1152.87 268.6 1153.57 270.294L1155.69 275.656L1160.06 286.38C1161.47 289.907 1162.6 293.576 1163.87 297.245L1165.85 302.748C1166.55 304.582 1167.12 306.417 1167.68 308.251L1170.93 319.258L1172.62 324.761L1174.03 330.405L1176.71 341.693C1177.56 345.503 1178.26 349.313 1178.97 352.982L1180.1 358.626L1180.66 361.448L1181.09 364.27L1182.78 375.7C1183.06 377.675 1183.34 379.51 1183.63 381.485L1184.19 387.271C1187.46 417.906 1187.32 448.809 1183.77 479.413L1182.36 490.843L1180.52 502.272L1179.68 507.916C1179.39 509.751 1178.97 511.726 1178.55 513.561L1176.29 524.849C1175.58 528.659 1174.46 532.328 1173.61 535.997L1172.2 541.641C1171.77 543.475 1171.35 545.31 1170.79 547.144C1168.67 554.481 1166.69 561.96 1164.3 569.156L1160.77 580.022L1156.82 590.887L1154.84 596.249L1152.73 601.611L1148.35 612.194C1146.8 615.721 1145.25 619.249 1143.7 622.636C1142.14 626.022 1140.59 629.691 1138.9 633.078C1135.51 639.992 1132.27 646.906 1128.46 653.538C1121.4 667.084 1113.36 680.207 1105.18 693.189L1098.83 702.784L1095.58 707.582L1092.2 712.238L1085.43 721.551L1078.37 730.723C1073.71 736.791 1068.78 742.717 1063.98 748.643C1061.58 751.607 1058.9 754.429 1056.36 757.251L1052.55 761.484L1050.58 763.601L1048.6 765.717C1043.24 771.362 1038.02 777.006 1032.66 782.227L1028.71 786.178L1026.73 788.153L1026.17 788.718L1025.6 789.141L1024.47 790.129L1016.01 797.889C993.406 818.647 968.888 837.215 942.781 853.344C916.659 869.411 889.126 883.06 860.524 894.124C831.983 905.098 802.644 913.873 772.764 920.37C742.976 926.731 712.885 931.582 682.606 934.904C652.553 938.29 622.219 940.689 591.884 941.959C561.549 943.229 531.214 943.229 500.879 942.1C440.223 939.855 379.814 933.158 320.139 922.063H319.434L318.869 921.781L7.619 813.834L0 811.153L1.9753 803.252L53.0508 605.421L56.296 593.003L66.7368 600.482L114.991 635.194C130.934 646.906 147.16 657.912 163.667 668.636C180.175 679.36 197.106 689.379 214.179 698.974C231.251 708.569 248.746 717.741 266.383 726.208L279.787 732.416L293.19 738.484L306.735 744.269L320.421 749.772C324.936 751.607 329.592 753.3 334.107 754.993C338.622 756.687 343.278 758.521 347.934 759.932L361.903 764.73L375.871 769.104C394.636 774.748 413.543 779.828 432.731 783.779C442.325 785.895 451.92 787.448 461.514 789.282L476.047 791.399L483.242 792.386L490.579 793.092L505.112 794.644L519.785 795.632L527.122 796.055L534.459 796.337L549.133 796.761C558.868 796.62 568.603 796.761 578.339 796.055L593.012 795.208L607.545 793.797L614.882 793.092L622.077 792.104L636.61 789.988L651.001 787.307L658.197 786.037L665.252 784.343L679.361 781.098L693.611 777.147L700.807 775.171L702.641 774.607L703.488 774.325H704.193L707.721 773.196L721.689 768.681C740.219 762.378 758.42 755.228 776.292 747.232C794.149 739.317 811.575 730.462 828.496 720.704C862.033 700.926 893.143 677.295 921.194 650.292H921.335L921.617 650.01L924.58 647.47L927.684 644.648L933.61 638.722C937.561 634.771 941.37 630.538 945.038 626.304C952.384 617.781 959.215 608.829 965.497 599.494C971.82 590.191 977.524 580.481 982.569 570.426L984.403 566.617L986.096 562.807C987.225 560.267 988.495 557.727 989.483 555.046L992.587 547.285L995.409 539.383L996.114 537.408L996.678 535.432L997.948 531.481L999.218 527.53C999.641 526.26 999.924 524.849 1000.21 523.438C1000.49 522.027 1001.62 518.076 1002.18 515.254L1003.73 507.07C1005.65 496.072 1006.64 484.932 1006.7 473.769V465.302L1006.27 456.977V454.86L1005.99 452.744L1005.57 448.652C1005.29 445.83 1005 443.149 1004.58 440.327L1003.17 432.142L1002.46 428.05L1001.48 423.958L999.5 415.774C999.218 414.363 998.795 413.093 998.372 411.823L997.102 407.872L994.703 399.97L991.599 391.786L990.047 387.694L989.201 385.718V384.731L988.777 383.884L987.084 380.215L985.25 376.688C979.898 367.009 973.663 357.845 966.626 349.313C952.544 331.871 936.005 316.565 917.525 303.877C899.183 291.46 878.584 282.005 857.279 278.337C846.658 276.47 835.825 276.138 825.11 277.349L821.159 277.913L817.209 278.619L813.258 279.466L809.448 280.453L805.78 281.582L803.946 282.147L801.971 282.852L793.787 285.956C789.19 287.827 783.947 285.616 782.076 281.018C780.206 276.42 782.417 271.176 787.015 269.306Z" fill="#31323D"/>
<defs>
<linearGradient id="paint0_linear" x1="1224.62" y1="1004.96" x2="1224.62" y2="612.961" gradientUnits="userSpaceOnUse">
<stop stop-color="#808080"/>
<stop offset="0.27" stop-color="#7D7D7D"/>
<stop offset="0.46" stop-color="#747474"/>
<stop offset="0.64" stop-color="#646464"/>
<stop offset="0.8" stop-color="#4D4D4D"/>
<stop offset="0.95" stop-color="#303030"/>
<stop offset="1" stop-color="#242424"/>
</linearGradient>
<linearGradient id="paint1_linear" x1="1360.04" y1="502.596" x2="1360.04" y2="-193.41" gradientUnits="userSpaceOnUse">
<stop stop-color="white" stop-opacity="0.01"/>
<stop offset="0.72" stop-color="white"/>
</linearGradient>
<linearGradient id="paint2_linear" x1="1049.69" y1="770" x2="1049.69" y2="208.542" gradientUnits="userSpaceOnUse">
<stop stop-color="#808080"/>
<stop offset="0.27" stop-color="#7D7D7D"/>
<stop offset="0.46" stop-color="#747474"/>
<stop offset="0.64" stop-color="#646464"/>
<stop offset="0.8" stop-color="#4D4D4D"/>
<stop offset="0.95" stop-color="#303030"/>
<stop offset="1" stop-color="#242424"/>
</linearGradient>
</defs>
</svg>
