<?xml version="1.0" encoding="UTF-8"?>
<svg width="949px" height="863px" viewBox="0 0 949 863" version="1.1" xmlns="http://www.w3.org/2000/svg" xmlns:xlink="http://www.w3.org/1999/xlink">
    <title>编组</title>
    <defs>
        <path d="M923.8,233 C923.8,233 920.2,260 897.1,308.5 C865.7,209.8 806.1,111.2 728.5,52.5 C726.7,51.2 723.9,49.3 720.2,46.9 C558.9,-54 345.5,15.1 273.1,191.1 L266.4,207.1 C307.1,175.3 362.7,155.3 362.7,155.3 C362.7,155.3 342.8,182.5 327.6,202.9 C280.5,265.9 249.6,352.4 273.5,431.8 C281,456.7 299.9,480.8 323.8,502.8 C202.5,522.5 116.6,646.7 116.6,646.7 L0.6,783.5 L170,818.8 L266.5,822.3 C318.1,837.8 383.6,848.9 465.6,848.9 C708.1,848.9 878.7,689.9 914.7,519 C917.5,505.6 920.4,492.2 923.5,478.9 C934.8,429.3 957.9,305.7 923.8,233 L923.8,233 Z" id="path-1"></path>
        <path d="M923.8,233 C923.8,233 920.2,260 897.1,308.5 C865.7,209.8 806.1,111.2 728.5,52.5 C726.7,51.2 723.9,49.3 720.2,46.9 C558.9,-54 345.5,15.1 273.1,191.1 L266.4,207.1 C307.1,175.3 362.7,155.3 362.7,155.3 C362.7,155.3 342.8,182.5 327.6,202.9 C280.5,265.9 249.6,352.4 273.5,431.8 C281,456.7 299.9,480.8 323.8,502.8 C202.5,522.5 116.6,646.7 116.6,646.7 L0.6,783.5 L170,818.8 L266.5,822.3 C318.1,837.8 383.6,848.9 465.6,848.9 C708.1,848.9 878.7,689.9 914.7,519 C917.5,505.6 920.4,492.2 923.5,478.9 C934.8,429.3 957.9,305.7 923.8,233 L923.8,233 Z" id="path-3"></path>
        <path d="M923.8,233 C923.8,233 920.2,260 897.1,308.5 C865.7,209.8 806.1,111.2 728.5,52.5 C726.7,51.2 723.9,49.3 720.2,46.9 C558.9,-54 345.5,15.1 273.1,191.1 L266.4,207.1 C307.1,175.3 362.7,155.3 362.7,155.3 C362.7,155.3 342.8,182.5 327.6,202.9 C280.5,265.9 249.6,352.4 273.5,431.8 C281,456.7 299.9,480.8 323.8,502.8 C202.5,522.5 116.6,646.7 116.6,646.7 L0.6,783.5 L170,818.8 L266.5,822.3 C318.1,837.8 383.6,848.9 465.6,848.9 C708.1,848.9 878.7,689.9 914.7,519 C917.5,505.6 920.4,492.2 923.5,478.9 C934.8,429.3 957.9,305.7 923.8,233 L923.8,233 Z" id="path-5"></path>
        <path d="M923.8,233 C923.8,233 920.2,260 897.1,308.5 C865.7,209.8 806.1,111.2 728.5,52.5 C726.7,51.2 723.9,49.3 720.2,46.9 C558.9,-54 345.5,15.1 273.1,191.1 L266.4,207.1 C307.1,175.3 362.7,155.3 362.7,155.3 C362.7,155.3 342.8,182.5 327.6,202.9 C280.5,265.9 249.6,352.4 273.5,431.8 C281,456.7 299.9,480.8 323.8,502.8 C202.5,522.5 116.6,646.7 116.6,646.7 L0.6,783.5 L170,818.8 L266.5,822.3 C318.1,837.8 383.6,848.9 465.6,848.9 C708.1,848.9 878.7,689.9 914.7,519 C917.5,505.6 920.4,492.2 923.5,478.9 C934.8,429.3 957.9,305.7 923.8,233 L923.8,233 Z" id="path-7"></path>
        <linearGradient x1="50.0126194%" y1="99.9934254%" x2="50.0126194%" y2="0.00438308131%" id="linearGradient-9">
            <stop stop-color="#FFFFFF" stop-opacity="0" offset="0%"></stop>
            <stop stop-color="#FFFFFF" offset="72%"></stop>
        </linearGradient>
        <linearGradient x1="-0.0572688719%" y1="49.9796398%" x2="99.93426%" y2="49.9796398%" id="linearGradient-10">
            <stop stop-color="#FFFFFF" stop-opacity="0" offset="0%"></stop>
            <stop stop-color="#FFFFFF" offset="72%"></stop>
        </linearGradient>
        <linearGradient x1="-0.026367636%" y1="50%" x2="99.9966229%" y2="50%" id="linearGradient-11">
            <stop stop-color="#FFFFFF" stop-opacity="0" offset="0%"></stop>
            <stop stop-color="#FFFFFF" offset="72%"></stop>
        </linearGradient>
        <linearGradient x1="-0.126530013%" y1="50.0637351%" x2="99.9714086%" y2="50.0637351%" id="linearGradient-12">
            <stop stop-color="#FFFFFF" stop-opacity="0" offset="0%"></stop>
            <stop stop-color="#FFFFFF" offset="72%"></stop>
        </linearGradient>
    </defs>
    <g id="页面-1" stroke="none" stroke-width="1" fill="none" fill-rule="evenodd">
        <g id="编组" transform="translate(0.000000, 7.000000)">
            <g id="tailFur">
                <g id="Clipped">
                    <mask id="mask-2" fill="white">
                        <use xlink:href="#path-1"></use>
                    </mask>
                    <g id="路径"></g>
                    <g id="编组" mask="url(#mask-2)">
                        <g transform="translate(-16.000000, -80.000000)">
                            <polygon id="路径" fill="#DED0EE" fill-rule="nonzero" points="0 35.2 998.2 35.2 998.2 923.94 0 923.94"></polygon>
                            <path d="M738.1,1107.5 C688.9,993.5 663.3,915.7 631.5,889.4 C624.3,883.5 595.5,860.6 585.7,822.7 C583.5,814.2 575.6,783.6 590,765.5 C617.6,731 708.2,765.9 718.7,770 C732.4,775.4 892.3,838.5 879.8,949.8 C873.4,1007.9 805,1083.6 738.1,1107.5 L738.1,1107.5 Z M623.7,674.3 C587.4,677.1 579.3,568.4 501.5,542 C467.1,530.3 435.5,540.3 430.5,525.7 C425.5,511.1 447.9,491.4 467.2,481.2 C496.4,465.8 526.6,471.7 538.8,474.3 C595.3,486.2 666.2,537.9 663.1,604 C661.8,633.8 645.1,672.6 623.7,674.3 Z" id="形状" fill="#CF5BE8" fill-rule="nonzero"></path>
                            <path d="M522.6,617.4 C512.4,622.3 515.2,640.4 515.8,710.3 C516.1,739.2 515.7,747.9 520.1,749.5 C528.8,752.7 549,726.8 557.3,699.6 C559.2,693.4 572.9,646.1 547.2,625 C545.8,623.8 532.3,612.8 522.6,617.4 Z M694,62 C680.3,80.5 703.1,106 734.7,194.3 C754,248.3 756,268 765.4,268.4 C781.4,269 800.9,212.9 799.7,161.3 C799.2,138.6 797.7,73.7 755.1,54.9 C735.8,46.3 705.7,46.4 694,62 L694,62 Z M843.4,427 C851.3,415.7 870,423.9 926,425.2 C960.2,426 971.8,423.4 973.7,428.7 C977,437.7 948.9,459.3 919.5,468.3 C906.6,472.3 869.5,483.6 850.8,463 C842.4,453.6 836.8,436.6 843.4,427 Z M736.7,623.7 C729.5,638.3 792,657.2 816.7,718.3 C836.4,767.3 813.7,807.3 829.7,812 C842.3,815.7 860.9,794 869,776.1 C881.2,748.9 872.8,722.2 867.2,704.5 C862.1,688.5 851.6,656.7 820.4,635.7 C789.2,614.7 743.1,611 736.7,623.7 Z M672.1,682.5 C674.996186,672.668479 681.683529,664.392426 690.687726,659.496393 C699.691924,654.600361 710.273636,653.486366 720.1,656.4 C740.5,662.4 768.7,698.6 762.6,719 C756.5,739.4 718.7,736.4 698.2,730.4 C677.775915,724.367157 666.096635,702.93277 672.1,682.5 L672.1,682.5 Z M508.9,933.6 C512.905676,933.090866 516.949317,934.196499 520.138664,936.672933 C523.32801,939.149367 525.400924,942.793059 525.9,946.8 C527,955.1 518.2,972.2 509.9,973.2 C501.6,974.2 496.8,958.9 495.7,950.6 C495.190866,946.594324 496.296499,942.550683 498.772933,939.361336 C501.249367,936.17199 504.893059,934.099076 508.9,933.6 Z M544.2,781.1 C553.5,790.1 555.2,803.4 548.1,810.8 C541,818.2 515.5,820.5 506.2,811.5 C496.9,802.5 507.3,785.6 514.4,778.2 C521.5,770.8 534.9,772 544.2,781.1 L544.2,781.1 Z M845.5,600.7 C854.160062,600.038739 861.817576,606.283983 862.911265,614.900118 C864.004954,623.516253 858.15063,631.476623 849.6,633 C840.7,634.1 826.1,622.6 825,613.7 C823.9,604.8 836.6,601.9 845.5,600.7 L845.5,600.7 Z M932.6,544.9 C928.795122,549.312231 922.925372,551.359422 917.201829,550.270415 C911.478286,549.181409 906.770492,545.121652 904.851828,539.620415 C902.933164,534.119178 904.095121,528.01223 907.9,523.6 C913.8,516.8 932.3,515.7 939.1,521.5 C945.9,527.3 938.4,538.1 932.6,544.9 L932.6,544.9 Z M305.2,850.1 C311.689346,849.271573 317.621573,853.860654 318.45,860.35 C319.278427,866.839346 314.689346,872.771573 308.2,873.6 C301.7,874.4 291.2,866.1 290.3,859.6 C289.4,853.1 298.7,850.9 305.2,850.1 Z M623.6,719.6 C623.3,726.6 616.3,732.1 608,731.7 C599.7,731.3 593.2,725.4 593.5,718.3 C593.8,711.2 606.5,701.6 614.8,702 C623.1,702.4 623.9,712.5 623.6,719.6 L623.6,719.6 Z M706.1,540.6 C709.52975,543.082996 711.374307,547.207128 710.938844,551.418877 C710.503381,555.630625 707.854056,559.290124 703.988844,561.018877 C700.123632,562.747629 695.62975,562.282996 692.2,559.8 C686.9,556 684.9,542.6 688.8,537.3 C692.7,532 700.8,536.8 706.1,540.6 Z M821.6,469.5 C826.901934,473.338379 828.088379,480.748066 824.25,486.05 C820.411621,491.351934 813.001934,492.538379 807.7,488.7 C802.4,484.9 800.4,471.5 804.3,466.2 C808.2,460.9 816.3,465.7 821.6,469.5 L821.6,469.5 Z M681.7,376.7 C706.8,373.5 731.3,411.1 734.5,436.2 C736.720916,460.738551 719.130587,482.636803 694.690372,485.759121 C670.250158,488.881439 647.719492,472.108777 643.7,447.8 C640.5,422.7 656.7,379.9 681.7,376.7 L681.7,376.7 Z M777,502.3 C783.630599,501.450222 790.327152,503.269798 795.615933,507.358288 C800.904715,511.446779 804.35231,517.469134 805.2,524.1 C807,537.9 784.5,566 770.6,567.8 C756.7,569.6 756.9,544.3 755.1,530.5 C754.251605,523.854078 756.084658,517.143887 760.194073,511.852312 C764.303487,506.560736 770.350938,503.123429 777,502.3 L777,502.3 Z M767.4,379.3 C780,377.7 799.3,378.7 800.9,391.3 C802.5,403.9 785.8,423.3 773.2,424.9 C760.883209,425.997254 749.903168,417.159528 748.342924,404.892786 C746.782681,392.626044 755.200705,381.32102 767.4,379.3 Z M421,673.6 C438.9,671.3 466.3,672.7 468.6,690.6 C470.9,708.5 447.2,736.1 429.3,738.3 C417.742458,739.782652 406.271864,734.986804 399.209078,725.719005 C392.146293,716.451207 390.564322,704.119456 395.059078,693.369005 C399.553835,682.618554 409.442458,675.082652 421,673.6 L421,673.6 Z M904.9,581.7 C870.8,586.9 876.9,638.2 911.3,634.9 C919.797559,633.958278 928.135152,631.907499 936.1,628.8 C1005.4,602.8 1047.7,635.2 1060.7,622.2 L1073.7,609.2 C1073.7,609.2 992.1,568.3 904.9,581.7 L904.9,581.7 Z" id="形状" fill="#CF5BE8" fill-rule="nonzero"></path>
                            <path d="M378.7,235.4 C378.7,235.4 358.8,262.6 343.6,283 C296.5,346 265.6,432.5 289.5,511.9 C308.8,576 404.3,635.1 463.7,664.9 C469.966667,665.633333 476.333333,666.133333 482.8,666.4 C482.735693,665.916316 482.600931,665.444649 482.4,665 C472.7,643.6 488.7,604.7 501.4,587 C517.3,564.7 543.6,552.8 567.6,539.6 C591.6,526.4 616.2,508.7 623.3,482.3 L618.3,540 C656.2,521.4 687.6,490.3 707.6,453.1 C715.913211,437.624536 722.134267,421.113516 726.1,404 C708.2,278 599.1,186.8 473.5,198.6 C429.1,202.8 390,218.9 358.3,243.7 C370.6,238.3 378.7,235.4 378.7,235.4 Z" id="路径" fill="#DED0EE" fill-rule="nonzero"></path>
                            <path d="M459,9 C483.2,-14.7 558.3,12.2 602.2,58.8 C646.1,105.4 660.6,171.4 646.2,181 C635.1,188.4 616,154.5 553.8,127.6 C507.3,107.5 487.3,113.2 468.6,90.9 C448.6,66.9 442.4,25.3 459,9 L459,9 Z M655,255.8 C663.660062,255.138739 671.317576,261.383983 672.411265,270.000118 C673.504954,278.616253 667.65063,286.576623 659.1,288.1 C650.2,289.2 635.6,277.7 634.5,268.8 C633.4,259.9 646.1,256.9 655,255.8 Z M862.3,547.2 C871.6,523.3 838.6,506.4 831.9,534.4 C830.2,541.4 827.8,558.9 834.3,564.2 C844.4,572.5 858.9,555.8 862.3,547.2 Z M798,175.6 C825.379198,217.236096 837.107478,267.231877 831.1,316.7 C830.1,324.5 828.7,332.3 829.8,340.1 C830.9,347.9 835.1,355.7 842.3,358.8 C849.5,361.9 857.2,359.8 863.2,355.5 C869.2,351.2 873.4,344.9 877.1,338.4 C908.4,283.2 902.1,209 862.1,159.8 M862.1,383.3 C857.2,388.2 858.5,397.5 864.3,401.1 C870.1,404.7 878.9,401.8 881.8,395.6 C884.7,389.4 881.3,381.1 875,378.3 C868.7,375.5 860.5,378.4 857.1,384.3 M959.7,342.5 C947.879965,348.647159 938.784729,358.990761 934.2,371.5 C932.4,376.6 931.3,382.2 933.1,387.3 C935.9,395.3 944.8,399.6 953.2,400.4 C958.8,401 964.7,400.3 969.6,397.7 C974.5,395.1 978.4,390.1 979,384.5 M320.6,581.2 C307.1,577.5 299.5,563.2 295.5,549.7 C281.1,500.9 295.5,444.6 331.5,408.7 C335,405.2 340.7,401.9 344.3,405.2 C346.4,407.1 346.5,410.4 346.4,413.2 C344.8,449.4 336.8,485.2 336.6,521.4 C336.4,557.6 345.4,596.2 371.9,620.9 M396.3,564.7 C398.3,568 401.1,571.2 404.9,571.7 C408.7,572.2 411.9,569.7 413.8,566.7 C415.052923,564.538501 415.900181,562.166179 416.3,559.7 C416.5,558.6 416.7,557.5 416.8,556.4 C417.6,550.9 418.1,545.3 417.1,539.9 C411.6,508 383.4,543.9 396.3,564.7 Z M386.5,123.3 C395.6,131 405,138.8 416.2,142.8 C427.4,146.8 441.1,146.1 449.9,138.1 C455.4,133 458.4,125.6 459,118.1 C460,105.2 453.3,91.4 441.5,86 C434.04474,82.6478092 425.496872,82.7208679 418.1,86.2" id="形状" fill="#CF5BE8" fill-rule="nonzero"></path>
                            <path d="M550.3,201.2 C558.1,202.4 565.3,206.1 572.4,209.6 C579.5,213.1 586.9,216.5 594.8,216.9 C602.7,217.3 611.3,214.1 615.1,207.2 C620.1,198.1 615.3,186.6 608.7,178.5 C595.2,162.2 562.6,144.2 540.9,154.1 C531.6,158.4 522,170.6 521.1,180.9 C519.5,199.6 537,199.2 550.3,201.2 L550.3,201.2 Z M682.8,367.4 C681,375 679.9,384.3 685.8,389.4 C689.5,392.6 695,393 699.7,391.5 C704.4,390 708.3,387 712.1,383.8 C724.6,373.2 735.8,360.4 742,345.2 C748.2,330 748.4,270.2 718.6,283.2 C695.6,293.3 687.7,346.6 682.8,367.4 Z M270.1,313 C285,298.4 305.7,291.9 324.5,282.7 C343.3,273.5 362,259.1 365.3,238.5 C367.6,224.2 361.8,209.7 354.2,197.3 C344.6,181.6 331.2,167.2 313.8,161 C296.4,154.8 274.7,158.6 263.5,173.3 M486.9,607.6 C469.3,550.3 451.4,490.8 459.5,431.4 C460.8,422.1 462.8,412.6 467.4,404.4 C472,396.2 479.8,389.3 489.1,387.7 C505.2,384.8 519.8,397.7 528.9,411.3 C546.4,437.7 553.5,469.6 556.3,501.2 C557.4,514.2 557.7,528 551.5,539.4 C540.4,559.8 512.9,565.7 499.3,584.6 M385.8,466.4 C384.2,471.3 383.4,477.3 386.8,481.2 C390.2,485.1 399.6,484.5 405.8,481.5 C412.719099,478.08071 419.143991,473.741385 424.9,468.6 C430.3,463.8 435.1,458.1 437.6,451.4 C440.1,444.7 439.9,436.6 435.8,430.7 C419.3,407.1 390.3,452.5 385.8,466.4 L385.8,466.4 Z" id="形状" fill="#CF5BE8" fill-rule="nonzero"></path>
                            <path d="M282.5,354.3 C329.7,289 423.6,262.3 498,293 C572.4,323.7 620.3,408.9 607.7,488.4 C604.9,506.4 597.8,542.5 615.7,539.3 C636.7,535.6 643.7,528.9 654.7,517 C673.2,496.9 682.8,479.4 679.3,452.3 C675.8,425.2 664.3,399.9 652.1,375.4 C632.8,336.6 610.9,298 578,269.9 C539,236.6 485.5,220.8 434.7,227.4 C383.9,234 336.3,263.2 307.2,305.4 M539.3,947.4 C477,931.8 412.5,915.1 363,874.2 C321.7,840 294.1,790.7 281.8,738.5 C269.5,686.3 271.8,631.3 283.5,579 C255.9,575.3 228.4,592.3 213.5,615.8 C198.6,639.3 194.5,668.2 194.8,696.1 C196.2,798.2 257.8,897.2 348.7,943.5 C361.1,949.8 374.4,955.3 388.4,955.6 C402.4,955.9 417.1,949.8 424,937.7 M156.8,644 C158.783801,753.909026 185.332202,861.981858 234.5,960.3 C202.8,970.6 170.6,980.9 137.3,982.3 C104,983.7 68.9,974.9 45.1,951.6 C17,924.1 9.5,882.4 5,843.4 C-0.2,799.1 -3.3,753.4 8.8,710.5 C20.9,667.6 50.8,627.3 93.4,613.9" id="形状" fill="#CF5BE8" fill-rule="nonzero"></path>
                            <g id="Clipped" stroke-width="1" fill="none" fill-rule="evenodd" transform="translate(16.000000, 80.000000)">
                                <mask id="mask-4" fill="white">
                                    <use xlink:href="#path-3"></use>
                                </mask>
                                <g id="路径"></g>
                                <polygon id="路径" mask="url(#mask-4)" points="921.2 865.2 -16.1 843.9 249.5 -72.1 991.9 -12.1 921.2 865.2"></polygon>
                            </g>
                            <g id="Clipped" stroke-width="1" fill="none" fill-rule="evenodd" transform="translate(16.000000, 80.000000)">
                                <mask id="mask-6" fill="white">
                                    <use xlink:href="#path-5"></use>
                                </mask>
                                <g id="路径"></g>
                                <g id="编组" style="mix-blend-mode: multiply;" mask="url(#mask-6)" fill="#7F7F7F" fill-rule="nonzero">
                                    <g transform="translate(48.000000, 114.000000)" id="路径">
                                        <path d="M42.4,560.9 C42.4,560.9 155.3,404.9 179.9,414.8 C79.1,532.2 153.7,600.6 202.9,615.1 C402.5,674.1 733.8,726.1 868.8,450.5 L649.8,749.9 L0.3,746.9 L42.4,560.9 Z" opacity="0.25" style="mix-blend-mode: multiply;"></path>
                                        <path d="M270,374.9 C244.5,380.7 244.999288,381 244.999288,381 C248.6,384.7 280.6,484.9 384.1,499.9 C386.552946,500.235432 388.99759,499.23097 390.506097,497.267843 C392.014605,495.304717 392.355729,492.683866 391.4,490.4 C389.1,485.1 387,477.4 385.7,466.3" opacity="0.3" style="mix-blend-mode: multiply;"></path>
                                        <path d="M660.8,215.1 C660.8,215.1 641.2,316.5 608.2,353.5 C590.140957,373.860066 565.441254,387.149003 538.5,391 C537.34334,391.153994 536.183785,390.737825 535.389029,389.883462 C534.594272,389.029098 534.262903,387.842524 534.5,386.7 C536.8,373.7 532.3,358.4 532.3,358.4 C532.3,358.4 410.6,423 418.6,474 C418.6,474 402.6,402.1 486.3,354.8 C570,307.5 556,289.5 556,289.5 L554.3,344.2 C611.1,333.1 660.8,215.1 660.8,215.1 L660.8,215.1 Z" opacity="0.25" style="mix-blend-mode: multiply;"></path>
                                        <path d="M227.3,75.4 C228.3,70.1 231.8,65.6 235.3,61.6 C263.109381,30.2274053 300.459215,8.86456479 341.6,0.8 C343.250022,0.456242757 344.917676,1.30330166 345.613313,2.83849899 C346.308949,4.37369633 345.846333,6.18603387 344.5,7.2 C332.736409,16.2459266 322.183404,26.7653231 313.1,38.5 C307,46.3 301.6,54.8 294.2,61.4 C281,73.3 263.1,78.3 245.9,83" opacity="0.25" style="mix-blend-mode: multiply;"></path>
                                    </g>
                                </g>
                            </g>
                            <g id="Clipped" stroke-width="1" fill="none" fill-rule="evenodd" transform="translate(16.000000, 80.000000)">
                                <mask id="mask-8" fill="white">
                                    <use xlink:href="#path-7"></use>
                                </mask>
                                <g id="路径"></g>
                                <g id="编组" style="mix-blend-mode: overlay;" mask="url(#mask-8)" fill-rule="nonzero" opacity="0.3">
                                    <g transform="translate(342.000000, -119.000000)" id="路径">
                                        <path d="M0.3,217 C0.3,217 151.9,70.6 378.3,224.5 C471.3,291.4 540.3,456.7 540.3,456.7 L555,427.5 L495.3,49.9 L262,0.4 L111.4,20.6 L0.3,217 Z" fill="url(#linearGradient-9)" style="mix-blend-mode: overlay;"></path>
                                        <path d="M112.2,648.5 C117,620.6 133,604 155.2,586.5 C177.4,569 202.7,555.6 225.2,538.5 C241.2,526.4 253.3,515.9 259.3,499.1 C259.528536,498.575277 260.095828,498.284976 260.655096,498.406557 C261.214365,498.528137 261.609936,499.027755 261.600183,499.6 L260.9,514.3 C260.991455,518.920956 260.656705,523.540505 259.9,528.1 C258.352095,535.066746 255.316054,541.616407 251,547.3 C226.2,581.3 176.9,587.8 147.9,618.3 C129.2,638 121.4,665.8 121.5,692.5 C121.5,696.5 124.4,708.8 118.9,707.3 C115.2,706.3 110.9,698.5 110.2,693.1 C108.1,678.3 109.6,663.2 112.2,648.5 L112.2,648.5 Z" fill="url(#linearGradient-10)" style="mix-blend-mode: overlay;"></path>
                                        <path d="M580.4,364.5 C586.3,483.4 578.8,502.2 553.2,625.8 C533.2,722.5 467,818 441.7,852.5 C482.2,832.9 501.3,821.8 528.4,785.9 C555.5,750 576.1,709.4 594,668.1 C607.7,636.5 620.1,604 626.6,570.2 C630.5,550 632.3,529.3 630.8,508.8 C629.3,488.3 624,466.4 618.8,445.5 L605.9,393.6" fill="url(#linearGradient-11)" style="mix-blend-mode: overlay;"></path>
                                        <path d="M354.4,445.1 C356.9,441.9 360.7,438.4 364.4,440.1 C367.8,452.4 361.9,465.2 356.1,476.5 C345.5,497 334.5,517.8 318.2,534.1 C309.055639,543.219632 298.77035,551.118465 287.6,557.6 C285.4,558.9 264.3,573.7 262.2,569 C261.1,566.4 283.4,548.3 285.2,546.1 C303,525.3 319.6,508.7 333.7,486.8 C341.7,474.5 345.3,456.9 354.4,445.1 L354.4,445.1 Z" fill="url(#linearGradient-12)" style="mix-blend-mode: overlay;"></path>
                                    </g>
                                </g>
                            </g>
                        </g>
                    </g>
                </g>
            </g>
            <g id="tail" transform="translate(116.000000, 0.000000)" stroke="#31323D" stroke-linecap="round" stroke-width="12.5">
                <g id="编组">
                    <path d="M781.2,308.6 C749.9,209.9 690.2,111.2 612.5,52.5 C610.7,51.2 607.9,49.3 604.2,46.9 C442.9,-54 229.5,15.1 157.1,191.1 L150.4,207.1 C191.1,175.3 246.7,155.3 246.7,155.3 C246.7,155.3 226.8,182.5 211.6,202.9 C164.5,265.9 133.6,352.4 157.5,431.8 C178.1,500.5 286.2,563.4 343.8,590.6 C347.9,592.6 352.3,589 350.4,584.9 C340.7,563.5 356.7,524.6 369.4,506.9 C385.3,484.6 411.6,472.7 435.6,459.5 C459.6,446.3 484.2,428.6 491.3,402.2 L486.3,459.9 C524.2,441.3 555.6,410.2 575.6,373 C584.179548,357.074839 590.538585,340.050116 594.5,322.4" id="路径" stroke-linejoin="round"></path>
                    <path d="M0.6,646.8 C0.6,646.8 86.5,522.6 207.8,502.9" id="路径"></path>
                    <path d="M150.4,822.4 C202,837.9 267.5,849 349.5,849 C592,849 762.6,690 798.6,519.1 C801.4,505.7 804.3,492.3 807.4,479 C818.9,429.3 842,305.7 807.8,233 C807.8,233 803,268.4 769.9,330.8" id="路径" stroke-linejoin="round"></path>
                </g>
            </g>
        </g>
    </g>
</svg>