<svg width="1174" height="925" viewBox="0 0 1174 925" fill="none" xmlns="http://www.w3.org/2000/svg">
<mask id="mask0" mask-type="alpha" maskUnits="userSpaceOnUse" x="7" y="5" width="1161" height="913">
<path fill-rule="evenodd" clip-rule="evenodd" d="M7.60474 570.717C98.165 607.677 220.75 619.873 220.75 619.873C220.75 619.873 676.307 675.313 743.899 316.804C769.492 117.344 511.461 76.0726 511.461 76.0726C511.461 76.0726 631.946 30.8585 675.126 67.4486C675.126 67.4486 650.845 30.1193 614.359 27.1625C614.359 27.1625 769.492 -71.2735 894.308 153.565C894.308 153.565 878.165 38.9896 828.029 16.0746C828.029 16.0746 1015.06 56.2375 1048 313.6C1048 313.6 1082.52 262.35 1078.71 219.476C1078.71 219.476 1167.83 342.429 1069.13 483.985C1069.13 483.985 1146.43 414.624 1152.73 377.418C1152.73 377.418 1249.72 638.723 953.894 678.146C953.894 678.146 1034.22 706.359 1087.5 682.212C1087.5 682.212 1036.19 787.301 869.765 773.749C869.765 773.749 950.744 825.616 1000.09 815.021C1000.09 815.021 877.771 873.787 670.27 831.283C670.27 831.283 740.618 892.267 792.592 893.499L778.811 896.702C628.57 929.594 471.555 922.728 325.222 876.867L127.039 814.774L7.73598 769.067V570.717H7.60474Z" fill="white"/>
</mask>
<g mask="url(#mask0)">
<path d="M-43.0574 -72.0128H1189.35V923.941H-43.0574V-72.0128Z" fill="#F4A792"/>
</g>
<mask id="mask1" mask-type="alpha" maskUnits="userSpaceOnUse" x="7" y="5" width="1161" height="913">
<path fill-rule="evenodd" clip-rule="evenodd" d="M7.60474 570.717C98.165 607.677 220.75 619.873 220.75 619.873C220.75 619.873 676.307 675.313 743.899 316.804C769.492 117.344 511.461 76.0726 511.461 76.0726C511.461 76.0726 631.946 30.8585 675.126 67.4486C675.126 67.4486 650.845 30.1193 614.359 27.1625C614.359 27.1625 769.492 -71.2735 894.308 153.565C894.308 153.565 878.165 38.9896 828.029 16.0746C828.029 16.0746 1015.06 56.2375 1048 313.6C1048 313.6 1082.52 262.35 1078.71 219.476C1078.71 219.476 1167.83 342.429 1069.13 483.985C1069.13 483.985 1146.43 414.624 1152.73 377.418C1152.73 377.418 1249.72 638.723 953.894 678.146C953.894 678.146 1034.22 706.359 1087.5 682.212C1087.5 682.212 1036.19 787.301 869.765 773.749C869.765 773.749 950.744 825.616 1000.09 815.021C1000.09 815.021 877.771 873.787 670.27 831.283C670.27 831.283 740.618 892.267 792.592 893.499L778.811 896.702C628.57 929.594 471.555 922.728 325.222 876.867L127.039 814.774L7.73598 769.067V570.717H7.60474Z" fill="white"/>
</mask>
<g mask="url(#mask1)">
<g style="mix-blend-mode:overlay" opacity="0.5">
<path d="M625.777 6.09535C734.581 44.6567 825.01 126.831 869.634 227.607C879.609 178.574 879.346 126.954 863.072 79.3989C846.797 31.844 813.46 -11.3989 767.262 -36.2852C721.063 -61.1714 662.001 -66.2226 613.965 -44.6627" fill="url(#paint0_linear)"/>
</g>
<g style="mix-blend-mode:overlay" opacity="0.5">
<path d="M846.272 21.1257C959.276 115.003 1010.99 269.249 975.813 406.985C1040.78 350.314 1067.55 260.871 1054.17 178.574C1040.78 96.2772 990.513 21.6185 924.101 -33.5747" fill="url(#paint1_linear)"/>
</g>
<g style="mix-blend-mode:overlay" opacity="0.5">
<path d="M1076.35 233.644C1086.58 341.566 1055.35 452.569 989.725 541.765C1073.59 516.386 1131.47 438.278 1144.6 356.474C1157.72 274.669 1131.86 190.894 1089.6 118.33" fill="url(#paint2_linear)"/>
</g>
<g style="mix-blend-mode:multiply" opacity="0.25">
<path d="M138.064 553.099C155.388 633.918 192.662 701.554 257.105 737.652C426.151 832.268 607.403 884.628 803.618 899.289C804.537 950.293 770.412 997.725 725.657 1026.8C680.902 1055.87 626.828 1069.06 573.279 1077.93C317.741 1119.94 45.4031 1069.18 -171.548 935.509C-245.178 890.172 -315.264 831.899 -343.613 753.667C-370.913 678.146 -353.194 589.689 -298.464 528.706C-243.734 467.722 -153.961 436.183 -69.9631 448.75" fill="url(#paint3_linear)"/>
</g>
<g style="mix-blend-mode:multiply" opacity="0.25">
<path d="M1071.36 688.988C978.044 735.804 863.203 743.319 763.981 709.069C776.187 734.202 799.68 753.298 825.535 766.234C851.391 779.17 880.134 786.685 908.483 793.83C946.151 803.317 984.607 812.434 1023.59 810.709C1062.57 808.984 1102.73 794.693 1125.83 765.248C1148.93 735.804 1149.85 689.974 1121.23 665.087" fill="url(#paint4_linear)"/>
</g>
<g style="mix-blend-mode:multiply" opacity="0.25">
<path d="M965.314 815.144C844.698 828.942 719.094 800.483 618.559 736.543C628.796 792.475 675.52 837.32 728.019 865.409C796.53 902.122 880.528 916.29 956.127 895.1C974.37 889.926 994.189 880.563 998.52 863.192" fill="url(#paint5_linear)"/>
</g>
</g>
<path fill-rule="evenodd" clip-rule="evenodd" d="M6.91138 571.605C97.4813 608.566 220.079 620.764 220.079 620.764C220.079 620.764 675.685 676.206 743.284 317.68C768.88 118.212 510.821 76.9383 510.821 76.9383C510.821 76.9383 631.319 31.7222 674.503 68.314C674.503 68.314 650.22 30.983 613.73 28.026C613.73 28.026 768.88 -70.4145 893.709 154.434C893.709 154.434 877.564 39.8537 827.422 16.9376C827.422 16.9376 1014.47 57.1023 1047.42 314.477C1047.42 314.477 1081.94 263.224 1078.13 220.349C1078.13 220.349 1167.26 343.307 1068.55 484.869C1068.55 484.869 1145.86 415.505 1152.16 378.297C1152.16 378.297 1249.16 639.614 953.301 679.04C953.301 679.04 1033.63 707.253 1086.92 683.105C1086.92 683.105 1035.6 788.199 869.163 774.646C869.163 774.646 950.151 826.515 999.505 815.92C999.505 815.92 877.17 874.689 669.647 832.183C669.647 832.183 740.003 893.169 791.982 894.401L778.199 897.605C627.943 930.498 470.91 923.632 324.562 877.769L126.359 815.673L7.04264 769.965V571.605H6.91138Z" stroke="#31323D" stroke-width="12.5" stroke-linecap="round" stroke-linejoin="round"/>
<defs>
<linearGradient id="paint0_linear" x1="876.387" y1="227.669" x2="876.387" y2="-58.2516" gradientUnits="userSpaceOnUse">
<stop stop-color="white" stop-opacity="0.01"/>
<stop offset="0.72" stop-color="white"/>
</linearGradient>
<linearGradient id="paint1_linear" x1="1057.48" y1="407.01" x2="1057.48" y2="-33.5747" gradientUnits="userSpaceOnUse">
<stop stop-color="white" stop-opacity="0.01"/>
<stop offset="0.72" stop-color="white"/>
</linearGradient>
<linearGradient id="paint2_linear" x1="1148.09" y1="541.728" x2="1148.09" y2="118.404" gradientUnits="userSpaceOnUse">
<stop stop-color="white" stop-opacity="0.01"/>
<stop offset="0.72" stop-color="white"/>
</linearGradient>
<linearGradient id="paint3_linear" x1="-356.397" y1="1092.27" x2="803.618" y2="1092.27" gradientUnits="userSpaceOnUse">
<stop stop-color="#808080"/>
<stop offset="0.27" stop-color="#7D7D7D"/>
<stop offset="0.46" stop-color="#747474"/>
<stop offset="0.64" stop-color="#646464"/>
<stop offset="0.8" stop-color="#4D4D4D"/>
<stop offset="0.95" stop-color="#303030"/>
<stop offset="1" stop-color="#242424"/>
</linearGradient>
<linearGradient id="paint4_linear" x1="763.928" y1="810.9" x2="1143.02" y2="810.9" gradientUnits="userSpaceOnUse">
<stop stop-color="#808080"/>
<stop offset="0.27" stop-color="#7D7D7D"/>
<stop offset="0.46" stop-color="#747474"/>
<stop offset="0.64" stop-color="#646464"/>
<stop offset="0.8" stop-color="#4D4D4D"/>
<stop offset="0.95" stop-color="#303030"/>
<stop offset="1" stop-color="#242424"/>
</linearGradient>
<linearGradient id="paint5_linear" x1="618.585" y1="904.97" x2="998.507" y2="904.97" gradientUnits="userSpaceOnUse">
<stop stop-color="#808080"/>
<stop offset="0.27" stop-color="#7D7D7D"/>
<stop offset="0.46" stop-color="#747474"/>
<stop offset="0.64" stop-color="#646464"/>
<stop offset="0.8" stop-color="#4D4D4D"/>
<stop offset="0.95" stop-color="#303030"/>
<stop offset="1" stop-color="#242424"/>
</linearGradient>
</defs>
</svg>
