<svg width="636" height="1169" viewBox="0 0 636 1169" fill="none" xmlns="http://www.w3.org/2000/svg">
<path d="M0 474.995L636 635.074V646.495L0 486.416V474.995Z" fill="black"/>
<path d="M0 997.49L636 1157.57V1168.99L0 1008.91V997.49Z" fill="black"/>
<path d="M0 427.496L636 587.575V598.995L0 438.916V427.496Z" fill="black"/>
<path d="M0 949.99L636 1110.07V1121.49L0 961.411V949.99Z" fill="black"/>
<path d="M0 379.996L636 540.075V551.496L0 391.417V379.996Z" fill="black"/>
<path d="M0 902.491L636 1062.57V1073.99L0 913.911V902.491Z" fill="black"/>
<path d="M0 332.497L636 492.576V503.996L0 343.917V332.497Z" fill="black"/>
<path d="M0 854.991L636 1015.07V1026.49L0 866.412V854.991Z" fill="black"/>
<path d="M0 284.997L636 445.076V456.497L0 296.418V284.997Z" fill="black"/>
<path d="M0 807.492L636 967.571V978.991L0 818.912V807.492Z" fill="black"/>
<path d="M0 237.498L636 397.577V408.997L0 248.918V237.498Z" fill="black"/>
<path d="M0 759.992L636 920.071V931.492L0 771.413V759.992Z" fill="black"/>
<path d="M0 189.998L636 350.077V361.498L0 201.419V189.998Z" fill="black"/>
<path d="M0 712.493L636 872.572V883.992L0 723.913V712.493Z" fill="black"/>
<path d="M0 142.499L636 302.578V313.998L0 153.919V142.499Z" fill="black"/>
<path d="M0 664.993L636 825.072V836.493L0 676.414V664.993Z" fill="black"/>
<path d="M0 94.999L636 255.078V266.499L0 106.42V94.999Z" fill="black"/>
<path d="M0 617.494L636 777.573V788.993L0 628.914V617.494Z" fill="black"/>
<path d="M0 47.4995L636 207.579V218.999L0 58.92V47.4995Z" fill="black"/>
<path d="M0 569.994L636 730.073V741.494L0 581.415V569.994Z" fill="black"/>
<path d="M0 0L636 160.079V171.5L0 11.4205V0Z" fill="black"/>
<path d="M0 522.495L636 682.574V693.994L0 533.915V522.495Z" fill="black"/>
</svg>
