<svg width="559" height="743" viewBox="0 0 559 743" fill="none" xmlns="http://www.w3.org/2000/svg">
<path d="M36.3923 4.6176C42.6351 1.9421 49.5673 1.32234 56.1858 2.84802L508 107L523 114.5L511.514 112.916C500.029 111.332 488.33 112.711 477.527 116.922V116.922C469.076 120.216 461.939 126.191 457.209 133.931L456.323 135.381C450.88 144.287 448 154.523 448 164.961V691.377C448 697.687 449.619 703.891 452.702 709.396V709.396C458.677 720.067 468.475 728.077 480.121 731.812L488.5 734.5L489.265 734.735C493.067 735.905 497.022 736.5 501 736.5V736.5V742.5V742.5C491.346 741.501 481.776 739.81 472.365 737.438L50 631L36.5899 627.284C19.211 622.468 5.72763 608.737 1.22937 591.273V591.273C0.413054 588.104 0 584.844 0 581.571L0 57.4882C0 47.6357 2.3288 37.9227 6.79648 29.1414V29.1414C11.7738 19.3584 20.0259 11.6318 30.1148 7.30793L36.3923 4.6176Z" fill="#C4C4C4"/>
<rect x="467" y="130" width="68" height="588" rx="34" stroke="black" stroke-width="14"/>
<path d="M493.5 109L503.677 109.657C507.219 109.885 510.735 110.419 514.186 111.252L514.953 111.437C520.617 112.804 526.036 115.037 531.02 118.057L532.395 118.891C537.422 121.938 541.846 125.882 545.447 130.529V130.529C551.964 138.937 555.5 149.273 555.5 159.911V685.514C555.5 695.948 552.484 706.161 546.815 714.922L544.542 718.435C540.894 724.073 536.025 728.818 530.295 732.319V732.319C524.188 736.052 517.274 738.266 510.134 738.776L500 739.5" stroke="#C4C4C4" stroke-width="6"/>
</svg>
